<?xml version="1.0" encoding="utf-8"?>
<!-- Generator: Adobe Illustrator 27.5.0, SVG Export Plug-In . SVG Version: 6.00 Build 0)  -->
<svg version="1.1" xmlns="http://www.w3.org/2000/svg" xmlns:xlink="http://www.w3.org/1999/xlink" x="0px" y="0px"
	 viewBox="0 0 500 500" style="enable-background:new 0 0 500 500;" xml:space="preserve">
<g id="Background_Complete">
	<g>
		<rect y="382.398" style="fill:#EBEBEB;" width="500" height="0.25"/>
		<rect x="416.779" y="398.494" style="fill:#EBEBEB;" width="33.122" height="0.25"/>
		<rect x="322.527" y="401.208" style="fill:#EBEBEB;" width="8.693" height="0.25"/>
		<rect x="396.586" y="389.208" style="fill:#EBEBEB;" width="19.192" height="0.25"/>
		<rect x="52.459" y="390.888" style="fill:#EBEBEB;" width="43.193" height="0.25"/>
		<rect x="104.556" y="390.888" style="fill:#EBEBEB;" width="6.333" height="0.25"/>
		<rect x="131.471" y="395.111" style="fill:#EBEBEB;" width="93.676" height="0.25"/>
		<path style="fill:#EBEBEB;" d="M237.014,337.8H43.915c-3.147,0-5.708-2.561-5.708-5.708V60.66c0-3.147,2.561-5.708,5.708-5.708
			h193.099c3.146,0,5.707,2.561,5.707,5.708v271.432C242.721,335.239,240.16,337.8,237.014,337.8z M43.915,55.203
			c-3.01,0-5.458,2.448-5.458,5.458v271.432c0,3.01,2.448,5.458,5.458,5.458h193.099c3.009,0,5.457-2.448,5.457-5.458V60.66
			c0-3.009-2.448-5.458-5.457-5.458H43.915z"/>
		<path style="fill:#EBEBEB;" d="M453.31,337.8H260.212c-3.147,0-5.707-2.561-5.707-5.708V60.66c0-3.147,2.561-5.708,5.707-5.708
			H453.31c3.148,0,5.708,2.561,5.708,5.708v271.432C459.019,335.239,456.458,337.8,453.31,337.8z M260.212,55.203
			c-3.009,0-5.457,2.448-5.457,5.458v271.432c0,3.01,2.448,5.458,5.457,5.458H453.31c3.01,0,5.458-2.448,5.458-5.458V60.66
			c0-3.009-2.448-5.458-5.458-5.458H260.212z"/>
	</g>
	<g>
		<path style="fill:#F0F0F0;" d="M384.094,194.831c0-2.904,2.355-5.259,5.259-5.259c0.525,0,1.032,0.079,1.51,0.223
			c-0.077-0.527-0.118-1.066-0.118-1.615c0-6.15,4.986-11.136,11.136-11.136c0.701,0,1.386,0.068,2.051,0.192
			c1.711-2.801,4.788-4.678,8.311-4.678c5.332,0,9.658,4.285,9.737,9.598c0.054-0.001,0.108-0.008,0.162-0.008
			c4.954,0,8.971,4.016,8.971,8.971c0,4.954-4.016,8.971-8.971,8.971l-32.945,0l0.007-0.007
			C386.369,200.004,384.094,197.686,384.094,194.831z"/>
		<path style="fill:#F0F0F0;" d="M89.45,171.081c0-2.904,2.355-5.259,5.259-5.259c0.525,0,1.032,0.079,1.51,0.223
			c-0.077-0.527-0.118-1.066-0.118-1.614c0-6.15,4.986-11.136,11.136-11.136c0.701,0,1.386,0.068,2.051,0.192
			c1.712-2.801,4.788-4.678,8.312-4.678c5.332,0,9.658,4.285,9.737,9.598c0.054-0.001,0.107-0.008,0.162-0.008
			c4.954,0,8.971,4.016,8.971,8.971c0,4.954-4.016,8.971-8.971,8.971l-32.945,0l0.007-0.008
			C91.726,176.253,89.45,173.936,89.45,171.081z"/>
		<path style="fill:#F0F0F0;" d="M224.688,94.976h-19.175c0.051-0.46,0.082-0.925,0.082-1.399c0-6.971-5.651-12.621-12.622-12.621
			c-0.155,0-0.306,0.018-0.459,0.023c-1.582-4.244-5.659-7.273-10.455-7.273c-6.167,0-11.166,4.999-11.166,11.166
			c0,0.009,0.001,0.017,0.001,0.025c-5.468,0.255-9.849,4.618-10.133,10.078h-0.507c-3.086,0-5.611,2.525-5.611,5.611
			c0,3.086,2.525,5.611,5.611,5.611h64.434c3.086,0,5.611-2.525,5.611-5.611C230.3,97.501,227.775,94.976,224.688,94.976z"/>
		<path style="fill:#F0F0F0;" d="M366.716,102.988c-2.996-4.78-8.296-7.97-14.354-7.97c-6.158,0-11.533,3.296-14.5,8.21
			c-0.779-0.218-1.597-0.343-2.445-0.343c-5.013,0-9.078,4.064-9.078,9.078c0,0.004,0.001,0.008,0.001,0.012h-4.786
			c-2.493,0-4.533,2.04-4.533,4.533c0,2.493,2.04,4.533,4.533,4.533h16.516c3.007,4.724,8.277,7.867,14.292,7.867
			c4.743,0,9.025-1.954,12.101-5.094c0.286,0.023,0.573,0.044,0.865,0.044c5.791,0,10.486-4.695,10.486-10.486
			C375.814,108.052,371.85,103.669,366.716,102.988z"/>
		<path style="fill:#F0F0F0;" d="M265.824,167.099c-2.996-4.78-8.296-7.97-14.354-7.97c-6.158,0-11.533,3.296-14.5,8.21
			c-0.779-0.218-1.597-0.343-2.445-0.343c-5.013,0-9.078,4.064-9.078,9.078c0,0.004,0.001,0.008,0.001,0.012h-4.786
			c-2.493,0-4.533,2.04-4.533,4.533c0,2.493,2.04,4.533,4.533,4.533h16.516c3.007,4.724,8.277,7.867,14.292,7.867
			c4.743,0,9.025-1.954,12.101-5.094c0.286,0.023,0.573,0.044,0.865,0.044c5.791,0,10.486-4.695,10.486-10.486
			C274.922,172.163,270.958,167.779,265.824,167.099z"/>
		<g>
			<polygon style="fill:#E6E6E6;" points="56.438,382.25 56.438,334.453 60.525,334.453 60.525,311.68 66.499,311.68 
				66.499,232.498 75.135,232.498 75.135,222.281 93.574,213.682 93.574,203.38 96.128,203.38 96.128,232.498 99.704,232.498 
				99.704,311.68 103.28,311.68 103.28,270.046 112.986,270.046 112.986,248.59 115.695,248.59 115.695,311.68 123.067,311.68 
				123.067,287.67 127.92,287.67 127.92,281.54 139.158,281.54 139.158,260.595 145.313,260.595 145.313,245.78 152.879,245.78 
				152.879,224.197 155.578,224.197 155.578,245.78 163.144,245.78 163.144,260.595 169.299,260.595 169.299,281.54 180.537,281.54 
				180.537,287.67 185.391,287.67 185.391,311.68 191.146,311.68 191.146,281.54 202.385,281.54 202.385,216.662 205.961,216.662 
				205.961,209.51 229.971,209.51 229.971,216.662 235.079,216.662 235.079,263.66 255.514,263.66 255.514,268.258 263.176,268.258 
				263.176,271.834 255.514,271.834 255.514,290.224 276.969,290.224 276.969,228.922 281.567,228.922 281.567,215.895 
				291.529,215.895 291.529,169.663 294.338,169.663 294.338,215.895 301.49,215.895 301.49,228.922 343.419,228.922 
				343.419,224.635 345.973,224.635 345.973,253.753 349.549,253.753 349.549,254.264 351.697,254.264 351.697,283.382 
				355.273,283.382 355.273,291.3 362.831,291.3 362.831,269.845 365.54,269.845 365.54,320.93 368.555,320.93 368.555,299.474 
				371.264,299.474 371.264,332.935 372.911,332.935 372.911,308.925 377.765,308.925 377.765,302.795 389.003,302.795 
				389.003,281.85 395.158,281.85 395.158,267.035 402.723,267.035 402.723,245.452 405.423,245.452 405.423,267.035 
				412.989,267.035 412.989,281.85 419.143,281.85 419.143,302.795 430.382,302.795 430.382,308.925 435.235,308.925 
				435.235,332.424 436.106,332.424 436.106,332.935 438.509,332.935 438.509,382.25 			"/>
			<g>
				<rect x="317.129" y="231.787" style="fill:#F0F0F0;" width="2.895" height="2.895"/>
				<rect x="317.129" y="236.64" style="fill:#F0F0F0;" width="2.895" height="2.895"/>
				<rect x="317.129" y="256.052" style="fill:#F0F0F0;" width="2.895" height="2.895"/>
				<rect x="317.129" y="260.905" style="fill:#F0F0F0;" width="2.895" height="2.895"/>
				<rect x="317.129" y="265.758" style="fill:#F0F0F0;" width="2.895" height="2.895"/>
				<rect x="317.129" y="280.318" style="fill:#F0F0F0;" width="2.895" height="2.895"/>
				<rect x="317.129" y="285.171" style="fill:#F0F0F0;" width="2.895" height="2.895"/>
				<rect x="312.532" y="251.199" style="fill:#F0F0F0;" width="2.895" height="2.895"/>
				<rect x="312.532" y="256.052" style="fill:#F0F0F0;" width="2.895" height="2.895"/>
				<rect x="312.532" y="260.905" style="fill:#F0F0F0;" width="2.895" height="2.895"/>
				<rect x="312.532" y="265.758" style="fill:#F0F0F0;" width="2.895" height="2.895"/>
				<rect x="312.532" y="270.611" style="fill:#F0F0F0;" width="2.895" height="2.895"/>
				<rect x="312.532" y="280.318" style="fill:#F0F0F0;" width="2.895" height="2.895"/>
				<rect x="312.532" y="285.171" style="fill:#F0F0F0;" width="2.895" height="2.895"/>
				<rect x="307.934" y="231.787" style="fill:#F0F0F0;" width="2.895" height="2.895"/>
				<rect x="307.934" y="236.64" style="fill:#F0F0F0;" width="2.895" height="2.895"/>
				<rect x="307.934" y="241.493" style="fill:#F0F0F0;" width="2.895" height="2.895"/>
				<rect x="307.934" y="246.346" style="fill:#F0F0F0;" width="2.895" height="2.895"/>
				<rect x="307.934" y="251.199" style="fill:#F0F0F0;" width="2.895" height="2.895"/>
				<rect x="307.934" y="256.052" style="fill:#F0F0F0;" width="2.895" height="2.895"/>
				<rect x="307.934" y="260.905" style="fill:#F0F0F0;" width="2.895" height="2.895"/>
				<rect x="307.934" y="265.758" style="fill:#F0F0F0;" width="2.895" height="2.895"/>
				<rect x="307.934" y="270.611" style="fill:#F0F0F0;" width="2.895" height="2.895"/>
				<rect x="307.934" y="275.465" style="fill:#F0F0F0;" width="2.895" height="2.895"/>
				<rect x="307.934" y="285.171" style="fill:#F0F0F0;" width="2.895" height="2.895"/>
				<rect x="303.336" y="231.787" style="fill:#F0F0F0;" width="2.895" height="2.895"/>
				<rect x="303.336" y="236.64" style="fill:#F0F0F0;" width="2.895" height="2.895"/>
				<rect x="303.336" y="241.493" style="fill:#F0F0F0;" width="2.895" height="2.895"/>
				<rect x="303.336" y="246.346" style="fill:#F0F0F0;" width="2.895" height="2.895"/>
				<rect x="303.336" y="251.199" style="fill:#F0F0F0;" width="2.895" height="2.895"/>
				<rect x="303.336" y="256.052" style="fill:#F0F0F0;" width="2.895" height="2.895"/>
				<rect x="303.336" y="260.905" style="fill:#F0F0F0;" width="2.895" height="2.895"/>
				<rect x="303.336" y="304.583" style="fill:#F0F0F0;" width="2.895" height="2.895"/>
				<rect x="298.739" y="231.787" style="fill:#F0F0F0;" width="2.895" height="2.895"/>
				<rect x="298.739" y="236.64" style="fill:#F0F0F0;" width="2.895" height="2.895"/>
				<rect x="298.739" y="241.493" style="fill:#F0F0F0;" width="2.895" height="2.895"/>
				<rect x="298.739" y="246.346" style="fill:#F0F0F0;" width="2.895" height="2.895"/>
				<rect x="298.739" y="251.199" style="fill:#F0F0F0;" width="2.895" height="2.895"/>
				<rect x="298.739" y="256.052" style="fill:#F0F0F0;" width="2.895" height="2.895"/>
				<rect x="298.739" y="260.905" style="fill:#F0F0F0;" width="2.895" height="2.895"/>
				<rect x="298.739" y="265.758" style="fill:#F0F0F0;" width="2.895" height="2.895"/>
				<rect x="298.739" y="294.877" style="fill:#F0F0F0;" width="2.895" height="2.895"/>
				<rect x="298.739" y="299.73" style="fill:#F0F0F0;" width="2.895" height="2.895"/>
				<rect x="298.739" y="304.583" style="fill:#F0F0F0;" width="2.895" height="2.895"/>
				<rect x="298.739" y="309.436" style="fill:#F0F0F0;" width="2.895" height="2.895"/>
				<rect x="298.739" y="328.849" style="fill:#F0F0F0;" width="2.895" height="2.895"/>
				<rect x="294.141" y="231.787" style="fill:#F0F0F0;" width="2.895" height="2.895"/>
				<rect x="294.141" y="236.64" style="fill:#F0F0F0;" width="2.895" height="2.895"/>
				<rect x="294.141" y="241.493" style="fill:#F0F0F0;" width="2.895" height="2.895"/>
				<rect x="294.141" y="246.346" style="fill:#F0F0F0;" width="2.895" height="2.895"/>
				<rect x="294.141" y="251.199" style="fill:#F0F0F0;" width="2.895" height="2.895"/>
				<rect x="294.141" y="256.052" style="fill:#F0F0F0;" width="2.895" height="2.895"/>
				<rect x="294.141" y="260.905" style="fill:#F0F0F0;" width="2.895" height="2.895"/>
				<rect x="294.141" y="265.758" style="fill:#F0F0F0;" width="2.895" height="2.895"/>
				<rect x="294.141" y="270.611" style="fill:#F0F0F0;" width="2.895" height="2.895"/>
				<rect x="294.141" y="275.465" style="fill:#F0F0F0;" width="2.895" height="2.895"/>
				<rect x="294.141" y="290.024" style="fill:#F0F0F0;" width="2.895" height="2.895"/>
				<rect x="294.141" y="294.877" style="fill:#F0F0F0;" width="2.895" height="2.895"/>
				<rect x="294.141" y="299.73" style="fill:#F0F0F0;" width="2.895" height="2.895"/>
				<rect x="294.141" y="304.583" style="fill:#F0F0F0;" width="2.895" height="2.895"/>
				<rect x="294.141" y="309.436" style="fill:#F0F0F0;" width="2.895" height="2.895"/>
				<rect x="294.141" y="328.849" style="fill:#F0F0F0;" width="2.895" height="2.895"/>
				<rect x="289.543" y="231.787" style="fill:#F0F0F0;" width="2.895" height="2.895"/>
				<rect x="289.543" y="236.64" style="fill:#F0F0F0;" width="2.895" height="2.895"/>
				<rect x="289.543" y="241.493" style="fill:#F0F0F0;" width="2.895" height="2.895"/>
				<rect x="289.543" y="246.346" style="fill:#F0F0F0;" width="2.895" height="2.895"/>
				<rect x="289.543" y="251.199" style="fill:#F0F0F0;" width="2.895" height="2.895"/>
				<rect x="289.543" y="256.052" style="fill:#F0F0F0;" width="2.895" height="2.895"/>
				<rect x="289.543" y="260.905" style="fill:#F0F0F0;" width="2.895" height="2.895"/>
				<rect x="289.543" y="265.758" style="fill:#F0F0F0;" width="2.895" height="2.895"/>
				<rect x="289.543" y="270.611" style="fill:#F0F0F0;" width="2.895" height="2.895"/>
				<rect x="289.543" y="275.465" style="fill:#F0F0F0;" width="2.895" height="2.895"/>
				<rect x="289.543" y="280.318" style="fill:#F0F0F0;" width="2.895" height="2.895"/>
				<rect x="289.543" y="285.171" style="fill:#F0F0F0;" width="2.895" height="2.895"/>
				<rect x="289.543" y="290.024" style="fill:#F0F0F0;" width="2.895" height="2.895"/>
				<rect x="289.543" y="294.877" style="fill:#F0F0F0;" width="2.895" height="2.895"/>
				<rect x="289.543" y="299.73" style="fill:#F0F0F0;" width="2.895" height="2.895"/>
				<rect x="289.543" y="304.583" style="fill:#F0F0F0;" width="2.895" height="2.895"/>
				<rect x="289.543" y="309.436" style="fill:#F0F0F0;" width="2.895" height="2.895"/>
				<rect x="289.543" y="314.289" style="fill:#F0F0F0;" width="2.895" height="2.895"/>
				<rect x="284.946" y="231.787" style="fill:#F0F0F0;" width="2.895" height="2.895"/>
				<rect x="284.946" y="236.64" style="fill:#F0F0F0;" width="2.895" height="2.895"/>
				<rect x="284.946" y="241.493" style="fill:#F0F0F0;" width="2.895" height="2.895"/>
				<rect x="284.946" y="246.346" style="fill:#F0F0F0;" width="2.895" height="2.895"/>
				<rect x="284.946" y="251.199" style="fill:#F0F0F0;" width="2.895" height="2.895"/>
				<rect x="284.946" y="256.052" style="fill:#F0F0F0;" width="2.895" height="2.895"/>
				<rect x="284.946" y="260.905" style="fill:#F0F0F0;" width="2.895" height="2.895"/>
				<rect x="284.946" y="265.758" style="fill:#F0F0F0;" width="2.895" height="2.895"/>
				<rect x="284.946" y="270.611" style="fill:#F0F0F0;" width="2.895" height="2.895"/>
				<rect x="284.946" y="275.465" style="fill:#F0F0F0;" width="2.895" height="2.895"/>
				<rect x="284.946" y="290.024" style="fill:#F0F0F0;" width="2.895" height="2.895"/>
				<rect x="284.946" y="294.877" style="fill:#F0F0F0;" width="2.895" height="2.895"/>
				<rect x="284.946" y="299.73" style="fill:#F0F0F0;" width="2.895" height="2.895"/>
				<rect x="284.946" y="304.583" style="fill:#F0F0F0;" width="2.895" height="2.895"/>
				<rect x="280.348" y="231.787" style="fill:#F0F0F0;" width="2.895" height="2.895"/>
				<rect x="280.348" y="236.64" style="fill:#F0F0F0;" width="2.895" height="2.895"/>
				<rect x="280.348" y="241.493" style="fill:#F0F0F0;" width="2.895" height="2.895"/>
				<rect x="280.348" y="246.346" style="fill:#F0F0F0;" width="2.895" height="2.895"/>
				<rect x="280.348" y="251.199" style="fill:#F0F0F0;" width="2.895" height="2.895"/>
				<rect x="280.348" y="256.052" style="fill:#F0F0F0;" width="2.895" height="2.895"/>
				<rect x="280.348" y="260.905" style="fill:#F0F0F0;" width="2.895" height="2.895"/>
				<rect x="280.348" y="265.758" style="fill:#F0F0F0;" width="2.895" height="2.895"/>
				<rect x="280.348" y="270.611" style="fill:#F0F0F0;" width="2.895" height="2.895"/>
				<rect x="280.348" y="275.465" style="fill:#F0F0F0;" width="2.895" height="2.895"/>
				<rect x="280.348" y="290.024" style="fill:#F0F0F0;" width="2.895" height="2.895"/>
				<rect x="280.348" y="294.877" style="fill:#F0F0F0;" width="2.895" height="2.895"/>
				<rect x="280.348" y="299.73" style="fill:#F0F0F0;" width="2.895" height="2.895"/>
				<rect x="228.582" y="219.186" style="fill:#F0F0F0;" width="2.895" height="2.895"/>
				<rect x="228.582" y="224.039" style="fill:#F0F0F0;" width="2.895" height="2.895"/>
				<rect x="228.582" y="228.892" style="fill:#F0F0F0;" width="2.895" height="2.895"/>
				<rect x="228.582" y="233.745" style="fill:#F0F0F0;" width="2.895" height="2.895"/>
				<rect x="228.582" y="238.598" style="fill:#F0F0F0;" width="2.895" height="2.895"/>
				<rect x="228.582" y="243.451" style="fill:#F0F0F0;" width="2.895" height="2.895"/>
				<rect x="228.582" y="248.305" style="fill:#F0F0F0;" width="2.895" height="2.895"/>
				<rect x="228.582" y="253.157" style="fill:#F0F0F0;" width="2.895" height="2.895"/>
				<rect x="228.582" y="267.717" style="fill:#F0F0F0;" width="2.895" height="2.895"/>
				<rect x="228.582" y="272.57" style="fill:#F0F0F0;" width="2.895" height="2.895"/>
				<rect x="223.984" y="219.186" style="fill:#F0F0F0;" width="2.895" height="2.895"/>
				<rect x="223.984" y="224.039" style="fill:#F0F0F0;" width="2.895" height="2.895"/>
				<rect x="223.984" y="228.892" style="fill:#F0F0F0;" width="2.895" height="2.895"/>
				<rect x="223.984" y="233.745" style="fill:#F0F0F0;" width="2.895" height="2.895"/>
				<rect x="223.984" y="238.598" style="fill:#F0F0F0;" width="2.895" height="2.895"/>
				<rect x="223.984" y="243.451" style="fill:#F0F0F0;" width="2.895" height="2.895"/>
				<rect x="223.984" y="248.305" style="fill:#F0F0F0;" width="2.895" height="2.895"/>
				<rect x="223.984" y="253.157" style="fill:#F0F0F0;" width="2.895" height="2.895"/>
				<rect x="223.984" y="272.57" style="fill:#F0F0F0;" width="2.895" height="2.895"/>
				<rect x="219.387" y="219.186" style="fill:#F0F0F0;" width="2.895" height="2.895"/>
				<rect x="219.387" y="224.039" style="fill:#F0F0F0;" width="2.895" height="2.895"/>
				<rect x="219.387" y="228.892" style="fill:#F0F0F0;" width="2.895" height="2.895"/>
				<rect x="219.387" y="233.745" style="fill:#F0F0F0;" width="2.895" height="2.895"/>
				<rect x="219.387" y="238.598" style="fill:#F0F0F0;" width="2.895" height="2.895"/>
				<rect x="219.387" y="243.451" style="fill:#F0F0F0;" width="2.895" height="2.895"/>
				<rect x="219.387" y="248.305" style="fill:#F0F0F0;" width="2.895" height="2.895"/>
				<rect x="219.387" y="253.157" style="fill:#F0F0F0;" width="2.895" height="2.895"/>
				<rect x="214.789" y="219.186" style="fill:#F0F0F0;" width="2.895" height="2.895"/>
				<rect x="214.789" y="224.039" style="fill:#F0F0F0;" width="2.895" height="2.895"/>
				<rect x="214.789" y="228.892" style="fill:#F0F0F0;" width="2.895" height="2.895"/>
				<rect x="214.789" y="233.745" style="fill:#F0F0F0;" width="2.895" height="2.895"/>
				<rect x="214.789" y="238.598" style="fill:#F0F0F0;" width="2.895" height="2.895"/>
				<rect x="214.789" y="243.451" style="fill:#F0F0F0;" width="2.895" height="2.895"/>
				<rect x="214.789" y="253.157" style="fill:#F0F0F0;" width="2.895" height="2.895"/>
				<rect x="214.789" y="258.01" style="fill:#F0F0F0;" width="2.895" height="2.895"/>
				<rect x="214.789" y="272.57" style="fill:#F0F0F0;" width="2.895" height="2.895"/>
				<rect x="214.789" y="277.423" style="fill:#F0F0F0;" width="2.895" height="2.895"/>
				<rect x="214.789" y="282.276" style="fill:#F0F0F0;" width="2.895" height="2.895"/>
				<rect x="214.789" y="287.129" style="fill:#F0F0F0;" width="2.895" height="2.895"/>
				<rect x="214.789" y="291.982" style="fill:#F0F0F0;" width="2.895" height="2.895"/>
				<rect x="214.789" y="296.835" style="fill:#F0F0F0;" width="2.895" height="2.895"/>
				<rect x="214.789" y="301.688" style="fill:#F0F0F0;" width="2.895" height="2.895"/>
				<rect x="210.191" y="219.186" style="fill:#F0F0F0;" width="2.895" height="2.895"/>
				<rect x="210.191" y="224.039" style="fill:#F0F0F0;" width="2.895" height="2.895"/>
				<rect x="210.191" y="228.892" style="fill:#F0F0F0;" width="2.895" height="2.895"/>
				<rect x="210.191" y="233.745" style="fill:#F0F0F0;" width="2.895" height="2.895"/>
				<rect x="210.191" y="238.598" style="fill:#F0F0F0;" width="2.895" height="2.895"/>
				<rect x="210.191" y="243.451" style="fill:#F0F0F0;" width="2.895" height="2.895"/>
				<rect x="210.191" y="258.01" style="fill:#F0F0F0;" width="2.895" height="2.895"/>
				<rect x="210.191" y="262.863" style="fill:#F0F0F0;" width="2.895" height="2.895"/>
				<rect x="210.191" y="267.717" style="fill:#F0F0F0;" width="2.895" height="2.895"/>
				<rect x="210.191" y="272.57" style="fill:#F0F0F0;" width="2.895" height="2.895"/>
				<rect x="210.191" y="277.423" style="fill:#F0F0F0;" width="2.895" height="2.895"/>
				<rect x="210.191" y="282.276" style="fill:#F0F0F0;" width="2.895" height="2.895"/>
				<rect x="210.191" y="287.129" style="fill:#F0F0F0;" width="2.895" height="2.895"/>
				<rect x="210.191" y="291.982" style="fill:#F0F0F0;" width="2.895" height="2.895"/>
				<rect x="210.191" y="296.835" style="fill:#F0F0F0;" width="2.895" height="2.895"/>
				<rect x="210.191" y="301.688" style="fill:#F0F0F0;" width="2.895" height="2.895"/>
				<rect x="210.191" y="306.541" style="fill:#F0F0F0;" width="2.895" height="2.895"/>
				<rect x="210.191" y="316.248" style="fill:#F0F0F0;" width="2.895" height="2.895"/>
				<rect x="205.594" y="219.186" style="fill:#F0F0F0;" width="2.895" height="2.895"/>
				<rect x="205.594" y="224.039" style="fill:#F0F0F0;" width="2.895" height="2.895"/>
				<rect x="205.594" y="228.892" style="fill:#F0F0F0;" width="2.895" height="2.895"/>
				<rect x="205.594" y="233.745" style="fill:#F0F0F0;" width="2.895" height="2.895"/>
				<rect x="205.594" y="238.598" style="fill:#F0F0F0;" width="2.895" height="2.895"/>
				<rect x="205.594" y="243.451" style="fill:#F0F0F0;" width="2.895" height="2.895"/>
				<rect x="205.594" y="258.01" style="fill:#F0F0F0;" width="2.895" height="2.895"/>
				<rect x="205.594" y="262.863" style="fill:#F0F0F0;" width="2.895" height="2.895"/>
				<rect x="205.594" y="267.717" style="fill:#F0F0F0;" width="2.895" height="2.895"/>
				<rect x="205.594" y="272.57" style="fill:#F0F0F0;" width="2.895" height="2.895"/>
				<rect x="205.594" y="287.129" style="fill:#F0F0F0;" width="2.895" height="2.895"/>
				<rect x="205.594" y="291.982" style="fill:#F0F0F0;" width="2.895" height="2.895"/>
				<rect x="205.594" y="296.835" style="fill:#F0F0F0;" width="2.895" height="2.895"/>
				<rect x="205.594" y="301.688" style="fill:#F0F0F0;" width="2.895" height="2.895"/>
				<rect x="205.594" y="306.541" style="fill:#F0F0F0;" width="2.895" height="2.895"/>
				<rect x="205.594" y="316.248" style="fill:#F0F0F0;" width="2.895" height="2.895"/>
				<rect x="205.594" y="321.101" style="fill:#F0F0F0;" width="2.895" height="2.895"/>
				<rect x="163.874" y="264.311" style="fill:#F0F0F0;" width="2.895" height="2.895"/>
				<rect x="163.874" y="269.164" style="fill:#F0F0F0;" width="2.895" height="2.895"/>
				<rect x="163.874" y="274.017" style="fill:#F0F0F0;" width="2.895" height="2.895"/>
				<rect x="163.874" y="278.87" style="fill:#F0F0F0;" width="2.895" height="2.895"/>
				<rect x="163.874" y="283.724" style="fill:#F0F0F0;" width="2.895" height="2.895"/>
				<rect x="163.874" y="288.577" style="fill:#F0F0F0;" width="2.895" height="2.895"/>
				<rect x="163.874" y="293.43" style="fill:#F0F0F0;" width="2.895" height="2.895"/>
				<rect x="163.874" y="307.989" style="fill:#F0F0F0;" width="2.895" height="2.895"/>
				<rect x="163.874" y="312.842" style="fill:#F0F0F0;" width="2.895" height="2.895"/>
				<rect x="163.874" y="317.695" style="fill:#F0F0F0;" width="2.895" height="2.895"/>
				<rect x="159.277" y="264.311" style="fill:#F0F0F0;" width="2.895" height="2.895"/>
				<rect x="159.277" y="269.164" style="fill:#F0F0F0;" width="2.895" height="2.895"/>
				<rect x="159.277" y="274.017" style="fill:#F0F0F0;" width="2.895" height="2.895"/>
				<rect x="159.277" y="278.87" style="fill:#F0F0F0;" width="2.895" height="2.895"/>
				<rect x="159.277" y="283.724" style="fill:#F0F0F0;" width="2.895" height="2.895"/>
				<rect x="159.277" y="288.577" style="fill:#F0F0F0;" width="2.895" height="2.895"/>
				<rect x="159.277" y="293.43" style="fill:#F0F0F0;" width="2.895" height="2.895"/>
				<rect x="154.679" y="264.311" style="fill:#F0F0F0;" width="2.895" height="2.895"/>
				<rect x="154.679" y="269.164" style="fill:#F0F0F0;" width="2.895" height="2.895"/>
				<rect x="154.679" y="274.017" style="fill:#F0F0F0;" width="2.895" height="2.895"/>
				<rect x="154.679" y="278.87" style="fill:#F0F0F0;" width="2.895" height="2.895"/>
				<rect x="154.679" y="283.724" style="fill:#F0F0F0;" width="2.895" height="2.895"/>
				<rect x="154.679" y="288.577" style="fill:#F0F0F0;" width="2.895" height="2.895"/>
				<rect x="154.679" y="293.43" style="fill:#F0F0F0;" width="2.895" height="2.895"/>
				<rect x="150.081" y="264.311" style="fill:#F0F0F0;" width="2.895" height="2.895"/>
				<rect x="150.081" y="269.164" style="fill:#F0F0F0;" width="2.895" height="2.895"/>
				<rect x="150.081" y="274.017" style="fill:#F0F0F0;" width="2.895" height="2.895"/>
				<rect x="150.081" y="278.87" style="fill:#F0F0F0;" width="2.895" height="2.895"/>
				<rect x="150.081" y="283.724" style="fill:#F0F0F0;" width="2.895" height="2.895"/>
				<rect x="150.081" y="288.577" style="fill:#F0F0F0;" width="2.895" height="2.895"/>
				<rect x="150.081" y="293.43" style="fill:#F0F0F0;" width="2.895" height="2.895"/>
				<rect x="150.081" y="298.283" style="fill:#F0F0F0;" width="2.895" height="2.895"/>
				<rect x="150.081" y="303.136" style="fill:#F0F0F0;" width="2.895" height="2.895"/>
				<rect x="150.081" y="307.989" style="fill:#F0F0F0;" width="2.895" height="2.895"/>
				<rect x="150.081" y="312.842" style="fill:#F0F0F0;" width="2.895" height="2.895"/>
				<rect x="145.484" y="264.311" style="fill:#F0F0F0;" width="2.895" height="2.895"/>
				<rect x="145.484" y="269.164" style="fill:#F0F0F0;" width="2.895" height="2.895"/>
				<rect x="145.484" y="274.017" style="fill:#F0F0F0;" width="2.895" height="2.895"/>
				<rect x="145.484" y="278.87" style="fill:#F0F0F0;" width="2.895" height="2.895"/>
				<rect x="145.484" y="283.724" style="fill:#F0F0F0;" width="2.895" height="2.895"/>
				<rect x="145.484" y="288.577" style="fill:#F0F0F0;" width="2.895" height="2.895"/>
				<rect x="145.484" y="293.43" style="fill:#F0F0F0;" width="2.895" height="2.895"/>
				<rect x="145.484" y="298.283" style="fill:#F0F0F0;" width="2.895" height="2.895"/>
				<rect x="145.484" y="303.136" style="fill:#F0F0F0;" width="2.895" height="2.895"/>
				<rect x="145.484" y="307.989" style="fill:#F0F0F0;" width="2.895" height="2.895"/>
				<rect x="145.484" y="312.842" style="fill:#F0F0F0;" width="2.895" height="2.895"/>
				<rect x="145.484" y="317.695" style="fill:#F0F0F0;" width="2.895" height="2.895"/>
				<rect x="145.484" y="332.254" style="fill:#F0F0F0;" width="2.895" height="2.895"/>
				<rect x="145.484" y="337.107" style="fill:#F0F0F0;" width="2.895" height="2.895"/>
				<rect x="140.886" y="264.311" style="fill:#F0F0F0;" width="2.895" height="2.895"/>
				<rect x="140.886" y="269.164" style="fill:#F0F0F0;" width="2.895" height="2.895"/>
				<rect x="140.886" y="274.017" style="fill:#F0F0F0;" width="2.895" height="2.895"/>
				<rect x="140.886" y="288.577" style="fill:#F0F0F0;" width="2.895" height="2.895"/>
				<rect x="140.886" y="293.43" style="fill:#F0F0F0;" width="2.895" height="2.895"/>
				<rect x="140.886" y="298.283" style="fill:#F0F0F0;" width="2.895" height="2.895"/>
				<rect x="140.886" y="303.136" style="fill:#F0F0F0;" width="2.895" height="2.895"/>
				<rect x="140.886" y="307.989" style="fill:#F0F0F0;" width="2.895" height="2.895"/>
				<rect x="140.886" y="312.842" style="fill:#F0F0F0;" width="2.895" height="2.895"/>
				<rect x="140.886" y="317.695" style="fill:#F0F0F0;" width="2.895" height="2.895"/>
				<rect x="140.886" y="332.254" style="fill:#F0F0F0;" width="2.895" height="2.895"/>
				<rect x="140.886" y="337.107" style="fill:#F0F0F0;" width="2.895" height="2.895"/>
				<rect x="140.886" y="341.96" style="fill:#F0F0F0;" width="2.895" height="2.895"/>
				<rect x="92.696" y="235.193" style="fill:#F0F0F0;" width="2.895" height="2.895"/>
				<rect x="92.696" y="240.046" style="fill:#F0F0F0;" width="2.895" height="2.895"/>
				<rect x="92.696" y="244.899" style="fill:#F0F0F0;" width="2.895" height="2.895"/>
				<rect x="92.696" y="249.752" style="fill:#F0F0F0;" width="2.895" height="2.895"/>
				<rect x="92.696" y="254.605" style="fill:#F0F0F0;" width="2.895" height="2.895"/>
				<rect x="92.696" y="259.458" style="fill:#F0F0F0;" width="2.895" height="2.895"/>
				<rect x="92.696" y="264.311" style="fill:#F0F0F0;" width="2.895" height="2.895"/>
				<rect x="92.696" y="269.164" style="fill:#F0F0F0;" width="2.895" height="2.895"/>
				<rect x="92.696" y="274.017" style="fill:#F0F0F0;" width="2.895" height="2.895"/>
				<rect x="92.696" y="278.87" style="fill:#F0F0F0;" width="2.895" height="2.895"/>
				<rect x="92.696" y="283.724" style="fill:#F0F0F0;" width="2.895" height="2.895"/>
				<rect x="92.696" y="288.577" style="fill:#F0F0F0;" width="2.895" height="2.895"/>
				<rect x="92.696" y="293.43" style="fill:#F0F0F0;" width="2.895" height="2.895"/>
				<rect x="92.696" y="298.283" style="fill:#F0F0F0;" width="2.895" height="2.895"/>
				<rect x="92.696" y="303.136" style="fill:#F0F0F0;" width="2.895" height="2.895"/>
				<rect x="92.696" y="307.989" style="fill:#F0F0F0;" width="2.895" height="2.895"/>
				<rect x="92.696" y="312.842" style="fill:#F0F0F0;" width="2.895" height="2.895"/>
				<rect x="92.696" y="317.695" style="fill:#F0F0F0;" width="2.895" height="2.895"/>
				<rect x="92.696" y="322.548" style="fill:#F0F0F0;" width="2.895" height="2.895"/>
				<rect x="92.696" y="327.401" style="fill:#F0F0F0;" width="2.895" height="2.895"/>
				<rect x="92.696" y="332.254" style="fill:#F0F0F0;" width="2.895" height="2.895"/>
				<rect x="92.696" y="337.107" style="fill:#F0F0F0;" width="2.895" height="2.895"/>
				<rect x="92.696" y="341.96" style="fill:#F0F0F0;" width="2.895" height="2.895"/>
				<rect x="88.098" y="235.193" style="fill:#F0F0F0;" width="2.895" height="2.895"/>
				<rect x="88.098" y="240.046" style="fill:#F0F0F0;" width="2.895" height="2.895"/>
				<rect x="88.098" y="244.899" style="fill:#F0F0F0;" width="2.895" height="2.895"/>
				<rect x="88.098" y="249.752" style="fill:#F0F0F0;" width="2.895" height="2.895"/>
				<rect x="88.098" y="254.605" style="fill:#F0F0F0;" width="2.895" height="2.895"/>
				<rect x="88.098" y="259.458" style="fill:#F0F0F0;" width="2.895" height="2.895"/>
				<rect x="88.098" y="264.311" style="fill:#F0F0F0;" width="2.895" height="2.895"/>
				<rect x="88.098" y="269.164" style="fill:#F0F0F0;" width="2.895" height="2.895"/>
				<rect x="88.098" y="274.017" style="fill:#F0F0F0;" width="2.895" height="2.895"/>
				<rect x="88.098" y="278.87" style="fill:#F0F0F0;" width="2.895" height="2.895"/>
				<rect x="88.098" y="283.724" style="fill:#F0F0F0;" width="2.895" height="2.895"/>
				<rect x="88.098" y="288.577" style="fill:#F0F0F0;" width="2.895" height="2.895"/>
				<rect x="88.098" y="293.43" style="fill:#F0F0F0;" width="2.895" height="2.895"/>
				<rect x="88.098" y="298.283" style="fill:#F0F0F0;" width="2.895" height="2.895"/>
				<rect x="88.098" y="303.136" style="fill:#F0F0F0;" width="2.895" height="2.895"/>
				<rect x="88.098" y="307.989" style="fill:#F0F0F0;" width="2.895" height="2.895"/>
				<rect x="88.098" y="312.842" style="fill:#F0F0F0;" width="2.895" height="2.895"/>
				<rect x="88.098" y="317.695" style="fill:#F0F0F0;" width="2.895" height="2.895"/>
				<rect x="88.098" y="322.548" style="fill:#F0F0F0;" width="2.895" height="2.895"/>
				<rect x="83.501" y="235.193" style="fill:#F0F0F0;" width="2.895" height="2.895"/>
				<rect x="83.501" y="240.046" style="fill:#F0F0F0;" width="2.895" height="2.895"/>
				<rect x="83.501" y="244.899" style="fill:#F0F0F0;" width="2.895" height="2.895"/>
				<rect x="83.501" y="249.752" style="fill:#F0F0F0;" width="2.895" height="2.895"/>
				<rect x="83.501" y="254.605" style="fill:#F0F0F0;" width="2.895" height="2.895"/>
				<rect x="83.501" y="259.458" style="fill:#F0F0F0;" width="2.895" height="2.895"/>
				<rect x="83.501" y="264.311" style="fill:#F0F0F0;" width="2.895" height="2.895"/>
				<rect x="83.501" y="269.164" style="fill:#F0F0F0;" width="2.895" height="2.895"/>
				<rect x="83.501" y="274.017" style="fill:#F0F0F0;" width="2.895" height="2.895"/>
				<rect x="83.501" y="278.87" style="fill:#F0F0F0;" width="2.895" height="2.895"/>
				<rect x="83.501" y="283.724" style="fill:#F0F0F0;" width="2.895" height="2.895"/>
				<rect x="83.501" y="288.577" style="fill:#F0F0F0;" width="2.895" height="2.895"/>
				<rect x="83.501" y="293.43" style="fill:#F0F0F0;" width="2.895" height="2.895"/>
				<rect x="83.501" y="298.283" style="fill:#F0F0F0;" width="2.895" height="2.895"/>
				<rect x="83.501" y="303.136" style="fill:#F0F0F0;" width="2.895" height="2.895"/>
				<rect x="83.501" y="307.989" style="fill:#F0F0F0;" width="2.895" height="2.895"/>
				<rect x="83.501" y="312.842" style="fill:#F0F0F0;" width="2.895" height="2.895"/>
				<rect x="83.501" y="317.695" style="fill:#F0F0F0;" width="2.895" height="2.895"/>
				<rect x="83.501" y="322.548" style="fill:#F0F0F0;" width="2.895" height="2.895"/>
				<rect x="78.903" y="235.193" style="fill:#F0F0F0;" width="2.895" height="2.895"/>
				<rect x="78.903" y="240.046" style="fill:#F0F0F0;" width="2.895" height="2.895"/>
				<rect x="78.903" y="244.899" style="fill:#F0F0F0;" width="2.895" height="2.895"/>
				<rect x="78.903" y="249.752" style="fill:#F0F0F0;" width="2.895" height="2.895"/>
				<rect x="78.903" y="254.605" style="fill:#F0F0F0;" width="2.895" height="2.895"/>
				<rect x="78.903" y="259.458" style="fill:#F0F0F0;" width="2.895" height="2.895"/>
				<rect x="78.903" y="264.311" style="fill:#F0F0F0;" width="2.895" height="2.895"/>
				<rect x="78.903" y="269.164" style="fill:#F0F0F0;" width="2.895" height="2.895"/>
				<rect x="78.903" y="274.017" style="fill:#F0F0F0;" width="2.895" height="2.895"/>
				<rect x="78.903" y="278.87" style="fill:#F0F0F0;" width="2.895" height="2.895"/>
				<rect x="78.903" y="283.724" style="fill:#F0F0F0;" width="2.895" height="2.895"/>
				<rect x="78.903" y="288.577" style="fill:#F0F0F0;" width="2.895" height="2.895"/>
				<rect x="78.903" y="293.43" style="fill:#F0F0F0;" width="2.895" height="2.895"/>
				<rect x="78.903" y="298.283" style="fill:#F0F0F0;" width="2.895" height="2.895"/>
				<rect x="78.903" y="303.136" style="fill:#F0F0F0;" width="2.895" height="2.895"/>
				<rect x="74.305" y="235.193" style="fill:#F0F0F0;" width="2.895" height="2.895"/>
				<rect x="74.305" y="240.046" style="fill:#F0F0F0;" width="2.895" height="2.895"/>
				<rect x="74.305" y="244.899" style="fill:#F0F0F0;" width="2.895" height="2.895"/>
				<rect x="74.305" y="249.752" style="fill:#F0F0F0;" width="2.895" height="2.895"/>
				<rect x="74.305" y="254.605" style="fill:#F0F0F0;" width="2.895" height="2.895"/>
				<rect x="74.305" y="259.458" style="fill:#F0F0F0;" width="2.895" height="2.895"/>
				<rect x="74.305" y="264.311" style="fill:#F0F0F0;" width="2.895" height="2.895"/>
				<rect x="74.305" y="269.164" style="fill:#F0F0F0;" width="2.895" height="2.895"/>
				<rect x="74.305" y="274.017" style="fill:#F0F0F0;" width="2.895" height="2.895"/>
				<rect x="74.305" y="278.87" style="fill:#F0F0F0;" width="2.895" height="2.895"/>
				<rect x="74.305" y="283.724" style="fill:#F0F0F0;" width="2.895" height="2.895"/>
				<rect x="74.305" y="288.577" style="fill:#F0F0F0;" width="2.895" height="2.895"/>
				<rect x="74.305" y="293.43" style="fill:#F0F0F0;" width="2.895" height="2.895"/>
				<rect x="69.707" y="235.193" style="fill:#F0F0F0;" width="2.895" height="2.895"/>
				<rect x="69.707" y="240.046" style="fill:#F0F0F0;" width="2.895" height="2.895"/>
				<rect x="69.707" y="244.899" style="fill:#F0F0F0;" width="2.895" height="2.895"/>
				<rect x="69.707" y="249.752" style="fill:#F0F0F0;" width="2.895" height="2.895"/>
				<rect x="69.707" y="254.605" style="fill:#F0F0F0;" width="2.895" height="2.895"/>
				<rect x="69.707" y="259.458" style="fill:#F0F0F0;" width="2.895" height="2.895"/>
				<rect x="69.707" y="264.311" style="fill:#F0F0F0;" width="2.895" height="2.895"/>
				<rect x="69.707" y="269.164" style="fill:#F0F0F0;" width="2.895" height="2.895"/>
				<rect x="69.707" y="274.017" style="fill:#F0F0F0;" width="2.895" height="2.895"/>
				<rect x="69.707" y="278.87" style="fill:#F0F0F0;" width="2.895" height="2.895"/>
				<rect x="69.707" y="283.724" style="fill:#F0F0F0;" width="2.895" height="2.895"/>
				<rect x="69.707" y="288.577" style="fill:#F0F0F0;" width="2.895" height="2.895"/>
				<rect x="407.55" y="270.611" style="fill:#F0F0F0;" width="2.895" height="2.895"/>
				<rect x="407.55" y="275.465" style="fill:#F0F0F0;" width="2.895" height="2.895"/>
				<rect x="407.55" y="280.318" style="fill:#F0F0F0;" width="2.895" height="2.895"/>
				<rect x="407.55" y="285.171" style="fill:#F0F0F0;" width="2.895" height="2.895"/>
				<rect x="407.55" y="290.024" style="fill:#F0F0F0;" width="2.895" height="2.895"/>
				<rect x="407.55" y="294.877" style="fill:#F0F0F0;" width="2.895" height="2.895"/>
				<rect x="407.55" y="299.73" style="fill:#F0F0F0;" width="2.895" height="2.895"/>
				<rect x="407.55" y="304.583" style="fill:#F0F0F0;" width="2.895" height="2.895"/>
				<rect x="407.55" y="309.436" style="fill:#F0F0F0;" width="2.895" height="2.895"/>
				<rect x="407.55" y="314.289" style="fill:#F0F0F0;" width="2.895" height="2.895"/>
				<rect x="407.55" y="319.142" style="fill:#F0F0F0;" width="2.895" height="2.895"/>
				<rect x="407.55" y="323.995" style="fill:#F0F0F0;" width="2.895" height="2.895"/>
				<rect x="407.55" y="328.849" style="fill:#F0F0F0;" width="2.895" height="2.895"/>
				<rect x="407.55" y="333.702" style="fill:#F0F0F0;" width="2.895" height="2.895"/>
				<rect x="407.55" y="338.555" style="fill:#F0F0F0;" width="2.895" height="2.895"/>
				<rect x="407.55" y="343.408" style="fill:#F0F0F0;" width="2.895" height="2.895"/>
				<rect x="407.55" y="348.261" style="fill:#F0F0F0;" width="2.895" height="2.895"/>
				<rect x="407.55" y="353.114" style="fill:#F0F0F0;" width="2.895" height="2.895"/>
				<rect x="407.55" y="357.967" style="fill:#F0F0F0;" width="2.895" height="2.895"/>
				<rect x="407.55" y="362.82" style="fill:#F0F0F0;" width="2.895" height="2.895"/>
				<rect x="402.952" y="270.611" style="fill:#F0F0F0;" width="2.895" height="2.895"/>
				<rect x="402.952" y="275.465" style="fill:#F0F0F0;" width="2.895" height="2.895"/>
				<rect x="402.952" y="280.318" style="fill:#F0F0F0;" width="2.895" height="2.895"/>
				<rect x="402.952" y="285.171" style="fill:#F0F0F0;" width="2.895" height="2.895"/>
				<rect x="402.952" y="290.024" style="fill:#F0F0F0;" width="2.895" height="2.895"/>
				<rect x="402.952" y="294.877" style="fill:#F0F0F0;" width="2.895" height="2.895"/>
				<rect x="402.952" y="299.73" style="fill:#F0F0F0;" width="2.895" height="2.895"/>
				<rect x="402.952" y="304.583" style="fill:#F0F0F0;" width="2.895" height="2.895"/>
				<rect x="402.952" y="309.436" style="fill:#F0F0F0;" width="2.895" height="2.895"/>
				<rect x="402.952" y="314.289" style="fill:#F0F0F0;" width="2.895" height="2.895"/>
				<rect x="402.952" y="319.142" style="fill:#F0F0F0;" width="2.895" height="2.895"/>
				<rect x="402.952" y="323.995" style="fill:#F0F0F0;" width="2.895" height="2.895"/>
				<rect x="402.952" y="328.849" style="fill:#F0F0F0;" width="2.895" height="2.895"/>
				<rect x="402.952" y="333.702" style="fill:#F0F0F0;" width="2.895" height="2.895"/>
				<rect x="402.952" y="338.555" style="fill:#F0F0F0;" width="2.895" height="2.895"/>
				<rect x="402.952" y="343.408" style="fill:#F0F0F0;" width="2.895" height="2.895"/>
				<rect x="402.952" y="348.261" style="fill:#F0F0F0;" width="2.895" height="2.895"/>
				<rect x="402.952" y="353.114" style="fill:#F0F0F0;" width="2.895" height="2.895"/>
				<rect x="398.355" y="270.611" style="fill:#F0F0F0;" width="2.895" height="2.895"/>
				<rect x="398.355" y="275.465" style="fill:#F0F0F0;" width="2.895" height="2.895"/>
				<rect x="398.355" y="280.318" style="fill:#F0F0F0;" width="2.895" height="2.895"/>
				<rect x="398.355" y="285.171" style="fill:#F0F0F0;" width="2.895" height="2.895"/>
				<rect x="398.355" y="290.024" style="fill:#F0F0F0;" width="2.895" height="2.895"/>
				<rect x="398.355" y="294.877" style="fill:#F0F0F0;" width="2.895" height="2.895"/>
				<rect x="398.355" y="299.73" style="fill:#F0F0F0;" width="2.895" height="2.895"/>
				<rect x="398.355" y="304.583" style="fill:#F0F0F0;" width="2.895" height="2.895"/>
				<rect x="398.355" y="309.436" style="fill:#F0F0F0;" width="2.895" height="2.895"/>
				<rect x="398.355" y="314.289" style="fill:#F0F0F0;" width="2.895" height="2.895"/>
				<rect x="398.355" y="319.142" style="fill:#F0F0F0;" width="2.895" height="2.895"/>
				<rect x="398.355" y="323.995" style="fill:#F0F0F0;" width="2.895" height="2.895"/>
				<rect x="398.355" y="328.849" style="fill:#F0F0F0;" width="2.895" height="2.895"/>
				<rect x="398.355" y="333.702" style="fill:#F0F0F0;" width="2.895" height="2.895"/>
				<rect x="398.355" y="338.555" style="fill:#F0F0F0;" width="2.895" height="2.895"/>
				<rect x="398.355" y="343.408" style="fill:#F0F0F0;" width="2.895" height="2.895"/>
				<rect x="398.355" y="348.261" style="fill:#F0F0F0;" width="2.895" height="2.895"/>
				<rect x="398.355" y="353.114" style="fill:#F0F0F0;" width="2.895" height="2.895"/>
				<rect x="424.749" y="306.03" style="fill:#F0F0F0;" width="2.895" height="2.895"/>
				<rect x="424.749" y="310.884" style="fill:#F0F0F0;" width="2.895" height="2.895"/>
				<rect x="424.749" y="315.737" style="fill:#F0F0F0;" width="2.895" height="2.895"/>
				<rect x="424.749" y="320.59" style="fill:#F0F0F0;" width="2.895" height="2.895"/>
				<rect x="424.749" y="325.443" style="fill:#F0F0F0;" width="2.895" height="2.895"/>
				<rect x="424.749" y="330.296" style="fill:#F0F0F0;" width="2.895" height="2.895"/>
				<rect x="424.749" y="335.149" style="fill:#F0F0F0;" width="2.895" height="2.895"/>
				<rect x="424.749" y="340.002" style="fill:#F0F0F0;" width="2.895" height="2.895"/>
				<rect x="424.749" y="344.855" style="fill:#F0F0F0;" width="2.895" height="2.895"/>
				<rect x="424.749" y="349.708" style="fill:#F0F0F0;" width="2.895" height="2.895"/>
				<rect x="424.749" y="354.561" style="fill:#F0F0F0;" width="2.895" height="2.895"/>
				<rect x="424.749" y="359.414" style="fill:#F0F0F0;" width="2.895" height="2.895"/>
				<rect x="424.749" y="364.267" style="fill:#F0F0F0;" width="2.895" height="2.895"/>
				<rect x="420.151" y="306.03" style="fill:#F0F0F0;" width="2.895" height="2.895"/>
				<rect x="420.151" y="310.884" style="fill:#F0F0F0;" width="2.895" height="2.895"/>
				<rect x="420.151" y="315.737" style="fill:#F0F0F0;" width="2.895" height="2.895"/>
				<rect x="420.151" y="320.59" style="fill:#F0F0F0;" width="2.895" height="2.895"/>
				<rect x="420.151" y="325.443" style="fill:#F0F0F0;" width="2.895" height="2.895"/>
				<rect x="420.151" y="330.296" style="fill:#F0F0F0;" width="2.895" height="2.895"/>
				<rect x="420.151" y="335.149" style="fill:#F0F0F0;" width="2.895" height="2.895"/>
				<rect x="420.151" y="340.002" style="fill:#F0F0F0;" width="2.895" height="2.895"/>
				<rect x="420.151" y="344.855" style="fill:#F0F0F0;" width="2.895" height="2.895"/>
				<rect x="420.151" y="349.708" style="fill:#F0F0F0;" width="2.895" height="2.895"/>
				<rect x="420.151" y="354.561" style="fill:#F0F0F0;" width="2.895" height="2.895"/>
				<rect x="420.151" y="359.414" style="fill:#F0F0F0;" width="2.895" height="2.895"/>
				<rect x="420.151" y="364.267" style="fill:#F0F0F0;" width="2.895" height="2.895"/>
				<rect x="415.553" y="306.03" style="fill:#F0F0F0;" width="2.895" height="2.895"/>
				<rect x="415.553" y="310.884" style="fill:#F0F0F0;" width="2.895" height="2.895"/>
				<rect x="415.553" y="315.737" style="fill:#F0F0F0;" width="2.895" height="2.895"/>
				<rect x="415.553" y="320.59" style="fill:#F0F0F0;" width="2.895" height="2.895"/>
				<rect x="415.553" y="325.443" style="fill:#F0F0F0;" width="2.895" height="2.895"/>
				<rect x="415.553" y="330.296" style="fill:#F0F0F0;" width="2.895" height="2.895"/>
				<rect x="415.553" y="335.149" style="fill:#F0F0F0;" width="2.895" height="2.895"/>
				<rect x="415.553" y="340.002" style="fill:#F0F0F0;" width="2.895" height="2.895"/>
				<rect x="415.553" y="344.855" style="fill:#F0F0F0;" width="2.895" height="2.895"/>
				<rect x="415.553" y="349.708" style="fill:#F0F0F0;" width="2.895" height="2.895"/>
				<rect x="415.553" y="354.561" style="fill:#F0F0F0;" width="2.895" height="2.895"/>
				<rect x="415.553" y="359.414" style="fill:#F0F0F0;" width="2.895" height="2.895"/>
				<rect x="415.553" y="364.267" style="fill:#F0F0F0;" width="2.895" height="2.895"/>
				<rect x="415.553" y="369.121" style="fill:#F0F0F0;" width="2.895" height="2.895"/>
				<rect x="390.011" y="307.478" style="fill:#F0F0F0;" width="2.895" height="2.895"/>
				<rect x="390.011" y="312.331" style="fill:#F0F0F0;" width="2.895" height="2.895"/>
				<rect x="390.011" y="317.184" style="fill:#F0F0F0;" width="2.895" height="2.895"/>
				<rect x="390.011" y="322.037" style="fill:#F0F0F0;" width="2.895" height="2.895"/>
				<rect x="390.011" y="326.89" style="fill:#F0F0F0;" width="2.895" height="2.895"/>
				<rect x="390.011" y="331.743" style="fill:#F0F0F0;" width="2.895" height="2.895"/>
				<rect x="390.011" y="336.596" style="fill:#F0F0F0;" width="2.895" height="2.895"/>
				<rect x="390.011" y="341.449" style="fill:#F0F0F0;" width="2.895" height="2.895"/>
				<rect x="390.011" y="346.302" style="fill:#F0F0F0;" width="2.895" height="2.895"/>
				<rect x="390.011" y="351.156" style="fill:#F0F0F0;" width="2.895" height="2.895"/>
				<rect x="390.011" y="365.715" style="fill:#F0F0F0;" width="2.895" height="2.895"/>
				<rect x="385.413" y="307.478" style="fill:#F0F0F0;" width="2.895" height="2.895"/>
				<rect x="385.413" y="312.331" style="fill:#F0F0F0;" width="2.895" height="2.895"/>
				<rect x="385.413" y="317.184" style="fill:#F0F0F0;" width="2.895" height="2.895"/>
				<rect x="385.413" y="322.037" style="fill:#F0F0F0;" width="2.895" height="2.895"/>
				<rect x="385.413" y="326.89" style="fill:#F0F0F0;" width="2.895" height="2.895"/>
				<rect x="385.413" y="331.743" style="fill:#F0F0F0;" width="2.895" height="2.895"/>
				<rect x="385.413" y="336.596" style="fill:#F0F0F0;" width="2.895" height="2.895"/>
				<rect x="385.413" y="341.449" style="fill:#F0F0F0;" width="2.895" height="2.895"/>
				<rect x="385.413" y="346.302" style="fill:#F0F0F0;" width="2.895" height="2.895"/>
				<rect x="385.413" y="360.862" style="fill:#F0F0F0;" width="2.895" height="2.895"/>
				<rect x="385.413" y="365.715" style="fill:#F0F0F0;" width="2.895" height="2.895"/>
				<rect x="380.815" y="307.478" style="fill:#F0F0F0;" width="2.895" height="2.895"/>
				<rect x="380.815" y="312.331" style="fill:#F0F0F0;" width="2.895" height="2.895"/>
				<rect x="380.815" y="317.184" style="fill:#F0F0F0;" width="2.895" height="2.895"/>
				<rect x="380.815" y="322.037" style="fill:#F0F0F0;" width="2.895" height="2.895"/>
				<rect x="380.815" y="326.89" style="fill:#F0F0F0;" width="2.895" height="2.895"/>
				<rect x="380.815" y="331.743" style="fill:#F0F0F0;" width="2.895" height="2.895"/>
				<rect x="380.815" y="336.596" style="fill:#F0F0F0;" width="2.895" height="2.895"/>
				<rect x="380.815" y="341.449" style="fill:#F0F0F0;" width="2.895" height="2.895"/>
				<rect x="380.815" y="356.009" style="fill:#F0F0F0;" width="2.895" height="2.895"/>
				<rect x="380.815" y="360.862" style="fill:#F0F0F0;" width="2.895" height="2.895"/>
				<rect x="380.815" y="365.715" style="fill:#F0F0F0;" width="2.895" height="2.895"/>
				<rect x="338.074" y="233.745" style="fill:#F0F0F0;" width="2.895" height="2.895"/>
				<rect x="338.074" y="238.598" style="fill:#F0F0F0;" width="2.895" height="2.895"/>
				<rect x="338.074" y="243.451" style="fill:#F0F0F0;" width="2.895" height="2.895"/>
				<rect x="338.074" y="248.305" style="fill:#F0F0F0;" width="2.895" height="2.895"/>
				<rect x="338.074" y="253.157" style="fill:#F0F0F0;" width="2.895" height="2.895"/>
				<rect x="338.074" y="258.01" style="fill:#F0F0F0;" width="2.895" height="2.895"/>
				<rect x="338.074" y="262.863" style="fill:#F0F0F0;" width="2.895" height="2.895"/>
				<rect x="338.074" y="267.717" style="fill:#F0F0F0;" width="2.895" height="2.895"/>
				<rect x="338.074" y="272.57" style="fill:#F0F0F0;" width="2.895" height="2.895"/>
				<rect x="338.074" y="277.423" style="fill:#F0F0F0;" width="2.895" height="2.895"/>
				<rect x="338.074" y="282.276" style="fill:#F0F0F0;" width="2.895" height="2.895"/>
				<rect x="338.074" y="287.129" style="fill:#F0F0F0;" width="2.895" height="2.895"/>
				<rect x="338.074" y="291.982" style="fill:#F0F0F0;" width="2.895" height="2.895"/>
				<rect x="338.074" y="296.835" style="fill:#F0F0F0;" width="2.895" height="2.895"/>
				<rect x="338.074" y="301.688" style="fill:#F0F0F0;" width="2.895" height="2.895"/>
				<rect x="338.074" y="306.541" style="fill:#F0F0F0;" width="2.895" height="2.895"/>
				<rect x="338.074" y="311.394" style="fill:#F0F0F0;" width="2.895" height="2.895"/>
				<rect x="338.074" y="321.101" style="fill:#F0F0F0;" width="2.895" height="2.895"/>
				<rect x="338.074" y="325.954" style="fill:#F0F0F0;" width="2.895" height="2.895"/>
				<rect x="338.074" y="330.807" style="fill:#F0F0F0;" width="2.895" height="2.895"/>
				<rect x="338.074" y="335.66" style="fill:#F0F0F0;" width="2.895" height="2.895"/>
				<rect x="338.074" y="340.513" style="fill:#F0F0F0;" width="2.895" height="2.895"/>
				<rect x="333.477" y="233.745" style="fill:#F0F0F0;" width="2.895" height="2.895"/>
				<rect x="333.477" y="238.598" style="fill:#F0F0F0;" width="2.895" height="2.895"/>
				<rect x="333.477" y="243.451" style="fill:#F0F0F0;" width="2.895" height="2.895"/>
				<rect x="333.477" y="248.305" style="fill:#F0F0F0;" width="2.895" height="2.895"/>
				<rect x="333.477" y="253.157" style="fill:#F0F0F0;" width="2.895" height="2.895"/>
				<rect x="333.477" y="258.01" style="fill:#F0F0F0;" width="2.895" height="2.895"/>
				<rect x="333.477" y="262.863" style="fill:#F0F0F0;" width="2.895" height="2.895"/>
				<rect x="333.477" y="267.717" style="fill:#F0F0F0;" width="2.895" height="2.895"/>
				<rect x="333.477" y="272.57" style="fill:#F0F0F0;" width="2.895" height="2.895"/>
				<rect x="333.477" y="277.423" style="fill:#F0F0F0;" width="2.895" height="2.895"/>
				<rect x="333.477" y="282.276" style="fill:#F0F0F0;" width="2.895" height="2.895"/>
				<rect x="333.477" y="287.129" style="fill:#F0F0F0;" width="2.895" height="2.895"/>
				<rect x="333.477" y="291.982" style="fill:#F0F0F0;" width="2.895" height="2.895"/>
				<rect x="333.477" y="296.835" style="fill:#F0F0F0;" width="2.895" height="2.895"/>
				<rect x="333.477" y="301.688" style="fill:#F0F0F0;" width="2.895" height="2.895"/>
				<rect x="333.477" y="306.541" style="fill:#F0F0F0;" width="2.895" height="2.895"/>
				<rect x="333.477" y="335.66" style="fill:#F0F0F0;" width="2.895" height="2.895"/>
				<rect x="333.477" y="340.513" style="fill:#F0F0F0;" width="2.895" height="2.895"/>
				<rect x="328.879" y="233.745" style="fill:#F0F0F0;" width="2.895" height="2.895"/>
				<rect x="328.879" y="238.598" style="fill:#F0F0F0;" width="2.895" height="2.895"/>
				<rect x="328.879" y="243.451" style="fill:#F0F0F0;" width="2.895" height="2.895"/>
				<rect x="328.879" y="248.305" style="fill:#F0F0F0;" width="2.895" height="2.895"/>
				<rect x="328.879" y="253.157" style="fill:#F0F0F0;" width="2.895" height="2.895"/>
				<rect x="328.879" y="258.01" style="fill:#F0F0F0;" width="2.895" height="2.895"/>
				<rect x="328.879" y="262.863" style="fill:#F0F0F0;" width="2.895" height="2.895"/>
				<rect x="328.879" y="267.717" style="fill:#F0F0F0;" width="2.895" height="2.895"/>
				<rect x="328.879" y="272.57" style="fill:#F0F0F0;" width="2.895" height="2.895"/>
				<rect x="328.879" y="277.423" style="fill:#F0F0F0;" width="2.895" height="2.895"/>
				<rect x="328.879" y="282.276" style="fill:#F0F0F0;" width="2.895" height="2.895"/>
				<rect x="328.879" y="287.129" style="fill:#F0F0F0;" width="2.895" height="2.895"/>
				<rect x="328.879" y="291.982" style="fill:#F0F0F0;" width="2.895" height="2.895"/>
				<rect x="328.879" y="296.835" style="fill:#F0F0F0;" width="2.895" height="2.895"/>
				<rect x="328.879" y="301.688" style="fill:#F0F0F0;" width="2.895" height="2.895"/>
				<rect x="328.879" y="306.541" style="fill:#F0F0F0;" width="2.895" height="2.895"/>
				<rect x="328.879" y="316.248" style="fill:#F0F0F0;" width="2.895" height="2.895"/>
				<rect x="328.879" y="321.101" style="fill:#F0F0F0;" width="2.895" height="2.895"/>
				<rect x="328.879" y="325.954" style="fill:#F0F0F0;" width="2.895" height="2.895"/>
				<rect x="328.879" y="330.807" style="fill:#F0F0F0;" width="2.895" height="2.895"/>
				<rect x="328.879" y="340.513" style="fill:#F0F0F0;" width="2.895" height="2.895"/>
				<rect x="354.762" y="294.877" style="fill:#F0F0F0;" width="2.895" height="2.895"/>
				<rect x="354.762" y="299.73" style="fill:#F0F0F0;" width="2.895" height="2.895"/>
				<rect x="354.762" y="304.583" style="fill:#F0F0F0;" width="2.895" height="2.895"/>
				<rect x="354.762" y="309.436" style="fill:#F0F0F0;" width="2.895" height="2.895"/>
				<rect x="354.762" y="314.289" style="fill:#F0F0F0;" width="2.895" height="2.895"/>
				<rect x="354.762" y="319.142" style="fill:#F0F0F0;" width="2.895" height="2.895"/>
				<rect x="354.762" y="323.995" style="fill:#F0F0F0;" width="2.895" height="2.895"/>
				<rect x="354.762" y="333.702" style="fill:#F0F0F0;" width="2.895" height="2.895"/>
				<rect x="354.762" y="338.555" style="fill:#F0F0F0;" width="2.895" height="2.895"/>
				<rect x="354.762" y="343.408" style="fill:#F0F0F0;" width="2.895" height="2.895"/>
				<rect x="354.762" y="348.261" style="fill:#F0F0F0;" width="2.895" height="2.895"/>
				<rect x="354.762" y="353.114" style="fill:#F0F0F0;" width="2.895" height="2.895"/>
				<rect x="354.762" y="357.967" style="fill:#F0F0F0;" width="2.895" height="2.895"/>
				<rect x="354.762" y="362.82" style="fill:#F0F0F0;" width="2.895" height="2.895"/>
				<rect x="354.762" y="367.673" style="fill:#F0F0F0;" width="2.895" height="2.895"/>
				<rect x="350.164" y="294.877" style="fill:#F0F0F0;" width="2.895" height="2.895"/>
				<rect x="350.164" y="299.73" style="fill:#F0F0F0;" width="2.895" height="2.895"/>
				<rect x="350.164" y="304.583" style="fill:#F0F0F0;" width="2.895" height="2.895"/>
				<rect x="350.164" y="309.436" style="fill:#F0F0F0;" width="2.895" height="2.895"/>
				<rect x="350.164" y="314.289" style="fill:#F0F0F0;" width="2.895" height="2.895"/>
				<rect x="350.164" y="319.142" style="fill:#F0F0F0;" width="2.895" height="2.895"/>
				<rect x="350.164" y="333.702" style="fill:#F0F0F0;" width="2.895" height="2.895"/>
				<rect x="350.164" y="338.555" style="fill:#F0F0F0;" width="2.895" height="2.895"/>
				<rect x="350.164" y="343.408" style="fill:#F0F0F0;" width="2.895" height="2.895"/>
				<rect x="350.164" y="348.261" style="fill:#F0F0F0;" width="2.895" height="2.895"/>
				<rect x="350.164" y="353.114" style="fill:#F0F0F0;" width="2.895" height="2.895"/>
				<rect x="350.164" y="357.967" style="fill:#F0F0F0;" width="2.895" height="2.895"/>
				<rect x="350.164" y="362.82" style="fill:#F0F0F0;" width="2.895" height="2.895"/>
				<rect x="350.164" y="367.673" style="fill:#F0F0F0;" width="2.895" height="2.895"/>
				<rect x="345.567" y="294.877" style="fill:#F0F0F0;" width="2.895" height="2.895"/>
				<rect x="345.567" y="299.73" style="fill:#F0F0F0;" width="2.895" height="2.895"/>
				<rect x="345.567" y="304.583" style="fill:#F0F0F0;" width="2.895" height="2.895"/>
				<rect x="345.567" y="309.436" style="fill:#F0F0F0;" width="2.895" height="2.895"/>
				<rect x="345.567" y="314.289" style="fill:#F0F0F0;" width="2.895" height="2.895"/>
				<rect x="345.567" y="319.142" style="fill:#F0F0F0;" width="2.895" height="2.895"/>
				<rect x="345.567" y="328.849" style="fill:#F0F0F0;" width="2.895" height="2.895"/>
				<rect x="345.567" y="333.702" style="fill:#F0F0F0;" width="2.895" height="2.895"/>
				<rect x="345.567" y="338.555" style="fill:#F0F0F0;" width="2.895" height="2.895"/>
				<rect x="345.567" y="343.408" style="fill:#F0F0F0;" width="2.895" height="2.895"/>
				<rect x="345.567" y="348.261" style="fill:#F0F0F0;" width="2.895" height="2.895"/>
				<rect x="345.567" y="353.114" style="fill:#F0F0F0;" width="2.895" height="2.895"/>
				<rect x="345.567" y="357.967" style="fill:#F0F0F0;" width="2.895" height="2.895"/>
				<rect x="345.567" y="362.82" style="fill:#F0F0F0;" width="2.895" height="2.895"/>
				<rect x="345.567" y="367.673" style="fill:#F0F0F0;" width="2.895" height="2.895"/>
				<rect x="248.675" y="267.717" style="fill:#F0F0F0;" width="2.895" height="2.895"/>
				<rect x="248.675" y="272.57" style="fill:#F0F0F0;" width="2.895" height="2.895"/>
				<rect x="248.675" y="277.423" style="fill:#F0F0F0;" width="2.895" height="2.895"/>
				<rect x="248.675" y="282.276" style="fill:#F0F0F0;" width="2.895" height="2.895"/>
				<rect x="248.675" y="287.129" style="fill:#F0F0F0;" width="2.895" height="2.895"/>
				<rect x="248.675" y="291.982" style="fill:#F0F0F0;" width="2.895" height="2.895"/>
				<rect x="248.675" y="296.835" style="fill:#F0F0F0;" width="2.895" height="2.895"/>
				<rect x="248.675" y="301.688" style="fill:#F0F0F0;" width="2.895" height="2.895"/>
				<rect x="248.675" y="306.541" style="fill:#F0F0F0;" width="2.895" height="2.895"/>
				<rect x="248.675" y="311.394" style="fill:#F0F0F0;" width="2.895" height="2.895"/>
				<rect x="248.675" y="316.248" style="fill:#F0F0F0;" width="2.895" height="2.895"/>
				<rect x="248.675" y="321.101" style="fill:#F0F0F0;" width="2.895" height="2.895"/>
				<rect x="248.675" y="325.954" style="fill:#F0F0F0;" width="2.895" height="2.895"/>
				<rect x="248.675" y="335.66" style="fill:#F0F0F0;" width="2.895" height="2.895"/>
				<rect x="248.675" y="340.513" style="fill:#F0F0F0;" width="2.895" height="2.895"/>
				<rect x="248.675" y="345.366" style="fill:#F0F0F0;" width="2.895" height="2.895"/>
				<rect x="248.675" y="350.219" style="fill:#F0F0F0;" width="2.895" height="2.895"/>
				<rect x="248.675" y="359.925" style="fill:#F0F0F0;" width="2.895" height="2.895"/>
				<rect x="248.675" y="364.778" style="fill:#F0F0F0;" width="2.895" height="2.895"/>
				<rect x="248.675" y="369.632" style="fill:#F0F0F0;" width="2.895" height="2.895"/>
				<rect x="244.078" y="267.717" style="fill:#F0F0F0;" width="2.895" height="2.895"/>
				<rect x="244.078" y="272.57" style="fill:#F0F0F0;" width="2.895" height="2.895"/>
				<rect x="244.078" y="277.423" style="fill:#F0F0F0;" width="2.895" height="2.895"/>
				<rect x="244.078" y="282.276" style="fill:#F0F0F0;" width="2.895" height="2.895"/>
				<rect x="244.078" y="287.129" style="fill:#F0F0F0;" width="2.895" height="2.895"/>
				<rect x="244.078" y="291.982" style="fill:#F0F0F0;" width="2.895" height="2.895"/>
				<rect x="244.078" y="296.835" style="fill:#F0F0F0;" width="2.895" height="2.895"/>
				<rect x="244.078" y="301.688" style="fill:#F0F0F0;" width="2.895" height="2.895"/>
				<rect x="244.078" y="306.541" style="fill:#F0F0F0;" width="2.895" height="2.895"/>
				<rect x="244.078" y="311.394" style="fill:#F0F0F0;" width="2.895" height="2.895"/>
				<rect x="244.078" y="316.248" style="fill:#F0F0F0;" width="2.895" height="2.895"/>
				<rect x="244.078" y="321.101" style="fill:#F0F0F0;" width="2.895" height="2.895"/>
				<rect x="244.078" y="325.954" style="fill:#F0F0F0;" width="2.895" height="2.895"/>
				<rect x="244.078" y="340.513" style="fill:#F0F0F0;" width="2.895" height="2.895"/>
				<rect x="244.078" y="345.366" style="fill:#F0F0F0;" width="2.895" height="2.895"/>
				<rect x="244.078" y="355.072" style="fill:#F0F0F0;" width="2.895" height="2.895"/>
				<rect x="244.078" y="359.925" style="fill:#F0F0F0;" width="2.895" height="2.895"/>
				<rect x="244.078" y="364.778" style="fill:#F0F0F0;" width="2.895" height="2.895"/>
				<rect x="244.078" y="369.632" style="fill:#F0F0F0;" width="2.895" height="2.895"/>
				<rect x="239.48" y="267.717" style="fill:#F0F0F0;" width="2.895" height="2.895"/>
				<rect x="239.48" y="272.57" style="fill:#F0F0F0;" width="2.895" height="2.895"/>
				<rect x="239.48" y="277.423" style="fill:#F0F0F0;" width="2.895" height="2.895"/>
				<rect x="239.48" y="282.276" style="fill:#F0F0F0;" width="2.895" height="2.895"/>
				<rect x="239.48" y="287.129" style="fill:#F0F0F0;" width="2.895" height="2.895"/>
				<rect x="239.48" y="291.982" style="fill:#F0F0F0;" width="2.895" height="2.895"/>
				<rect x="239.48" y="296.835" style="fill:#F0F0F0;" width="2.895" height="2.895"/>
				<rect x="239.48" y="301.688" style="fill:#F0F0F0;" width="2.895" height="2.895"/>
				<rect x="239.48" y="306.541" style="fill:#F0F0F0;" width="2.895" height="2.895"/>
				<rect x="239.48" y="311.394" style="fill:#F0F0F0;" width="2.895" height="2.895"/>
				<rect x="239.48" y="316.248" style="fill:#F0F0F0;" width="2.895" height="2.895"/>
				<rect x="239.48" y="321.101" style="fill:#F0F0F0;" width="2.895" height="2.895"/>
				<rect x="239.48" y="325.954" style="fill:#F0F0F0;" width="2.895" height="2.895"/>
				<rect x="239.48" y="330.807" style="fill:#F0F0F0;" width="2.895" height="2.895"/>
				<rect x="239.48" y="340.513" style="fill:#F0F0F0;" width="2.895" height="2.895"/>
				<rect x="239.48" y="350.219" style="fill:#F0F0F0;" width="2.895" height="2.895"/>
				<rect x="239.48" y="355.072" style="fill:#F0F0F0;" width="2.895" height="2.895"/>
				<rect x="239.48" y="359.925" style="fill:#F0F0F0;" width="2.895" height="2.895"/>
				<rect x="239.48" y="364.778" style="fill:#F0F0F0;" width="2.895" height="2.895"/>
				<rect x="239.48" y="369.632" style="fill:#F0F0F0;" width="2.895" height="2.895"/>
				<rect x="267.406" y="295.388" style="fill:#F0F0F0;" width="2.895" height="2.895"/>
				<rect x="267.406" y="300.241" style="fill:#F0F0F0;" width="2.895" height="2.895"/>
				<rect x="267.406" y="305.094" style="fill:#F0F0F0;" width="2.895" height="2.895"/>
				<rect x="267.406" y="309.947" style="fill:#F0F0F0;" width="2.895" height="2.895"/>
				<rect x="267.406" y="314.8" style="fill:#F0F0F0;" width="2.895" height="2.895"/>
				<rect x="267.406" y="319.653" style="fill:#F0F0F0;" width="2.895" height="2.895"/>
				<rect x="267.406" y="334.212" style="fill:#F0F0F0;" width="2.895" height="2.895"/>
				<rect x="267.406" y="339.066" style="fill:#F0F0F0;" width="2.895" height="2.895"/>
				<rect x="267.406" y="343.919" style="fill:#F0F0F0;" width="2.895" height="2.895"/>
				<rect x="267.406" y="348.772" style="fill:#F0F0F0;" width="2.895" height="2.895"/>
				<rect x="267.406" y="353.625" style="fill:#F0F0F0;" width="2.895" height="2.895"/>
				<rect x="267.406" y="358.478" style="fill:#F0F0F0;" width="2.895" height="2.895"/>
				<rect x="267.406" y="363.331" style="fill:#F0F0F0;" width="2.895" height="2.895"/>
				<rect x="262.809" y="295.388" style="fill:#F0F0F0;" width="2.895" height="2.895"/>
				<rect x="262.809" y="300.241" style="fill:#F0F0F0;" width="2.895" height="2.895"/>
				<rect x="262.809" y="305.094" style="fill:#F0F0F0;" width="2.895" height="2.895"/>
				<rect x="262.809" y="309.947" style="fill:#F0F0F0;" width="2.895" height="2.895"/>
				<rect x="262.809" y="314.8" style="fill:#F0F0F0;" width="2.895" height="2.895"/>
				<rect x="262.809" y="319.653" style="fill:#F0F0F0;" width="2.895" height="2.895"/>
				<rect x="262.809" y="334.212" style="fill:#F0F0F0;" width="2.895" height="2.895"/>
				<rect x="262.809" y="339.066" style="fill:#F0F0F0;" width="2.895" height="2.895"/>
				<rect x="262.809" y="343.919" style="fill:#F0F0F0;" width="2.895" height="2.895"/>
				<rect x="262.809" y="348.772" style="fill:#F0F0F0;" width="2.895" height="2.895"/>
				<rect x="262.809" y="353.625" style="fill:#F0F0F0;" width="2.895" height="2.895"/>
				<rect x="262.809" y="358.478" style="fill:#F0F0F0;" width="2.895" height="2.895"/>
				<rect x="262.809" y="368.184" style="fill:#F0F0F0;" width="2.895" height="2.895"/>
				<rect x="110.065" y="274.017" style="fill:#F0F0F0;" width="2.895" height="2.895"/>
				<rect x="110.065" y="278.87" style="fill:#F0F0F0;" width="2.895" height="2.895"/>
				<rect x="110.065" y="283.724" style="fill:#F0F0F0;" width="2.895" height="2.895"/>
				<rect x="110.065" y="288.577" style="fill:#F0F0F0;" width="2.895" height="2.895"/>
				<rect x="110.065" y="293.43" style="fill:#F0F0F0;" width="2.895" height="2.895"/>
				<rect x="110.065" y="298.283" style="fill:#F0F0F0;" width="2.895" height="2.895"/>
				<rect x="110.065" y="303.136" style="fill:#F0F0F0;" width="2.895" height="2.895"/>
				<rect x="110.065" y="307.989" style="fill:#F0F0F0;" width="2.895" height="2.895"/>
				<rect x="110.065" y="312.842" style="fill:#F0F0F0;" width="2.895" height="2.895"/>
				<rect x="110.065" y="317.695" style="fill:#F0F0F0;" width="2.895" height="2.895"/>
				<rect x="110.065" y="322.548" style="fill:#F0F0F0;" width="2.895" height="2.895"/>
				<rect x="110.065" y="332.254" style="fill:#F0F0F0;" width="2.895" height="2.895"/>
				<rect x="110.065" y="337.107" style="fill:#F0F0F0;" width="2.895" height="2.895"/>
				<rect x="110.065" y="341.96" style="fill:#F0F0F0;" width="2.895" height="2.895"/>
				<rect x="110.065" y="346.813" style="fill:#F0F0F0;" width="2.895" height="2.895"/>
				<rect x="110.065" y="351.667" style="fill:#F0F0F0;" width="2.895" height="2.895"/>
				<rect x="110.065" y="356.52" style="fill:#F0F0F0;" width="2.895" height="2.895"/>
				<rect x="110.065" y="361.373" style="fill:#F0F0F0;" width="2.895" height="2.895"/>
				<rect x="110.065" y="366.226" style="fill:#F0F0F0;" width="2.895" height="2.895"/>
				<rect x="105.467" y="274.017" style="fill:#F0F0F0;" width="2.895" height="2.895"/>
				<rect x="105.467" y="278.87" style="fill:#F0F0F0;" width="2.895" height="2.895"/>
				<rect x="105.467" y="283.724" style="fill:#F0F0F0;" width="2.895" height="2.895"/>
				<rect x="105.467" y="288.577" style="fill:#F0F0F0;" width="2.895" height="2.895"/>
				<rect x="105.467" y="293.43" style="fill:#F0F0F0;" width="2.895" height="2.895"/>
				<rect x="105.467" y="298.283" style="fill:#F0F0F0;" width="2.895" height="2.895"/>
				<rect x="105.467" y="303.136" style="fill:#F0F0F0;" width="2.895" height="2.895"/>
				<rect x="105.467" y="307.989" style="fill:#F0F0F0;" width="2.895" height="2.895"/>
				<rect x="105.467" y="312.842" style="fill:#F0F0F0;" width="2.895" height="2.895"/>
				<rect x="105.467" y="317.695" style="fill:#F0F0F0;" width="2.895" height="2.895"/>
				<rect x="105.467" y="322.548" style="fill:#F0F0F0;" width="2.895" height="2.895"/>
				<rect x="105.467" y="327.401" style="fill:#F0F0F0;" width="2.895" height="2.895"/>
				<rect x="105.467" y="332.254" style="fill:#F0F0F0;" width="2.895" height="2.895"/>
				<rect x="105.467" y="337.107" style="fill:#F0F0F0;" width="2.895" height="2.895"/>
				<rect x="105.467" y="341.96" style="fill:#F0F0F0;" width="2.895" height="2.895"/>
				<rect x="105.467" y="346.813" style="fill:#F0F0F0;" width="2.895" height="2.895"/>
				<rect x="105.467" y="351.667" style="fill:#F0F0F0;" width="2.895" height="2.895"/>
				<rect x="105.467" y="356.52" style="fill:#F0F0F0;" width="2.895" height="2.895"/>
				<rect x="105.467" y="361.373" style="fill:#F0F0F0;" width="2.895" height="2.895"/>
				<rect x="105.467" y="366.226" style="fill:#F0F0F0;" width="2.895" height="2.895"/>
				<rect x="132.712" y="292.919" style="fill:#F0F0F0;" width="2.895" height="2.895"/>
				<rect x="132.712" y="297.772" style="fill:#F0F0F0;" width="2.895" height="2.895"/>
				<rect x="132.712" y="302.625" style="fill:#F0F0F0;" width="2.895" height="2.895"/>
				<rect x="132.712" y="307.478" style="fill:#F0F0F0;" width="2.895" height="2.895"/>
				<rect x="132.712" y="312.331" style="fill:#F0F0F0;" width="2.895" height="2.895"/>
				<rect x="132.712" y="317.184" style="fill:#F0F0F0;" width="2.895" height="2.895"/>
				<rect x="132.712" y="322.037" style="fill:#F0F0F0;" width="2.895" height="2.895"/>
				<rect x="132.712" y="326.89" style="fill:#F0F0F0;" width="2.895" height="2.895"/>
				<rect x="132.712" y="331.743" style="fill:#F0F0F0;" width="2.895" height="2.895"/>
				<rect x="132.712" y="336.596" style="fill:#F0F0F0;" width="2.895" height="2.895"/>
				<rect x="128.115" y="292.919" style="fill:#F0F0F0;" width="2.895" height="2.895"/>
				<rect x="128.115" y="297.772" style="fill:#F0F0F0;" width="2.895" height="2.895"/>
				<rect x="128.115" y="302.625" style="fill:#F0F0F0;" width="2.895" height="2.895"/>
				<rect x="128.115" y="307.478" style="fill:#F0F0F0;" width="2.895" height="2.895"/>
				<rect x="128.115" y="312.331" style="fill:#F0F0F0;" width="2.895" height="2.895"/>
				<rect x="128.115" y="317.184" style="fill:#F0F0F0;" width="2.895" height="2.895"/>
				<rect x="128.115" y="322.037" style="fill:#F0F0F0;" width="2.895" height="2.895"/>
				<rect x="128.115" y="326.89" style="fill:#F0F0F0;" width="2.895" height="2.895"/>
				<rect x="128.115" y="331.743" style="fill:#F0F0F0;" width="2.895" height="2.895"/>
			</g>
		</g>
	</g>
</g>
<g id="Background_Simple" style="display:none;">
	<g style="display:inline;">
		<path style="fill:#407BFF;" d="M197.831,195.148c69.992-20.549,97.461-173.441,198.756-92.182
			c71.863,57.649,24.539,202.438-66.683,187.39c-55.213-9.108-46.644-10.309-94.092,17.954
			c-48.084,28.642-100.718,43.552-150.635-4.682c-25.831-24.961-35.007-86.803-8.856-119.388
			C109.028,143.489,155.073,207.702,197.831,195.148z"/>
		<path style="opacity:0.9;fill:#FFFFFF;" d="M197.831,195.148c69.992-20.549,97.461-173.441,198.756-92.182
			c71.863,57.649,24.539,202.438-66.683,187.39c-55.213-9.108-46.644-10.309-94.092,17.954
			c-48.084,28.642-100.718,43.552-150.635-4.682c-25.831-24.961-35.007-86.803-8.856-119.388
			C109.028,143.489,155.073,207.702,197.831,195.148z"/>
	</g>
</g>
<g id="Shadow_1_">
	<ellipse id="_x3C_Path_x3E__359_" style="fill:#F5F5F5;" cx="250" cy="416.238" rx="193.889" ry="11.323"/>
</g>
<g id="Arrow_1">
	<g>
		<g>
			<polygon style="fill:#407BFF;" points="245.471,235.109 247.154,237.192 87.422,364.424 94.226,372.847 95.159,374.003 
				254.891,246.771 256.573,248.854 259.565,235.081 			"/>
			<polygon style="opacity:0.7;fill:#FFFFFF;" points="245.471,235.109 247.154,237.192 87.422,364.424 94.226,372.847 
				95.159,374.003 254.891,246.771 256.573,248.854 259.565,235.081 			"/>
		</g>
		<path style="fill:#407BFF;" d="M63.913,373.322c0-2.904,2.355-5.259,5.259-5.259c0.525,0,1.032,0.079,1.51,0.223
			c-0.077-0.527-0.118-1.066-0.118-1.614c0-6.15,4.986-11.136,11.136-11.136c0.701,0,1.386,0.068,2.051,0.192
			c1.712-2.802,4.788-4.678,8.312-4.678c5.332,0,9.658,4.285,9.737,9.598c0.054-0.001,0.107-0.008,0.162-0.008
			c4.955,0,8.971,4.016,8.971,8.971c0,4.954-4.016,8.971-8.971,8.971l-32.945,0l0.007-0.008
			C66.188,378.495,63.913,376.177,63.913,373.322z"/>
		<path style="opacity:0.8;fill:#FFFFFF;" d="M63.913,373.322c0-2.904,2.355-5.259,5.259-5.259c0.525,0,1.032,0.079,1.51,0.223
			c-0.077-0.527-0.118-1.066-0.118-1.614c0-6.15,4.986-11.136,11.136-11.136c0.701,0,1.386,0.068,2.051,0.192
			c1.712-2.802,4.788-4.678,8.312-4.678c5.332,0,9.658,4.285,9.737,9.598c0.054-0.001,0.107-0.008,0.162-0.008
			c4.955,0,8.971,4.016,8.971,8.971c0,4.954-4.016,8.971-8.971,8.971l-32.945,0l0.007-0.008
			C66.188,378.495,63.913,376.177,63.913,373.322z"/>
	</g>
</g>
<g id="Arrow_3">
	<g>
		<g>
			<polygon style="fill:#407BFF;" points="398.751,315.71 402.74,320.649 328.494,380.624 344.625,400.595 346.839,403.336 
				421.085,343.361 425.075,348.3 432.169,315.644 			"/>
			<polygon style="opacity:0.5;fill:#FFFFFF;" points="398.751,315.71 402.74,320.649 328.494,380.624 344.625,400.595 
				346.839,403.336 421.085,343.361 425.075,348.3 432.169,315.644 			"/>
		</g>
		<path style="fill:#407BFF;" d="M358.61,378.466c-2.996-4.78-8.296-7.97-14.354-7.97c-6.158,0-11.534,3.296-14.5,8.21
			c-0.779-0.218-1.597-0.343-2.445-0.343c-5.013,0-9.078,4.064-9.078,9.078c0,0.004,0.001,0.008,0.001,0.012h-4.786
			c-2.493,0-4.533,2.04-4.533,4.533c0,2.493,2.04,4.533,4.533,4.533h16.516c3.007,4.724,8.277,7.867,14.292,7.867
			c4.743,0,9.025-1.954,12.101-5.094c0.286,0.023,0.573,0.044,0.865,0.044c5.791,0,10.486-4.695,10.486-10.486
			C367.708,383.53,363.744,379.147,358.61,378.466z"/>
		<path style="opacity:0.8;fill:#FFFFFF;" d="M358.61,378.466c-2.996-4.78-8.296-7.97-14.354-7.97c-6.158,0-11.534,3.296-14.5,8.21
			c-0.779-0.218-1.597-0.343-2.445-0.343c-5.013,0-9.078,4.064-9.078,9.078c0,0.004,0.001,0.008,0.001,0.012h-4.786
			c-2.493,0-4.533,2.04-4.533,4.533c0,2.493,2.04,4.533,4.533,4.533h16.516c3.007,4.724,8.277,7.867,14.292,7.867
			c4.743,0,9.025-1.954,12.101-5.094c0.286,0.023,0.573,0.044,0.865,0.044c5.791,0,10.486-4.695,10.486-10.486
			C367.708,383.53,363.744,379.147,358.61,378.466z"/>
	</g>
</g>
<g id="Character_1">
	<g>
		<path style="fill:#FFB573;" d="M247.141,175.552l-1.442-1.519c-0.388-0.409-0.957-0.591-1.51-0.485l-2.157,0.414
			c-0.705,0.135-1.242,0.71-1.329,1.422l-1.105,9.039l3.346,1.283c4.073-1.772,3.862-7.153,3.862-7.153l0.586-1.071
			C247.736,176.853,247.635,176.073,247.141,175.552z"/>
		<path style="fill:#407BFF;" d="M206.774,202.639c0,0,3.203,0.194,5.082,0.148c1.894-0.026,3.78-0.06,5.633-0.166
			c1.846-0.118,3.68-0.248,5.363-0.481c0.834-0.117,1.644-0.267,2.282-0.441c0.299-0.086,0.588-0.177,0.721-0.231
			c0.215-0.099-0.023,0.075,0.098,0.007c0.313-0.266,0.92-0.989,1.451-1.66c0.548-0.696,1.1-1.446,1.646-2.209
			c1.097-1.53,2.186-3.12,3.273-4.719l6.532-9.692l5.104,2.718c-0.75,1.867-1.564,3.666-2.379,5.487
			c-0.844,1.801-1.704,3.597-2.591,5.393c-0.901,1.789-1.837,3.567-2.854,5.347c-0.515,0.89-1.044,1.781-1.626,2.691
			c-0.606,0.929-1.163,1.797-2.216,2.945c-0.567,0.631-1.606,1.396-2.276,1.726c-0.738,0.403-1.372,0.654-2,0.891
			c-1.228,0.443-2.34,0.723-3.435,0.968c-2.181,0.486-4.258,0.775-6.327,0.973c-4.143,0.411-8.119,0.565-12.272,0.472
			L206.774,202.639z"/>
		<path style="opacity:0.7;fill:#FFFFFF;" d="M243.954,185.917c-0.75,1.86-1.56,3.66-2.37,5.48c-0.85,1.8-1.71,3.6-2.6,5.4
			c-0.9,1.78-1.83,3.56-2.85,5.34c-0.51,0.89-1.04,1.78-1.63,2.69c-0.6,0.93-1.16,1.8-2.21,2.95c-0.57,0.63-1.61,1.39-2.28,1.72
			c-0.74,0.41-1.37,0.66-2,0.9c-1.23,0.44-2.34,0.72-3.43,0.96c-2.18,0.49-4.26,0.78-6.33,0.98c-0.89,0.09-1.77,0.16-2.64,0.23
			c-3.21,0.23-6.37,0.31-9.63,0.24l0.16-2.1l0.63-8.07c0,0,3.2,0.2,5.08,0.15c1.9-0.03,3.78-0.06,5.64-0.17
			c1.84-0.11,3.68-0.24,5.36-0.48c0.83-0.11,1.64-0.26,2.28-0.44c0.3-0.08,0.59-0.17,0.72-0.23c0.22-0.1-0.02,0.08,0.1,0.01
			c0.31-0.27,0.92-0.99,1.45-1.66c0.55-0.7,1.1-1.45,1.64-2.21c1.1-1.53,2.19-3.12,3.28-4.72l6.53-9.69L243.954,185.917z"/>
		<path style="opacity:0.1;" d="M215.614,212.567c-3.21,0.23-6.37,0.31-9.63,0.24l0.16-2.1l0.78-1.84
			C206.924,208.867,212.164,208.797,215.614,212.567z"/>
		<path d="M153.29,382.03c0,0-9.053-6.228-8.498-10.412c0.055-0.411-0.186-0.774-0.621-0.84l-7.674-1.161
			c-0.358-0.054-0.741,0.109-0.953,0.407l-4.534,6.354l2.037,0.737l1.093-0.767l0.514,1.348c11.055,3.999,15.875,5.61,18.312,5.712
			C153.639,382.547,153.29,382.03,153.29,382.03z"/>
		<g>
			<path style="fill:#263238;" d="M204.274,264.397c0,0-0.46,1.2-1.27,3.28c-0.87,2.25-2.15,5.53-3.69,9.43
				c-1.03,2.6-2.17,5.48-3.4,8.51c-5.65,14.04-12.95,31.41-17.78,40.18c-9.25,16.78-33.35,48.65-33.35,48.65l-9.63-3.52
				c0,0,17.34-32.82,26.09-49.45c2.67-5.07,5.74-12.53,8.78-20.67c1.45-3.87,2.89-7.9,4.28-11.89c0.63-1.8,1.25-3.6,1.85-5.37
				c1.59-4.68,3.08-9.19,4.39-13.21c0.16-0.5,0.32-1,0.48-1.48c0.53-1.65,1.03-3.21,1.48-4.65c1.88-5.92,3.05-9.82,3.09-9.97
				c0.01,0,0.01,0,0.01,0l8.59,4.68L204.274,264.397z"/>
		</g>
		<path style="opacity:0.3;" d="M203.004,267.677c-0.87,2.25-2.15,5.53-3.69,9.43c-1.03,2.6-2.17,5.48-3.4,8.51
			c-7.86,1.58-15.86,2.65-21.61,3.3c0.63-1.8,1.25-3.6,1.85-5.37c1.59-4.68,3.08-9.19,4.39-13.21c0.16-0.5,0.32-1,0.48-1.48
			c0.53-1.65,1.03-3.21,1.48-4.65C188.284,264.997,196.014,266.177,203.004,267.677z"/>
		<g>
			<path style="fill:#407BFF;" d="M173.499,207.964c0,0.008,0.007,0.015,0.007,0.022c1.386,4.652,2.199,10.058,2.653,15.388
				c0.35,4.146,0.483,8.229,0.501,11.891c0.014,3.69-0.097,6.956-0.217,9.457c-0.161,3.212-0.351,5.191-0.351,5.191l30.383,1.561
				c9.117-33.039,0.301-48.836,0.301-48.836s-3.786-0.382-8.147-0.187c-0.562,0.017-1.133,0.061-1.718,0.106
				c-3.716,0.31-9.636,1.485-13.589,2.378c-0.815,0.179-1.633,0.391-2.432,0.607C176.92,206.625,173.499,207.964,173.499,207.964z"
				/>
			<path style="opacity:0.7;fill:#FFFFFF;" d="M206.474,251.477l-30.38-1.56c0,0,0.19-1.98,0.35-5.2c0.04-0.94,0.08-2.01,0.12-3.17
				c0.06-1.87,0.1-3.99,0.1-6.28c-0.01-1.11-0.03-2.26-0.06-3.44c0-0.19-0.01-0.38-0.01-0.57c-0.05-1.87-0.14-3.81-0.27-5.78
				c-0.06-0.7-0.11-1.4-0.17-2.1c-0.04-0.55-0.09-1.11-0.14-1.66c-0.15-1.4-0.31-2.8-0.51-4.18c-0.05-0.38-0.11-0.76-0.17-1.13
				c-0.09-0.63-0.19-1.24-0.3-1.86c-0.41-2.28-0.91-4.5-1.52-6.57c0,0-0.01-0.01-0.02-0.01c0,0,3.43-1.34,7.4-2.43
				c0.79-0.21,1.61-0.42,2.42-0.6c3.96-0.89,9.88-2.07,13.59-2.38c0.59-0.04,1.16-0.09,1.73-0.1c4.35-0.2,8.14,0.18,8.14,0.18
				S215.594,218.427,206.474,251.477z"/>
		</g>
		<path d="M225.265,330.541c0,0-8.68-6.738-7.885-10.883c0.078-0.407-0.141-0.783-0.571-0.874l-7.594-1.6
			c-0.355-0.075-0.746,0.066-0.975,0.351l-4.891,6.083l1.991,0.853l1.136-0.702l0.436,1.375c10.807,4.629,15.526,6.513,17.954,6.756
			C225.583,331.077,225.265,330.541,225.265,330.541z"/>
		<path style="fill:#263238;" d="M190.622,277.288c0.456,0.024,0.71,0.025,0.71,0.025l36.424,5.295l-20.734,34.397l10.382,3.952
			c0,0,37.543-40.479,29.156-49.709c-6.898-7.591-40.697-12.209-40.697-12.209l1.109-7.923l-31.263-6.155
			C162.344,274.216,186.148,277.014,190.622,277.288z"/>
		<g>
			<g>
				<polygon style="fill:#263238;" points="175.338,248.071 174.675,247.943 175.281,245.836 175.871,245.95 				"/>
				<polygon style="fill:#263238;" points="199.93,252.83 186.583,250.247 187.104,248.128 200.396,250.706 				"/>
				<polygon style="fill:#263238;" points="201.425,250.906 207.068,252 206.692,254.139 200.979,253.033 				"/>
				<polygon style="fill:#263238;" points="176.901,246.15 186.078,247.93 185.536,250.045 176.389,248.275 				"/>
			</g>
			<g style="opacity:0.2;">
				<polygon style="fill:#FFFFFF;" points="175.338,248.071 174.675,247.943 175.281,245.836 175.871,245.95 				"/>
				<polygon style="fill:#FFFFFF;" points="199.93,252.83 186.583,250.247 187.104,248.128 200.396,250.706 				"/>
				<polygon style="fill:#FFFFFF;" points="201.425,250.906 207.068,252 206.692,254.139 200.979,253.033 				"/>
				<polygon style="fill:#FFFFFF;" points="176.901,246.15 186.078,247.93 185.536,250.045 176.389,248.275 				"/>
			</g>
			<g>
				<path style="fill:none;stroke:#FFFFFF;stroke-width:0.5891;stroke-miterlimit:10;" d="M196.225,250.316l-0.301,1.29
					c-0.048,0.205-0.248,0.337-0.455,0.3l-3.342-0.593c-0.226-0.04-0.371-0.264-0.315-0.486l0.335-1.339
					c0.051-0.204,0.253-0.333,0.46-0.293l3.307,0.641C196.135,249.88,196.277,250.097,196.225,250.316z"/>
				
					<line style="fill:none;stroke:#FFFFFF;stroke-width:0.5891;stroke-linecap:round;stroke-linejoin:round;stroke-miterlimit:10;" x1="193.457" y1="250.421" x2="192.437" y2="250.242"/>
			</g>
		</g>
		<g>
			<path style="fill:#EBB376;" d="M186.469,191.15l7.936,6.578c-0.776,3.22,0.571,6.189,2.135,6.739c0,0,1.159,2.761-1.072,3.226
				c-4.523,0.943-9.683-3.438-9.683-3.438C188.177,201.683,187.312,195.26,186.469,191.15z"/>
			<path style="opacity:0.2;" d="M189.704,193.834l4.697,3.89c-0.186,0.762-0.33,1.534-0.378,2.283
				c-1.762-0.222-4.195-2.108-4.396-3.944C189.526,195.146,189.557,194.264,189.704,193.834z"/>
		</g>
		<g>
			<path style="fill:#263238;" d="M193.475,178.152c1.92,1.197,4.522,4.806,1.295,5.674
				C191.542,184.693,190.174,176.095,193.475,178.152z"/>
			<path style="fill:#FFB573;" d="M183.563,190.486c3.358,4.428,5.099,7.194,8.999,7.986c5.866,1.193,10.132-4.782,8.159-10.139
				c-1.776-4.823-6.968-11.254-12.691-10.034C182.39,179.503,180.205,186.058,183.563,190.486z"/>
			<path style="fill:#263238;" d="M184.554,185.665l-4.033-4.706c0,0-5.328,3.92-2.909,6.293c-1.596,3.753,4.742,8.991,10.282,7.915
				c0.642-3.385-4.293-9.166-4.293-9.166C183.906,185.909,184.227,185.792,184.554,185.665z"/>
			<path style="fill:#FFB573;" d="M184.343,195.521c1.16,0.943,2.647,1.255,3.866,1.1c1.833-0.233,2.046-2.06,0.947-3.427
				c-0.989-1.231-3.135-2.593-4.692-1.671C182.931,192.433,183.016,194.443,184.343,195.521z"/>
			<path style="fill:#263238;" d="M191.394,187.037c0.25,0.376,0.652,0.546,0.896,0.38c0.245-0.166,0.24-0.606-0.01-0.982
				c-0.25-0.376-0.652-0.546-0.896-0.38C191.139,186.221,191.144,186.66,191.394,187.037z"/>
			<path style="fill:#263238;" d="M195.625,184.16c0.25,0.376,0.652,0.546,0.896,0.38c0.245-0.166,0.24-0.606-0.01-0.982
				c-0.25-0.376-0.652-0.546-0.896-0.38C195.37,183.344,195.374,183.784,195.625,184.16z"/>
			<path style="fill:#ED893E;" d="M194.404,185.262c0,0,2.263,1.496,3.884,1.868c-0.262,1.032-1.577,1.512-1.577,1.512
				L194.404,185.262z"/>
			<path style="fill:#263238;" d="M193.229,191.191c-0.165,0.089-0.331,0.193-0.499,0.316c-0.059,0.043-0.073,0.127-0.03,0.186
				c0.043,0.06,0.127,0.072,0.184,0.03c1.608-1.169,3.16-0.589,3.175-0.583c0.068,0.027,0.145-0.009,0.171-0.077
				c0.026-0.069-0.007-0.146-0.075-0.173C196.093,190.866,194.754,190.366,193.229,191.191z"/>
			<path style="fill:#263238;" d="M188.5,185.801c0.092,0.005,0.185-0.039,0.239-0.123c0.643-1.001,1.621-1.026,1.631-1.026
				c0.147-0.002,0.265-0.123,0.265-0.269c-0.001-0.146-0.121-0.264-0.267-0.262c-0.052,0-1.278,0.031-2.076,1.274
				c-0.08,0.124-0.044,0.288,0.079,0.367C188.411,185.786,188.455,185.799,188.5,185.801z"/>
			<path style="fill:#263238;" d="M195.674,180.746c0.015-0.048,0.017-0.101,0.002-0.154c-0.04-0.142-0.187-0.225-0.327-0.186
				c-1.412,0.391-1.778,1.557-1.801,1.607c-0.043,0.14,0.035,0.29,0.175,0.335c0.139,0.044,0.287-0.032,0.331-0.171
				c0.013-0.049,0.306-0.943,1.44-1.257C195.583,180.895,195.648,180.827,195.674,180.746z"/>
			<path style="fill:#263238;" d="M183.602,186c0,0,10.558-4.436,11.205-9.5c0.647-5.064-3.814-2.989-3.814-2.989
				s2.065-0.141,1.863,1.363c0,0-3.566-2.433-6.964-0.342c0,0,1.588-0.031,2.424,1.147c0,0-3.227,0.63-6.848,3.314
				C177.848,181.677,171.345,191.286,183.602,186z"/>
		</g>
		<path style="opacity:0.3;" d="M205.863,259.039l-17.209-1.976c0,0,6.813-1.119,17.587-0.724L205.863,259.039z"/>
		<path style="opacity:0.1;" d="M176.324,225.477c-0.06-0.7-0.11-1.4-0.17-2.1c-0.04-0.55-0.09-1.11-0.14-1.66
			c-0.15-1.4-0.31-2.8-0.51-4.18c-0.05-0.38-0.11-0.76-0.17-1.13c0.46-0.37,0.97-0.71,1.51-1.01
			C176.844,215.397,177.824,220.447,176.324,225.477z"/>
		<g>
			<path style="fill:#EBB376;" d="M147.646,250.045l-2.99,7.018l6.475,1.601c0,0,2.78-4.612,0.066-8.129L147.646,250.045z"/>
			<polygon style="fill:#EBB376;" points="145.121,262.473 150.233,262.511 151.13,258.664 144.655,257.063 			"/>
		</g>
		<path style="fill:#407BFF;" d="M176.761,212.821c0.445,4.401-1.057,6.19-1.057,6.19s-4.262,2.678-6.111,4.05
			c-1.572,1.185-3.113,2.388-4.574,3.593c-0.722,0.606-1.419,1.219-2.058,1.826c-0.632,0.6-1.224,1.225-1.598,1.709
			c-0.167,0.193-0.335,0.507-0.514,0.787c-0.182,0.294-0.372,0.734-0.569,1.09c-0.391,0.807-0.779,1.66-1.147,2.556
			c-0.739,1.786-1.438,3.649-2.103,5.539c-1.385,3.759-2.675,7.635-4.003,11.446l-5.906-1.404c0.601-4.149,1.412-8.193,2.348-12.289
			c0.494-2.037,1.041-4.077,1.669-6.152c0.312-1.035,0.667-2.09,1.067-3.172c0.239-0.569,0.431-1.082,0.73-1.691
			c0.315-0.617,0.605-1.221,1.039-1.86c0.8-1.196,1.585-2.098,2.375-2.968c0.79-0.86,1.583-1.653,2.382-2.418
			c1.59-1.527,3.222-2.918,4.875-4.257c3.31-2.691,6.634-5.149,10.195-7.524C173.802,207.873,176.358,208.838,176.761,212.821z"/>
		<path style="opacity:0.7;fill:#FFFFFF;" d="M176.761,212.821c0.445,4.401-1.057,6.19-1.057,6.19s-4.262,2.678-6.111,4.05
			c-1.572,1.185-3.113,2.388-4.574,3.593c-0.722,0.606-1.419,1.219-2.058,1.826c-0.632,0.6-1.224,1.225-1.598,1.709
			c-0.167,0.193-0.335,0.507-0.514,0.787c-0.182,0.294-0.372,0.734-0.569,1.09c-0.391,0.807-0.779,1.66-1.147,2.556
			c-0.739,1.786-1.438,3.649-2.103,5.539c-1.385,3.759-2.675,7.635-4.003,11.446l-5.906-1.404c0.601-4.149,1.412-8.193,2.348-12.289
			c0.494-2.037,1.041-4.077,1.669-6.152c0.312-1.035,0.667-2.09,1.067-3.172c0.239-0.569,0.431-1.082,0.73-1.691
			c0.315-0.617,0.605-1.221,1.039-1.86c0.8-1.196,1.585-2.098,2.375-2.968c0.79-0.86,1.583-1.653,2.382-2.418
			c1.59-1.527,3.222-2.918,4.875-4.257c3.31-2.691,6.634-5.149,10.195-7.524C173.802,207.873,176.358,208.838,176.761,212.821z"/>
		<g>
			<path style="fill:#407BFF;" d="M190.188,206.921l2.224,3.493c0,0-7.753,9.396-22.59,12.496l-0.99,3.02l3.155,0.826
				c0,0,16.025-4.147,22.419-16.167l3.303-3.679l-3.893-1.307L190.188,206.921z"/>
			<g>
				<polygon style="fill:#407BFF;" points="183.003,204.817 186.616,201.656 193.815,205.604 194.647,201.287 198.448,203.474 
					199.536,209.057 194.232,206.762 189.485,210.995 				"/>
				<polygon style="opacity:0.6;fill:#FFFFFF;" points="183.003,204.817 186.616,201.656 193.815,205.604 194.647,201.287 
					198.448,203.474 199.536,209.057 194.232,206.762 189.485,210.995 				"/>
			</g>
		</g>
	</g>
</g>
<g id="Character_2">
	<g>
		<path style="fill:#407BFF;" d="M282.189,142.272c0,0-6.724,8.341-13.548,7.648c-6.824-0.692-10.312,2.077-10.312,2.077
			l-0.666,3.329l3.659-0.494c0,0,0-2.638,7.121-2.341c7.121,0.297,12.461-5.825,14.538-8.6L282.189,142.272z"/>
		<g>
			<path style="fill:#407BFF;" d="M330.493,128.408l-0.142-0.656c-0.072-0.26-0.033-0.294-0.279-0.942
				c-0.391-1.014-1.049-1.849-1.63-2.372c-1.204-1.076-2.195-1.456-3.059-1.797c-1.711-0.606-3.074-0.797-4.423-0.962
				c-1.336-0.152-2.602-0.218-3.849-0.251c-2.489-0.072-4.888,0.052-7.266,0.201c-4.769,0.315-9.356,0.878-14.072,1.693l1.716,9.852
				c4.312-0.687,8.808-1.316,13.159-1.767c2.182-0.222,4.357-0.358,6.444-0.425c1.04-0.027,2.064-0.023,3.007,0.035
				c0.663,0.039,1.319,0.114,1.811,0.199c0.031,0.339,0.044,0.71,0.032,1.104c-0.063,1.7-0.489,3.69-1.07,5.673
				c-1.174,3.983-3.015,8.12-4.921,11.985l4.745,3.165c3.032-3.834,5.527-7.817,7.593-12.399c0.987-2.31,1.86-4.748,2.256-7.609
				C330.736,131.701,330.804,130.138,330.493,128.408z"/>
			<path style="opacity:0.7;fill:#FFFFFF;" d="M330.544,133.137c-0.32,2.36-0.98,4.44-1.75,6.39c-0.16,0.41-0.33,0.82-0.5,1.22
				c-2.07,4.58-4.57,8.56-7.6,12.39l-4.74-3.16c1.9-3.87,3.74-8,4.92-11.99c0.4-1.37,0.73-2.75,0.91-4.03
				c0.09-0.57,0.14-1.12,0.16-1.64c0.01-0.39,0-0.76-0.03-1.1c-0.49-0.09-1.15-0.16-1.81-0.2c-0.95-0.06-1.97-0.06-3.01-0.04
				c-0.08,0-0.15,0.01-0.23,0.01c-2.02,0.07-4.11,0.21-6.22,0.42c-4.22,0.44-8.56,1.04-12.75,1.71c-0.14,0.02-0.27,0.04-0.4,0.06
				l-1.72-9.86c4.72-0.81,9.3-1.37,14.07-1.69c2.38-0.15,4.78-0.27,7.27-0.2c1.25,0.03,2.51,0.1,3.85,0.25
				c1.35,0.17,2.71,0.36,4.42,0.96c0.86,0.34,1.85,0.72,3.06,1.8c0.58,0.52,1.24,1.36,1.63,2.37c0.24,0.65,0.21,0.68,0.28,0.94
				l0.14,0.66C330.804,130.137,330.734,131.697,330.544,133.137z"/>
			<path style="opacity:0.1;" d="M316.864,130.987c-2.02,0.07-4.11,0.21-6.22,0.42c-4.22,0.44-8.56,1.04-12.75,1.71
				c1.53-3.76,3.1-7.56,3.1-7.56S307.994,126.227,316.864,130.987z"/>
			<path style="opacity:0.1;" d="M328.794,139.527c-0.16,0.41-0.33,0.82-0.5,1.22c-2.07,4.58-4.57,8.56-7.6,12.39l-4.74-3.16
				c1.9-3.87,3.74-8,4.92-11.99c0.4-1.37,0.73-2.75,0.91-4.03C324.094,135.507,326.454,137.347,328.794,139.527z"/>
		</g>
		<g>
			<path style="fill:#263238;" d="M264.883,130.389c0.273,0.346,0.311,0.771,0.085,0.949c-0.226,0.179-0.631,0.043-0.904-0.303
				c-0.273-0.346-0.311-0.771-0.085-0.949C264.205,129.908,264.61,130.043,264.883,130.389z"/>
			<path style="fill:#DE5753;" d="M265.226,131.135c0,0,0.789,2.616,0.684,4.262c1.063,0.088,1.896-0.995,1.896-0.995
				L265.226,131.135z"/>
			<path style="fill:#263238;" d="M264.632,127.469c0.04-0.048,0.064-0.111,0.061-0.179c-0.006-0.143-0.127-0.253-0.27-0.247
				c-1.43,0.063-2.048,1.084-2.075,1.129c-0.073,0.123-0.032,0.282,0.091,0.354c0.123,0.072,0.282,0.03,0.354-0.09l0,0
				c0.02-0.034,0.512-0.825,1.653-0.876C264.521,127.557,264.587,127.522,264.632,127.469z"/>
			<path style="fill:#E4897B;" d="M274.842,125.039c3.304,2.381,9.631,6.149,13.221,4.721c0,0,3.227,2.686,0.127,9.433
				c-3.409,7.419-5.312,1.853-5.312,1.853c0.894-4.493-2.158-5.77-5.304-6.361L274.842,125.039z"/>
			<path style="fill:#E4897B;" d="M275.836,120.547c3.094,4.452,5.13,6.901,4.707,10.774c-0.636,5.827-7.413,8.022-11.775,4.584
				c-3.926-3.095-8.325-9.856-5.504-14.829C266.044,116.177,272.742,116.094,275.836,120.547z"/>
			<path style="fill:#263238;" d="M280.806,127.895c-0.464,2.523-8.956,5.975-12.81,0.535c0,0-4.836-0.039-7.745-2.954
				c-2.909-2.915-2.285-6.077,0.322-7.797c2.298-1.516,8.238-12.684,15.156-4.714C283.239,112.659,281.385,124.746,280.806,127.895z
				"/>
			<path style="fill:#263238;" d="M266.458,116.477c0,0-4.46-0.216-7.031,1.828c-2.571,2.044-1.846,8.314-0.857,9.498
				c0.989,1.183,2.044,1.183,2.044,1.183s-1.516-0.786-1.516-1.943c0,0,0.659,1.547,3.692,1.943c0,0-0.865-0.691-0.729-1.565
				c0,0,1.643,2.127,5.439,0C271.294,125.294,266.458,116.477,266.458,116.477z"/>
			<path style="fill:#E4897B;" d="M270.252,127.493c0.82,1.16,1.14,2.612,1.066,3.788c-0.11,1.768-1.59,1.907-2.754,0.792
				c-1.047-1.004-2.252-3.134-1.568-4.609C267.672,126.011,269.315,126.167,270.252,127.493z"/>
		</g>
		<g>
			<path style="fill:#407BFF;" d="M279.131,142.272c0,0-0.831-10.068,5.743-15.722l7.828,0.717
				C292.702,127.268,288.191,138.276,279.131,142.272z"/>
			<path style="opacity:0.6;fill:#FFFFFF;" d="M279.131,142.272c0,0-0.831-10.068,5.743-15.722l7.828,0.717
				C292.702,127.268,288.191,138.276,279.131,142.272z"/>
		</g>
		<path style="fill:#407BFF;" d="M301.701,164.917c0,0-11.839-11.624-24.926-19.761c0,0,8.719-20.466,19.756-22.293
			c0,0,28.534,8.617,36.813,31.969L301.701,164.917z"/>
		<polygon style="fill:#E4897B;" points="303.205,235.823 298.096,237.99 292.568,226.377 297.676,224.209 		"/>
		<path style="fill:#263238;" d="M333.343,154.832l-3.014,31.966c-1.656,1.226-4.295,2.179-7.48,2.922
			c-6.237,1.452-14.559,2.111-21.746,2.496c-8.072,0.44-14.701,0.524-15.3,0.988c-1.404,1.092,16.369,37.8,16.369,37.8l-8.483,1.057
			c0,0-22.294-30.576-25.18-41.199c-1.063-3.921-2.134-8.832,5.066-13.421c6.338-4.04,29.94-7.072,29.94-7.072l-1.816-5.453
			L333.343,154.832z"/>
		<path style="opacity:0.2;" d="M322.85,189.72c-6.237,1.452-14.559,2.111-21.746,2.496c-0.973-11.796,4.963-23.115,4.963-23.115
			l8.441-2.166L322.85,189.72z"/>
		<polygon style="fill:#E4897B;" points="377.592,231.115 378.496,236.59 365.906,239.228 365.003,233.753 		"/>
		<path style="fill:#407BFF;" d="M378.765,236.791c-0.037-0.04-0.095-0.053-0.146-0.032c-0.051,0.021-0.083,0.071-0.081,0.126
			c0.003,0.095,0.079,2.326,0.777,2.98c0.143,0.134,0.305,0.199,0.48,0.193c0.313-0.01,0.442-0.164,0.495-0.292
			c0.151-0.364-0.126-1.001-0.499-1.608C379.442,237.594,379.011,237.055,378.765,236.791z M378.823,237.256
			c0.665,0.802,1.394,2.001,1.224,2.409c-0.022,0.053-0.073,0.124-0.261,0.131c-0.104,0.003-0.2-0.037-0.292-0.123
			c-0.057-0.054-0.11-0.122-0.159-0.201C378.995,238.92,378.868,237.833,378.823,237.256z"/>
		<path style="fill:#407BFF;" d="M378.719,236.759c-0.043-0.018-0.093-0.012-0.13,0.016c-0.051,0.039-1.245,0.95-1.368,1.855
			c-0.037,0.276,0.026,0.524,0.19,0.739c0.221,0.288,0.431,0.281,0.57,0.224c0.587-0.243,0.914-2.002,0.818-2.73
			c-0.003-0.019-0.009-0.036-0.018-0.052C378.766,236.789,378.745,236.77,378.719,236.759z M377.481,238.666
			c0.081-0.594,0.739-1.232,1.073-1.521c0.009,0.797-0.322,2.059-0.674,2.205c-0.029,0.012-0.116,0.048-0.26-0.141
			c-0.016-0.021-0.031-0.043-0.045-0.065C377.488,239.002,377.457,238.845,377.481,238.666z"/>
		<path style="fill:#263238;" d="M377.812,236.716l-3.178-5.16c-0.119-0.193-0.088-0.443,0.075-0.601l3.625-3.52
			c0.376-0.365,0.992-0.288,1.259,0.162c1.115,1.881,2.662,4.638,4.103,6.977c1.685,2.736,3.289,5.006,5.265,8.214
			c1.195,1.94-0.435,3.686-1.112,2.983c-3.085-3.198-5.031-6.163-8.967-8.144C378.454,237.412,378.064,237.124,377.812,236.716z"/>
		<path style="fill:#263238;" d="M333.343,154.832c0,0,10.165,26.132-6.985,36.272c0,0-0.218,30.195,4.117,33.734
			c5.275,4.306,43.909,6.497,43.909,6.497l-0.336,9.594c0,0-41.36,3.385-53.882-1.107c-14.663-5.261-17.928-74.451-17.928-74.451
			L333.343,154.832z"/>
		<path style="opacity:0.2;" d="M321.591,170.874l6.174-1.868c0,0,0.849,5.312,0.837,8.155l-2.863,2.459l-2.709-0.863
			C323.029,178.758,322.29,173.079,321.591,170.874z"/>
		<g>
			<polygon style="fill:#263238;" points="303.736,164.938 304.535,167.478 302.252,168.186 301.448,165.668 			"/>
			<polygon style="fill:#263238;" points="314.272,161.558 315.132,164.193 305.677,167.124 304.842,164.58 			"/>
			<polygon style="fill:#263238;" points="326.039,157.787 326.897,160.544 316.328,163.818 315.489,161.168 			"/>
			<polygon style="fill:#263238;" points="334.638,158.14 328.129,160.158 328.122,160.159 327.249,157.397 333.71,155.326 			"/>
			<g style="opacity:0.2;">
				<polygon style="fill:#FFFFFF;" points="303.736,164.938 304.535,167.478 302.252,168.186 301.448,165.668 				"/>
				<polygon style="fill:#FFFFFF;" points="314.272,161.558 315.132,164.193 305.677,167.124 304.842,164.58 				"/>
				<polygon style="fill:#FFFFFF;" points="326.039,157.787 326.897,160.544 316.328,163.818 315.489,161.168 				"/>
				<polygon style="fill:#FFFFFF;" points="334.638,158.14 328.129,160.158 328.122,160.159 327.249,157.397 333.71,155.326 				"/>
			</g>
		</g>
		<path style="fill:#407BFF;" d="M296.528,236.368c0.053-0.012,0.094-0.056,0.101-0.11c0.008-0.054-0.019-0.107-0.067-0.134
			c-0.083-0.045-2.048-1.104-2.966-0.831c-0.188,0.056-0.326,0.163-0.409,0.317c-0.149,0.275-0.081,0.465,0.003,0.575
			c0.238,0.314,0.928,0.396,1.64,0.379C295.494,236.549,296.176,236.447,296.528,236.368z M296.097,236.184
			c-1.028,0.17-2.43,0.195-2.697-0.157c-0.035-0.046-0.07-0.126,0.019-0.291c0.05-0.092,0.132-0.154,0.253-0.19
			c0.076-0.022,0.161-0.034,0.253-0.036C294.573,235.494,295.576,235.932,296.097,236.184z"/>
		<path style="fill:#407BFF;" d="M296.579,236.345c0.037-0.028,0.057-0.074,0.051-0.12c-0.008-0.063-0.193-1.554-0.912-2.117
			c-0.22-0.172-0.465-0.242-0.734-0.208c-0.36,0.045-0.46,0.231-0.481,0.379c-0.087,0.63,1.268,1.798,1.945,2.083
			c0.017,0.007,0.036,0.011,0.054,0.01C296.529,236.371,296.556,236.362,296.579,236.345z M295.556,234.315
			c0.473,0.369,0.691,1.259,0.773,1.693c-0.693-0.394-1.616-1.316-1.564-1.694c0.004-0.031,0.017-0.124,0.253-0.154
			c0.026-0.003,0.053-0.005,0.079-0.006C295.262,234.151,295.414,234.203,295.556,234.315z"/>
		<path style="fill:#263238;" d="M297.073,235.584l6.058-0.143c0.227-0.005,0.427,0.147,0.481,0.368l1.213,4.905
			c0.126,0.508-0.251,1.002-0.775,1.006c-2.186,0.015-5.347-0.039-8.094,0.026c-3.212,0.076-5.982,0.317-9.748,0.406
			c-2.277,0.054-2.964-2.234-2.016-2.465c4.318-1.052,7.859-1.238,11.554-3.639C296.149,235.787,296.595,235.595,297.073,235.584z"
			/>
		<path style="opacity:0.7;fill:#FFFFFF;" d="M333.344,154.837l-31.64,10.08c0,0-5.58-5.47-13.31-11.54
			c-1.47-1.15-3.01-2.32-4.61-3.48c-2.25-1.64-4.61-3.25-7.01-4.74c0,0,8.72-20.47,19.76-22.29
			C296.534,122.867,325.064,131.477,333.344,154.837z"/>
		<path style="opacity:0.1;" d="M288.394,153.377c-1.47-1.15-3.01-2.32-4.61-3.48l0.62-1.87
			C284.404,148.027,287.064,150.267,288.394,153.377z"/>
		<path style="fill:#E4897B;" d="M242.677,174.257l-2.181,0.52c-0.544,0.13-0.957,0.574-1.046,1.126l-0.493,3.037
			c-0.104,0.641,0.251,1.268,0.854,1.509l1.594,0.636c0,0,4.602,3.32,8.493,1.176l-1.681-4.451l-3.29-2.977
			C244.318,174.282,243.476,174.067,242.677,174.257z"/>
		<path style="fill:#407BFF;" d="M282.387,145.964c2.796,1.678,3.04,5.138,3.04,5.138s-2.197,5.961-3.472,8.927
			c-0.866,2.013-1.765,4.033-2.811,6.042c-1.081,2.026-2.12,4.012-3.885,6.206l-0.344,0.415l-0.41,0.441
			c-0.247,0.278-0.613,0.609-0.969,0.916c-0.151,0.142-0.428,0.336-0.661,0.499c-0.227,0.156-0.543,0.366-0.635,0.401l-0.846,0.439
			c-1.101,0.555-2.132,0.988-3.167,1.414c-2.055,0.842-4.089,1.574-6.129,2.275c-4.092,1.369-8.163,2.62-12.342,3.673l-1.984-5.348
			c3.749-1.921,7.57-3.74,11.3-5.615c1.868-0.926,3.728-1.858,5.514-2.798c0.88-0.475,1.757-0.961,2.514-1.421l0.538-0.34
			c0.145-0.083,0.034-0.044,0.024-0.038c-0.022,0.003-0.069,0.061-0.036,0.012c0.031-0.054,0.064-0.071,0.155-0.202l0.12-0.15
			l0.144-0.211c0.809-1.176,1.726-2.975,2.517-4.739c0.793-1.805,1.586-3.667,2.316-5.576c1.452-3.802,2.847-7.767,4.147-11.608
			C277.023,144.717,279.42,144.184,282.387,145.964z"/>
		<path style="opacity:0.7;fill:#FFFFFF;" d="M282.387,145.964c2.796,1.678,3.04,5.138,3.04,5.138s-2.197,5.961-3.472,8.927
			c-0.866,2.013-1.765,4.033-2.811,6.042c-1.081,2.026-2.12,4.012-3.885,6.206l-0.344,0.415l-0.41,0.441
			c-0.247,0.278-0.613,0.609-0.969,0.916c-0.151,0.142-0.428,0.336-0.661,0.499c-0.227,0.156-0.543,0.366-0.635,0.401l-0.846,0.439
			c-1.101,0.555-2.132,0.988-3.167,1.414c-2.055,0.842-4.089,1.574-6.129,2.275c-4.092,1.369-8.163,2.62-12.342,3.673l-1.984-5.348
			c3.749-1.921,7.57-3.74,11.3-5.615c1.868-0.926,3.728-1.858,5.514-2.798c0.88-0.475,1.757-0.961,2.514-1.421l0.538-0.34
			c0.145-0.083,0.034-0.044,0.024-0.038c-0.022,0.003-0.069,0.061-0.036,0.012c0.031-0.054,0.064-0.071,0.155-0.202l0.12-0.15
			l0.144-0.211c0.809-1.176,1.726-2.975,2.517-4.739c0.793-1.805,1.586-3.667,2.316-5.576c1.452-3.802,2.847-7.767,4.147-11.608
			C277.023,144.717,279.42,144.184,282.387,145.964z"/>
	</g>
</g>
<g id="Arrow_2">
	<g>
		<g>
			<polygon style="fill:#407BFF;" points="99.506,411.316 268.389,411.316 357.766,339.119 361.685,343.971 383.699,343.971 
				406.125,240.74 384.102,240.784 384.112,240.74 278.472,240.95 291.084,256.562 			"/>
			<polygon style="opacity:0.2;fill:#FFFFFF;" points="99.506,411.316 246.376,411.316 349.074,328.359 361.685,343.971 
				384.112,240.74 278.472,240.95 291.084,256.562 			"/>
		</g>
		<path style="fill:#407BFF;" d="M96.068,405.358h121.259c-0.057-0.513-0.091-1.034-0.091-1.562c0-7.786,6.312-14.097,14.097-14.097
			c0.173,0,0.341,0.02,0.513,0.026c1.767-4.741,6.321-8.124,11.677-8.124c6.888,0,12.472,5.584,12.472,12.472
			c0,0.01-0.001,0.019-0.001,0.028c6.107,0.285,11,5.158,11.318,11.257h0.567c3.447,0,6.268,2.82,6.268,6.268
			c0,3.447-2.82,6.267-6.268,6.267H96.068c-3.447,0-6.267-2.82-6.267-6.267C89.801,408.178,92.621,405.358,96.068,405.358z"/>
		<path style="opacity:0.7;fill:#FFFFFF;" d="M96.068,405.358h121.259c-0.057-0.513-0.091-1.034-0.091-1.562
			c0-7.786,6.312-14.097,14.097-14.097c0.173,0,0.341,0.02,0.513,0.026c1.767-4.741,6.321-8.124,11.677-8.124
			c6.888,0,12.472,5.584,12.472,12.472c0,0.01-0.001,0.019-0.001,0.028c6.107,0.285,11,5.158,11.318,11.257h0.567
			c3.447,0,6.268,2.82,6.268,6.268c0,3.447-2.82,6.267-6.268,6.267H96.068c-3.447,0-6.267-2.82-6.267-6.267
			C89.801,408.178,92.621,405.358,96.068,405.358z"/>
	</g>
</g>
</svg>
