<?xml version="1.0" encoding="utf-8"?>
<!-- Generator: Adobe Illustrator 27.5.0, SVG Export Plug-In . SVG Version: 6.00 Build 0)  -->
<svg version="1.1" xmlns="http://www.w3.org/2000/svg" xmlns:xlink="http://www.w3.org/1999/xlink" x="0px" y="0px"
	 viewBox="0 0 500 500" style="enable-background:new 0 0 500 500;" xml:space="preserve">
<g id="Background_Complete">
	<g>
		<rect x="416.779" y="398.494" style="fill:#EBEBEB;" width="33.122" height="0.25"/>
		<rect x="322.527" y="401.208" style="fill:#EBEBEB;" width="8.693" height="0.25"/>
		<rect x="396.586" y="389.208" style="fill:#EBEBEB;" width="19.192" height="0.25"/>
		<rect x="52.459" y="390.888" style="fill:#EBEBEB;" width="43.193" height="0.25"/>
		<rect x="104.556" y="390.888" style="fill:#EBEBEB;" width="6.333" height="0.25"/>
		<rect x="131.471" y="395.111" style="fill:#EBEBEB;" width="93.676" height="0.25"/>
		<g>
			<path style="fill:#EBEBEB;" d="M238.401,337.8H45.302c-3.147,0-5.708-2.561-5.708-5.708V60.66c0-3.147,2.561-5.708,5.708-5.708
				h193.099c3.146,0,5.707,2.561,5.707,5.708v271.432C244.108,335.239,241.547,337.8,238.401,337.8z M45.302,55.203
				c-3.01,0-5.458,2.448-5.458,5.458v271.432c0,3.01,2.448,5.458,5.458,5.458h193.099c3.009,0,5.457-2.448,5.457-5.458V60.66
				c0-3.009-2.448-5.458-5.457-5.458H45.302z"/>
			<path style="fill:#EBEBEB;" d="M454.698,337.8H261.599c-3.146,0-5.707-2.561-5.707-5.708V60.66c0-3.147,2.561-5.708,5.707-5.708
				h193.099c3.148,0,5.708,2.561,5.708,5.708v271.432C460.406,335.239,457.845,337.8,454.698,337.8z M261.599,55.203
				c-3.009,0-5.457,2.448-5.457,5.458v271.432c0,3.01,2.448,5.458,5.457,5.458h193.099c3.01,0,5.458-2.448,5.458-5.458V60.66
				c0-3.009-2.448-5.458-5.458-5.458H261.599z"/>
		</g>
		<rect y="382.398" style="fill:#EBEBEB;" width="500" height="0.25"/>
	</g>
	<g>
		<g>
			<g>
				<polygon style="fill:#EBEBEB;" points="63.183,288.385 52.611,382.204 57.897,382.204 69.061,288.385 				"/>
				<polygon style="fill:#EBEBEB;" points="96.194,288.385 85.623,382.204 90.909,382.204 102.073,288.385 				"/>
			</g>
			<g>
				<polygon style="fill:#F0F0F0;" points="73.285,357.878 70.682,382.204 73.995,382.204 79.146,357.878 				"/>
				<polygon style="fill:#F0F0F0;" points="103.702,357.878 106.305,382.204 102.992,382.204 97.841,357.878 				"/>
				<path style="fill:#E0E0E0;" d="M88.882,367.052L88.882,367.052c13.077,0,23.346-11.206,22.206-24.233l-8.599-98.283
					c-1.007-11.514-10.648-20.348-22.206-20.348h0c-13.077,0-23.346,11.206-22.206,24.233l8.599,98.283
					C67.684,358.218,77.325,367.052,88.882,367.052z"/>
				<path style="fill:#FAFAFA;" d="M108.428,344.731c-0.066,1.04-0.218,2.062-0.454,3.055c-0.435,1.92-1.182,3.746-2.166,5.401
					v0.009c-0.17,0.312-0.36,0.615-0.558,0.908c-0.643,0.965-1.362,1.863-2.166,2.696c-0.151,0.161-0.312,0.322-0.473,0.482
					c-1.466,1.428-3.16,2.63-5.023,3.547c-0.586,0.284-1.192,0.539-1.807,0.757c-2.071,0.766-4.313,1.182-6.669,1.182
					c-10.037,0-18.408-7.672-19.278-17.68l-7.69-96.382c-0.057-0.577-0.076-1.145-0.076-1.712c0-7.435,4.257-14,10.538-17.207
					c0.454-0.246,0.927-0.464,1.409-0.662c1.996-0.832,4.153-1.334,6.414-1.447c0.331-0.019,0.653-0.028,0.984-0.028
					c0.009,0,0.009,0,0.019,0c0.823,0,1.646,0.047,2.44,0.151c0.265,0.038,0.53,0.076,0.785,0.123
					c1.22,0.199,2.384,0.511,3.509,0.946c0.18,0.057,0.36,0.123,0.539,0.199c6.546,2.658,11.361,8.816,12.013,16.261l7.691,96.382
					C108.495,342.735,108.504,343.738,108.428,344.731z"/>
				<g>
					<path style="fill:#FFFFFF;" d="M103.084,356.802c-0.151,0.161-0.312,0.322-0.473,0.482c-1.466,1.428-3.16,2.63-5.023,3.547
						c-0.586,0.284-1.192,0.539-1.807,0.757L72.606,229.79c0.454-0.246,0.927-0.464,1.409-0.662
						c1.996-0.832,4.153-1.334,6.414-1.447L103.084,356.802z"/>
					<path style="fill:#FFFFFF;" d="M108.428,344.731c-0.066,1.04-0.218,2.062-0.454,3.055c-0.435,1.92-1.182,3.746-2.166,5.401
						L83.872,227.803c0.265,0.038,0.53,0.076,0.785,0.123c1.22,0.199,2.384,0.511,3.509,0.946L108.428,344.731z"/>
				</g>
			</g>
			<line style="fill:#F0F0F0;" x1="73.995" y1="382.204" x2="79.146" y2="357.878"/>
		</g>
		<g>
			<g>
				<g>
					<path style="fill:#F0F0F0;" d="M414.365,245.67l-1.919-1.58c-9.502-7.823-11.593-17.312-11.776-18.226
						c-0.372-1.403-0.181-2.694,0.541-3.641c0.603-0.791,1.537-1.245,2.563-1.245c0.828,0,1.63,0.258,2.256,0.727
						c1.186,0.887,4.148,3.026,4.782,3.414c5.594,1.875,4.201,15.377,3.862,18.085L414.365,245.67z M403.773,223.715
						c-0.232,0-0.331,0.095-0.385,0.167c-0.151,0.197-0.247,0.645-0.064,1.309l0.026,0.112c0.016,0.082,1.582,7.899,8.857,14.911
						c0.357-5.401-0.089-11.863-2.309-12.514c-0.679-0.199-5.016-3.435-5.508-3.804l0,0
						C404.238,223.783,404.008,223.715,403.773,223.715z M410.668,225.073c0.001,0,0.001,0,0.002,0.001
						C410.669,225.073,410.668,225.073,410.668,225.073z"/>
				</g>
				<g>
					<g>
						<path style="fill:#F0F0F0;" d="M431.838,245.67l-0.309-2.467c-0.339-2.708-1.731-16.21,3.862-18.085
							c0.624-0.383,3.591-2.522,4.782-3.414l0,0c0.626-0.468,1.427-0.726,2.256-0.726c1.026,0,1.96,0.454,2.562,1.245
							c0.722,0.947,0.913,2.238,0.541,3.641c-0.183,0.915-2.275,10.404-11.776,18.226L431.838,245.67z M441.814,223.896
							c-0.492,0.368-4.828,3.604-5.509,3.804c-2.22,0.651-2.666,7.113-2.309,12.514c7.276-7.012,8.841-14.829,8.858-14.913
							l0.025-0.109c0.182-0.664,0.087-1.112-0.064-1.309c-0.054-0.072-0.154-0.167-0.385-0.167
							C442.196,223.715,441.966,223.783,441.814,223.896L441.814,223.896z M435.535,225.073c-0.001,0-0.001,0-0.002,0.001
							C435.534,225.073,435.535,225.073,435.535,225.073z"/>
					</g>
					<g>
						<path style="fill:#F5F5F5;" d="M423.086,258.788L423.086,258.788c-6.965,0-12.61-23.202-12.61-30.166v-7.171h25.221v7.171
							C435.696,235.586,430.05,258.788,423.086,258.788z"/>
					</g>
					<rect x="421.137" y="257.655" style="fill:#F5F5F5;" width="4.095" height="20.165"/>
					<g>
						<g>
							<polygon style="fill:#E6E6E6;" points="433.867,288.407 412.095,288.407 410.37,282.06 435.591,282.06 							"/>
						</g>
						<g>
							<g>
								<g>
									<polygon style="fill:#F0F0F0;" points="425.307,271.84 421.122,271.9 419.082,275.443 427.245,275.443 									"/>
								</g>
								<g>
									<polygon style="fill:#EBEBEB;" points="426.569,273.915 419.741,273.917 416.651,277.992 429.744,277.992 									"/>
								</g>
							</g>
							<polygon style="fill:#F5F5F5;" points="416.71,277.445 429.639,277.445 435.591,282.06 410.37,282.06 							"/>
						</g>
					</g>
				</g>
				<g>
					<polygon style="fill:#F0F0F0;" points="421.122,260.99 425.307,260.931 427.234,256.48 419.07,256.48 					"/>
				</g>
			</g>
		</g>
		<g>
			<rect x="378.554" y="294.243" style="fill:#E0E0E0;" width="61.684" height="77.551"/>
			<rect x="441.903" y="288.474" style="fill:#E6E6E6;" width="7.754" height="93.384"/>
			<rect x="388.374" y="300.348" style="fill:#FAFAFA;" width="5.054" height="28.981"/>
			<rect x="409.329" y="300.348" style="fill:#F5F5F5;" width="5.054" height="28.981"/>
			<rect x="393.428" y="302.384" style="fill:#F5F5F5;" width="5.054" height="26.944"/>
			<rect x="404.275" y="302.384" style="fill:#FAFAFA;" width="5.054" height="26.944"/>
			<rect x="401.009" y="300.348" style="fill:#EBEBEB;" width="3.266" height="28.981"/>
			<rect x="398.482" y="302.384" style="fill:#FAFAFA;" width="2.527" height="26.944"/>
			<rect x="414.384" y="300.348" style="fill:#EBEBEB;" width="5.054" height="28.981"/>
			<rect x="419.438" y="302.384" style="fill:#E6E6E6;" width="5.054" height="26.944"/>
			<rect x="430.285" y="302.384" style="fill:#E6E6E6;" width="5.054" height="26.944"/>
			<rect x="427.019" y="300.348" style="fill:#FAFAFA;" width="3.266" height="28.981"/>
			<rect x="424.492" y="302.384" style="fill:#EBEBEB;" width="2.527" height="26.944"/>
			<rect x="435.34" y="301.034" style="fill:#FAFAFA;" width="2.527" height="28.295"/>
			
				<rect x="432.812" y="339.19" transform="matrix(-1 -1.224647e-16 1.224647e-16 -1 870.6789 707.362)" style="fill:#FAFAFA;" width="5.054" height="28.981"/>
			
				<rect x="411.857" y="339.19" transform="matrix(-1 -1.224647e-16 1.224647e-16 -1 828.7672 707.362)" style="fill:#FAFAFA;" width="5.054" height="28.981"/>
			
				<rect x="427.758" y="341.227" transform="matrix(-1 -1.224647e-16 1.224647e-16 -1 860.5705 709.3986)" style="fill:#F0F0F0;" width="5.054" height="26.944"/>
			
				<rect x="416.911" y="341.227" transform="matrix(-1 -1.224647e-16 1.224647e-16 -1 838.8756 709.3986)" style="fill:#EBEBEB;" width="5.054" height="26.944"/>
			
				<rect x="421.965" y="339.19" transform="matrix(-1 -1.224647e-16 1.224647e-16 -1 847.196 707.362)" style="fill:#FAFAFA;" width="3.266" height="28.981"/>
			
				<rect x="425.231" y="341.227" transform="matrix(-1 -1.224647e-16 1.224647e-16 -1 852.9893 709.3986)" style="fill:#F5F5F5;" width="2.527" height="26.944"/>
			
				<rect x="406.802" y="339.19" transform="matrix(-1 -1.224647e-16 1.224647e-16 -1 818.6588 707.362)" style="fill:#EBEBEB;" width="5.054" height="28.981"/>
			
				<rect x="401.748" y="341.227" transform="matrix(-1 -1.224647e-16 1.224647e-16 -1 808.5503 709.3986)" style="fill:#F5F5F5;" width="5.054" height="26.944"/>
			
				<rect x="390.901" y="341.227" transform="matrix(-1 -1.224647e-16 1.224647e-16 -1 786.8554 709.3986)" style="fill:#E6E6E6;" width="5.054" height="26.944"/>
			
				<rect x="395.955" y="339.19" transform="matrix(-1 -1.224647e-16 1.224647e-16 -1 795.1757 707.362)" style="fill:#FAFAFA;" width="3.266" height="28.981"/>
			
				<rect x="385.107" y="339.19" transform="matrix(-1 -1.224647e-16 1.224647e-16 -1 773.4809 707.362)" style="fill:#FAFAFA;" width="3.266" height="28.981"/>
			
				<rect x="399.221" y="341.227" transform="matrix(-1 -1.224647e-16 1.224647e-16 -1 800.9689 709.3986)" style="fill:#EBEBEB;" width="2.527" height="26.944"/>
			
				<rect x="388.374" y="339.877" transform="matrix(-1 -1.224647e-16 1.224647e-16 -1 779.2741 708.0484)" style="fill:#F0F0F0;" width="2.527" height="28.295"/>
			<path style="fill:#E6E6E6;" d="M439.928,288.474h-2.068h-61.259v88.151h61.259v5.233h4.135v-93.384H439.928z M437.86,368.172
				h-57.359v-33.981h57.359V368.172z M437.86,329.361h-57.359v-32.434h57.359V329.361z"/>
			
				<rect x="316.769" y="294.243" transform="matrix(-1 -1.224647e-16 1.224647e-16 -1 695.2227 666.0371)" style="fill:#E0E0E0;" width="61.685" height="77.551"/>
			
				<rect x="319.141" y="375.676" transform="matrix(-1 -1.224647e-16 1.224647e-16 -1 646.0357 757.5332)" style="fill:#E6E6E6;" width="7.754" height="6.181"/>
			
				<rect x="371.321" y="300.348" transform="matrix(-1 -1.224647e-16 1.224647e-16 -1 747.6966 629.6765)" style="fill:#FAFAFA;" width="5.054" height="28.981"/>
			
				<rect x="350.365" y="300.348" transform="matrix(-1 -1.224647e-16 1.224647e-16 -1 705.7846 629.6765)" style="fill:#F5F5F5;" width="5.054" height="28.981"/>
			
				<rect x="366.267" y="302.384" transform="matrix(-1 -1.224647e-16 1.224647e-16 -1 737.5881 631.7132)" style="fill:#F5F5F5;" width="5.054" height="26.944"/>
			
				<rect x="355.419" y="302.384" transform="matrix(-1 -1.224647e-16 1.224647e-16 -1 715.8931 631.7132)" style="fill:#FAFAFA;" width="5.054" height="26.944"/>
			
				<rect x="360.474" y="300.348" transform="matrix(-1 -1.224647e-16 1.224647e-16 -1 724.2134 629.6765)" style="fill:#EBEBEB;" width="3.266" height="28.981"/>
			
				<rect x="363.74" y="302.384" transform="matrix(-1 -1.224647e-16 1.224647e-16 -1 730.0066 631.7132)" style="fill:#FAFAFA;" width="2.527" height="26.944"/>
			
				<rect x="348.643" y="300.348" transform="matrix(-1 -1.224647e-16 1.224647e-16 -1 702.3402 629.6765)" style="fill:#EBEBEB;" width="5.054" height="28.981"/>
			
				<rect x="343.589" y="302.384" transform="matrix(-1 -1.224647e-16 1.224647e-16 -1 692.2317 631.7132)" style="fill:#E6E6E6;" width="5.054" height="26.944"/>
			
				<rect x="332.741" y="302.384" transform="matrix(-1 -1.224647e-16 1.224647e-16 -1 670.5369 631.7132)" style="fill:#E6E6E6;" width="5.054" height="26.944"/>
			
				<rect x="337.796" y="300.348" transform="matrix(-1 -1.224647e-16 1.224647e-16 -1 678.8573 629.6765)" style="fill:#FAFAFA;" width="3.266" height="28.981"/>
			
				<rect x="341.062" y="302.384" transform="matrix(-1 -1.224647e-16 1.224647e-16 -1 684.6504 631.7132)" style="fill:#EBEBEB;" width="2.527" height="26.944"/>
			
				<rect x="330.214" y="301.034" transform="matrix(-1 -1.224647e-16 1.224647e-16 -1 662.9555 630.363)" style="fill:#F5F5F5;" width="2.527" height="28.295"/>
			<rect x="327.84" y="339.19" style="fill:#FAFAFA;" width="5.054" height="28.981"/>
			<rect x="348.796" y="339.19" style="fill:#FAFAFA;" width="5.054" height="28.981"/>
			<rect x="332.894" y="341.227" style="fill:#F5F5F5;" width="5.054" height="26.944"/>
			<rect x="343.742" y="341.227" style="fill:#EBEBEB;" width="5.054" height="26.944"/>
			<rect x="340.476" y="339.19" style="fill:#FAFAFA;" width="3.266" height="28.981"/>
			<rect x="337.949" y="341.227" style="fill:#F5F5F5;" width="2.527" height="26.944"/>
			<rect x="350.518" y="339.19" style="fill:#EBEBEB;" width="5.054" height="28.981"/>
			<rect x="355.573" y="341.227" style="fill:#F5F5F5;" width="5.054" height="26.944"/>
			<rect x="366.42" y="341.227" style="fill:#E6E6E6;" width="5.054" height="26.944"/>
			<rect x="363.154" y="339.19" style="fill:#FAFAFA;" width="3.266" height="28.981"/>
			<rect x="373.335" y="339.19" style="fill:#FAFAFA;" width="3.266" height="28.981"/>
			<rect x="360.627" y="341.227" style="fill:#EBEBEB;" width="2.527" height="26.944"/>
			<rect x="371.474" y="339.877" style="fill:#EBEBEB;" width="2.527" height="28.295"/>
			<path style="fill:#E6E6E6;" d="M315.012,288.474v93.384h4.135v-5.233h61.259v-88.151h-61.259h-2.068H315.012z M319.147,334.191
				h57.359v33.981h-57.359V334.191z M319.147,296.926h57.359v32.434h-57.359V296.926z"/>
		</g>
	</g>
	<polygon style="fill:#F5F5F5;" points="252,143.472 277.101,65.218 276.792,147.398 324.847,80.731 299.158,158.794 
		365.461,110.24 316.907,176.544 394.97,150.854 328.303,198.909 410.483,198.6 332.229,223.701 410.483,248.802 328.303,248.493 
		394.97,296.548 316.907,270.859 365.461,337.163 299.158,288.608 324.847,366.671 276.792,300.004 277.101,382.184 252,303.931 
		226.899,382.184 227.208,300.004 179.153,366.671 204.842,288.608 138.538,337.163 187.093,270.859 109.03,296.548 
		175.697,248.493 93.517,248.802 171.771,223.701 93.517,198.6 175.697,198.909 109.03,150.854 187.093,176.544 138.538,110.24 
		204.842,158.794 179.153,80.731 227.208,147.398 226.899,65.218 	"/>
</g>
<g id="Background_Simple" style="display:none;">
	<g style="display:inline;">
		<g style="opacity:0.9;">
			<path style="fill:#407BFF;" d="M317.399,253.311c17.583,7.952,39.167,4.795,55.218-6.066
				c16.051-10.861,26.734-28.626,31.178-47.46c4.445-18.835,3.03-38.671-1.605-57.413c-5.456-22.056-15.519-43.226-30.978-59.838
				c-15.46-16.612-36.507-29.022-59.193-30.64c-58.873-4.198-100.543,27.459-100.121,96.337c0.23,37.571-76.84-2.213-118.356,35.568
				c-51.702,47.049-39.148,121.468-15.7,163.897c21.913,39.652,65.739,56.348,91.473,60.651
				c23.245,3.887,69.385,8.117,102.405-29.171c24.405-27.56,25.402-101.044,25.31-106.773c-0.092-5.729,1.339-11.734,5.219-15.973
				S312.186,250.953,317.399,253.311z"/>
		</g>
		<g style="opacity:0.9;">
			<path style="fill:#FFFFFF;" d="M317.399,253.311c17.583,7.952,39.167,4.795,55.218-6.066
				c16.051-10.861,26.734-28.626,31.178-47.46c4.445-18.835,3.03-38.671-1.605-57.413c-5.456-22.056-15.519-43.226-30.978-59.838
				c-15.46-16.612-36.507-29.022-59.193-30.64c-58.873-4.198-100.543,27.459-100.121,96.337c0.23,37.571-76.84-2.213-118.356,35.568
				c-51.702,47.049-39.148,121.468-15.7,163.897c21.913,39.652,65.739,56.348,91.473,60.651
				c23.245,3.887,69.385,8.117,102.405-29.171c24.405-27.56,25.402-101.044,25.31-106.773c-0.092-5.729,1.339-11.734,5.219-15.973
				S312.186,250.953,317.399,253.311z"/>
		</g>
	</g>
</g>
<g id="Inner_Self_1_">
	<g>
		<g>
			<g>
				<g>
					<g>
						<g>
							<g>
								<g>
									<g>
										<path style="fill:#407BFF;" d="M268.933,190.585c-3.596-2.32-4.995-7.768-5.39-13.471
											c-0.313-4.771,0.071-9.672,0.523-13.044c0.109-1.097,0.276-2.16,0.467-3.162c0.166-1.063,0.385-2.033,0.632-2.971
											l-32.605-13.453c3.583,5.396,6.312,22.684,5.553,28.244c-0.839,6.242-1.079,14.952-4.322,17.263L268.933,190.585z"/>
									</g>
									<g style="opacity:0.7;">
										<path style="fill:#FFFFFF;" d="M268.933,190.585c-3.596-2.32-4.995-7.768-5.39-13.471
											c-0.313-4.771,0.071-9.672,0.523-13.044c0.109-1.097,0.276-2.16,0.467-3.162c0.166-1.063,0.385-2.033,0.632-2.971
											l-32.605-13.453c3.583,5.396,6.312,22.684,5.553,28.244c-0.839,6.242-1.079,14.952-4.322,17.263L268.933,190.585z"/>
									</g>
									<g>
										<path style="fill:#FFB573;" d="M233.792,189.99c-7.011,4.997-4.032,12.856,1.686,19.275
											c2.367,2.658,4.752,4.951,7.053,6.92c10.895,9.32,28.048,5.366,33.086-8.057c2.232-5.946,1.463-12.329-6.684-17.543
											L233.792,189.99z"/>
									</g>
									<path style="opacity:0.2;enable-background:new    ;" d="M263.543,177.114c-0.313-4.771,0.071-9.672,0.523-13.044
										c0.109-1.097,0.276-2.16,0.467-3.162l-25.218-4.836C244.609,161.351,252.019,172.071,263.543,177.114z"/>
									<path style="fill:#407BFF;" d="M296.801,118.641c-0.799,5.418-8.227,14.232-7.875,13.698
										c0.351-0.534,0.35-1.229,0.306-1.872c-0.167-2.44-0.772-4.847-1.777-7.06c-0.625,3.025-1.586,9.291-4.576,9.339
										c-1.187-2.235-2.645-4.275-2.442-6.818c-0.691,2.604-1.323,5.223-2.014,7.827c-5.803-3.574-9.473-11.812-8.267-18.69
										c0.292-1.665,0.828-3.3,1.712-4.725c1.012-1.631,2.44-2.935,3.869-4.188c3.789-3.322,5.334-4.864,10.309-4.864
										C296.945,101.287,297.601,113.223,296.801,118.641z"/>
									<path style="opacity:0.3;enable-background:new    ;" d="M296.801,118.641c-0.799,5.418-8.227,14.232-7.875,13.698
										c0.351-0.534,0.35-1.229,0.306-1.872c-0.167-2.44-0.772-4.847-1.777-7.06c-0.625,3.025-1.586,9.291-4.576,9.339
										c-1.187-2.235-2.645-4.275-2.442-6.818c-0.691,2.604-1.323,5.223-2.014,7.827c-5.803-3.574-9.473-11.812-8.267-18.69
										c0.292-1.665,0.828-3.3,1.712-4.725c1.012-1.631,2.44-2.935,3.869-4.188c3.789-3.322,5.334-4.864,10.309-4.864
										C296.945,101.287,297.601,113.223,296.801,118.641z"/>
									<path style="fill:#407BFF;" d="M291.168,145.181c-4.05,22.068-30.466,33.704-47.905,17.894
										c-10.072-9.104-11.674-19.971-13.51-36.911c-0.292-2.571-0.578-5.27-0.907-8.149c-0.537-4.475-0.075-9.007,1.346-13.265
										c0.595-1.814,1.363-3.519,2.28-5.114c6.91-12.423,21.87-18.544,35.826-13.841
										C290.164,93.161,294.836,125.321,291.168,145.181z"/>
									<path style="opacity:0.7;fill:#FFFFFF;" d="M291.168,145.181c-4.05,22.068-30.466,33.704-47.905,17.894
										c-10.072-9.104-11.674-19.971-13.51-36.911c-0.292-2.571-0.578-5.27-0.907-8.149c-0.537-4.475-0.075-9.007,1.346-13.265
										c0.595-1.814,1.363-3.519,2.28-5.114c6.91-12.423,21.87-18.544,35.826-13.841
										C290.164,93.161,294.836,125.321,291.168,145.181z"/>
									<path style="fill:#407BFF;" d="M263.891,118.667c1.155-0.075,2.165,1.327,2.263,3.096c0.099,1.769-0.609,3.272-1.917,3.34
										c-1.307,0.068-2.319-1.308-2.417-3.103C261.753,120.13,262.737,118.743,263.891,118.667z"/>
									<path style="opacity:0.3;enable-background:new    ;" d="M263.891,118.667c1.155-0.075,2.165,1.327,2.263,3.096
										c0.099,1.769-0.609,3.272-1.917,3.34c-1.307,0.068-2.319-1.308-2.417-3.103
										C261.753,120.13,262.737,118.743,263.891,118.667z"/>
									<path style="fill:#407BFF;" d="M283.694,118.489c1.154-0.075,2.166,1.301,2.264,3.07c0.099,1.77-0.737,3.266-1.917,3.34
										c-1.18,0.074-2.191-1.302-2.29-3.072C281.679,120.059,282.539,118.563,283.694,118.489z"/>
									<path style="opacity:0.3;enable-background:new    ;" d="M283.694,118.489c1.154-0.075,2.166,1.301,2.264,3.07
										c0.099,1.77-0.737,3.266-1.917,3.34c-1.18,0.074-2.191-1.302-2.29-3.072C281.679,120.059,282.539,118.563,283.694,118.489z
										"/>
									<path style="fill:#407BFF;" d="M275.357,139.279c3.025,0.306,8.471-1.511,10.639-3.643
										c-4.124-4.089-8.731-8.682-11.568-13.751L275.357,139.279z"/>
									<path style="opacity:0.5;fill:#FFFFFF;" d="M275.357,139.279c3.025,0.306,8.471-1.511,10.639-3.643
										c-4.124-4.089-8.731-8.682-11.568-13.751L275.357,139.279z"/>
									<path style="fill:#407BFF;" d="M260.583,111.707c2.63-0.497,5.34,0.288,7.297,2.114l0,0
										c0.057,0.094,0.128,0.178,0.211,0.249c0.439,0.378,1.1,0.327,1.477-0.111c0.377-0.439,0.327-1.1-0.112-1.477
										c-2.4-2.347-5.784-3.39-9.089-2.804c-0.565,0.089-0.954,0.614-0.876,1.18c0.022,0.181,0.096,0.351,0.214,0.489
										C259.926,111.597,260.25,111.73,260.583,111.707z"/>
									<path style="opacity:0.3;enable-background:new    ;" d="M260.583,111.707c2.63-0.497,5.34,0.288,7.297,2.114l0,0
										c0.057,0.094,0.128,0.178,0.211,0.249c0.439,0.378,1.1,0.327,1.477-0.111c0.377-0.439,0.327-1.1-0.112-1.477
										c-2.4-2.347-5.784-3.39-9.089-2.804c-0.565,0.089-0.954,0.614-0.876,1.18c0.022,0.181,0.096,0.351,0.214,0.489
										C259.926,111.597,260.25,111.73,260.583,111.707z"/>
									<path style="fill:#407BFF;" d="M290.917,109.586c0-0.005,0-0.01,0-0.016c-0.003-0.578-0.474-1.046-1.053-1.042
										c-3.352-0.084-6.533,1.481-8.511,4.19c-0.006,0.009-0.012,0.019-0.018,0.028c-0.302,0.477-0.16,1.108,0.316,1.41
										c0.023,0.017,0.047,0.033,0.072,0.048c0.473,0.282,1.084,0.127,1.366-0.345c1.61-2.108,4.134-3.313,6.785-3.24
										c0.349,0.009,0.679-0.16,0.875-0.449C290.854,109.993,290.912,109.792,290.917,109.586z"/>
									<path style="opacity:0.3;enable-background:new    ;" d="M290.917,109.586c0-0.005,0-0.01,0-0.016
										c-0.003-0.578-0.474-1.046-1.053-1.042c-3.352-0.084-6.533,1.481-8.511,4.19c-0.006,0.009-0.012,0.019-0.018,0.028
										c-0.302,0.477-0.16,1.108,0.316,1.41c0.023,0.017,0.047,0.033,0.072,0.048c0.473,0.282,1.084,0.127,1.366-0.345
										c1.61-2.108,4.134-3.313,6.785-3.24c0.349,0.009,0.679-0.16,0.875-0.449C290.854,109.993,290.912,109.792,290.917,109.586z
										"/>
									<path style="fill:#407BFF;" d="M241.274,158.348c-2.662-0.499-5.206-1.614-7.376-3.234
										c-0.031,2.93-1.969,7.952-1.969,7.952c-9.314-3.067-16.986-21.71-18.014-27.887c-5.189,9.632-4.734,4.095-5.135,0.007
										c-0.578-5.885-0.727-11.982,1.284-17.544c2.011-5.561,6.591-10.518,12.426-11.479c2.02-0.333,4.512,0.917,5.607,2.647
										c1.095,1.73,1.555,3.778,1.927,5.792C232.73,129.212,232.613,146.274,241.274,158.348z"/>
									<path style="opacity:0.3;enable-background:new    ;" d="M241.274,158.348c-2.662-0.499-5.206-1.614-7.376-3.234
										c-0.031,2.93-1.969,7.952-1.969,7.952c-9.314-3.067-16.986-21.71-18.014-27.887c-5.189,9.632-4.734,4.095-5.135,0.007
										c-0.578-5.885-0.727-11.982,1.284-17.544c2.011-5.561,6.591-10.518,12.426-11.479c2.02-0.333,4.512,0.917,5.607,2.647
										c1.095,1.73,1.555,3.778,1.927,5.792C232.73,129.212,232.613,146.274,241.274,158.348z"/>
									<path style="fill:#407BFF;" d="M228.056,124.854c7.132,0.156,11.486,9.149,12.24,15.3
										c0.893,6.845-3.706,12.477-10.317,9.448c-4.978-2.313-8.816-6.531-10.65-11.704
										C217.125,131.536,220.923,124.699,228.056,124.854z"/>
									<path style="opacity:0.7;fill:#FFFFFF;" d="M228.056,124.854c7.132,0.156,11.486,9.149,12.24,15.3
										c0.893,6.845-3.706,12.477-10.317,9.448c-4.978-2.313-8.816-6.531-10.65-11.704
										C217.125,131.536,220.923,124.699,228.056,124.854z"/>
									<path style="fill:#407BFF;" d="M242.338,103.88c3.763,3.984,5.563,9.74,4.74,15.158
										c-0.823,5.418-8.499,14.226-8.136,13.693c0.363-0.534,0.362-1.228,0.316-1.872c-0.174-2.44-0.802-4.847-1.842-7.061
										c-0.644,3.025-1.634,9.29-4.727,9.336c-1.229-2.236-2.738-4.276-2.53-6.82c-0.713,2.603-1.365,5.222-2.078,7.825
										c-6.005-3.577-9.806-11.818-8.563-18.696c0.301-1.665,0.854-3.299,1.768-4.724c1.045-1.631,2.521-2.933,3.999-4.186
										c3.917-3.319,9.103-6.633,13.838-4.648C239.81,102.173,242.525,103.158,242.338,103.88z"/>
									<path style="opacity:0.3;enable-background:new    ;" d="M242.338,103.88c3.763,3.984,5.563,9.74,4.74,15.158
										c-0.823,5.418-8.499,14.226-8.136,13.693c0.363-0.534,0.362-1.228,0.316-1.872c-0.174-2.44-0.802-4.847-1.842-7.061
										c-0.644,3.025-1.634,9.29-4.727,9.336c-1.229-2.236-2.738-4.276-2.53-6.82c-0.713,2.603-1.365,5.222-2.078,7.825
										c-6.005-3.577-9.806-11.818-8.563-18.696c0.301-1.665,0.854-3.299,1.768-4.724c1.045-1.631,2.521-2.933,3.999-4.186
										c3.917-3.319,9.103-6.633,13.838-4.648C239.81,102.173,242.525,103.158,242.338,103.88z"/>
								</g>
								<g>
									<path style="fill:#263238;" d="M280.982,145.341c0,0-6.116-2.482-24.127-4.63c1.028,6.543,4.972,9.302,14.217,10.3
										C280.318,152.008,280.982,145.341,280.982,145.341z"/>
									<path style="fill:#FFFFFF;" d="M280.177,145.11c-0.557,1.459-1.843,2.516-3.383,2.777
										c-5.319-0.642-10.562-1.806-15.653-3.476c-1.758-0.401-3.127-1.778-3.518-3.538
										C265.254,141.594,272.803,143.012,280.177,145.11z"/>
									<path style="fill:#FFFFFF;" d="M276.425,147.345c-4.539-1.831-9.334-2.952-14.215-3.325
										c-1.372,0.145-2.677,0.665-3.773,1.503c1.976,3.241,5.96,4.849,12.577,5.587c2.472,0.435,5.018-0.03,7.176-1.311
										C277.716,148.905,277.122,148.08,276.425,147.345z"/>
								</g>
							</g>
						</g>
						<path style="fill:#FFB573;" d="M292.754,188.492c-0.596,7.129-3.587,14.117-7.858,20.025
							c-0.317,0.438-0.642,0.867-0.975,1.288c-9.72,12.302-27.191,16.121-41.723,9.655c-4.592-2.043-9.028-4.369-13.181-7.165
							c-8.24-5.548-15.346-13.246-18.698-22.288l25.55-3.285l17.466-2.253l11.944,1.221L292.754,188.492z"/>
					</g>
				</g>
			</g>
			<g>
				<g>
					<path style="fill:#407BFF;" d="M166.425,204.867c-1.01,75.022-56.353,140.026-62.063,214.837H379.07v0
						c-27.306-58.503-44.419-121.24-50.601-185.506l-4.253-44.209H183.627C183.627,189.99,166.523,197.526,166.425,204.867z"/>
					<path style="opacity:0.6;fill:#FFFFFF;" d="M166.425,204.867c-1.01,75.022-56.353,140.026-62.063,214.837H379.07v0
						c-27.306-58.503-44.419-121.24-50.601-185.506l-4.253-44.209H183.627C183.627,189.99,166.523,197.526,166.425,204.867z"/>
					<path style="opacity:0.2;fill:#FFFFFF;" d="M138.543,419.595c0,0-1.604-77.226,24.007-157.128
						c25.611-79.902-6.522,23.959-1.594,116.537c1.421,26.69,8.418,40.997,8.418,40.997L138.543,419.595z"/>
					<path style="opacity:0.2;fill:#FFFFFF;" d="M353.865,420c0,0-33.565-77.826-39.598-180.563c0,0-8.216,90.912,20.14,180.267
						L353.865,420z"/>
					<g>
						<g>
							<g>
								<path style="fill:#407BFF;" d="M344.889,177.176c0.137-0.068,0.274-0.117,0.421-0.166c-0.049,0.02-0.098,0.049-0.157,0.068
									C345.066,177.108,344.978,177.147,344.889,177.176z"/>
								<path style="fill:#407BFF;" d="M347.099,176.365c-0.215,0.078-0.449,0.156-0.704,0.254
									c-0.186,0.059-0.381,0.137-0.586,0.215c-0.029,0.01-0.059,0.02-0.088,0.029c-0.137,0.049-0.264,0.098-0.41,0.147
									C345.877,176.775,346.483,176.57,347.099,176.365z"/>
							</g>
							<g>
								<path style="fill:#407BFF;" d="M418.821,180.343c0,27.436-49.242,44.707-71.214,51.05
									c-20.839,7.037-33.34,8.044-33.34,8.044c-0.762-7.252-16.489-49.799-16.489-49.799s9.403-3.959,16.137-3.401
									c0.059,0.01,0.117,0.01,0.176,0.02c7.888,0.655,15.766-1.202,22.608-5.18c2.815-1.632,5.571-2.864,7.741-3.724
									c0.156-0.059,0.303-0.117,0.449-0.176c0.088-0.029,0.176-0.068,0.264-0.098c0.196-0.078,0.381-0.147,0.567-0.215
									c0.029-0.01,0.059-0.02,0.088-0.029c0.205-0.078,0.401-0.147,0.586-0.215c0.254-0.098,0.489-0.176,0.704-0.254
									c0.322-0.107,0.606-0.196,0.831-0.274c0.098-0.029,0.186-0.059,0.254-0.078c0.098-0.029,0.186-0.059,0.254-0.078
									c0.088-0.029,0.156-0.049,0.195-0.059c0.049-0.01,0.069-0.02,0.069-0.02c1.798-0.528,3.763-0.977,5.913-1.359
									c7.345-1.298,13.17,0.098,17.339,2.008c2.12,0.971,4.614,0.984,6.581-0.269c1.007-0.641,1.424-1.323,0.467-1.866
									l-46.74-53.465l14.251-7.829C346.512,113.077,418.821,151.265,418.821,180.343z"/>
							</g>
							<g>
								<path style="fill:#407BFF;" d="M418.821,180.343c0,27.436-49.242,44.707-71.214,51.05
									c-20.839,7.037-33.34,8.044-33.34,8.044c-0.762-7.252-16.489-49.799-16.489-49.799s9.403-3.959,16.137-3.401
									c0.059,0.01,0.117,0.01,0.176,0.02c7.888,0.655,15.766-1.202,22.608-5.18c2.815-1.632,5.571-2.864,7.741-3.724
									c0.156-0.059,0.303-0.117,0.449-0.176c0.088-0.029,0.176-0.068,0.264-0.098c0.196-0.078,0.381-0.147,0.567-0.215
									c0.029-0.01,0.059-0.02,0.088-0.029c0.205-0.078,0.401-0.147,0.586-0.215c0.254-0.098,0.489-0.176,0.704-0.254
									c0.322-0.107,0.606-0.196,0.831-0.274c0.098-0.029,0.186-0.059,0.254-0.078c0.098-0.029,0.186-0.059,0.254-0.078
									c0.088-0.029,0.156-0.049,0.195-0.059c0.049-0.01,0.069-0.02,0.069-0.02c1.798-0.528,3.763-0.977,5.913-1.359
									c7.345-1.298,13.17,0.098,17.339,2.008c2.12,0.971,4.614,0.984,6.581-0.269c1.007-0.641,1.424-1.323,0.467-1.866
									l-46.74-53.465l14.251-7.829C346.512,113.077,418.821,151.265,418.821,180.343z"/>
							</g>
							<g style="opacity:0.3;">
								<path style="fill:#FFFFFF;" d="M418.821,180.343c0,27.436-49.242,44.707-71.214,51.05
									c-20.839,7.037-33.34,8.044-33.34,8.044c-0.762-7.252-16.489-49.799-16.489-49.799s9.403-3.959,16.137-3.401
									c0.059,0.01,0.117,0.01,0.176,0.02c7.888,0.655,15.766-1.202,22.608-5.18c2.815-1.632,5.571-2.864,7.741-3.724
									c0.156-0.059,0.303-0.117,0.449-0.176c0.088-0.029,0.176-0.068,0.264-0.098c0.196-0.078,0.381-0.147,0.567-0.215
									c0.029-0.01,0.059-0.02,0.088-0.029c0.205-0.078,0.401-0.147,0.586-0.215c0.254-0.098,0.489-0.176,0.704-0.254
									c0.322-0.107,0.606-0.196,0.831-0.274c0.098-0.029,0.186-0.059,0.254-0.078c0.098-0.029,0.186-0.059,0.254-0.078
									c0.088-0.029,0.156-0.049,0.195-0.059c0.049-0.01,0.069-0.02,0.069-0.02c1.798-0.528,3.763-0.977,5.913-1.359
									c7.345-1.298,13.17,0.098,17.339,2.008c2.12,0.971,4.614,0.984,6.581-0.269c1.007-0.641,1.424-1.323,0.467-1.866
									l-46.74-53.465l14.251-7.829C346.512,113.077,418.821,151.265,418.821,180.343z"/>
							</g>
						</g>
						<path style="fill:#407BFF;" d="M336.112,122.268l-19.924-7.887l-12.011-16.025l17.246-3.821l16.297,8.445l9.784,10.636
							c1.977,2.149,1.057,5.623-1.724,6.512l-6.98,2.231C337.92,122.64,336.97,122.607,336.112,122.268z"/>
						<path style="opacity:0.7;fill:#FFFFFF;" d="M336.112,122.268l-19.924-7.887l-12.011-16.025l17.246-3.821l16.297,8.445
							l9.784,10.636c1.977,2.149,1.057,5.623-1.724,6.512l-6.98,2.231C337.92,122.64,336.97,122.607,336.112,122.268z"/>
					</g>
					<g>
						<g>
							<g>
								<g>
									<g>
										<path style="opacity:0.2;enable-background:new    ;" d="M323.067,217.572l2.009,20.233c0,0,29.495-6.849,46.168-14.472
											l-13.399,0.724c-11.402,0.616-21.888-1.2-32.214-6.072L323.067,217.572z"/>
										<path style="fill:#407BFF;" d="M326.6,237.327c-0.29,64.39-12.121,70.47-11.558,125.891c0,0-111.489,0.456-115.27,0.556
											c-8.983-74.581-18.176-78.054-15.75-135.271c-1.174-18.81,9.5-35.353,20.232-37.506l49.081-6.524l47.222,4.971
											C312.565,191.193,323.411,200.652,326.6,237.327z"/>
										<path style="opacity:0.3;fill:#FFFFFF;" d="M326.6,237.327c-0.29,64.39-12.121,70.47-11.558,125.891
											c0,0-111.489,0.456-115.27,0.556c-8.983-74.581-18.176-78.054-15.75-135.271c-1.174-18.81,9.5-35.353,20.232-37.506
											l49.081-6.524l47.222,4.971C312.565,191.193,323.411,200.652,326.6,237.327z"/>
										<path style="fill:#407BFF;" d="M246.084,111.583c-2.95-6.605-6.983-9.794-4.676-9.438c6.265,0.967,10.091-4.504,14.69-1.4
											c2.242,2.555-0.336,7.312-0.444,7.056c2.298,1.087,5.166,0.233,7.056-1.454c1.889-1.687,2.549-4.619,3.483-6.955
											c0.713,2.289,0.605,5.524-0.183,7.79c1.654,1.312,5.048-1.153,6.599-2.584c1.55-1.43,2.637-3.825,3.347-5.796
											c0.581,2.296,1.05,4.643-0.606,7.409c2.344,0.13,5.416-0.594,6.951-2.342c1.536-1.749,2.469-4.48,2-6.744
											c0.528,1.18,0.61,6.038-0.44,6.811c4.02-1.314,7.707-6.316,7.498-10.481c-0.21-4.164-2.914-7.986-6.533-10.15
											c-1.79-1.07-3.778-1.775-5.653-2.694c-2.893-1.418-21.255-15.124-48.209,0.502c-16.732,9.701-13.469,29.011-11.477,31.098
											c2.469,2.587,6.365,3.46,9.953,3.103C233.027,114.956,246.863,113.328,246.084,111.583z"/>
										<path style="opacity:0.3;enable-background:new    ;" d="M246.084,111.583c-2.95-6.605-6.983-9.794-4.676-9.438
											c6.265,0.967,10.091-4.504,14.69-1.4c2.242,2.555-0.336,7.312-0.444,7.056c2.298,1.087,5.166,0.233,7.056-1.454
											c1.889-1.687,2.549-4.619,3.483-6.955c0.713,2.289,0.605,5.524-0.183,7.79c1.654,1.312,5.048-1.153,6.599-2.584
											c1.55-1.43,2.637-3.825,3.347-5.796c0.581,2.296,1.05,4.643-0.606,7.409c2.344,0.13,5.416-0.594,6.951-2.342
											c1.536-1.749,2.469-4.48,2-6.744c0.528,1.18,0.61,6.038-0.44,6.811c4.02-1.314,7.707-6.316,7.498-10.481
											c-0.21-4.164-2.914-7.986-6.533-10.15c-1.79-1.07-3.778-1.775-5.653-2.694c-2.893-1.418-21.255-15.124-48.209,0.502
											c-16.732,9.701-13.469,29.011-11.477,31.098c2.469,2.587,6.365,3.46,9.953,3.103
											C233.027,114.956,246.863,113.328,246.084,111.583z"/>
									</g>
									<g>
										<path style="fill:#407BFF;" d="M280.982,145.341c0,0-6.116-2.482-24.127-4.63c1.028,6.543,4.972,9.302,14.217,10.3
											C280.318,152.008,280.982,145.341,280.982,145.341z"/>
										<path style="opacity:0.3;enable-background:new    ;" d="M280.982,145.341c0,0-6.116-2.482-24.127-4.63
											c1.028,6.543,4.972,9.302,14.217,10.3C280.318,152.008,280.982,145.341,280.982,145.341z"/>
										<path style="fill:#FFFFFF;" d="M280.177,145.11c-0.557,1.459-1.843,2.516-3.383,2.777
											c-5.319-0.642-10.562-1.806-15.653-3.476c-1.758-0.401-3.127-1.778-3.518-3.538
											C265.254,141.594,272.803,143.012,280.177,145.11z"/>
										<path style="fill:#FFFFFF;" d="M276.425,147.345c-4.539-1.831-9.334-2.952-14.215-3.325
											c-1.372,0.145-2.677,0.665-3.773,1.503c1.976,3.241,5.96,4.849,12.577,5.587c2.472,0.435,5.018-0.03,7.176-1.311
											C277.716,148.905,277.122,148.08,276.425,147.345z"/>
									</g>
								</g>
							</g>
							<g>
								<path style="fill:#407BFF;" d="M193.984,335.369c0,0,23.576-12.498,23.443-11.134c-0.133,1.364,0.495,27.824,0.495,27.824
									l-25.712-0.588L193.984,335.369z"/>
								<path style="fill:#407BFF;" d="M217.427,324.235c0,0,21.709,0.714,21.588,3.13c-0.121,2.415-2.458,22.622-2.458,22.622
									l-18.636,2.073L217.427,324.235z"/>
							</g>
							<g style="opacity:0.7;">
								<path style="fill:#FFFFFF;" d="M239.01,327.36c-0.12,2.42-2.45,22.63-2.45,22.63l-18.64,2.07l-25.71-0.59l1.77-16.1
									c0,0,23.58-12.5,23.45-11.13C217.43,324.24,239.14,324.95,239.01,327.36z"/>
							</g>
							<path style="fill:#407BFF;" d="M292.754,188.492c-0.596,7.129-3.587,14.117-7.858,20.025
								c-0.317,0.438-0.642,0.867-0.975,1.288c-9.72,12.302-27.191,16.121-41.723,9.655c-4.592-2.043-9.028-4.369-13.181-7.165
								c-8.24-5.548-15.346-13.246-18.698-22.288l25.55-3.285l17.466-2.253l11.944,1.221L292.754,188.492z"/>
							<path style="opacity:0.7;fill:#FFFFFF;" d="M292.754,188.492c-0.596,7.129-3.587,14.117-7.858,20.025
								c-0.317,0.438-0.642,0.867-0.975,1.288c-9.72,12.302-27.191,16.121-41.723,9.655c-4.592-2.043-9.028-4.369-13.181-7.165
								c-8.24-5.548-15.346-13.246-18.698-22.288l25.55-3.285l17.466-2.253l11.944,1.221L292.754,188.492z"/>
							<path style="opacity:0.2;enable-background:new    ;" d="M184.183,253.434c0,0-0.178,16.716,2.969,33.538l8.35-52.12
								L184.183,253.434z"/>
							<path style="fill:#407BFF;" d="M138.919,291.143l55.85,39.458l-2.561,23.214c0,0-83.813-19.275-96.51-45.421
								c-5.923-12.208,0.752-27.123,11.074-40.924c0.02-0.02,0.029-0.039,0.029-0.049c12.267-20.066,23.419-32.02,31.825-39.048
								c8.152-6.822,15.541-14.583,21.249-23.556c14.475-22.725,47.004-13.518,47.004-13.518
								c-7.409,17.339-7.487,50.317-7.487,50.317s-7.272,5.483-15.209,11.817c-0.088,5.346-3.333,11.895-9.618,19.294
								C166.277,282.493,141.743,288.054,138.919,291.143z"/>
							<path style="opacity:0.3;fill:#FFFFFF;" d="M138.919,291.143l55.85,39.458l-2.561,23.214c0,0-83.813-19.275-96.51-45.421
								c-5.923-12.208,0.752-27.123,11.074-40.924c0.02-0.02,0.029-0.039,0.029-0.049c12.267-20.066,23.419-32.02,31.825-39.048
								c8.152-6.822,15.541-14.583,21.249-23.556c14.475-22.725,47.004-13.518,47.004-13.518
								c-7.409,17.339-7.487,50.317-7.487,50.317s-7.272,5.483-15.209,11.817c-0.088,5.346-3.333,11.895-9.618,19.294
								C166.277,282.493,141.743,288.054,138.919,291.143z"/>
						</g>
						<path style="fill:#407BFF;" d="M181.113,184.585c16.773,14.214,38.586,26.67,59.293,34.059c0-6.778-2.157-20.449-6.027-28.935
							c-1.086-2.382-2.471-4.772-4.701-6.142s-5.501-1.351-7.162,0.672c-6.34-4.475-16.77-4.685-22.915,0.055
							c-4.762-1.656-11.521-4.276-16.483-3.38s-11.074,7.503-10.333,12.49c4.71-2.497,11.773-3.745,14.594-3.745
							C186.053,187.995,187.378,189.658,181.113,184.585z"/>
						<path style="opacity:0.6;fill:#FFFFFF;" d="M181.113,184.585c16.773,14.214,38.586,26.67,59.293,34.059
							c0-6.778-2.157-20.449-6.027-28.935c-1.086-2.382-2.471-4.772-4.701-6.142s-5.501-1.351-7.162,0.672
							c-6.34-4.475-16.77-4.685-22.915,0.055c-4.762-1.656-11.521-4.276-16.483-3.38s-11.074,7.503-10.333,12.49
							c4.71-2.497,11.773-3.745,14.594-3.745C186.053,187.995,187.378,189.658,181.113,184.585z"/>
						<path style="fill:#407BFF;" d="M309.425,186.294c-5.556-2.62-12.698-2.659-18.245-0.019
							c-3.921-2.878-9.952-3.484-13.964-0.736c-1.258-1.528-3.187-2.483-5.165-2.558c-1.978-0.074-3.279,1.305-4.648,2.734
							c2.88,1.454,4.347,4.686,5.365,7.748c2.571,7.738,3.657,15.967,3.179,24.108C289.804,210.831,301.511,199.515,309.425,186.294
							z"/>
						<path style="opacity:0.6;fill:#FFFFFF;" d="M309.425,186.294c-5.556-2.62-12.698-2.659-18.245-0.019
							c-3.921-2.878-9.952-3.484-13.964-0.736c-1.258-1.528-3.187-2.483-5.165-2.558c-1.978-0.074-3.279,1.305-4.648,2.734
							c2.88,1.454,4.347,4.686,5.365,7.748c2.571,7.738,3.657,15.967,3.179,24.108C289.804,210.831,301.511,199.515,309.425,186.294
							z"/>
						<g>
							<path style="opacity:0.5;fill:#FFFFFF;" d="M306.728,264.218c0,15.194-21.62,42.345-48.291,42.345
								c-26.67,0-48.291-27.151-48.291-42.345c0-15.194,21.62-27.511,48.291-27.511
								C285.108,236.707,306.728,249.024,306.728,264.218z"/>
							<g>
								<path style="fill:#407BFF;" d="M300.241,265.526c0,12.515-17.809,34.88-39.778,34.88c-21.969,0-39.778-22.365-39.778-34.88
									c0-12.515,17.809-22.661,39.778-22.661C282.432,242.865,300.241,253.01,300.241,265.526z"/>
								<path style="opacity:0.5;fill:#FFFFFF;" d="M300.241,265.526c0,12.515-17.809,34.88-39.778,34.88
									c-21.969,0-39.778-22.365-39.778-34.88c0-12.515,17.809-22.661,39.778-22.661
									C282.432,242.865,300.241,253.01,300.241,265.526z"/>
							</g>
						</g>
					</g>
					<rect x="199.772" y="363.773" style="fill:#FFFFFF;" width="115.295" height="18.808"/>
					<polygon style="fill:#407BFF;" points="199.772,382.582 188.736,419.705 318.793,419.705 315.066,382.582 					"/>
					<polygon style="opacity:0.2;fill:#FFFFFF;" points="199.772,382.582 188.736,419.705 318.793,419.705 315.066,382.582 					"/>
					<g>
						<rect x="250.747" y="362.569" style="fill:#263238;" width="34.467" height="20.613"/>
						<rect x="250.747" y="362.569" style="opacity:0.7;fill:#FFFFFF;" width="34.467" height="20.613"/>
						<polygon style="opacity:0.7;fill:#FFFFFF;" points="265.177,362.569 255.028,383.182 262.546,383.182 273.019,362.569 						
							"/>
						<polygon style="opacity:0.7;fill:#FFFFFF;" points="276.242,362.569 266.094,383.182 271.461,383.182 281.933,362.569 						
							"/>
					</g>
				</g>
			</g>
		</g>
		<path style="opacity:0.2;fill:#FFFFFF;" d="M296.805,118.593c-0.42,2.83-2.63,6.57-4.61,9.43c0.31,6.1-0.08,12.01-1.02,17.11
			c-2.64,14.35-14.73,24.28-27.66,25.13c-0.1,2.18-0.12,4.5,0.03,6.8c0.22,3.09,0.73,6.1,1.72,8.58h0.02l27.47,2.8
			c-0.59,7.13-3.58,14.12-7.85,20.03c-0.32,0.43-0.65,0.86-0.98,1.28c-9.72,12.31-27.19,16.13-41.72,9.66
			c-4.59-2.04-9.03-4.37-13.18-7.17c-8.24-5.54-15.35-13.24-18.7-22.28l25.55-3.29h0.02c1.32-3.74,1.62-9.5,2.22-13.99
			c0.42-3.07-0.22-9.71-1.48-15.94c-0.96-0.48-1.88-1.04-2.73-1.68c-0.03,2.93-1.97,7.96-1.97,7.96
			c-9.32-3.07-16.99-21.71-18.02-27.89c-5.19,9.63-4.73,4.09-5.13,0.01c-0.58-5.89-0.73-11.99,1.28-17.55
			c1.47-4.06,4.32-7.79,8.02-9.89c-0.96-6.78,0.38-19.39,12.88-26.64c26.96-15.62,45.32-1.92,48.21-0.5
			c1.88,0.92,3.86,1.62,5.66,2.69c3.61,2.17,6.32,5.99,6.53,10.15c0.13,2.72-1.39,5.78-3.57,7.95
			C297.014,102.563,297.564,113.483,296.805,118.593z"/>
	</g>
	<path style="opacity:0.2;fill:#FFFFFF;" d="M277.607,99.932c-0.112-0.193-0.224-0.386-0.339-0.576
		c0.105-0.76,0.11-1.519-0.037-2.232C277.45,97.612,277.591,98.733,277.607,99.932z"/>
</g>
<g id="_Character">
	<g>
		<g>
			<g>
				<g>
					<path style="fill:#FFB573;" d="M202.142,389.823c-3.145,1-5.992,1.712-8.587,2.181c-0.009,0.009-0.027,0.009-0.045,0.009
						c-0.451,0.081-0.892,0.153-1.324,0.216c-1.406,0.207-2.721,0.342-3.965,0.406c-19.355,0.982-19.85-15.165-20.328-23.392
						c-0.522-9.074-0.234-20.851,0.82-33.015c1.333-15.264,3.875-31.132,7.569-42.999c5.334-17.12,13.967-18.986,21.346-19.13
						l0.009-0.009c1.424-0.027,2.811,0.009,4.109,0.009c0,0-0.937,4.848-1.387,9.533l-2.92,20.734l-4.055,28.789
						c0,0.009,0,0.009,0,0.018l-0.631,4.487l-0.036,0.252l-2.199,15.579l-0.505,3.586c-0.234,2.388-0.406,5.758,2.207,7.686
						c0.342,0.261,0.739,0.496,1.199,0.694c1.703,0.757,4.208,1.072,7.858,0.64l0.369,10.218l0.072,1.847l0.117,3.181l0.207,5.776
						L202.142,389.823z"/>
				</g>
			</g>
			<g>
				<path style="fill:#407BFF;" d="M158.151,330.398c5.538,6.336,10.013,5.563,17.657,6.758c7.645,1.196,14.262,0.788,22.025,0.077
					c1.572-21.531,4.219-43.013,3.999-64.517c-6.282,0.474-13.011,0.212-18.152,3.332c-6.864,4.167-7.32,14.879-11.942,22.434
					c-5.456,8.919-12.455,16.226-19.386,23.444C154.851,326.326,154.961,326.75,158.151,330.398z"/>
			</g>
			<g style="opacity:0.6;enable-background:new    ;">
				<path d="M158.151,330.398c5.538,6.336,10.013,5.563,17.657,6.758c7.645,1.196,14.262,0.788,22.025,0.077
					c1.572-21.531,4.219-43.013,3.999-64.517c-6.282,0.474-13.011,0.212-18.152,3.332c-6.864,4.167-7.32,14.879-11.942,22.434
					c-5.456,8.919-12.455,16.226-19.386,23.444C154.851,326.326,154.961,326.75,158.151,330.398z"/>
			</g>
			<polygon style="opacity:0.2;enable-background:new    ;" points="197.437,304.362 186.757,337.915 200.243,337.915 			"/>
			<path style="fill:#407BFF;" d="M300.62,342.616c-1.226,5.506-2.703,10.894-4.199,17.76v0.018
				c-0.324,1.469-0.649,3.019-0.964,4.641c-0.451,2.271-0.892,4.695-1.324,7.335v0.009c-0.487,2.974-0.955,6.199-1.406,9.759
				c-0.396,3.082-0.766,6.407-1.117,10.02v0.009c-0.153,1.577-0.306,3.199-0.451,4.893c-0.279,3.307-0.55,6.839-0.784,10.615
				c-0.252,3.848-0.469,7.947-0.667,12.327c-3.262-0.081-99.605,0-99.605,0c0.532-6.407,1.009-12.444,1.433-18.256
				c0.234-3.235,0.459-6.398,0.649-9.515c0.009-0.027,0.009-0.054,0.009-0.072c0.063-0.955,0.126-1.901,0.18-2.838
				c0.144-2.379,0.279-4.731,0.396-7.073c0.288-5.596,0.514-11.137,0.649-16.787c0.009-0.243,0.018-0.478,0.018-0.721
				c0.081-3.478,0.135-7.01,0.153-10.615c0.045-5.199,0.009-10.57-0.108-16.21c0-0.099,0-0.207-0.009-0.306
				c-0.018-1.46-0.054-2.938-0.09-4.433c0-0.009,0-0.009,0-0.018c-0.126-4.604-0.288-9.407-0.504-14.453v-0.009
				c-0.27-6.298-0.622-12.966-1.054-20.139c-0.522-8.452,0.072-19.679,5.803-24.455l0.009-0.009
				c0.568-0.478,1.189-0.883,1.856-1.216c0.937-0.478,1.973-0.802,3.127-0.973l30.249-4.713l10.552-1.64l15.544,3.046l34.097,6.695
				c0.414,0.081,0.82,0.18,1.207,0.306c2.316,0.694,4.127,1.991,5.506,3.839c3.514,4.704,4.244,13.002,3.55,24.158
				C304.134,322.802,302.783,332.885,300.62,342.616z"/>
			<path style="opacity:0.6;enable-background:new    ;" d="M300.62,342.616c-1.226,5.506-2.703,10.894-4.199,17.76v0.018
				c-0.324,1.469-0.649,3.019-0.964,4.641c-0.451,2.271-0.892,4.695-1.324,7.335v0.009c-0.487,2.974-0.955,6.199-1.406,9.759
				c-0.396,3.082-0.766,6.407-1.117,10.02v0.009c-0.153,1.577-0.306,3.199-0.451,4.893c-0.279,3.307-0.55,6.839-0.784,10.615
				c-0.252,3.848-0.469,7.947-0.667,12.327c-3.262-0.081-99.605,0-99.605,0c0.532-6.407,1.009-12.444,1.433-18.256
				c0.234-3.235,0.459-6.398,0.649-9.515c0.009-0.027,0.009-0.054,0.009-0.072c0.063-0.955,0.126-1.901,0.18-2.838
				c0.144-2.379,0.279-4.731,0.396-7.073c0.288-5.596,0.514-11.137,0.649-16.787c0.009-0.243,0.018-0.478,0.018-0.721
				c0.081-3.478,0.135-7.01,0.153-10.615c0.045-5.199,0.009-10.57-0.108-16.21c0-0.099,0-0.207-0.009-0.306
				c-0.018-1.46-0.054-2.938-0.09-4.433c0-0.009,0-0.009,0-0.018c-0.126-4.604-0.288-9.407-0.504-14.453v-0.009
				c-0.27-6.298-0.622-12.966-1.054-20.139c-0.522-8.452,0.072-19.679,5.803-24.455l0.009-0.009
				c0.568-0.478,1.189-0.883,1.856-1.216c0.937-0.478,1.973-0.802,3.127-0.973l30.249-4.713l10.552-1.64l15.544,3.046l34.097,6.695
				c0.414,0.081,0.82,0.18,1.207,0.306c2.316,0.694,4.127,1.991,5.506,3.839c3.514,4.704,4.244,13.002,3.55,24.158
				C304.134,322.802,302.783,332.885,300.62,342.616z"/>
			<path style="fill:#FFB573;" d="M260.312,270.313c6.059,4.318,3.484,11.109-1.457,16.656
				c-10.29,11.552-20.956,15.137-20.956,15.137c-0.16-0.066-26.727-19.265-7.954-31.279c3.107-2.005,4.316-6.712,4.658-11.641
				c0.27-4.123-0.061-8.358-0.452-11.272c-0.094-0.948-0.238-1.867-0.404-2.732c-0.143-0.919-0.333-1.757-0.547-2.567l28.175-11.625
				c-3.096,4.663-5.455,19.601-4.798,24.406C257.303,260.789,257.51,268.316,260.312,270.313z"/>
			<path style="opacity:0.2;enable-background:new    ;" d="M234.604,259.187c0.27-4.123-0.061-8.358-0.452-11.272
				c-0.094-0.948-0.238-1.867-0.404-2.732l21.791-4.179C250.965,245.566,244.561,254.829,234.604,259.187z"/>
			<path style="fill:#263238;" d="M205.068,209.841c0.712,4.682,7.344,12.293,7.031,11.832c-0.314-0.461-0.313-1.061-0.273-1.617
				c0.15-2.109,0.693-4.189,1.592-6.102c0.556,2.614,1.412,8.028,4.084,8.068c1.062-1.933,2.366-3.696,2.186-5.893
				c0.616,2.25,1.179,4.513,1.796,6.762c5.189-3.091,8.473-10.212,7.399-16.156c-0.26-1.439-0.739-2.851-1.528-4.083
				c-0.903-1.409-2.178-2.535-3.456-3.617c-3.385-2.868-7.686-5.216-11.958-4.017C203.76,197.317,204.357,205.16,205.068,209.841z"
				/>
			<path style="fill:#FFB573;" d="M210.732,231.593c3.5,19.069,26.326,29.124,41.396,15.463
				c8.703-7.867,10.088-17.258,11.675-31.896c0.253-2.222,0.5-4.554,0.784-7.042c0.464-3.867,0.065-7.784-1.164-11.463
				c-0.514-1.568-1.177-3.04-1.97-4.419c-5.971-10.735-18.899-16.025-30.958-11.96C211.6,186.641,207.562,214.432,210.732,231.593z"
				/>
			<path style="fill:#263238;" d="M229.246,204.543c-0.135-0.056-0.253-0.146-0.342-0.262c-0.294-0.391-0.216-0.946,0.174-1.24
				c0.012-0.009,0.023-0.017,0.035-0.025c2.279-1.734,5.264-2.241,7.988-1.356c0.452,0.185,0.669,0.702,0.484,1.155
				c-0.004,0.01-0.008,0.019-0.013,0.029c-0.189,0.457-0.708,0.68-1.169,0.501c-2.162-0.716-4.539-0.309-6.34,1.086
				C229.829,204.609,229.519,204.651,229.246,204.543z"/>
			<path style="fill:#263238;" d="M219.592,205.876c-0.197-0.225-0.487-0.344-0.785-0.324c-2.318,0.292-4.638-0.522-6.266-2.197
				c-0.32-0.387-0.893-0.442-1.28-0.122c-0.001,0.001-0.003,0.002-0.004,0.004c-0.369,0.322-0.427,0.874-0.132,1.265l0,0
				c2.005,2.15,4.927,3.198,7.842,2.813c0.499-0.038,0.873-0.472,0.837-0.971C219.773,206.171,219.7,206.011,219.592,205.876z"/>
			<path style="fill:#ED893E;" d="M222.974,226.048c-2.152,0.218-6.026-1.075-7.568-2.592c2.934-2.909,6.211-6.176,8.229-9.782
				L222.974,226.048z"/>
			<g>
				<path style="fill:#263238;" d="M216.182,214.761c-1.703,0-3.091-1.129-3.889-1.969c-0.19-0.201-0.182-0.517,0.019-0.707
					c0.2-0.19,0.518-0.181,0.707,0.019c1.112,1.172,2.85,2.326,4.816,1.173c0.238-0.141,0.544-0.06,0.685,0.178
					c0.139,0.238,0.06,0.545-0.179,0.685C217.582,214.583,216.857,214.761,216.182,214.761z"/>
			</g>
			<path style="fill:#263238;" d="M233.582,230.667c-2.841,2.185-6.445,3.127-9.991,2.611c-0.246-0.03-0.428-0.243-0.421-0.49
				c0.013-0.238,0.216-0.42,0.454-0.406c0.006,0,0.012,0.001,0.018,0.001c3.882,0.544,7.797-0.741,10.601-3.48
				c0.162-0.174,0.435-0.183,0.609-0.021c0.013,0.012,0.024,0.024,0.035,0.037c0.161,0.186,0.155,0.465-0.016,0.644
				C234.463,229.954,234.033,230.324,233.582,230.667z"/>
			<path style="fill:#263238;" d="M253.847,242.971c2.3-0.431,4.499-1.395,6.374-2.795c0.027,2.531,1.702,6.872,1.702,6.872
				c8.049-2.65,14.678-18.76,15.566-24.098c4.484,8.323,4.091,3.538,4.438,0.006c0.499-5.086,0.628-10.354-1.11-15.16
				c-1.738-4.805-5.695-9.089-10.738-9.919c-1.746-0.288-3.899,0.792-4.845,2.287c-0.947,1.495-1.343,3.265-1.665,5.005
				C261.23,217.794,261.331,232.537,253.847,242.971z"/>
			<path style="fill:#FFB573;" d="M265.269,214.028c-6.163,0.135-9.925,7.906-10.577,13.221c-0.771,5.915,3.203,10.782,8.915,8.165
				c4.301-1.999,7.618-5.644,9.203-10.114C274.715,219.802,271.432,213.894,265.269,214.028z"/>
			<path style="opacity:0.2;enable-background:new    ;" d="M282.36,312.126c0,0-7.478,33.859-2.294,54.289
				c5.185,20.43,15.55,30.73,15.55,30.73l1.853-85.018H282.36z"/>
			<path style="opacity:0.2;enable-background:new    ;" d="M295.619,397.14c0,0.009,0,0.009,0,0.018
				c-1.442,0.342-2.946,0.333-4.46-0.099c-0.279,3.307-0.55,6.839-0.784,10.615c-5.956,3.19-32.484-6.181-55.758-15.535
				c-5.127-2.064-10.101-4.127-14.652-6.055c-1.613-0.676-3.163-1.343-4.658-1.982c-3.091-1.325-5.911-2.55-8.371-3.631
				c-2-0.874-3.757-1.649-5.217-2.307c-3.046-1.352-4.803-2.154-4.803-2.154l4.731,0.306l37.395,2.388l9.65,0.622l1.937,0.117
				l11.948,0.766l8.164,0.523l0.423,0.027l7.911,0.514l6.452,0.406l7.199,0.46l2.892,0.189c0,0,0.162,1.982,0.207,5.352v0.126
				C295.862,390.265,295.826,393.455,295.619,397.14z"/>
			<path style="fill:#FFB573;" d="M311,342.751c-1.478,15.643-3.658,31.087-5.46,41.233c-1.253,7.055-5.244,12.029-9.921,13.174
				c-1.442,0.342-2.946,0.333-4.46-0.099c-0.216-0.063-0.433-0.126-0.649-0.207l-35.799-9.236l-0.306-0.081l-3.839-0.991l0.063-7.1
				l0.009-0.577l0.018-2.802l0.081-8.876l4.839,0.261l23.653,1.262c0.496,0.135,0.991,0.153,1.469,0.054
				c2.054-0.387,3.748-2.784,3.965-5.947l0.46-6.857l1.009-15.129l1.928-28.708l1.775-26.582c0.297-4.478,1.253-8.182,1.343-8.506
				c0-0.009,0-0.018,0-0.018c0.009,0,0.009,0,0.018,0c1.748,0,5.064,0.532,8.578,2.415c5.569,2.982,11.615,9.371,12.597,22.428
				C313.181,312.71,312.415,327.811,311,342.751z"/>
			<path style="fill:#FFB573;" d="M268.05,390.186l-52.542-10.134c-1.431-0.448-2.947-0.549-4.425-0.295l-14.807,2.546
				c-3.231,0.556-6.519-0.603-8.69-3.064l-6.999-7.933c-3.552-4.026-3.055-10.203,1.094-13.609l2.507-2.058
				c3.358-2.756,8.157-2.871,11.641-0.278l0,0c1.71,1.272,3.798,1.929,5.928,1.865l0.876-0.026c4.051-0.123,7.73,2.352,9.149,6.154
				l0.815,2.184l42.836,1.648L268.05,390.186z"/>
			<path style="opacity:0.1;enable-background:new    ;" d="M205.07,366.807c2.511-0.49,5.021-0.89,7.518-1.295l-0.806-2.16
				c-1.419-3.802-5.098-6.277-9.149-6.154l-0.876,0.026c-2.13,0.064-4.219-0.593-5.928-1.865c-3.484-2.593-8.284-2.478-11.641,0.278
				l-2.507,2.058c-3.421,2.809-4.352,7.498-2.585,11.314C183.893,369.453,201.083,367.585,205.07,366.807z"/>
			<path style="opacity:0.2;enable-background:new    ;" d="M284.518,379.416c0,0.009-0.009,0.009-0.009,0.009
				c-0.892,0.441-2.775,1.072-5.434,1.847h-0.009c-3.487,1.009-8.299,2.262-13.904,3.658c-3.343,0.829-6.965,1.703-10.759,2.604
				c-0.018,0.009-0.027,0.009-0.045,0.009c-6.28,1.496-13.03,3.064-19.742,4.595c-17.589,4.019-34.953,7.83-43.08,9.605
				c0.234-3.235,0.459-6.398,0.649-9.515c-1.406,0.207-2.721,0.342-3.965,0.406l0.036-0.243l0.315-2.208l3.803-0.865l9.668-2.199
				l13.264-3.019l9.723-2.208l14.012-3.19l11.615-2.64l8.578-1.955l6.434-1.46c0,0,11.732,1.216,17.372,3.19
				C285.951,376.848,287.248,378.064,284.518,379.416z"/>
			<g>
				<g>
					<path style="fill:#FFB573;" d="M174.155,365.096l80.635-1.491c1.495-0.121,2.938-0.595,4.213-1.385l12.773-7.912
						c2.787-1.726,6.27-1.884,9.202-0.419l9.465,4.733c4.804,2.402,6.658,8.31,4.087,13.027l-1.552,2.847
						c-2.08,3.815-6.486,5.72-10.688,4.622l0,0c-2.062-0.538-15.042,1.568-17.778-1.42l-1.583-1.728l-64.145,15.097
						c-4.549,1.071-9.227,1.498-13.895,1.269l0,0L174.155,365.096z"/>
				</g>
			</g>
			<path style="fill:#407BFF;" d="M332.402,338.178c-2.182,1.586-4.727,2.626-7.389,3.068c-17.386,2.883-28.391,1.421-42.403-1.011
				c-2.475-23.249-1.852-41.246,2.612-54.205c1.489-4.322,5.744-10.613,10.312-10.422c19.37,0.81,22.667,20.297,24.873,29.284
				C325.272,324.708,332.402,338.178,332.402,338.178z"/>
			<path style="opacity:0.6;enable-background:new    ;" d="M332.402,338.178c-2.182,1.586-4.727,2.626-7.389,3.068
				c-17.386,2.883-28.391,1.421-42.403-1.011c-2.475-23.249-1.852-41.246,2.612-54.205c1.489-4.322,5.744-10.613,10.312-10.422
				c19.37,0.81,22.667,20.297,24.873,29.284C325.272,324.708,332.402,338.178,332.402,338.178z"/>
			<path style="fill:#263238;" d="M249.615,204.782c2.382-6.166,5.881-9.25,3.818-8.829c-5.603,1.144-9.278-3.702-13.292-0.672
				c-1.913,2.431,0.608,6.676,0.695,6.438c-2.025,1.09-4.644,0.427-6.417-1.038s-2.489-4.12-3.428-6.219
				c-0.547,2.124-0.314,5.079,0.49,7.12c-1.435,1.269-4.596-0.846-6.052-2.09c-1.456-1.245-2.535-3.39-3.257-5.165
				c-0.427,2.124-0.752,4.292,0.856,6.753c-2.106,0.216-4.903-0.318-6.36-1.855c-1.457-1.536-2.411-3.996-2.083-6.088
				c-0.426,1.102-0.297,5.55,0.68,6.214c-3.676-1.036-7.207-5.46-7.192-9.279c0.015-3.819,2.291-7.428,5.461-9.558
				c1.568-1.053,3.329-1.781,4.98-2.699c2.547-1.417,18.516-14.72,43.449-1.539c15.477,8.182,13.344,25.986,11.637,27.978
				c-2.116,2.469-5.589,3.43-8.836,3.251S248.986,206.411,249.615,204.782z"/>
			<path style="fill:#263238;" d="M252.928,195.904c-3.252,3.442-4.807,8.416-4.096,13.098c0.711,4.682,7.344,12.293,7.031,11.832
				c-0.314-0.461-0.313-1.061-0.273-1.618c0.15-2.109,0.693-4.188,1.592-6.102c0.556,2.614,1.412,8.028,4.084,8.068
				c1.062-1.932,2.366-3.695,2.186-5.893c0.616,2.249,1.179,4.512,1.796,6.762c5.189-3.091,8.473-10.212,7.399-16.156
				c-0.26-1.439-0.738-2.851-1.528-4.082c-0.903-1.409-2.178-2.535-3.456-3.617c-3.385-2.868-7.866-5.732-11.958-4.017
				C255.112,194.428,252.766,195.28,252.928,195.904z"/>
		</g>
		<path style="fill:#263238;" d="M236.274,211.098c-0.008,1.558-0.835,2.812-1.839,2.837c-1.004,0.025-1.815-1.203-1.896-2.803
			c-0.081-1.6,0.835-2.812,1.839-2.837C235.382,208.27,236.278,209.564,236.274,211.098z"/>
	</g>
</g>
<g id="Glow">
	<g>
		<g>
			<g>
				<path style="fill:#407BFF;" d="M82.311,355.412c0.16-0.062,0.586-3.127,1.045-6.84c0.956-7.728,5.539-13.707,11.316-14.887
					c4.169-0.851,4.169-0.851,4.169-0.851s-6.544,0-9.273-1.91c-5.784-4.048-7.112-16.006-7.112-16.006s-1.621,11.957-7.405,16.006
					c-2.728,1.91-9.273,1.91-9.273,1.91s0,0,4.169,0.851c5.777,1.18,10.361,7.159,11.316,14.887
					C81.725,352.285,82.151,355.35,82.311,355.412z"/>
			</g>
			<g style="opacity:0.7;">
				<path style="fill:#FFFFFF;" d="M82.311,355.412c0.16-0.062,0.586-3.127,1.045-6.84c0.956-7.728,5.539-13.707,11.316-14.887
					c4.169-0.851,4.169-0.851,4.169-0.851s-6.544,0-9.273-1.91c-5.784-4.048-7.112-16.006-7.112-16.006s-1.621,11.957-7.405,16.006
					c-2.728,1.91-9.273,1.91-9.273,1.91s0,0,4.169,0.851c5.777,1.18,10.361,7.159,11.316,14.887
					C81.725,352.285,82.151,355.35,82.311,355.412z"/>
			</g>
		</g>
		<g>
			<g>
				<path style="fill:#407BFF;" d="M367.963,268.707c0.138-0.053,0.505-2.695,0.901-5.896c0.824-6.661,4.775-11.815,9.754-12.832
					c3.594-0.734,3.594-0.734,3.594-0.734s-5.641,0-7.992-1.646c-4.985-3.489-6.13-13.796-6.13-13.796s-1.397,10.306-6.382,13.796
					c-2.352,1.646-7.992,1.646-7.992,1.646s0,0,3.594,0.734c4.979,1.017,8.93,6.171,9.754,12.832
					C367.458,266.012,367.825,268.654,367.963,268.707z"/>
			</g>
			<g style="opacity:0.7;">
				<path style="fill:#FFFFFF;" d="M367.963,268.707c0.138-0.053,0.505-2.695,0.901-5.896c0.824-6.661,4.775-11.815,9.754-12.832
					c3.594-0.734,3.594-0.734,3.594-0.734s-5.641,0-7.992-1.646c-4.985-3.489-6.13-13.796-6.13-13.796s-1.397,10.306-6.382,13.796
					c-2.352,1.646-7.992,1.646-7.992,1.646s0,0,3.594,0.734c4.979,1.017,8.93,6.171,9.754,12.832
					C367.458,266.012,367.825,268.654,367.963,268.707z"/>
			</g>
		</g>
		<g>
			<g>
				<path style="fill:#407BFF;" d="M167.638,162.66c0.203-0.078,0.742-3.959,1.324-8.661c1.21-9.785,7.014-17.356,14.329-18.85
					c5.279-1.078,5.279-1.078,5.279-1.078s-8.286,0-11.741-2.418c-7.323-5.126-9.005-20.267-9.005-20.267s-2.052,15.14-9.376,20.267
					c-3.455,2.418-11.741,2.418-11.741,2.418s0,0,5.279,1.078c7.315,1.494,13.119,9.065,14.329,18.85
					C166.896,158.7,167.435,162.581,167.638,162.66z"/>
			</g>
			<g style="opacity:0.7;">
				<path style="fill:#FFFFFF;" d="M167.638,162.66c0.203-0.078,0.742-3.959,1.324-8.661c1.21-9.785,7.014-17.356,14.329-18.85
					c5.279-1.078,5.279-1.078,5.279-1.078s-8.286,0-11.741-2.418c-7.323-5.126-9.005-20.267-9.005-20.267s-2.052,15.14-9.376,20.267
					c-3.455,2.418-11.741,2.418-11.741,2.418s0,0,5.279,1.078c7.315,1.494,13.119,9.065,14.329,18.85
					C166.896,158.7,167.435,162.581,167.638,162.66z"/>
			</g>
		</g>
		<g>
			<g>
				<path style="fill:#407BFF;" d="M397.345,379.317c0.203-0.078,0.742-3.959,1.324-8.661c1.21-9.785,7.014-17.356,14.329-18.85
					c5.279-1.078,5.279-1.078,5.279-1.078s-8.286,0-11.741-2.418c-7.324-5.126-9.005-20.267-9.005-20.267s-2.052,15.14-9.375,20.267
					c-3.455,2.418-11.741,2.418-11.741,2.418s0,0,5.279,1.078c7.315,1.493,13.119,9.065,14.329,18.85
					C396.603,375.358,397.142,379.239,397.345,379.317z"/>
			</g>
			<g style="opacity:0.7;">
				<path style="fill:#FFFFFF;" d="M397.345,379.317c0.203-0.078,0.742-3.959,1.324-8.661c1.21-9.785,7.014-17.356,14.329-18.85
					c5.279-1.078,5.279-1.078,5.279-1.078s-8.286,0-11.741-2.418c-7.324-5.126-9.005-20.267-9.005-20.267s-2.052,15.14-9.375,20.267
					c-3.455,2.418-11.741,2.418-11.741,2.418s0,0,5.279,1.078c7.315,1.493,13.119,9.065,14.329,18.85
					C396.603,375.358,397.142,379.239,397.345,379.317z"/>
			</g>
		</g>
		<g>
			<g>
				<path style="fill:#407BFF;" d="M313.161,165.027c0.103-0.04,0.375-2.001,0.669-4.377c0.612-4.945,3.545-8.771,7.241-9.526
					c2.668-0.545,2.668-0.545,2.668-0.545s-4.188,0-5.934-1.222c-3.701-2.591-4.551-10.242-4.551-10.242s-1.037,7.652-4.738,10.242
					c-1.746,1.222-5.934,1.222-5.934,1.222s0,0,2.668,0.545c3.697,0.755,6.63,4.581,7.241,9.526
					C312.786,163.026,313.059,164.988,313.161,165.027z"/>
			</g>
			<g style="opacity:0.7;">
				<path style="fill:#FFFFFF;" d="M313.161,165.027c0.103-0.04,0.375-2.001,0.669-4.377c0.612-4.945,3.545-8.771,7.241-9.526
					c2.668-0.545,2.668-0.545,2.668-0.545s-4.188,0-5.934-1.222c-3.701-2.591-4.551-10.242-4.551-10.242s-1.037,7.652-4.738,10.242
					c-1.746,1.222-5.934,1.222-5.934,1.222s0,0,2.668,0.545c3.697,0.755,6.63,4.581,7.241,9.526
					C312.786,163.026,313.059,164.988,313.161,165.027z"/>
			</g>
		</g>
		<g>
			<g>
				<path style="fill:#407BFF;" d="M84.163,226.528c0.103-0.04,0.375-2.001,0.669-4.377c0.612-4.945,3.545-8.771,7.241-9.526
					c2.668-0.545,2.668-0.545,2.668-0.545s-4.188,0-5.934-1.222c-3.701-2.591-4.551-10.242-4.551-10.242s-1.037,7.652-4.738,10.242
					c-1.746,1.222-5.934,1.222-5.934,1.222s0,0,2.668,0.545c3.697,0.755,6.63,4.581,7.242,9.526
					C83.788,224.527,84.06,226.488,84.163,226.528z"/>
			</g>
			<g style="opacity:0.7;">
				<path style="fill:#FFFFFF;" d="M84.163,226.528c0.103-0.04,0.375-2.001,0.669-4.377c0.612-4.945,3.545-8.771,7.241-9.526
					c2.668-0.545,2.668-0.545,2.668-0.545s-4.188,0-5.934-1.222c-3.701-2.591-4.551-10.242-4.551-10.242s-1.037,7.652-4.738,10.242
					c-1.746,1.222-5.934,1.222-5.934,1.222s0,0,2.668,0.545c3.697,0.755,6.63,4.581,7.242,9.526
					C83.788,224.527,84.06,226.488,84.163,226.528z"/>
			</g>
		</g>
	</g>
</g>
</svg>
