<?xml version="1.0" encoding="utf-8"?>
<!-- Generator: Adobe Illustrator 27.5.0, SVG Export Plug-In . SVG Version: 6.00 Build 0)  -->
<svg version="1.1" xmlns="http://www.w3.org/2000/svg" xmlns:xlink="http://www.w3.org/1999/xlink" x="0px" y="0px"
	 viewBox="0 0 500 500" style="enable-background:new 0 0 500 500;" xml:space="preserve">
<g id="Background_Simple">
	<g>
		<path style="opacity:0.7;fill:#FFFFFF;" d="M67.931,167.086c0,0-27.877,71.988,11.297,144.503
			c39.174,72.516,119.879,110.802,184.469,143.548c64.59,32.746,131.661,16.799,163.534-36.838
			c31.873-53.637-11.845-91.928-11.897-168.418c-0.051-76.49,11.447-96.742-29.963-161.364
			c-41.41-64.623-143.059-78.925-219.9-30.996C88.631,105.45,67.931,167.086,67.931,167.086z"/>
	</g>
	<path style="fill:#92E3A9;" d="M63.688,139.161c26.715-51.839,76.275-91.056,138.058-96.579
		c42.047-3.758,85.237,8.598,118.73,34.348c16.861,12.963,31.846,29.548,41.792,48.443c11.424,21.703,14.748,46.721,26.501,68.317
		c14.614,26.854,42.052,37.927,60.478,61.132c15.174,19.11,20.381,44.715,18.639,69.054c-3.18,44.431-29.211,86.615-67.497,109.384
		c-32.367,19.248-71.386,24.56-109.003,22.812c-57.994-2.695-115.737-21.817-161.415-57.651
		c-45.678-35.834-78.515-88.801-86.291-146.334C38.395,212.985,46.078,173.331,63.688,139.161z"/>
	<path style="opacity:0.7;fill:#FFFFFF;" d="M63.688,139.161c26.715-51.839,76.275-91.056,138.058-96.579
		c42.047-3.758,85.237,8.598,118.73,34.348c16.861,12.963,31.846,29.548,41.792,48.443c11.424,21.703,14.748,46.721,26.501,68.317
		c14.614,26.854,42.052,37.927,60.478,61.132c15.174,19.11,20.381,44.715,18.639,69.054c-3.18,44.431-29.211,86.615-67.497,109.384
		c-32.367,19.248-71.386,24.56-109.003,22.812c-57.994-2.695-115.737-21.817-161.415-57.651
		c-45.678-35.834-78.515-88.801-86.291-146.334C38.395,212.985,46.078,173.331,63.688,139.161z"/>
</g>
<g id="Elements">
	<g>
		<g>
			<path style="fill:none;stroke:#263238;stroke-linecap:round;stroke-linejoin:round;stroke-miterlimit:10;" d="M46.073,158.113
				c1.18,4.673,0.599-3.929,2.912-14.453c2.313-10.525,6.274-6.256,6.274-6.256"/>
			
				<line style="fill:none;stroke:#263238;stroke-linecap:round;stroke-linejoin:round;stroke-miterlimit:10;" x1="45.347" y1="147.362" x2="52.598" y2="144.388"/>
			<path style="fill:none;stroke:#263238;stroke-linecap:round;stroke-linejoin:round;stroke-miterlimit:10;" d="M58.595,140.824
				c0,0-4.335,8.963,2.2,12.773"/>
			<path style="fill:none;stroke:#263238;stroke-linecap:round;stroke-linejoin:round;stroke-miterlimit:10;" d="M64.743,138.303
				c0,0,7.155,3.975,2.673,12.579"/>
			
				<line style="fill:none;stroke:#263238;stroke-linecap:round;stroke-linejoin:round;stroke-miterlimit:10;" x1="59.84" y1="143.86" x2="64.966" y2="147.603"/>
			
				<line style="fill:none;stroke:#263238;stroke-linecap:round;stroke-linejoin:round;stroke-miterlimit:10;" x1="63.86" y1="142.212" x2="59.849" y2="148.597"/>
		</g>
		<g>
			
				<ellipse transform="matrix(0.1619 -0.9868 0.9868 0.1619 -169.2799 273.0938)" style="fill:none;stroke:#263238;stroke-linecap:round;stroke-linejoin:round;stroke-miterlimit:10;" cx="76.134" cy="236.204" rx="10.909" ry="10.909"/>
			<path style="fill:none;stroke:#263238;stroke-linecap:round;stroke-linejoin:round;stroke-miterlimit:10;" d="M98.011,250.299
				c-5.43,3.9-12.993,2.659-16.893-2.771c-3.9-5.43-2.659-12.993,2.771-16.893c5.43-3.9,12.993-2.659,16.893,2.771
				C104.682,238.836,103.441,246.399,98.011,250.299z"/>
			
				<line style="fill:none;stroke:#263238;stroke-linecap:round;stroke-linejoin:round;stroke-miterlimit:10;" x1="86.075" y1="231.709" x2="81.046" y2="233.504"/>
			
				<line style="fill:none;stroke:#263238;stroke-linecap:round;stroke-linejoin:round;stroke-miterlimit:10;" x1="86.773" y1="233.782" x2="79.553" y2="236.393"/>
			
				<line style="fill:none;stroke:#263238;stroke-linecap:round;stroke-linejoin:round;stroke-miterlimit:10;" x1="87.041" y1="236.278" x2="78.982" y2="239.377"/>
			
				<line style="fill:none;stroke:#263238;stroke-linecap:round;stroke-linejoin:round;stroke-miterlimit:10;" x1="86.468" y1="239.69" x2="79.122" y2="243.047"/>
			
				<line style="fill:none;stroke:#263238;stroke-linecap:round;stroke-linejoin:round;stroke-miterlimit:10;" x1="85.174" y1="242.315" x2="79.585" y2="244.633"/>
			<path style="fill:none;stroke:#263238;stroke-linecap:round;stroke-linejoin:round;stroke-miterlimit:10;" d="M81.404,219.589
				c-0.316-0.948-3.852-1.62-4.025,0.997c-0.172,2.618,3.732,0.443,4.827-0.951c0,0-2.008,2.697-1.156,3.229"/>
			<path style="fill:none;stroke:#263238;stroke-linecap:round;stroke-linejoin:round;stroke-miterlimit:10;" d="M100.986,222.851
				l-3.141,6.528c0,0,1.571-3.264,3.251-2.965c2.07,0.368,0.695,3.754-1.808,2.508"/>
		</g>
		<g>
			
				<line style="fill:none;stroke:#263238;stroke-linecap:round;stroke-linejoin:round;stroke-miterlimit:10;" x1="442.709" y1="329.466" x2="447.642" y2="334.134"/>
			
				<line style="fill:none;stroke:#263238;stroke-linecap:round;stroke-linejoin:round;stroke-miterlimit:10;" x1="447.642" y1="328.247" x2="443.511" y2="334.418"/>
			
				<line style="fill:none;stroke:#263238;stroke-linecap:round;stroke-linejoin:round;stroke-miterlimit:10;" x1="452.494" y1="330.018" x2="457.429" y2="328.184"/>
			
				<line style="fill:none;stroke:#263238;stroke-linecap:round;stroke-linejoin:round;stroke-miterlimit:10;" x1="459.795" y1="323.039" x2="462.796" y2="325.695"/>
			
				<line style="fill:none;stroke:#263238;stroke-linecap:round;stroke-linejoin:round;stroke-miterlimit:10;" x1="465.096" y1="319.846" x2="461.296" y2="332.889"/>
		</g>
		<g>
			<polygon style="fill:none;stroke:#263238;stroke-linecap:round;stroke-linejoin:round;stroke-miterlimit:10;" points="
				234.966,256.221 248.235,247.092 265.809,248.324 266.907,270.598 254.008,279.821 238.091,278.661 			"/>
			<polyline style="fill:none;stroke:#263238;stroke-linecap:round;stroke-linejoin:round;stroke-miterlimit:10;" points="
				238.091,278.661 250.937,269.411 266.907,270.598 			"/>
			
				<line style="fill:none;stroke:#263238;stroke-linecap:round;stroke-linejoin:round;stroke-miterlimit:10;" x1="250.937" y1="269.411" x2="248.235" y2="247.092"/>
			<polyline style="fill:none;stroke:#263238;stroke-linecap:round;stroke-linejoin:round;stroke-miterlimit:10;" points="
				234.966,256.221 252.501,258.252 265.809,248.324 			"/>
			
				<line style="fill:none;stroke:#263238;stroke-linecap:round;stroke-linejoin:round;stroke-miterlimit:10;" x1="252.501" y1="258.252" x2="254.008" y2="279.821"/>
		</g>
		<g>
			<polygon style="fill:none;stroke:#263238;stroke-linecap:round;stroke-linejoin:round;stroke-miterlimit:10;" points="
				389.85,181.371 383.971,199.641 402.269,197.172 			"/>
			
				<line style="fill:none;stroke:#263238;stroke-linecap:round;stroke-linejoin:round;stroke-miterlimit:10;" x1="389.85" y1="181.371" x2="393.12" y2="198.3"/>
			<polyline style="fill:none;stroke:#263238;stroke-linecap:round;stroke-linejoin:round;stroke-miterlimit:10;" points="
				392.596,195.587 394.736,195.247 395.235,198.121 			"/>
		</g>
		<g>
			
				<line style="fill:none;stroke:#263238;stroke-linecap:round;stroke-linejoin:round;stroke-miterlimit:10;" x1="159.389" y1="348.557" x2="168.533" y2="353.048"/>
			
				<line style="fill:none;stroke:#263238;stroke-linecap:round;stroke-linejoin:round;stroke-miterlimit:10;" x1="165.581" y1="345.13" x2="162.965" y2="354.68"/>
			<path style="fill:none;stroke:#263238;stroke-linecap:round;stroke-linejoin:round;stroke-miterlimit:10;" d="M166.85,340.474
				c0,0,1.289-1.163,2.203,0.282c0.914,1.444-0.882,4.461-0.882,4.461l3.667-1.395"/>
		</g>
		<g>
			<path style="fill:none;stroke:#263238;stroke-linecap:round;stroke-linejoin:round;stroke-miterlimit:10;" d="M231.151,34.032
				c8.727,4.904-1.273,16.904-1.273,23.904s10,6,15,8c2,0,6,0,5.892,5.086"/>
			<path style="fill:none;stroke:#263238;stroke-linecap:round;stroke-linejoin:round;stroke-miterlimit:10;" d="M221.422,40.37
				c1.517,8.275,11.014,5.339,16.823,7.229c9.984,3.248,4.449,13.571,1.463,19.807c-1.785,3.729-3.563,8.94-0.372,12.477"/>
			
				<line style="fill:none;stroke:#263238;stroke-linecap:round;stroke-linejoin:round;stroke-miterlimit:10;" x1="222.699" y1="43.579" x2="233.108" y2="34.931"/>
			
				<line style="fill:none;stroke:#263238;stroke-linecap:round;stroke-linejoin:round;stroke-miterlimit:10;" x1="226.783" y1="46.16" x2="234.622" y2="39.658"/>
			
				<line style="fill:none;stroke:#263238;stroke-linecap:round;stroke-linejoin:round;stroke-miterlimit:10;" x1="231.389" y1="52.737" x2="238.011" y2="47.535"/>
			
				<line style="fill:none;stroke:#263238;stroke-linecap:round;stroke-linejoin:round;stroke-miterlimit:10;" x1="230.022" y1="60.523" x2="242.963" y2="51.216"/>
			
				<line style="fill:none;stroke:#263238;stroke-linecap:round;stroke-linejoin:round;stroke-miterlimit:10;" x1="234.978" y1="64.152" x2="243.997" y2="57.53"/>
			
				<line style="fill:none;stroke:#263238;stroke-linecap:round;stroke-linejoin:round;stroke-miterlimit:10;" x1="238.816" y1="78.221" x2="250.09" y2="69.042"/>
			
				<line style="fill:none;stroke:#263238;stroke-linecap:round;stroke-linejoin:round;stroke-miterlimit:10;" x1="239.095" y1="70.999" x2="246.451" y2="65.83"/>
		</g>
		<g>
			
				<ellipse transform="matrix(0.9285 -0.3713 0.3713 0.9285 -118.0481 55.147)" style="fill:none;stroke:#263238;stroke-linecap:round;stroke-linejoin:round;stroke-miterlimit:10;" cx="84.174" cy="334.105" rx="20.944" ry="20.944"/>
			<path style="fill:none;stroke:#263238;stroke-linecap:round;stroke-linejoin:round;stroke-miterlimit:10;" d="M89.442,313.838
				c7.299-8.566,13.506-13.421,15.9-11.843c3.635,2.396-2.896,18.715-14.587,36.448c-11.691,17.734-24.115,30.167-27.749,27.771
				c-2.394-1.578-0.378-9.197,4.619-19.282"/>
			<path style="fill:none;stroke:#263238;stroke-linecap:round;stroke-linejoin:round;stroke-miterlimit:10;" d="M63.676,338.397
				c-10.174-2.928-16.675-6.346-16.271-9.079c0.637-4.307,18.187-5.278,39.198-2.17c21.012,3.108,37.529,9.119,36.891,13.426
				c-0.441,2.979-8.971,4.362-21.14,3.903"/>
			<path style="fill:none;stroke:#263238;stroke-linecap:round;stroke-linejoin:round;stroke-miterlimit:10;" d="M66.346,323.231
				c-7.678-13.858-11.518-24.671-8.913-26.358c3.418-2.213,16.636,12.126,29.525,32.029c12.889,19.902,20.566,37.83,17.148,40.044
				c-2.26,1.464-8.809-4.314-16.714-14.154"/>
			<path style="fill:#263238;" d="M108.288,311.061c-1.047,1.588-3.182,2.026-4.77,0.98c-1.588-1.047-2.026-3.182-0.98-4.77
				c1.047-1.588,3.182-2.026,4.77-0.98C108.896,307.338,109.335,309.473,108.288,311.061z"/>
			<path style="fill:#263238;" d="M96.896,363.749c-1.047,1.588-3.182,2.026-4.77,0.98c-1.588-1.047-2.026-3.182-0.979-4.77
				c1.047-1.588,3.182-2.026,4.77-0.98C97.504,360.026,97.943,362.162,96.896,363.749z"/>
			<path style="fill:#263238;" d="M78.523,328.019c-1.047,1.588-3.182,2.026-4.77,0.98c-1.588-1.047-2.026-3.182-0.98-4.77
				c1.047-1.588,3.182-2.026,4.77-0.979C79.131,324.296,79.57,326.431,78.523,328.019z"/>
		</g>
		<g>
			<polygon style="fill:none;stroke:#263238;stroke-linecap:round;stroke-linejoin:round;stroke-miterlimit:10;" points="
				297.832,178.326 309.614,178.326 315.505,168.122 309.614,157.918 297.832,157.918 291.94,168.122 			"/>
			<polyline style="fill:none;stroke:#263238;stroke-linecap:round;stroke-linejoin:round;stroke-miterlimit:10;" points="
				296.121,200.71 290.229,190.506 278.447,190.506 			"/>
			<polygon style="fill:none;stroke:#263238;stroke-linecap:round;stroke-linejoin:round;stroke-miterlimit:10;" points="
				280.029,168.122 291.812,168.122 297.703,157.918 291.812,147.714 280.029,147.714 274.138,157.918 			"/>
			<polygon style="fill:none;stroke:#263238;stroke-linecap:round;stroke-linejoin:round;stroke-miterlimit:10;" points="
				297.832,157.918 309.614,157.918 315.505,147.714 309.614,137.51 297.832,137.51 291.94,147.714 			"/>
			<circle style="fill:#263238;" cx="297.703" cy="157.918" r="1.582"/>
			<circle style="fill:#263238;" cx="273.1" cy="136.5" r="1.582"/>
			<path style="fill:#263238;" d="M294.538,200.71c0-0.874,0.708-1.582,1.582-1.582c0.874,0,1.582,0.708,1.582,1.582
				c0,0.874-0.708,1.582-1.582,1.582C295.247,202.292,294.538,201.584,294.538,200.71z"/>
			<circle style="fill:#263238;" cx="278.447" cy="190.506" r="1.582"/>
			<path style="fill:#263238;" d="M326.9,147.983c0-0.874,0.708-1.582,1.582-1.582c0.874,0,1.583,0.708,1.583,1.582
				c0,0.874-0.708,1.582-1.583,1.582C327.609,149.565,326.9,148.857,326.9,147.983z"/>
			<circle style="fill:#263238;" cx="290.109" cy="190.506" r="1.582"/>
			<path style="fill:#263238;" d="M313.923,147.983c0-0.874,0.708-1.582,1.582-1.582c0.874,0,1.582,0.708,1.582,1.582
				c0,0.874-0.708,1.582-1.582,1.582C314.631,149.565,313.923,148.857,313.923,147.983z"/>
			<path style="fill:#263238;" d="M296.121,178.326c0-0.874,0.708-1.582,1.582-1.582s1.582,0.708,1.582,1.582
				c0,0.874-0.708,1.583-1.582,1.583S296.121,179.199,296.121,178.326z"/>
			
				<line style="fill:none;stroke:#263238;stroke-linecap:round;stroke-linejoin:round;stroke-miterlimit:10;" x1="315.505" y1="147.983" x2="328.482" y2="147.983"/>
			
				<line style="fill:none;stroke:#263238;stroke-linecap:round;stroke-linejoin:round;stroke-miterlimit:10;" x1="297.703" y1="178.326" x2="290.109" y2="190.506"/>
			
				<line style="fill:none;stroke:#263238;stroke-linecap:round;stroke-linejoin:round;stroke-miterlimit:10;" x1="280.029" y1="147.714" x2="273.1" y2="136.5"/>
		</g>
		<g>
			<path style="fill:none;stroke:#263238;stroke-linecap:round;stroke-linejoin:round;stroke-miterlimit:10;" d="M363.583,107.502
				c2.661-9.04,11.021-15.639,20.922-15.639c10.237,0,18.827,7.054,21.173,16.566"/>
			<path style="fill:none;stroke:#263238;stroke-linecap:round;stroke-linejoin:round;stroke-miterlimit:10;" d="M382.033,135.339
				c-10.88-1.228-19.335-10.46-19.335-21.668"/>
			<path style="fill:none;stroke:#263238;stroke-linecap:round;stroke-linejoin:round;stroke-miterlimit:10;" d="M406.312,113.671
				c0,12.043-9.763,21.807-21.807,21.807"/>
			<path style="fill:none;stroke:#263238;stroke-linecap:round;stroke-linejoin:round;stroke-miterlimit:10;" d="M407.548,99.845
				c6.821-0.875,11.393-0.4,12.098,1.632c1.41,4.064-13.18,12.818-32.587,19.552c-19.408,6.735-36.284,8.9-37.694,4.836
				c-0.754-2.172,3.064-5.685,9.746-9.513"/>
		</g>
		<polygon style="fill:none;stroke:#263238;stroke-linecap:round;stroke-linejoin:round;stroke-miterlimit:10;" points="
			290.109,84.898 292.199,89.132 296.872,89.811 293.49,93.107 294.288,97.761 290.109,95.564 285.929,97.761 286.728,93.107 
			283.346,89.811 288.019,89.132 		"/>
		<g>
			<path style="fill:none;stroke:#263238;stroke-linecap:round;stroke-linejoin:round;stroke-miterlimit:10;" d="M142.474,73.627
				c0,4.08-1.72,7.76-4.47,10.33c-2.54,2.4-5.96,3.86-9.71,3.86c-0.46,0-0.91-0.02-1.35-0.06c-2.95-0.28-5.63-1.46-7.77-3.26
				c-1.83-1.53-3.27-3.52-4.13-5.79c-0.61-1.58-0.94-3.29-0.94-5.08c0-7.83,6.35-14.18,14.19-14.18c2.2,0,4.29,0.5,6.16,1.41
				c2.14,1.03,3.98,2.58,5.35,4.49C141.484,67.677,142.474,70.537,142.474,73.627z"/>
			<path style="fill:none;stroke:#263238;stroke-linecap:round;stroke-linejoin:round;stroke-miterlimit:10;" d="M140.197,76.193
				c0,1.212-0.982,2.194-2.194,2.194s-2.194-0.982-2.194-2.194s0.982-2.194,2.194-2.194S140.197,74.981,140.197,76.193z"/>
			<path style="fill:none;stroke:#263238;stroke-linecap:round;stroke-linejoin:round;stroke-miterlimit:10;" d="M120.454,81.767
				c0,1.1-0.5,2.08-1.28,2.73c-1.83-1.53-3.27-3.52-4.13-5.79c0.53-0.33,1.16-0.51,1.83-0.51
				C118.854,78.197,120.454,79.797,120.454,81.767z"/>
			<path style="fill:none;stroke:#263238;stroke-linecap:round;stroke-linejoin:round;stroke-miterlimit:10;" d="M138.004,83.957
				c-2.54,2.4-5.96,3.86-9.71,3.86c-0.46,0-0.91-0.02-1.35-0.06c-0.08-0.38-0.12-0.77-0.12-1.17c0-3.26,2.64-5.91,5.9-5.91
				C135.044,80.677,137.044,82.017,138.004,83.957z"/>
			
				<circle style="fill:none;stroke:#263238;stroke-linecap:round;stroke-linejoin:round;stroke-miterlimit:10;" cx="124.855" cy="64.741" r="3.263"/>
			<path style="fill:none;stroke:#263238;stroke-linecap:round;stroke-linejoin:round;stroke-miterlimit:10;" d="M127.874,73.999
				c0,0.834-0.676,1.509-1.51,1.509s-1.51-0.676-1.51-1.509c0-0.834,0.676-1.51,1.51-1.51S127.874,73.166,127.874,73.999z"/>
			<path style="fill:none;stroke:#263238;stroke-linecap:round;stroke-linejoin:round;stroke-miterlimit:10;" d="M139.804,65.347
				c-0.38,0.13-0.8,0.19-1.23,0.19c-2.3,0-4.15-1.86-4.15-4.16c0-0.18,0.01-0.35,0.03-0.52
				C136.594,61.887,138.434,63.437,139.804,65.347z"/>
		</g>
		<path style="fill:none;stroke:#263238;stroke-linecap:round;stroke-linejoin:round;stroke-miterlimit:10;" d="M465.848,238.292
			l1.53-3.439l-2.478-1.368c0.088-0.612,0.106-1.224,0.05-1.827l2.542-1.237l-1.35-3.514l-2.717,0.784
			c-0.362-0.485-0.785-0.928-1.26-1.324l0.924-2.675l-3.439-1.53l-1.368,2.478c-0.612-0.088-1.224-0.106-1.827-0.05l-1.237-2.542
			l-3.514,1.35l0.784,2.717c-0.485,0.362-0.928,0.785-1.324,1.261l-2.675-0.924l-1.53,3.439l2.478,1.368
			c-0.088,0.612-0.106,1.224-0.05,1.827l-2.542,1.237l1.35,3.514l2.716-0.784c0.362,0.485,0.785,0.928,1.261,1.324l-0.924,2.675
			l3.439,1.53l1.368-2.477c0.612,0.088,1.224,0.105,1.827,0.05l1.237,2.542l3.514-1.35l-0.784-2.717
			c0.485-0.362,0.928-0.785,1.324-1.26L465.848,238.292z M455.39,236.369c-2.207-0.982-3.201-3.567-2.219-5.774
			c0.982-2.207,3.567-3.201,5.774-2.219c2.207,0.982,3.201,3.567,2.219,5.774C460.183,236.357,457.598,237.35,455.39,236.369z"/>
		<path style="fill:none;stroke:#263238;stroke-linecap:round;stroke-linejoin:round;stroke-miterlimit:10;" d="M447.573,255.943
			l2.078-4.671l-3.365-1.858c0.12-0.831,0.143-1.663,0.067-2.482l3.453-1.68l-1.834-4.772l-3.689,1.065
			c-0.492-0.659-1.066-1.261-1.712-1.798l1.255-3.633l-4.671-2.078l-1.858,3.365c-0.831-0.12-1.663-0.143-2.482-0.067l-1.68-3.453
			l-4.772,1.834l1.064,3.689c-0.659,0.492-1.261,1.066-1.798,1.712l-3.633-1.255l-2.078,4.671l3.365,1.858
			c-0.12,0.831-0.143,1.663-0.068,2.482l-3.453,1.68l1.834,4.772l3.689-1.064c0.492,0.659,1.066,1.261,1.712,1.798l-1.255,3.633
			l4.671,2.078l1.858-3.365c0.831,0.12,1.663,0.143,2.482,0.068l1.68,3.453l4.772-1.834l-1.065-3.689
			c0.659-0.492,1.261-1.066,1.798-1.712L447.573,255.943z M433.371,253.33c-2.998-1.333-4.347-4.844-3.014-7.842
			c1.333-2.998,4.844-4.347,7.842-3.014c2.998,1.333,4.347,4.844,3.014,7.842C439.88,253.314,436.369,254.664,433.371,253.33z"/>
	</g>
</g>
<g id="Earth">
	<g>
		<g>
			<defs>
				<path id="XMLID_569_" d="M240.269,211.606c-1.389,2.636-2.94,5.135-4.633,7.482c-9.108,12.669-22.332,21.136-36.811,24.53
					c-7.185,1.683-14.683,2.115-22.146,1.188c-7.361-0.908-14.682-3.148-21.633-6.812c-1.389-0.732-2.742-1.514-4.051-2.333
					c-1.305-0.809-2.569-1.664-3.787-2.556c-1.484-1.075-2.901-2.21-4.263-3.402c-0.007-0.003-0.01-0.014-0.017-0.017
					c-0.084-0.07-0.167-0.14-0.244-0.223c-0.017-0.017-0.03-0.025-0.03-0.025c-7.995-7.058-13.907-15.911-17.448-25.617
					c-1.452-3.979-2.512-8.112-3.134-12.326c-1.93-12.828,0.076-26.373,6.586-38.723c9.634-18.276,26.968-29.865,45.901-32.884
					c13.002-2.08,26.776-0.117,39.321,6.497c11.851,6.247,20.895,15.744,26.609,26.82
					C249.642,170.898,250.269,192.636,240.269,211.606z"/>
			</defs>
			<use xlink:href="#XMLID_569_"  style="overflow:visible;fill:#92E3A9;"/>
			<clipPath id="XMLID_00000181078345368976152620000005032972146594880129_">
				<use xlink:href="#XMLID_569_"  style="overflow:visible;"/>
			</clipPath>
			<g style="opacity:0.6;clip-path:url(#XMLID_00000181078345368976152620000005032972146594880129_);">
				<path style="fill:#FFFFFF;" d="M240.27,211.61c-1.39,2.63-2.94,5.13-4.63,7.48l-1.22-0.96l-2.1-1.11l-2.21-1.16l0.37-2.67
					c0,0,0,0-0.12-2.41c-0.13-2.41,1.61-0.44,3.05-1.17c1.42-0.75,2.55-2.96,2.55-2.96s1.02-3.21,0.67-4.5
					c-0.35-1.29-1.9-4.34-1.9-4.34l-3.58,4.97l-2.95-0.23l-2.94-1.54l-0.37-3.95l-1.46-0.76l-0.61-2.27l-7.89-2.21c0,0,0,0-0.9-1.58
					s-4.53-2.39-4.53-2.39l0.89-2.06c0,0,0,0,1.4-2.3c1.41-2.3,2.87,1.52,2.87,1.52l1.67,0.87l3.1-2.6c0,0,0,0,0.82-3.73l5.05,0.29
					c0,0-0.36-1.83,1.32-2.5c1.68-0.66,0.94-4.31,0.3-5.66c-0.66-1.34-2.96-0.26-2.96-0.26s-2.57-3.91-2.92-5.47
					c-0.35-1.55,4.9-1.04,7.15-2.57c2.24-1.52,1.48-4.69,0.38-4.76c-1.09-0.08,2.15-7.1,8.4-5.17c1.74,0.54,2.84,0.35,3.52-0.25
					C249.64,170.9,250.27,192.64,240.27,211.61z"/>
				<path style="fill:#FFFFFF;" d="M196.54,184.56c-2.14,2.69-2.14,2.69-2.14,2.69s-0.91-2.17-2.21-0.99
					c-1.3,1.18-1.96,1.78-1.96,1.78l-1.45,4.06l-2.6,1.68l-1.59-0.83l-1.5-0.8l-1.63-0.86l-1.56,2.96l-1.27,2.4
					c0.96,1.87,2.29,3.25,2.29,3.25l2.76,4.87l3.29,1.73c2.02,0.04,4.17,0.5,4.17,0.5l2.31,1.21l-0.82,5.01c0,0-1.74,2.83-2.9,2.05
					c-1.17-0.77-1.17-0.77-1.17-0.77l-1.9,6.58l-0.08,3.62c0,0-1.13,0.47-2.27,0.85c-1.15,0.38-0.42,0.18-2.81,0.92
					s-2.2,0.71-4.14,1.26s-4.75,2.22-4.75,2.22l0.17,3.48l-4.57,0.67l-2.56-1.36l0.63-2.2l0.3-3.44l-0.35-2.57l-1.1-2.27l3.08-2.79
					l-0.68-1.75l-1.75-3.48l-3.7,2l-1.9,1.02l-4.3-1.93l-0.47-2.61l-1.46-4.71l-1.34-2.92l-2.38-3.22l-0.6-2.77l1.34-2.54l0.71-1.34
					l-2.19-2.95l-0.6-2.1l-3.69-3.35c0,0,1.07-0.07,0.83-1.56c-0.24-1.49,2.11-4,2.11-4c1.33,0.7,5.32,3.48,5.32,3.48l3.49,0.48
					c0.04,0,0.7-0.02,1.38-1.32c0.7-1.33,2.78-3.33,2.78-3.33s-1.61-5.59-0.46-6.34c1.14-0.77,2.32-4.41,2.32-4.41l0.92-1.75
					c0,0-2.17-0.95-2.58-2.1c-0.41-1.16-5.76,0.38-5.76,0.38l-3.69,2.56l-2.82,2.24l-1.26,2.39c0,0-2.57-3.09-2.58-1.36
					c-0.01,1.73-1.16,5.21-1.16,5.21s0.53,0.28-0.17,1.62c-0.71,1.33-1.46,1.27-3.04,1.46s-5.96-0.41-5.96-0.41s-1,3.7-0.31,4.34
					c0.68,0.62,0.68,0.62,0.68,0.62s-1.07,2.69-2.13,2.13c-1.07-0.57-2.58-1.36-2.58-1.36l-3.61,1.46l-3.96,4.42l-0.89-0.18
					c-1.93-12.82,0.08-26.37,6.59-38.72c9.63-18.27,26.97-29.86,45.9-32.88c0.23,1.02,0.48,1.94,0.48,1.94l-0.97,4.94l-1.28,2.44
					l-1.1,2.09l-1.55,2.94l3.86,3.66l-0.85,4.33l-2.15,1.35l-0.62,3.25l3.69,7.21l1.04,2.83c0,0-1.15,2.56-0.89,4.32
					c0,0,0.45,2.7,2.42,3.77c1.97,1.06,4.56,2.33,4.56,2.33l-0.21,4.02l-0.89,1.04l1.48,4.31c4.51,1.77,4.08,3.25,4.51,1.77
					c0.44-1.47,0.44-1.47,0.44-1.47l3.07-1.11l3.91,4.67c0,0,1.21-0.16,2.3,1.22C196.91,183.12,198.69,181.87,196.54,184.56z"/>
				<path style="fill:#FFFFFF;" d="M143.54,219.39c0.11,1.42-1.69,3.2-1.69,3.2l1.47,0.77l0.45,3.96l-1.11,2.12
					c-8-7.06-13.91-15.91-17.45-25.62l0.8-4.24l3.53-0.5c0,0,3.16-2.1,4.56-1.54c1.4,0.58,2.68,3.97,2.68,3.97s1.03,4.64,0.87,4.55
					l-0.02-0.01l-0.06,0.04l0.08-0.03l1.44,0.76l0.41,1.83l-2.01,3.8l-3.22,0.01c0,0-0.64-0.34-0.7,1.33
					c-0.06,1.68,1.67,2.93,1.67,2.93l3.48-0.89c0.93-3.6,0.93-3.6,0.93-3.6l3.42-0.67c0,0-0.49,2.21,0.31,2.63
					c0.81,0.43,0.81,0.43,0.81,0.43l0.48,2.64C144.67,217.26,143.43,217.97,143.54,219.39z"/>
				<path style="fill:#FFFFFF;" d="M160.08,225.046c-0.309-0.852-0.439-1.602-2.57-2.724c-2.124-1.119-2.016-0.718-2.841,0.208
					c-0.831,0.923-1.787,1.444-3.181,1.132c-1.394-0.313-0.668,1.267-0.668,1.267l0.334,4.268l-3.946,3.907
					c1.218,0.892,2.482,1.747,3.787,2.556l0.843-2.579l6.561,1.951c-1.392-0.415-0.571-2.317-0.571-2.317l-1.402-0.739
					C156.427,231.976,160.393,225.891,160.08,225.046z"/>
				<path style="fill:#FFFFFF;" d="M201.397,202.846l-2.151-2.17l-2.455,0.778l-1.049,1.99l-0.756,1.435l1.015,1.953l2.016,2.426
					l1.147-2.176c0,0,3.17,0.021,4.828-1.831C205.65,203.397,201.397,202.846,201.397,202.846z"/>
				<path style="fill:#FFFFFF;" d="M195.084,193.056l4,2.109c0,0,0,0,0.155-0.941s1.085-2.058,1.085-2.058l-3.065-3.236
					L195.084,193.056z"/>
				<path style="fill:#FFFFFF;" d="M193.719,239.608l-1.153-1.685l-1.335-0.704l-4.094,0.004l-2.328,4.416
					c0,0-2.226-0.303-5.159-0.557c-2.929-0.261-2.205,0.948-2.205,0.948l-0.765,2.775c7.462,0.927,14.961,0.495,22.146-1.188
					c-1.179-0.837-2.621-1.614-2.621-1.614L193.719,239.608z"/>
			</g>
			
				<use xlink:href="#XMLID_569_"  style="overflow:visible;fill:none;stroke:#263238;stroke-linecap:round;stroke-linejoin:round;stroke-miterlimit:10;"/>
		</g>
		<path style="fill:none;stroke:#263238;stroke-linecap:round;stroke-linejoin:round;stroke-miterlimit:10;" d="M198.825,243.618
			c-7.185,1.683-14.683,2.115-22.146,1.188l0.765-2.775c0,0-0.724-1.209,2.205-0.948c2.933,0.254,5.159,0.557,5.159,0.557
			l2.328-4.415l4.094-0.004l1.335,0.704l1.153,1.685l2.485,2.395C196.204,242.004,197.646,242.781,198.825,243.618z"/>
		<g>
			<path style="fill:none;stroke:#263238;stroke-linecap:round;stroke-linejoin:round;stroke-miterlimit:10;" d="M240.491,153.204
				c-0.678,0.599-1.776,0.787-3.516,0.248c-6.251-1.934-9.497,5.09-8.401,5.168c1.1,0.071,1.86,3.238-0.382,4.761
				c-2.252,1.527-7.498,1.018-7.153,2.57c0.352,1.555,2.917,5.466,2.917,5.466s2.3-1.079,2.96,0.268
				c0.649,1.35,1.389,4.996-0.295,5.659c-1.678,0.666-1.318,2.501-1.318,2.501l-5.056-0.296c-0.813,3.732-0.813,3.732-0.813,3.732
				l-3.103,2.602l-1.665-0.878c0,0-1.462-3.812-2.872-1.514c-1.399,2.295-1.399,2.295-1.399,2.295l-0.896,2.06
				c0,0,3.63,0.811,4.537,2.392c0.9,1.577,0.9,1.577,0.9,1.577l7.885,2.218l0.616,2.263l1.456,0.768l0.369,3.942l2.943,1.543
				l2.944,0.234l3.587-4.975c0,0,1.55,3.057,1.897,4.343c0.354,1.289-0.666,4.499-0.666,4.499s-1.132,2.212-2.559,2.958
				c-1.43,0.736-3.174-1.234-3.049,1.175c0.119,2.406,0.119,2.406,0.119,2.406l-0.364,2.668l2.211,1.166l2.097,1.105l1.217,0.96"/>
			<path style="fill:none;stroke:#263238;stroke-linecap:round;stroke-linejoin:round;stroke-miterlimit:10;" d="M122.073,191.494
				l0.883,0.172l3.967-4.421l3.604-1.46c0,0,1.517,0.8,2.582,1.361c1.065,0.561,2.135-2.122,2.135-2.122s0,0-0.685-0.628
				c-0.692-0.632,0.315-4.339,0.315-4.339s4.374,0.609,5.957,0.418s2.334-0.13,3.038-1.465c0.704-1.335,0.171-1.615,0.171-1.615
				s1.155-3.483,1.162-5.211c0.006-1.728,2.575,1.357,2.575,1.357l1.262-2.393l2.826-2.24l3.682-2.556c0,0,5.351-1.538,5.766-0.381
				c0.408,1.154,2.58,2.101,2.58,2.101l-0.92,1.746c0,0-1.179,3.643-2.324,4.409c-1.148,0.756,0.464,6.344,0.464,6.344
				s-2.082,2.004-2.782,3.332c-0.704,1.335-1.378,1.324-1.378,1.324l-3.494-0.481c0,0-3.986-2.782-5.321-3.486
				c0,0-2.341,2.513-2.107,3.998c0.237,1.495-0.824,1.564-0.824,1.564l3.688,3.348l0.599,2.099l2.193,2.948l-0.711,1.348
				l-1.34,2.541l0.592,2.767l2.389,3.215l1.338,2.919l1.46,4.715l0.469,2.608l4.298,1.93l1.9-1.023l3.697-1.997l1.749,3.48
				l0.689,1.75l-3.08,2.787l1.093,2.273l0.357,2.575l-0.306,3.44l-0.633,2.199l2.568,1.354l4.562-0.662l-0.16-3.487
				c0,0,2.807-1.665,4.745-2.219c1.945-0.551,1.746-0.518,4.141-1.254c2.392-0.746,1.655-0.541,2.805-0.925
				c1.14-0.381,2.271-0.844,2.271-0.844l0.085-3.625l1.894-6.583c0,0,0,0,1.17,0.772c1.166,0.778,2.904-2.044,2.904-2.044
				l0.817-5.014l-2.306-1.215c0,0-2.148-0.452-4.169-0.492l-3.297-1.738l-2.752-4.862c0,0-1.331-1.382-2.293-3.25l1.265-2.4
				l1.56-2.96l1.631,0.86l1.503,0.793l1.591,0.839l2.596-1.689l1.451-4.059c0,0,0.661-0.599,1.961-1.775
				c1.304-1.182,2.212,0.985,2.212,0.985s0,0,2.141-2.688c2.147-2.684,0.372-1.441-0.727-2.821c-1.099-1.38-2.305-1.215-2.305-1.215
				l-3.912-4.672l-3.068,1.114c0,0,0,0-0.437,1.467c-0.434,1.477,0,0-4.509-1.774l-1.486-4.307l0.892-1.038l0.216-4.021
				c0,0-2.598-1.266-4.562-2.327c-1.968-1.072-2.421-3.774-2.421-3.774c-0.262-1.758,0.887-4.314,0.887-4.314l-1.037-2.838
				l-3.694-7.211l0.625-3.245l2.143-1.352l0.85-4.325l-3.859-3.662l1.549-2.939l1.102-2.09l1.286-2.44l0.962-4.946
				c0,0-0.243-0.912-0.477-1.94"/>
			<path style="fill:none;stroke:#263238;stroke-linecap:round;stroke-linejoin:round;stroke-miterlimit:10;" d="M142.946,229.702
				c-0.1-0.121-0.21-0.206-0.261-0.241c-0.017-0.017-0.03-0.025-0.03-0.025l1.116-2.117l-0.447-3.957l-1.47-0.775
				c0,0,1.79-1.779,1.684-3.195c-0.109-1.427,1.127-2.137,1.127-2.137l-0.479-2.639c0,0,0,0-0.802-0.423
				c-0.802-0.423-0.315-2.638-0.315-2.638l-3.42,0.67c0,0,0,0-0.933,3.6l-3.476,0.89c0,0-1.729-1.247-1.672-2.923
				c0.063-1.672,0.704-1.335,0.704-1.335l3.218-0.009l2.004-3.802l-0.401-1.822l-1.449-0.764"/>
			<path style="fill:none;stroke:#263238;stroke-linecap:round;stroke-linejoin:round;stroke-miterlimit:10;" d="M137.632,206.053
				l0.014,0.007c0.162,0.085-0.867-4.549-0.867-4.549s-1.277-3.395-2.679-3.971c-1.399-0.565-4.56,1.542-4.56,1.542l-3.529,0.5
				l-0.803,4.237"/>
			<path style="fill:none;stroke:#263238;stroke-linecap:round;stroke-linejoin:round;stroke-miterlimit:10;" d="M151.839,233.081
				l-0.843,2.579c-1.305-0.809-2.569-1.664-3.787-2.556l3.946-3.907l-0.334-4.268c0,0-0.726-1.58,0.668-1.267
				s2.35-0.209,3.181-1.132c0.824-0.926,0.717-1.328,2.841-0.208c2.13,1.123,2.261,1.872,2.57,2.724
				c0.313,0.845-3.653,6.93-3.653,6.93l1.402,0.739c0,0-0.822,1.902,0.571,2.317L151.839,233.081z"/>
			<path style="fill:none;stroke:#263238;stroke-linecap:round;stroke-linejoin:round;stroke-miterlimit:10;" d="M196.792,201.454
				l2.455-0.778l2.151,2.17c0,0,4.253,0.552,2.595,2.404c-1.658,1.852-4.828,1.831-4.828,1.831l-1.147,2.176l-2.016-2.426
				l-1.016-1.953l0.757-1.435L196.792,201.454z"/>
			<path style="fill:none;stroke:#263238;stroke-linecap:round;stroke-linejoin:round;stroke-miterlimit:10;" d="M200.324,192.167
				c0,0-0.93,1.117-1.085,2.058c-0.155,0.941-0.155,0.941-0.155,0.941l-4-2.109l2.175-4.126L200.324,192.167z"/>
		</g>
	</g>
</g>
<g id="Character">
	<g>
		<path style="fill:#263238;" d="M417.33,428.048c-5.36,4.46-46.648,32.798-105.57,28.232c-3.17-26.82-15.26-137.01-1.51-154.28
			c0,0,33.36-15.91,64.09-9.23c30.73,6.68,42.69,13.08,44.88,18.62C420.88,315.58,418.51,393.598,417.33,428.048z"/>
		<path style="fill:#FFFFFF;stroke:#263238;stroke-linecap:round;stroke-linejoin:round;stroke-miterlimit:10;" d="M373.32,304.54
			c-17.7,15.33-40.5,12.09-40,0.32c0.08-1.84,2.05-4.12,2.05-4.12s-0.26-0.39-0.69-1.06c-0.66-1-1.73-2.63-2.97-4.53
			c-2.19-3.39-4.93-7.65-6.84-10.75c-1.6-2.64,38.29-27.18,38.29-13.07c0,19.88,9.76,23.62,9.76,23.62
			C376.57,296.43,379.99,298.77,373.32,304.54z"/>
		<path style="fill:none;stroke:#FFFFFF;stroke-linecap:round;stroke-linejoin:round;stroke-miterlimit:10;" d="M384.505,334.901
			c0,0-3.567,12.236-1.871,15.744"/>
		<path style="fill:none;stroke:#FFFFFF;stroke-linecap:round;stroke-linejoin:round;stroke-miterlimit:10;" d="M380.341,299.357
			c0,11.812-35.232,23.38-45.556,11.534"/>
		<path style="fill:#263238;" d="M351.36,285.73c0,0-2.371,8.896-13.349,15.852c0,0-0.56-1.22-2.371-1.872
			c-0.32-0.115-0.66-0.01-0.96-0.03c-0.66-1-1.73-2.63-2.97-4.53C337.32,291.08,351.36,285.73,351.36,285.73z"/>
		<g>
			<path style="fill:#FFFFFF;stroke:#263238;stroke-linecap:round;stroke-linejoin:round;stroke-miterlimit:10;" d="
				M356.297,274.792c0,0-0.114,8.783-1.973,10.565c-13.954,13.383-27.591,14.44-29.843,10.91
				c-15.147-23.754-11.568-30.018-13.112-34.062c-2.729-7.145-6.078-18.801-4.601-25.864c3.298-15.775,33.023-27.963,48.644-12.145
				c7.499,7.594,9.87,24.066,8.286,37.785"/>
			<path style="fill:none;stroke:#263238;stroke-linecap:round;stroke-linejoin:round;stroke-miterlimit:10;" d="M313.259,254.857
				c0,0-4.164-1.87-5.067,0.362"/>
			<path style="fill:none;stroke:#263238;stroke-linecap:round;stroke-linejoin:round;stroke-miterlimit:10;" d="M323.372,254.954
				c0,0,8.671-3.63,12.568,0.774"/>
			<path style="fill:#263238;" d="M332.963,261.147c0.142,1.301-0.494,2.438-1.42,2.539c-0.926,0.101-1.792-0.872-1.934-2.173
				c-0.142-1.301,0.493-2.438,1.419-2.539C331.955,258.872,332.82,259.845,332.963,261.147z"/>
			<path style="fill:#263238;" d="M315.984,261.54c0.142,1.301-0.493,2.438-1.419,2.539c-0.926,0.101-1.792-0.872-1.934-2.174
				c-0.142-1.301,0.493-2.438,1.419-2.539C314.976,259.266,315.842,260.239,315.984,261.54z"/>
			<path style="fill:#FFFFFF;stroke:#263238;stroke-linecap:round;stroke-linejoin:round;stroke-miterlimit:10;" d="
				M316.418,258.124c1.211,1.95,0.548,5.277-1.046,9.842c-1.594,4.565-0.19,6.224,5.945,6.684"/>
			<path style="fill:none;stroke:#263238;stroke-linecap:round;stroke-linejoin:round;stroke-miterlimit:10;" d="M321.318,282.56
				c0,0,8.021-0.732,11.665-2.74"/>
			<path style="fill:#263238;" d="M371.985,237.22c-0.002-5.943-5.86-18.132-16.148-19.5l0,0
				c-5.902-6.182-14.331-8.454-24.551-6.105c-23.613,5.428-30.801,28.742-31.84,32.607c-0.1,0.359-0.143,0.558-0.143,0.558
				l6.321-1.605l-2.726,5.317l3.314,2.187l-0.759,0.841l3.837,3.698l-1.2-6.755c0.741-4.369,5.757-10.462,5.757-10.462
				c-2.924,3.509-3.293,8.191-3.293,8.191c1.982-5.194,14.001-9.963,14.001-9.963c-3.893,3.156-5.966,9.341-5.966,9.341
				c3.706-4.56,12.376-7.514,17.922-9.082c1.874,4.516,4.842,9.225,9.083,11.835c3.995,2.458,3.855,7.531,3.855,7.531
				c6.945,4.542,8.982,12.365,8.982,12.365l4.839,6.62C363.269,274.84,371.993,264.086,371.985,237.22z"/>
			<path style="fill:#FFFFFF;stroke:#263238;stroke-linecap:round;stroke-linejoin:round;stroke-miterlimit:10;" d="M351.632,257.52
				c-1.619-3.474,4.261-12.869,8.425-11.705c2.341,0.654,5.4,4.924,5.995,9.41c0.595,4.486-2.575,12.96-5.955,14.846
				c-2.145,1.197-3.913-2.065-3.913-2.065"/>
		</g>
		<g>
			<polygon style="fill:#FFFFFF;" points="96.511,427.248 209.496,400.835 445.176,428.048 384.505,469.549 			"/>
			<polyline style="fill:#FFFFFF;stroke:#263238;stroke-linecap:round;stroke-linejoin:round;stroke-miterlimit:10;" points="
				96.511,427.248 209.496,400.835 445.176,428.048 			"/>
		</g>
		<polygon style="fill:#FFFFFF;stroke:#263238;stroke-linecap:round;stroke-linejoin:round;stroke-miterlimit:10;" points="
			194.291,432.549 240.031,412.335 297.857,415.32 272.143,437.308 		"/>
		<g>
			<path style="fill:#263238;" d="M312.483,301.014c-14.671,6-17.835,19.486-42.759,72.793c0,0-11.077,2.274-17.011,15.725
				c-5.934,13.451,3.956,24.073,15.429,23.707c0,0,4.586,3.986,13.963,3.59c9.377-0.396,51.038-64.05,51.038-64.05L312.483,301.014z
				"/>
			<path style="fill:none;stroke:#FFFFFF;stroke-linecap:round;stroke-linejoin:round;stroke-miterlimit:10;" d="M274.088,376.927
				c6.564,5.847,10.33,14.414,8.33,23.909"/>
			<path style="fill:none;stroke:#FFFFFF;stroke-linecap:round;stroke-linejoin:round;stroke-miterlimit:10;" d="M280.418,379.736
				c0,0,8.066,1.759,9.308,12.088"/>
			<path style="fill:none;stroke:#FFFFFF;stroke-linecap:round;stroke-linejoin:round;stroke-miterlimit:10;" d="M304.017,349.539
				c0,0-6.16-13.596-3.819-29.67"/>
			<path style="fill:none;stroke:#FFFFFF;stroke-linecap:round;stroke-linejoin:round;stroke-miterlimit:10;" d="M302.864,335.942
				c-0.613,4.2,3.728,26.556,3.699,50.073"/>
		</g>
		<g>
			<path style="fill:#263238;" d="M412.52,305.416c18.353,9.223,20.535,37.595,3.217,71.511
				c-12.227,23.944-29.11,59.293-39.791,61.667c-10.681,2.374-21.093-4.281-21.093-4.281s-9.006-0.422-11.72-6.818
				c-7.44-17.534,11.472-39.593,18.912-34.308c0,0,23.758-51.669,28.088-54.923"/>
			<path style="fill:none;stroke:#FFFFFF;stroke-linecap:round;stroke-linejoin:round;stroke-miterlimit:10;" d="M341.43,416.856
				c-2.463-12.065,16.526-26.307,20.614-23.669c0,0,14.11,0.791,16.22,10.549"/>
			<path style="fill:none;stroke:#FFFFFF;stroke-linecap:round;stroke-linejoin:round;stroke-miterlimit:10;" d="M393.12,419.435
				c8.261-14.573,22.616-42.508,22.616-42.508"/>
			<path style="fill:none;stroke:#FFFFFF;stroke-linecap:round;stroke-linejoin:round;stroke-miterlimit:10;" d="M362.044,393.187
				c0,0,9.89-5.912,17.275-0.319"/>
			<path style="fill:none;stroke:#FFFFFF;stroke-linecap:round;stroke-linejoin:round;stroke-miterlimit:10;" d="M365.378,386.015
				c0,0,5.463-11.978,11.025-23.031c5.562-11.053,18.212-27.292,23.487-28.083"/>
		</g>
		<g>
			<g>
				<defs>
					<path id="XMLID_574_" d="M261.16,407.57c-1.15-0.06-2.3-0.35-3.4-0.93c-17.03-8.87-30.22-23.53-38.18-34.05
						c-5.53-7.31-8.53-12.63-8.53-12.63l4.08-17.48c0,0,3.84,9.96,19.27,19.83c15.42,9.87,33.76,13.07,39.69,22.96
						C279.34,394.03,270.09,408.02,261.16,407.57z"/>
				</defs>
				<use xlink:href="#XMLID_574_"  style="overflow:visible;fill:#FFFFFF;"/>
				<clipPath id="XMLID_00000121267031687044981340000003163085385485478563_">
					<use xlink:href="#XMLID_574_"  style="overflow:visible;"/>
				</clipPath>
				<path style="opacity:0.4;clip-path:url(#XMLID_00000121267031687044981340000003163085385485478563_);fill:#92E3A9;" d="
					M261.16,407.57c-0.18-1.17-0.5-2.4-1.02-3.69c-3.57-8.94-25.17-26.71-25.17-26.71c-5.14-0.16-10.79-2.3-15.39-4.58
					c-5.53-7.31-8.53-12.63-8.53-12.63l4.08-17.48c0,0,3.84,9.96,19.27,19.83c15.42,9.87,33.76,13.07,39.69,22.96
					C279.34,394.03,270.09,408.02,261.16,407.57z"/>
				
					<use xlink:href="#XMLID_574_"  style="overflow:visible;fill:none;stroke:#263238;stroke-linecap:round;stroke-linejoin:round;stroke-miterlimit:10;"/>
			</g>
			<path style="fill:#FFFFFF;stroke:#263238;stroke-linecap:round;stroke-linejoin:round;stroke-miterlimit:10;" d="
				M222.659,358.935c0,0-2.11,9.328-7.67,7.237c-3.014-1.133-8.782-10.096-9.874-14.611L222.659,358.935z"/>
			<g>
				<path style="fill:#FFFFFF;stroke:#263238;stroke-linecap:round;stroke-linejoin:round;stroke-miterlimit:10;" d="
					M198.152,301.554l4.539-2.348c0,0,12.832,0.114,20.792,6.583c7.23,5.877,10.892,15.09,10.892,15.09s28.096-15.512,56.78-6.611
					l11.708,65.214l-53.791,3.549L215.5,351.107L198.152,301.554z"/>
				<g>
					<defs>
						<path id="XMLID_573_" d="M306.56,382.09c0,0-6.31-0.19-14.75,0.09c-12.76,0.4-30.39,1.84-38.45,6.53l-0.38-0.13l-7.38-2.57
							c0,0-0.05-0.07-0.15-0.22c-1.36-2.02-12.33-17.75-27.98-24.16l-22.16-61.92c0,0,23.01,1.03,35.57,21.78l6.31,2.28
							c0,0,37.55-11.12,58.57-7.12L306.56,382.09z"/>
					</defs>
					<use xlink:href="#XMLID_573_"  style="overflow:visible;fill:#92E3A9;"/>
					<clipPath id="XMLID_00000105412942509620828440000010220966233322802328_">
						<use xlink:href="#XMLID_573_"  style="overflow:visible;"/>
					</clipPath>
					<path style="opacity:0.3;clip-path:url(#XMLID_00000105412942509620828440000010220966233322802328_);fill-opacity:0.7;" d="
						M245.45,385.79c-1.36-2.02-12.33-17.75-27.98-24.16l-22.16-61.92c0,0,23.01,1.03,35.57,21.78L245.45,385.79z"/>
					<path style="opacity:0.3;clip-path:url(#XMLID_00000105412942509620828440000010220966233322802328_);fill-opacity:0.7;" d="
						M291.81,382.18c-12.76,0.4-30.39,1.84-38.45,6.53l-0.38-0.13l-14.74-62.56c0,0,12.058-2.709,15.77-1.34
						C254.01,324.68,278.521,342.773,291.81,382.18z"/>
					
						<use xlink:href="#XMLID_573_"  style="overflow:visible;fill:none;stroke:#263238;stroke-linecap:round;stroke-linejoin:round;stroke-miterlimit:10;"/>
				</g>
				
					<line style="fill:none;stroke:#263238;stroke-linecap:round;stroke-linejoin:round;stroke-miterlimit:10;" x1="237.187" y1="323.772" x2="251.66" y2="383.802"/>
				
					<line style="fill:none;stroke:#263238;stroke-linecap:round;stroke-linejoin:round;stroke-miterlimit:10;" x1="245.602" y1="386.015" x2="231.543" y2="326.022"/>
			</g>
			<g>
				<path style="fill:#FFFFFF;stroke:#263238;stroke-linecap:round;stroke-linejoin:round;stroke-miterlimit:10;" d="
					M209.881,360.053c-3.214-0.894-9.682-20.187-6.717-28.489c0,0,3.52-6.111,4.952-6.529c2.245-0.655,11.284-0.464,10.847,1.057
					c-1.011,3.517-7.946,3.458-7.946,3.458l-2.251,4.118l0.097,2.274c0,0,3.264-2.38,4.469-2.316
					c0.613,0.033,3.818,1.603,6.357,2.948c2.173,1.151,3.5,1.772,3.014,2.819c-1.608,3.459-8.468,1.032-8.468,1.032l-2.574,3.882
					c0,0,2.489,0.431,3.582,0.557c1.195,0.138,10.139,6.143,9.865,6.897c-1.067,2.94-9.651-0.24-9.651-0.24l-1.521,1.265
					c0,0,6.327,1.636,6.969,1.872c1.007,0.371,4.858,3.337,4.798,3.674c-0.463,2.598-5.775,0.687-5.775,0.687l-4.646-0.189
					c0,0-0.938,0.907-2.486,1.283"/>
				<path style="fill:none;stroke:#263238;stroke-linecap:round;stroke-linejoin:round;stroke-miterlimit:10;" d="M208.863,335.942
					c0,0-2.967,2.522-3.777,3.248c-0.81,0.726-0.581,3.051-0.581,3.051"/>
				<path style="fill:none;stroke:#263238;stroke-linecap:round;stroke-linejoin:round;stroke-miterlimit:10;" d="M206.689,347.356
					c-0.019,2.547,1.702,4.083,2.485,4.903c0.783,0.82-1.253,3.053,0.993,4.654"/>
			</g>
			<g>
				<g>
					<defs>
						<path id="XMLID_575_" d="M354.81,427.87c-6.35,1.73-13.25-9.43-21.67-21.61v-0.01c-5.56-8.04-11.78-16.53-18.93-22.03
							c-0.57-0.43-1.15-0.85-1.73-1.25l4.18-20.97c8.68,4.55,14.06,11.84,23.07,19.33c14.5,12.07,27.35,19.48,30.91,24.82
							C374.2,411.49,365.69,424.9,354.81,427.87z"/>
					</defs>
					<use xlink:href="#XMLID_575_"  style="overflow:visible;fill:#FFFFFF;"/>
					<clipPath id="XMLID_00000062166446666045394490000008730437244988608139_">
						<use xlink:href="#XMLID_575_"  style="overflow:visible;"/>
					</clipPath>
					<path style="opacity:0.4;clip-path:url(#XMLID_00000062166446666045394490000008730437244988608139_);fill:#92E3A9;" d="
						M333.14,406.25c-5.56-8.04-11.78-16.53-18.93-22.03c1.28-0.02,2.26-0.15,2.77-0.42C316.98,383.8,328.28,393,333.14,406.25z"/>
					
						<use xlink:href="#XMLID_575_"  style="overflow:visible;fill:none;stroke:#263238;stroke-linecap:round;stroke-linejoin:round;stroke-miterlimit:10;"/>
				</g>
				<g>
					<defs>
						<path id="XMLID_576_" d="M319.01,382.18c-0.35,0.73-1.06,1.25-2.03,1.62c-0.22,0.09-0.45,0.16-0.69,0.23
							c-0.05,0.01-0.12,0.02-0.19,0.04c-6.71,1.75-21.81-1.89-21.81-1.89s-9.89-4.7-10.49-5.81c-0.37-0.71-0.82-1.91-1.11-2.7
							c-0.16-0.47-0.27-0.79-0.27-0.79s-3.56-1.98-3.96-3.56c-0.39-1.58-1.19-1.98,0.99-2.28c2.18-0.29,14.04,0,14.04,0l-12.85-5.24
							c0,0-8.51-4.29-9.3-5.8c-0.79-1.52-1.78-2.51,2.57-1.91c4.35,0.59,13.85,3.36,13.85,3.36l7.44,1.58l-7.44-3.17
							c0,0-14.64-1.77-11.87-6.32c0,0,5.54,0,8.31,0c2.77,0,11.63,1.04,14.04,1.78c2.42,0.74,18.42,10.68,18.42,10.68"/>
					</defs>
					<use xlink:href="#XMLID_576_"  style="overflow:visible;fill:#FFFFFF;"/>
					<clipPath id="XMLID_00000138572282888025296010000005085220727108409265_">
						<use xlink:href="#XMLID_576_"  style="overflow:visible;"/>
					</clipPath>
					<path style="opacity:0.4;clip-path:url(#XMLID_00000138572282888025296010000005085220727108409265_);fill:#92E3A9;" d="
						M316.1,384.07c-6.71,1.75-21.81-1.89-21.81-1.89s-9.89-4.7-10.49-5.81c-0.37-0.71-0.82-1.91-1.11-2.7l12.14,1.36
						c0,0-1.46,2.37,0,4.98C296.18,382.43,311.56,384.89,316.1,384.07z"/>
					
						<use xlink:href="#XMLID_576_"  style="overflow:visible;fill:none;stroke:#263238;stroke-linecap:round;stroke-linejoin:round;stroke-miterlimit:10;"/>
				</g>
				
					<line style="fill:none;stroke:#263238;stroke-linecap:round;stroke-linejoin:round;stroke-miterlimit:10;" x1="282.418" y1="372.879" x2="297.033" y2="375.027"/>
			</g>
		</g>
		<g>
			<g>
				<defs>
					<path id="XMLID_3_" d="M136.785,417.617l36.615,11.035l67.012-15.289c0,0-40.93-11.65-41.314-11.37
						C198.713,402.273,136.785,417.617,136.785,417.617z"/>
				</defs>
				<use xlink:href="#XMLID_3_"  style="overflow:visible;fill:#92E3A9;"/>
				<clipPath id="XMLID_00000038400957016738636790000007167654724287061376_">
					<use xlink:href="#XMLID_3_"  style="overflow:visible;"/>
				</clipPath>
				<path style="opacity:0.3;clip-path:url(#XMLID_00000038400957016738636790000007167654724287061376_);fill-opacity:0.7;" d="
					M136.785,417.617l36.615,11.035l67.012-15.289c0,0-40.93-11.65-41.314-11.37C198.713,402.273,136.785,417.617,136.785,417.617z"
					/>
				
					<use xlink:href="#XMLID_3_"  style="overflow:visible;fill:none;stroke:#263238;stroke-linecap:round;stroke-linejoin:round;stroke-miterlimit:10;"/>
			</g>
			<g>
				<defs>
					<path id="XMLID_1_" d="M137.311,404.721c-2.566,0.178-3.211,9.443-0.526,12.897l59.151-12.274l4.746-11.224L137.311,404.721z"
						/>
				</defs>
				<use xlink:href="#XMLID_1_"  style="overflow:visible;fill:#92E3A9;"/>
				<clipPath id="XMLID_00000090267235881497787810000011688487221038761655_">
					<use xlink:href="#XMLID_1_"  style="overflow:visible;"/>
				</clipPath>
				<path style="opacity:0.3;clip-path:url(#XMLID_00000090267235881497787810000011688487221038761655_);fill-opacity:0.7;" d="
					M137.311,404.721c-2.566,0.178-3.211,9.443-0.526,12.897l59.151-12.274l4.746-11.224L137.311,404.721z"/>
				
					<use xlink:href="#XMLID_1_"  style="overflow:visible;fill:none;stroke:#263238;stroke-linecap:round;stroke-linejoin:round;stroke-miterlimit:10;"/>
			</g>
			<path style="fill:#FFFFFF;stroke:#263238;stroke-linecap:round;stroke-linejoin:round;stroke-miterlimit:10;" d="
				M237.532,404.587c0,0-0.881,4.876-0.31,7.87l-63.893,14.464l-33.679-9.899c0,0-3.502-6.193-0.451-10.987l61.542-10.445
				L237.532,404.587z"/>
			<polygon style="fill:#92E3A9;stroke:#263238;stroke-linecap:round;stroke-linejoin:round;stroke-miterlimit:10;" points="
				137.311,404.721 200.681,394.119 240.031,404.089 173.846,417.279 			"/>
			<polyline style="fill:none;stroke:#263238;stroke-linecap:round;stroke-linejoin:round;stroke-miterlimit:10;" points="
				139.558,410.641 173.07,420.615 227.916,409.578 			"/>
			
				<line style="fill:none;stroke:#263238;stroke-linecap:round;stroke-linejoin:round;stroke-miterlimit:10;" x1="237.038" y1="410.597" x2="178.059" y2="423.182"/>
			<path style="fill:none;stroke:#263238;stroke-linecap:round;stroke-linejoin:round;stroke-miterlimit:10;" d="M140.355,414.567
				c0.502,0.051,25.259,7.674,25.259,7.674"/>
			
				<line style="fill:none;stroke:#263238;stroke-linecap:round;stroke-linejoin:round;stroke-miterlimit:10;" x1="232.218" y1="408.288" x2="236.912" y2="407.527"/>
			
				<line style="fill:none;stroke:#263238;stroke-linecap:round;stroke-linejoin:round;stroke-miterlimit:10;" x1="171.975" y1="424.091" x2="169.494" y2="423.533"/>
			<g>
				<defs>
					<path id="XMLID_2_" d="M139.199,406.036c0,0,4.539,4.799,0.451,10.987C139.65,417.023,135.867,411.98,139.199,406.036z"/>
				</defs>
				<use xlink:href="#XMLID_2_"  style="overflow:visible;fill:#263238;"/>
				<clipPath id="XMLID_00000148627065431317894830000007604387501957706656_">
					<use xlink:href="#XMLID_2_"  style="overflow:visible;"/>
				</clipPath>
				
					<path style="opacity:0.3;clip-path:url(#XMLID_00000148627065431317894830000007604387501957706656_);fill:#FFFFFF;fill-opacity:0.7;" d="
					M139.199,406.036c0,0,4.539,4.799,0.451,10.987C139.65,417.023,135.867,411.98,139.199,406.036z"/>
				
					<use xlink:href="#XMLID_2_"  style="overflow:visible;fill:none;stroke:#263238;stroke-linecap:round;stroke-linejoin:round;stroke-miterlimit:10;"/>
			</g>
		</g>
		<g>
			<defs>
				<polygon id="XMLID_4_" points="276.071,420.615 340.022,423.241 333.785,445.253 255.123,442.253 				"/>
			</defs>
			<use xlink:href="#XMLID_4_"  style="overflow:visible;fill:#FFFFFF;"/>
			<clipPath id="XMLID_00000039133524300316833200000016877178633531072929_">
				<use xlink:href="#XMLID_4_"  style="overflow:visible;"/>
			</clipPath>
			<polygon style="opacity:0.4;clip-path:url(#XMLID_00000039133524300316833200000016877178633531072929_);fill:#92E3A9;" points="
				276.071,420.615 340.022,423.241 333.785,445.253 255.123,442.253 			"/>
			
				<use xlink:href="#XMLID_4_"  style="overflow:visible;fill:none;stroke:#263238;stroke-linecap:round;stroke-linejoin:round;stroke-miterlimit:10;"/>
		</g>
	</g>
</g>
</svg>
