<?xml version="1.0" encoding="utf-8"?>
<!-- Generator: Adobe Illustrator 27.5.0, SVG Export Plug-In . SVG Version: 6.00 Build 0)  -->
<svg version="1.1" xmlns="http://www.w3.org/2000/svg" xmlns:xlink="http://www.w3.org/1999/xlink" x="0px" y="0px"
	 viewBox="0 0 500 500" style="enable-background:new 0 0 500 500;" xml:space="preserve">
<g id="Floor">
	<path id="XMLID_17828_" style="fill:#F5F5F5;" d="M97.756,419.942c84.082,43.925,220.407,43.926,304.489,0.001
		c84.083-43.927,84.083-115.143,0-159.069c-84.083-43.926-220.407-43.926-304.49-0.001
		C13.673,304.799,13.673,376.017,97.756,419.942z"/>
</g>
<g id="Shadows">
	<path id="XMLID_17823_" style="fill:#EBEBEB;" d="M203.953,381.791c22.655,10.799,59.385,10.799,82.04,0
		c22.655-10.796,22.655-28.303,0-39.102c-22.655-10.796-59.385-10.796-82.04,0C181.298,353.488,181.298,370.995,203.953,381.791z"/>
	<path id="XMLID_17865_" style="fill:#EBEBEB;" d="M400.164,355.06l-80.971,46.75c-1.196,0.69-3.134,0.69-4.33,0l-101.285-58.476
		c-1.196-0.69-1.196-1.81,0-2.5l80.974-46.75c1.196-0.69,3.134-0.69,4.33,0l101.282,58.476
		C401.359,353.251,401.359,354.37,400.164,355.06z"/>
</g>
<g id="Pencil">
	<g id="XMLID_17799_">
		<g id="XMLID_17800_">
			<path id="XMLID_17836_" style="fill:#F5F5F5;" d="M422.701,98.073v21.469c0,0-8.825,4.128-25.034,4.128
				c-16.201,0-25.01-4.135-25.01-4.135V98.485l16.881-47.771c-0.222,1.497,0.658,3.034,2.638,4.175
				c3.153,1.822,6.191,2.028,9.732,0.61c0.452-0.174,0.871-0.38,1.268-0.61c2.099-1.212,2.963-2.868,2.583-4.444L422.701,98.073z"/>
			<path id="XMLID_17835_" style="opacity:0.5;fill:#FFFFFF;" d="M422.701,98.073v21.469c0,0-8.825,4.128-25.034,4.128
				c-16.201,0-25.01-4.135-25.01-4.135V98.485l16.881-47.771c-0.222,1.497,0.658,3.034,2.638,4.175
				c3.153,1.822,6.191,2.028,9.732,0.61c0.452-0.174,0.871-0.38,1.268-0.61c2.099-1.212,2.963-2.868,2.583-4.444L422.701,98.073z"/>
			<path id="XMLID_17834_" style="fill:#F5F5F5;" d="M420.762,248.567c-1.221,1.688-3.017,3.271-5.396,4.645
				c-9.775,5.644-25.624,5.644-35.399,0c-2.38-1.374-4.175-2.957-5.396-4.645c-1.194-1.651-1.832-3.403-1.918-5.163v10.326v0.822
				c0.174,3.56,2.608,7.09,7.314,9.808c9.775,5.644,25.624,5.644,35.399,0c4.888-2.822,7.331-6.52,7.331-10.219v-11.148
				C422.697,244.891,422.049,246.788,420.762,248.567z"/>
			<path id="XMLID_17833_" style="fill:#EBEBEB;" d="M420.762,237.419c-1.221,1.688-3.017,3.271-5.396,4.645
				c-0.572,0.33-1.169,0.637-1.78,0.929c-9.222,4.4-22.616,4.4-31.838,0c-0.611-0.292-1.208-0.599-1.78-0.929
				c-2.38-1.374-4.175-2.956-5.396-4.645c-1.194-1.651-1.832-3.403-1.918-5.163v10.326v0.822c0.086,1.76,0.724,3.512,1.918,5.163
				c1.221,1.688,3.017,3.271,5.396,4.645c9.775,5.644,25.624,5.644,35.399,0c2.38-1.374,4.175-2.956,5.396-4.645
				c1.287-1.779,1.935-3.676,1.935-5.574v-11.148C422.697,233.743,422.049,235.64,420.762,237.419z"/>
			<path id="XMLID_17832_" style="fill:#F5F5F5;" d="M420.762,226.272c-1.221,1.688-3.017,3.271-5.396,4.645
				c-0.572,0.33-1.169,0.637-1.78,0.929c-9.222,4.4-22.616,4.4-31.838,0c-0.611-0.292-1.208-0.599-1.78-0.929
				c-2.38-1.374-4.175-2.957-5.396-4.645c-1.194-1.651-1.832-3.403-1.918-5.163v10.326v0.822c0.086,1.76,0.724,3.512,1.918,5.163
				c1.221,1.688,3.017,3.271,5.396,4.645c0.572,0.33,1.169,0.637,1.78,0.929c9.222,4.4,22.617,4.4,31.838,0
				c0.611-0.292,1.208-0.599,1.78-0.929c2.38-1.374,4.175-2.956,5.396-4.645c1.287-1.779,1.935-3.676,1.935-5.574v-11.148
				C422.697,222.596,422.049,224.492,420.762,226.272z"/>
			<g id="XMLID_17824_">
				<path id="XMLID_17831_" style="fill:#F5F5F5;" d="M372.653,98.485v121.801v0.822c0.086,1.76,0.724,3.512,1.918,5.163
					c1.221,1.688,3.017,3.271,5.396,4.645c0.572,0.33,1.169,0.637,1.78,0.929c2.309,1.102,4.879,1.927,7.58,2.477l-4.525-129.228
					L372.653,98.485z"/>
				<path id="XMLID_17830_" style="fill:#F5F5F5;" d="M410.538,105.093l-4.525,129.228c2.698-0.55,5.266-1.375,7.573-2.476
					c0.611-0.292,1.208-0.599,1.78-0.929c2.38-1.374,4.175-2.956,5.396-4.645c1.287-1.779,1.935-3.676,1.935-5.574V98.074
					L410.538,105.093z"/>
				<path id="XMLID_17829_" style="fill:#E0E0E0;" d="M372.653,98.485v121.801v0.822c0.086,1.76,0.724,3.512,1.918,5.163
					c1.221,1.688,3.017,3.271,5.396,4.645c0.572,0.33,1.169,0.637,1.78,0.929c2.309,1.102,4.879,1.927,7.58,2.477l-4.525-129.228
					L372.653,98.485z"/>
				<path id="XMLID_17827_" style="fill:#E0E0E0;" d="M410.538,105.093l-4.525,129.228c2.698-0.55,5.266-1.375,7.573-2.476
					c0.611-0.292,1.208-0.599,1.78-0.929c2.38-1.374,4.175-2.956,5.396-4.645c1.287-1.779,1.935-3.676,1.935-5.574V98.074
					L410.538,105.093z"/>
				<path id="XMLID_17825_" style="fill:#EBEBEB;" d="M384.803,105.094v127.985c1.451,0.503,2.962,0.925,4.525,1.243
					c2.694,0.548,5.518,0.823,8.342,0.823h0c2.824,0,5.648-0.275,8.342-0.824c1.564-0.319,3.075-0.741,4.525-1.244V105.093
					L384.803,105.094z"/>
			</g>
			<path id="XMLID_17820_" style="fill:#E0E0E0;" d="M403.174,54.889c-0.396,0.23-0.816,0.436-1.268,0.61
				c-3.541,1.418-6.579,1.212-9.732-0.61c-1.98-1.141-2.86-2.678-2.638-4.175l5.761-16.13C395.741,33.523,396.7,33,397.666,33h0.008
				c0.967,0,1.933,0.523,2.377,1.576l5.698,15.845c0,0.008,0.008,0.016,0.008,0.024C406.137,52.021,405.273,53.677,403.174,54.889z"
				/>
			<path id="XMLID_17801_" style="fill:#E0E0E0;" d="M415.366,264.359c-8.4,4.85-21.274,5.52-30.936,2.035
				c-0.542-0.195-1.07-0.409-1.589-0.63c-0.242-0.103-0.489-0.199-0.725-0.308c-0.741-0.34-1.462-0.701-2.148-1.096
				c-4.706-2.717-7.14-6.248-7.314-9.808v30.351c-0.188,3.834,2.246,7.703,7.314,10.63c0.604,0.349,1.232,0.675,1.879,0.981
				c0.242,0.114,0.499,0.21,0.745,0.318c0.414,0.181,0.824,0.368,1.253,0.532c0.331,0.127,0.676,0.233,1.014,0.35
				c0.361,0.124,0.714,0.257,1.083,0.369c0.402,0.123,0.816,0.225,1.227,0.335c0.317,0.085,0.629,0.178,0.952,0.255
				c0.47,0.112,0.95,0.202,1.428,0.297c0.271,0.053,0.538,0.116,0.812,0.164c0.54,0.095,1.088,0.168,1.636,0.242
				c0.217,0.029,0.431,0.066,0.649,0.091c0.609,0.072,1.223,0.122,1.838,0.167c0.159,0.012,0.316,0.03,0.475,0.04
				c0.67,0.042,1.341,0.062,2.014,0.073c0.105,0.002,0.209,0.008,0.314,0.009c0.722,0.006,1.442-0.009,2.163-0.039
				c0.055-0.002,0.109-0.002,0.164-0.005c0.761-0.034,1.517-0.09,2.271-0.164c0.014-0.001,0.027-0.002,0.04-0.003
				c4.643-0.461,9.093-1.685,12.774-3.664v0l0,0c0.22-0.118,0.453-0.224,0.667-0.348c4.888-2.822,7.332-6.52,7.332-10.219v-31.173
				C422.698,257.839,420.254,261.538,415.366,264.359z"/>
		</g>
	</g>
</g>
<g id="Backpack">
	<g id="XMLID_17864_">
		<path id="XMLID_17922_" style="fill:#37474F;" d="M113.483,282.079c-2.892-0.73-18.323-9.514-19.889-10.58
			c-1.567-1.067-4.676-3.276-4.676-7.085c0-3.378,0.354-35.152,3.11-50.507c1.356-7.553,6.255-17.449,15.855-23.398
			c9.6-5.95,19.243-10.256,27.379-6.882c8.137,3.374,15.551,9.592,18.749,17.092c3.198,7.5,5.392,22.519,5.619,28.329
			c0.227,5.809,0,25.735,0,27.502c0,1.767-0.32,4.073-9.847,9.972c-9.527,5.9-22.694,12.996-26.764,14.828
			C119.922,282.744,116.105,282.74,113.483,282.079z"/>
		<path id="XMLID_17919_" style="fill:#455A64;" d="M111.1,194.637c-0.877,0.506-3.42-0.748-3.802-1.376
			c-0.382-0.628-0.479-6.08,1.417-9.093c1.897-3.013,13.758-8.555,16.688-8.146c2.929,0.408,5.078,2.7,5.443,3.476
			c0.365,0.776,0.764,5.847,0,6.882c-0.764,1.035-3.471-0.556-3.708-1.002c-0.238-0.446,0.893-4.143-1.021-4.916
			c-1.737-0.701-9.987,2.806-13.359,5.633c-1.459,1.223-1.386,4.279-1.323,5.791C111.499,193.396,111.545,194.38,111.1,194.637z"/>
		<path id="XMLID_17918_" style="fill:#455A64;" d="M108.715,230.423c1.705-16.516,4.768-26.151,20.92-33.343
			c16.151-7.192,22.411-1.067,24.702,4.439c3.02,7.722,5.074,21.917,5.293,27.527c0.227,5.809,0,25.735,0,27.502
			c0,1.767-0.32,4.073-9.847,9.972c-9.527,5.9-22.694,12.996-26.764,14.828c-3.097,1.395-6.914,1.391-9.536,0.73
			c-0.401-0.101-1.051-0.362-1.865-0.731C106.589,274.916,107.159,245.498,108.715,230.423z"/>
		<path id="XMLID_17914_" style="fill:#263238;" d="M146.366,190.63c-4.211-2.469-11.137-4.096-21.291,0.429
			c-18.162,8.092-22.771,18.222-24.603,35.966c-0.336,3.254-0.823,7.132-1.033,11.305l-1.499-0.905
			c0.212-4.502,0.646-8.356,1.027-11.832c1.965-17.915,7.375-27.818,24.726-35.544c9.602-4.276,15.92-3.714,20.095-1.612
			C144.584,189.049,145.331,189.65,146.366,190.63z"/>
		<path id="XMLID_17913_" style="fill:#455A64;" d="M146.997,191.09c-4.211-2.468-11.137-4.096-21.291,0.428
			c-18.161,8.093-22.771,18.222-24.603,35.966c-0.336,3.254-0.823,7.132-1.033,11.305l-1.499-0.905
			c0.212-4.502,0.646-8.356,1.027-11.831c1.965-17.915,7.375-27.818,24.726-35.544c9.602-4.276,16.09-3.566,20.266-1.464
			C145.386,189.656,145.963,190.11,146.997,191.09z"/>
		<g id="XMLID_17906_">
			<path id="XMLID_17911_" style="fill:#263238;" d="M141.121,206.785l-5.488-3.131c-0.563-0.321-1.282-0.126-1.605,0.436
				l-5.633,9.79c-0.323,0.562-0.132,1.282,0.429,1.609l5.421,3.161c0.56,0.326,1.277,0.137,1.602-0.424l5.705-9.843
				C141.877,207.822,141.684,207.106,141.121,206.785z"/>
			<path id="XMLID_17910_" style="fill:#455A64;" d="M135.233,217.528l5.407-9.328c0.163-0.281,0.066-0.638-0.215-0.799
				l-4.976-2.839c-0.282-0.161-0.641-0.063-0.803,0.218l-5.344,9.288c-0.162,0.281-0.066,0.641,0.214,0.804l4.916,2.867
				C134.712,217.904,135.071,217.809,135.233,217.528z"/>
			<g id="XMLID_17907_">
				<path id="XMLID_17909_" style="fill:#37474F;" d="M136.392,213.068L136.392,213.068c0.288-0.166,0.521-0.534,0.521-0.822v-4.464
					c0-0.288-0.233-0.386-0.521-0.22l0,0c-0.288,0.166-0.521,0.534-0.521,0.822v4.463
					C135.871,213.136,136.104,213.234,136.392,213.068z"/>
				<path id="XMLID_17908_" style="fill:#37474F;" d="M133.487,214.745L133.487,214.745c0.288-0.166,0.521-0.534,0.521-0.822v-4.463
					c0-0.288-0.233-0.386-0.521-0.22l0,0c-0.288,0.166-0.521,0.534-0.521,0.822v4.463
					C132.966,214.813,133.199,214.912,133.487,214.745z"/>
			</g>
		</g>
		<path id="XMLID_17905_" style="fill:#263238;" d="M116.199,244.379c0,0,2.724,2.243,4.676,10.681
			c1.951,8.437,3.141,19.074,0.983,20.347c-2.158,1.274-5.226-1.395-5.991-2.316C114.297,271.201,114.688,251.141,116.199,244.379z"
			/>
		<path id="XMLID_17904_" style="fill:#37474F;" d="M116.199,244.379c0,0,2.724,2.243,4.676,10.681
			c1.951,8.437,3.141,19.074,0.983,20.347l33.042-19.461c2.158-1.274,2.689-12.445,0.738-20.882
			c-1.285-5.559-3.653-8.197-5.119-9.35c-0.681-0.536-1.62-0.594-2.367-0.154L116.199,244.379"/>
		<path id="XMLID_17903_" style="fill:#263238;" d="M149.818,226.988c1.583,0.786,4.261,2.931,5.472,8.646
			c0.382,1.804-0.253,3.562-1.352,4.339c-1.1,0.777-24.713,14.21-27.844,16.076c-2.7,1.609-4.106-0.53-4.699-1.866l-0.002,0
			c-0.985-2.382-1.863-4.233-2.604-5.653c-1.383-3.155-2.591-4.152-2.591-4.152l31.472-17.294
			C148.327,226.698,149.136,226.65,149.818,226.988z"/>
		<g id="XMLID_17875_">
			<g id="XMLID_17896_">
				<path id="XMLID_17901_" style="fill:#263238;" d="M100.485,239.755c0,0,0.948,3.683,0.892,5.255
					c-0.013,0.363-0.485,0.55-0.629,0.554c-0.841,0.02-2.885-1.253-3.057-1.595c-0.173-0.342,0.818-4.48,0.818-4.48L100.485,239.755
					z"/>
			</g>
			<g id="XMLID_17876_">
				<path id="XMLID_17894_" style="fill:#263238;" d="M101.505,238.354c0-1.053-0.854-1.907-1.907-1.907
					c-1.053,0-1.907,0.854-1.907,1.907c0,1.053,0.854,1.907,1.907,1.907C100.652,240.261,101.505,239.407,101.505,238.354z"/>
			</g>
		</g>
		<path id="XMLID_17874_" style="fill:#263238;" d="M125.403,180.374c2.091-0.201,4.057-0.018,4.561,2.086
			c0.503,2.103,0.32,3.993,0,4.26c-1.094-0.04-2.648-1.01-2.826-1.343c-0.238-0.446,0.893-4.143-1.021-4.916
			C125.942,180.391,125.698,180.365,125.403,180.374L125.403,180.374z"/>
		<path id="XMLID_17873_" style="fill:#37474F;" d="M148.334,225.452c0.656-0.386,1.465-0.435,2.147-0.096
			c1.583,0.786,4.262,2.931,5.472,8.646c0.382,1.804-0.253,3.562-1.352,4.339c-1.1,0.777-24.713,14.21-27.844,16.076
			c-2.7,1.609-4.106-0.53-4.699-1.866l-0.001,0c-3.263-6.84-5.857-8.172-5.857-8.172L148.334,225.452z"/>
	</g>
</g>
<g id="Game_Console">
	<g id="XMLID_15634_">
		<g id="XMLID_17786_">
			<g>
				<path id="XMLID_17793_" style="fill:#27DEBF;" d="M142.669,341.793l-26.478-15.287c-1.313-0.758-2.378-2.603-2.378-4.119
					l-0.013,0.305c0-1.517,1.065-3.361,2.378-4.119l53.251-30.744c1.313-0.758,3.443-0.758,4.757,0l26.478,15.287
					c1.314,0.758,2.378,2.603,2.378,4.119l0.013-0.305c0,1.517-1.065,3.361-2.378,4.119l-53.251,30.744
					C146.112,342.552,143.982,342.552,142.669,341.793z"/>
				<path id="XMLID_11_" style="opacity:0.7;" d="M142.669,341.793l-26.478-15.287c-1.313-0.758-2.378-2.603-2.378-4.119
					l-0.013,0.305c0-1.517,1.065-3.361,2.378-4.119l53.251-30.744c1.313-0.758,3.443-0.758,4.757,0l26.478,15.287
					c1.314,0.758,2.378,2.603,2.378,4.119l0.013-0.305c0,1.517-1.065,3.361-2.378,4.119l-53.251,30.744
					C146.112,342.552,143.982,342.552,142.669,341.793z"/>
			</g>
			<g>
				<path id="XMLID_17788_" style="fill:#27DEBF;" d="M145.034,301.912l-28.856,16.66c-1.314,0.758-2.378,2.603-2.378,4.119
					l0.013-0.305c0,1.517,1.065,3.361,2.378,4.119l26.478,15.287c0.657,0.379,1.518,0.569,2.378,0.569L145.034,301.912z"/>
				<path id="XMLID_14_" style="opacity:0.7;" d="M145.034,301.912l-28.856,16.66c-1.314,0.758-2.378,2.603-2.378,4.119l0.013-0.305
					c0,1.517,1.065,3.361,2.378,4.119l26.478,15.287c0.657,0.379,1.518,0.569,2.378,0.569L145.034,301.912z"/>
			</g>
			<g>
				<path id="XMLID_17787_" style="fill:#27DEBF;" d="M116.177,321.319l26.478,15.287c1.314,0.758,3.443,0.758,4.757,0
					l53.251-30.744c1.314-0.758,1.314-1.988,0-2.746l-26.478-15.287c-1.314-0.758-3.443-0.758-4.757,0l-53.251,30.744
					C114.864,319.331,114.864,320.56,116.177,321.319z"/>
				<path id="XMLID_15_" style="opacity:0.5;" d="M116.177,321.319l26.478,15.287c1.314,0.758,3.443,0.758,4.757,0l53.251-30.744
					c1.314-0.758,1.314-1.988,0-2.746l-26.478-15.287c-1.314-0.758-3.443-0.758-4.757,0l-53.251,30.744
					C114.864,319.331,114.864,320.56,116.177,321.319z"/>
			</g>
		</g>
		<path id="XMLID_17782_" style="fill:#27DEBF;" d="M116.177,316.293v2.534l27.484,15.868c0.849,0.49,1.895,0.49,2.744,0
			l54.257-31.325v-2.619l-55.628,26.966L116.177,316.293z"/>
		<g id="XMLID_17779_">
			<g>
				<path id="XMLID_17775_" style="fill:#27DEBF;" d="M142.656,331.58l-26.478-15.287c-1.313-0.758-2.378-2.603-2.378-4.119l0-4.897
					c0-1.517,1.065-3.361,2.378-4.119l53.251-30.744c1.313-0.758,3.443-0.758,4.757,0l26.478,15.287
					c1.314,0.758,2.378,2.603,2.378,4.119l0,4.897c0,1.517-1.065,3.276-2.378,4.034l-53.251,30.829
					C146.099,332.339,143.969,332.339,142.656,331.58z"/>
				<path id="XMLID_19_" style="opacity:0.6;" d="M142.656,331.58l-26.478-15.287c-1.313-0.758-2.378-2.603-2.378-4.119l0-4.897
					c0-1.517,1.065-3.361,2.378-4.119l53.251-30.744c1.313-0.758,3.443-0.758,4.757,0l26.478,15.287
					c1.314,0.758,2.378,2.603,2.378,4.119l0,4.897c0,1.517-1.065,3.276-2.378,4.034l-53.251,30.829
					C146.099,332.339,143.969,332.339,142.656,331.58z"/>
			</g>
			<g>
				<path id="XMLID_17785_" style="fill:#27DEBF;" d="M145.034,286.497l-28.856,16.66c-1.314,0.758-2.378,2.603-2.378,4.119v4.897
					c0,1.517,1.065,3.361,2.378,4.119l26.478,15.287c0.657,0.379,1.517,0.569,2.378,0.569V286.497z"/>
				<path id="XMLID_20_" style="opacity:0.7;" d="M145.034,286.497l-28.856,16.66c-1.314,0.758-2.378,2.603-2.378,4.119v4.897
					c0,1.517,1.065,3.361,2.378,4.119l26.478,15.287c0.657,0.379,1.517,0.569,2.378,0.569V286.497z"/>
			</g>
			<g>
				<path id="XMLID_17778_" style="fill:#27DEBF;" d="M116.177,305.904l26.478,15.287c1.314,0.758,3.443,0.758,4.757,0
					l53.251-30.744c1.314-0.758,1.314-1.988,0-2.746l-26.478-15.287c-1.314-0.758-3.443-0.758-4.757,0l-53.251,30.744
					C114.864,303.916,114.864,305.145,116.177,305.904z"/>
				<path id="XMLID_21_" style="opacity:0.5;" d="M116.177,305.904l26.478,15.287c1.314,0.758,3.443,0.758,4.757,0l53.251-30.744
					c1.314-0.758,1.314-1.988,0-2.746l-26.478-15.287c-1.314-0.758-3.443-0.758-4.757,0l-53.251,30.744
					C114.864,303.916,114.864,305.145,116.177,305.904z"/>
			</g>
		</g>
		<path id="XMLID_17784_" style="fill:#27DEBF;" d="M153.11,293.754c-2.933,1.693-2.933,4.427,0,6.107
			c2.933,1.679,7.688,1.679,10.621,0c2.933-1.679,2.933-4.413,0-6.107C160.798,292.06,156.043,292.06,153.11,293.754z"/>
		<path id="XMLID_972_" style="fill:#27DEBF;" d="M196.348,295.54c-0.513,0.291-0.929,1.015-0.929,1.617
			c0,0.602,0.416,0.854,0.929,0.563c0.513-0.291,0.929-1.015,0.929-1.617C197.277,295.501,196.861,295.249,196.348,295.54z"/>
		<path id="XMLID_975_" style="fill:#27DEBF;" d="M196.348,299.132c-0.513,0.291-0.929,1.015-0.929,1.617s0.416,0.854,0.929,0.563
			c0.513-0.291,0.929-1.015,0.929-1.617C197.277,299.092,196.861,298.841,196.348,299.132z"/>
		<g id="XMLID_973_">
			<path style="fill:#27DEBF;" d="M131.568,361.952c-0.119,0-0.24-0.03-0.351-0.095l-25.655-14.887
				c-1.368-0.794-2.184-2.212-2.182-3.793c0.002-1.582,0.821-2.998,2.19-3.789l18.809-10.859c0.333-0.193,0.763-0.079,0.955,0.256
				c0.193,0.334,0.079,0.762-0.256,0.955l-18.809,10.859c-0.932,0.538-1.489,1.503-1.491,2.579
				c-0.001,1.077,0.554,2.042,1.485,2.583l25.655,14.887c0.334,0.194,0.448,0.622,0.254,0.955
				C132.044,361.827,131.809,361.952,131.568,361.952z"/>
		</g>
		<g id="XMLID_16551_">
			<g>
				<path id="XMLID_17781_" style="fill:#27DEBF;" d="M163.709,347.605l-5.561-22.329c-0.079-0.319-0.185-0.613-0.303-0.894
					l1.618-0.235l-3.528-2.04l0,0c-1.341-0.782-3.074-0.772-4.771,0.212l-23.192,13.446c-3.015,1.748-5.458,5.991-5.457,9.476
					l0.006,26.843c0.001,2.133,0.524,3.606,1.589,4.116l-0.007,0.002l3.322,1.916l-0.803-2.116c0.059-0.026,0.114-0.045,0.174-0.074
					c3.814-1.821,5.196-5.137,6.335-8.43l4.409-12.743c1.139-3.294,3.978-7.068,6.34-8.43c2.362-1.362,5.676-0.012,7.403,3.015
					l2.214,3.881c0.749,1.313,1.799,2.307,2.941,2.901l0,0l3.386,1.965l-0.861-1.335c0.689-0.014,1.359-0.185,1.966-0.536
					C163.307,354.841,164.552,350.987,163.709,347.605z"/>
				<path id="XMLID_22_" style="opacity:0.7;" d="M163.709,347.605l-5.561-22.329c-0.079-0.319-0.185-0.613-0.303-0.894l1.618-0.235
					l-3.528-2.04l0,0c-1.341-0.782-3.074-0.772-4.771,0.212l-23.192,13.446c-3.015,1.748-5.458,5.991-5.457,9.476l0.006,26.843
					c0.001,2.133,0.524,3.606,1.589,4.116l-0.007,0.002l3.322,1.916l-0.803-2.116c0.059-0.026,0.114-0.045,0.174-0.074
					c3.814-1.821,5.196-5.137,6.335-8.43l4.409-12.743c1.139-3.294,3.978-7.068,6.34-8.43c2.362-1.362,5.676-0.012,7.403,3.015
					l2.214,3.881c0.749,1.313,1.799,2.307,2.941,2.901l0,0l3.386,1.965l-0.861-1.335c0.689-0.014,1.359-0.185,1.966-0.536
					C163.307,354.841,164.552,350.987,163.709,347.605z"/>
			</g>
			<g>
				<path id="XMLID_17576_" style="fill:#27DEBF;" d="M157.845,324.382l1.618-0.235l-3.528-2.04l0,0
					c-1.341-0.782-3.074-0.772-4.771,0.212l-23.192,13.446c-1.22,0.708-2.335,1.833-3.244,3.142l5.515,3.362l28.173-15.915
					l-0.268-1.077C158.069,324.957,157.963,324.663,157.845,324.382z"/>
				<path id="XMLID_23_" style="opacity:0.5;" d="M157.845,324.382l1.618-0.235l-3.528-2.04l0,0
					c-1.341-0.782-3.074-0.772-4.771,0.212l-23.192,13.446c-1.22,0.708-2.335,1.833-3.244,3.142l5.515,3.362l28.173-15.915
					l-0.268-1.077C158.069,324.957,157.963,324.663,157.845,324.382z"/>
			</g>
			<g id="XMLID_16552_">
				<g>
					<path id="XMLID_17540_" style="fill:#27DEBF;" d="M164.534,358.299c-2.378,1.373-5.706,0.032-7.433-2.995l-2.214-3.881
						c-1.727-3.027-5.042-4.377-7.404-3.015s-5.201,5.136-6.34,8.43l-4.409,12.743c-1.139,3.294-2.522,6.609-6.335,8.43
						c-2.885,1.378-4.273-0.359-4.274-3.844l-0.006-26.844c-0.001-3.485,2.443-7.727,5.458-9.475l23.191-13.446
						c3.015-1.748,6.142-0.424,6.984,2.958l5.561,22.329C168.157,353.071,166.912,356.926,164.534,358.299z"/>
					<path id="XMLID_24_" style="opacity:0.6;" d="M164.534,358.299c-2.378,1.373-5.706,0.032-7.433-2.995l-2.214-3.881
						c-1.727-3.027-5.042-4.377-7.404-3.015s-5.201,5.136-6.34,8.43l-4.409,12.743c-1.139,3.294-2.522,6.609-6.335,8.43
						c-2.885,1.378-4.273-0.359-4.274-3.844l-0.006-26.844c-0.001-3.485,2.443-7.727,5.458-9.475l23.191-13.446
						c3.015-1.748,6.142-0.424,6.984,2.958l5.561,22.329C168.157,353.071,166.912,356.926,164.534,358.299z"/>
				</g>
				<polygon id="XMLID_17534_" style="fill:#263238;" points="155.542,332.133 156.122,335.424 158.685,333.778 159.265,337.069 
					156.702,338.717 157.284,342.008 154.724,343.651 154.142,340.362 151.582,342.006 151.002,338.715 153.562,337.071 
					152.982,333.78 				"/>
				<polygon id="XMLID_17533_" style="fill:#27DEBF;" points="156.281,332.522 156.861,335.813 159.424,334.168 160.005,337.459 
					157.441,339.106 158.023,342.397 155.464,344.041 154.882,340.751 152.322,342.395 151.742,339.104 154.302,337.461 
					153.722,334.17 				"/>
				<g id="XMLID_17192_">
					<g id="XMLID_6_">
						<path id="XMLID_10_" style="fill:#263238;" d="M136.137,343.776c0.16,0.909-0.283,2.014-0.99,2.469
							c-0.707,0.455-1.41,0.087-1.57-0.822c-0.16-0.909,0.283-2.014,0.99-2.469S135.977,342.867,136.137,343.776z"/>
						<path id="XMLID_9_" style="fill:#263238;" d="M137.298,350.358c0.16,0.909-0.283,2.014-0.99,2.469
							c-0.707,0.455-1.41,0.087-1.57-0.822c-0.16-0.909,0.283-2.014,0.99-2.469C136.435,349.082,137.138,349.449,137.298,350.358z"
							/>
						<path id="XMLID_8_" style="fill:#263238;" d="M139.279,345.422c0.16,0.909-0.283,2.014-0.99,2.469
							c-0.707,0.455-1.41,0.087-1.57-0.822c-0.16-0.909,0.283-2.014,0.99-2.469S139.119,344.513,139.279,345.422z"/>
						<path id="XMLID_7_" style="fill:#263238;" d="M134.161,348.713c0.16,0.909-0.283,2.014-0.99,2.469
							c-0.707,0.455-1.41,0.087-1.57-0.822c-0.16-0.909,0.283-2.014,0.99-2.469C133.298,347.436,134.001,347.804,134.161,348.713z"
							/>
					</g>
					<g>
						<path style="fill:#263238;" d="M136.19,343.81c0.16,0.909-0.283,2.014-0.99,2.469c-0.707,0.455-1.41,0.087-1.57-0.822
							c-0.16-0.909,0.283-2.014,0.99-2.469C135.327,342.533,136.03,342.901,136.19,343.81z"/>
						<path style="fill:#263238;" d="M137.351,350.392c0.16,0.909-0.283,2.014-0.99,2.469c-0.707,0.455-1.41,0.087-1.57-0.822
							c-0.16-0.909,0.283-2.014,0.99-2.469C136.488,349.115,137.191,349.483,137.351,350.392z"/>
						<path style="fill:#263238;" d="M139.332,345.455c0.16,0.909-0.283,2.014-0.99,2.469c-0.707,0.455-1.41,0.087-1.57-0.822
							c-0.16-0.909,0.283-2.014,0.99-2.469S139.172,344.547,139.332,345.455z"/>
						<path style="fill:#263238;" d="M134.214,348.746c0.16,0.909-0.283,2.014-0.99,2.469c-0.707,0.455-1.41,0.087-1.57-0.822
							c-0.16-0.909,0.283-2.014,0.99-2.469C133.351,347.47,134.054,347.838,134.214,348.746z"/>
					</g>
					<g>
						<path style="fill:#263238;" d="M136.243,343.843c0.16,0.909-0.283,2.014-0.99,2.469c-0.707,0.455-1.41,0.087-1.57-0.822
							c-0.16-0.909,0.283-2.014,0.99-2.469C135.38,342.567,136.083,342.935,136.243,343.843z"/>
						<path style="fill:#263238;" d="M137.404,350.425c0.16,0.909-0.283,2.014-0.99,2.469c-0.707,0.455-1.41,0.087-1.57-0.822
							c-0.16-0.909,0.283-2.014,0.99-2.469C136.541,349.149,137.244,349.517,137.404,350.425z"/>
						<path style="fill:#263238;" d="M139.385,345.489c0.16,0.909-0.283,2.014-0.99,2.469c-0.707,0.455-1.41,0.087-1.57-0.822
							c-0.16-0.909,0.283-2.014,0.99-2.469S139.225,344.58,139.385,345.489z"/>
						<path style="fill:#263238;" d="M134.267,348.78c0.16,0.909-0.283,2.014-0.99,2.469c-0.707,0.455-1.41,0.087-1.57-0.822
							c-0.16-0.909,0.283-2.014,0.99-2.469C133.404,347.503,134.106,347.871,134.267,348.78z"/>
					</g>
					<g>
						<path style="fill:#263238;" d="M136.296,343.877c0.16,0.909-0.283,2.014-0.99,2.469c-0.707,0.455-1.41,0.087-1.57-0.822
							c-0.16-0.909,0.283-2.014,0.99-2.469C135.433,342.6,136.136,342.968,136.296,343.877z"/>
						<path style="fill:#263238;" d="M137.457,350.459c0.16,0.909-0.283,2.014-0.99,2.469c-0.707,0.455-1.41,0.087-1.57-0.822
							c-0.16-0.909,0.283-2.014,0.99-2.469C136.594,349.182,137.297,349.55,137.457,350.459z"/>
						<path style="fill:#263238;" d="M139.438,345.523c0.16,0.909-0.283,2.014-0.99,2.469s-1.41,0.087-1.57-0.822
							c-0.16-0.909,0.283-2.014,0.99-2.469C138.575,344.246,139.278,344.614,139.438,345.523z"/>
						<path style="fill:#263238;" d="M134.32,348.814c0.16,0.909-0.283,2.014-0.99,2.469c-0.707,0.455-1.41,0.087-1.57-0.822
							c-0.16-0.909,0.283-2.014,0.99-2.469C133.457,347.537,134.16,347.905,134.32,348.814z"/>
					</g>
					<g>
						<path style="fill:#263238;" d="M136.349,343.911c0.16,0.909-0.283,2.014-0.99,2.469c-0.707,0.455-1.41,0.087-1.57-0.822
							c-0.16-0.909,0.283-2.014,0.99-2.469C135.486,342.634,136.189,343.002,136.349,343.911z"/>
						<path style="fill:#263238;" d="M137.51,350.493c0.16,0.909-0.283,2.014-0.99,2.469c-0.707,0.455-1.41,0.087-1.57-0.822
							c-0.16-0.909,0.283-2.014,0.99-2.469C136.647,349.216,137.35,349.584,137.51,350.493z"/>
						<path style="fill:#263238;" d="M139.491,345.556c0.16,0.909-0.283,2.014-0.99,2.469c-0.707,0.455-1.41,0.087-1.57-0.822
							c-0.16-0.909,0.283-2.014,0.99-2.469S139.331,344.647,139.491,345.556z"/>
						<path style="fill:#263238;" d="M134.373,348.847c0.16,0.909-0.283,2.014-0.99,2.469c-0.707,0.455-1.41,0.087-1.57-0.822
							c-0.16-0.909,0.283-2.014,0.99-2.469C133.51,347.571,134.212,347.939,134.373,348.847z"/>
					</g>
					<g>
						<path style="fill:#263238;" d="M136.402,343.944c0.16,0.909-0.283,2.014-0.99,2.469c-0.707,0.455-1.41,0.087-1.57-0.822
							c-0.16-0.909,0.283-2.014,0.99-2.469C135.539,342.668,136.242,343.036,136.402,343.944z"/>
						<path style="fill:#263238;" d="M137.563,350.526c0.16,0.909-0.283,2.014-0.99,2.469c-0.707,0.455-1.41,0.087-1.57-0.822
							c-0.16-0.909,0.283-2.014,0.99-2.469C136.7,349.25,137.403,349.618,137.563,350.526z"/>
						<path style="fill:#263238;" d="M139.544,345.59c0.16,0.909-0.283,2.014-0.99,2.469s-1.41,0.087-1.57-0.822
							c-0.16-0.909,0.283-2.014,0.99-2.469S139.384,344.681,139.544,345.59z"/>
						<path style="fill:#263238;" d="M134.426,348.881c0.16,0.909-0.283,2.014-0.99,2.469c-0.707,0.455-1.41,0.087-1.57-0.822
							c-0.16-0.909,0.283-2.014,0.99-2.469C133.563,347.604,134.265,347.972,134.426,348.881z"/>
					</g>
					<g>
						<path style="fill:#263238;" d="M136.455,343.978c0.16,0.909-0.283,2.014-0.99,2.469c-0.707,0.455-1.41,0.087-1.57-0.822
							c-0.16-0.909,0.283-2.014,0.99-2.469C135.592,342.701,136.295,343.069,136.455,343.978z"/>
						<path style="fill:#263238;" d="M137.616,350.56c0.16,0.909-0.283,2.014-0.99,2.469c-0.707,0.455-1.41,0.087-1.57-0.822
							c-0.16-0.909,0.283-2.014,0.99-2.469C136.753,349.283,137.456,349.651,137.616,350.56z"/>
						<path style="fill:#263238;" d="M139.597,345.623c0.16,0.909-0.283,2.014-0.99,2.469c-0.707,0.455-1.41,0.087-1.57-0.822
							c-0.16-0.909,0.283-2.014,0.99-2.469S139.437,344.715,139.597,345.623z"/>
						<path style="fill:#263238;" d="M134.479,348.914c0.16,0.909-0.283,2.014-0.99,2.469c-0.707,0.455-1.41,0.087-1.57-0.822
							c-0.16-0.909,0.283-2.014,0.99-2.469C133.615,347.638,134.318,348.006,134.479,348.914z"/>
					</g>
					<g>
						<path style="fill:#263238;" d="M136.508,344.012c0.16,0.909-0.283,2.014-0.99,2.469c-0.707,0.455-1.41,0.087-1.57-0.822
							c-0.16-0.909,0.283-2.014,0.99-2.469C135.645,342.735,136.348,343.103,136.508,344.012z"/>
						<path style="fill:#263238;" d="M137.669,350.594c0.16,0.909-0.283,2.014-0.99,2.469c-0.707,0.455-1.41,0.087-1.57-0.822
							c-0.16-0.909,0.283-2.014,0.99-2.469C136.806,349.317,137.508,349.685,137.669,350.594z"/>
						<path style="fill:#263238;" d="M139.65,345.657c0.16,0.909-0.283,2.014-0.99,2.469s-1.41,0.087-1.57-0.822
							c-0.16-0.909,0.283-2.014,0.99-2.469S139.49,344.748,139.65,345.657z"/>
						<path style="fill:#263238;" d="M134.531,348.948c0.16,0.909-0.283,2.014-0.99,2.469c-0.707,0.455-1.41,0.087-1.57-0.822
							c-0.16-0.909,0.283-2.014,0.99-2.469C133.668,347.671,134.371,348.039,134.531,348.948z"/>
					</g>
					<g>
						<path style="fill:#263238;" d="M136.561,344.045c0.16,0.909-0.283,2.014-0.99,2.469c-0.707,0.455-1.41,0.087-1.57-0.822
							c-0.16-0.909,0.283-2.014,0.99-2.469C135.698,342.768,136.401,343.136,136.561,344.045z"/>
						<path style="fill:#263238;" d="M137.722,350.627c0.16,0.909-0.283,2.014-0.99,2.469c-0.707,0.455-1.41,0.087-1.57-0.822
							c-0.16-0.909,0.283-2.014,0.99-2.469C136.859,349.35,137.561,349.718,137.722,350.627z"/>
						<path style="fill:#263238;" d="M139.703,345.691c0.16,0.909-0.283,2.014-0.99,2.469c-0.707,0.455-1.41,0.087-1.57-0.822
							c-0.16-0.909,0.283-2.014,0.99-2.469S139.543,344.782,139.703,345.691z"/>
						<path style="fill:#263238;" d="M134.584,348.982c0.16,0.909-0.283,2.014-0.99,2.469c-0.707,0.455-1.41,0.087-1.57-0.822
							c-0.16-0.909,0.283-2.014,0.99-2.469C133.721,347.705,134.424,348.073,134.584,348.982z"/>
					</g>
					<g>
						<path style="fill:#263238;" d="M136.614,344.079c0.16,0.909-0.283,2.014-0.99,2.469c-0.707,0.455-1.41,0.087-1.57-0.822
							c-0.16-0.909,0.283-2.014,0.99-2.469C135.751,342.802,136.454,343.17,136.614,344.079z"/>
						<path style="fill:#263238;" d="M137.775,350.661c0.16,0.909-0.283,2.014-0.99,2.469c-0.707,0.455-1.41,0.087-1.57-0.822
							c-0.16-0.909,0.283-2.014,0.99-2.469C136.912,349.384,137.614,349.752,137.775,350.661z"/>
						<path style="fill:#263238;" d="M139.756,345.724c0.16,0.909-0.283,2.014-0.99,2.469s-1.41,0.087-1.57-0.822
							c-0.16-0.909,0.283-2.014,0.99-2.469C138.893,344.448,139.596,344.816,139.756,345.724z"/>
						<path style="fill:#263238;" d="M134.637,349.015c0.16,0.909-0.283,2.014-0.99,2.469c-0.707,0.455-1.41,0.087-1.57-0.822
							c-0.16-0.909,0.283-2.014,0.99-2.469C133.774,347.739,134.477,348.107,134.637,349.015z"/>
					</g>
					<g>
						<path style="fill:#263238;" d="M136.667,344.112c0.16,0.909-0.283,2.014-0.99,2.469c-0.707,0.455-1.41,0.087-1.57-0.822
							c-0.16-0.909,0.283-2.014,0.99-2.469C135.804,342.836,136.507,343.204,136.667,344.112z"/>
						<path style="fill:#263238;" d="M137.828,350.694c0.16,0.909-0.283,2.014-0.99,2.469c-0.707,0.455-1.41,0.087-1.57-0.822
							c-0.16-0.909,0.283-2.014,0.99-2.469C136.965,349.418,137.667,349.786,137.828,350.694z"/>
						<path style="fill:#263238;" d="M139.809,345.758c0.16,0.909-0.283,2.014-0.99,2.469s-1.41,0.087-1.57-0.822
							c-0.16-0.909,0.283-2.014,0.99-2.469C138.946,344.481,139.649,344.849,139.809,345.758z"/>
						<path style="fill:#263238;" d="M134.69,349.049c0.16,0.909-0.283,2.014-0.99,2.469c-0.707,0.455-1.41,0.087-1.57-0.822
							c-0.16-0.909,0.283-2.014,0.99-2.469C133.827,347.772,134.53,348.14,134.69,349.049z"/>
					</g>
					<g id="XMLID_1_">
						<path id="XMLID_5_" style="fill:#263238;" d="M136.72,344.146c0.16,0.909-0.283,2.014-0.99,2.469
							c-0.707,0.455-1.41,0.087-1.57-0.822c-0.16-0.909,0.283-2.014,0.99-2.469C135.857,342.869,136.56,343.237,136.72,344.146z"/>
						<path id="XMLID_4_" style="fill:#263238;" d="M137.881,350.728c0.16,0.909-0.283,2.014-0.99,2.469
							c-0.707,0.455-1.41,0.087-1.57-0.822c-0.16-0.909,0.283-2.014,0.99-2.469C137.018,349.451,137.72,349.819,137.881,350.728z"/>
						<path id="XMLID_3_" style="fill:#263238;" d="M139.862,345.792c0.16,0.909-0.283,2.014-0.99,2.469s-1.41,0.087-1.57-0.822
							c-0.16-0.909,0.283-2.014,0.99-2.469C138.999,344.515,139.702,344.883,139.862,345.792z"/>
						<path id="XMLID_2_" style="fill:#263238;" d="M134.743,349.082c0.16,0.909-0.283,2.014-0.99,2.469
							c-0.707,0.455-1.41,0.087-1.57-0.822c-0.16-0.909,0.283-2.014,0.99-2.469C133.88,347.806,134.583,348.174,134.743,349.082z"/>
					</g>
				</g>
				<polygon id="XMLID_17188_" style="fill:#263238;" points="155.542,332.133 156.281,332.522 153.722,334.17 152.982,333.78 				
					"/>
				<polygon id="XMLID_17187_" style="fill:#263238;" points="153.562,337.071 154.302,337.461 151.742,339.104 151.002,338.715 
									"/>
				<polygon id="XMLID_17185_" style="fill:#263238;" points="156.861,335.813 156.724,335.038 158.685,333.778 159.424,334.168 
									"/>
				<polygon id="XMLID_17170_" style="fill:#263238;" points="151.002,338.715 151.742,339.104 152.322,342.395 151.582,342.006 
									"/>
				<polygon id="XMLID_16684_" style="fill:#263238;" points="154.724,343.651 155.464,344.041 154.882,340.751 154.28,341.138 				
					"/>
				<g id="XMLID_16572_">
					<path id="XMLID_16683_" style="fill:#27DEBF;" d="M136.72,344.146c0.16,0.909-0.283,2.014-0.99,2.469
						c-0.707,0.455-1.41,0.087-1.57-0.822c-0.16-0.909,0.283-2.014,0.99-2.469C135.857,342.869,136.56,343.237,136.72,344.146z"/>
					<path id="XMLID_16615_" style="fill:#27DEBF;" d="M137.881,350.728c0.16,0.909-0.283,2.014-0.99,2.469
						c-0.707,0.455-1.41,0.087-1.57-0.822c-0.16-0.909,0.283-2.014,0.99-2.469C137.018,349.451,137.72,349.819,137.881,350.728z"/>
					<path id="XMLID_16584_" style="fill:#27DEBF;" d="M139.862,345.792c0.16,0.909-0.283,2.014-0.99,2.469s-1.41,0.087-1.57-0.822
						c-0.16-0.909,0.283-2.014,0.99-2.469C138.999,344.515,139.702,344.883,139.862,345.792z"/>
					<path id="XMLID_16574_" style="fill:#27DEBF;" d="M134.743,349.082c0.16,0.909-0.283,2.014-0.99,2.469
						c-0.707,0.455-1.41,0.087-1.57-0.822c-0.16-0.909,0.283-2.014,0.99-2.469C133.88,347.806,134.583,348.174,134.743,349.082z"/>
				</g>
			</g>
		</g>
	</g>
</g>
<g id="Cloud">
	<path id="XMLID_17863_" style="fill:#F0F0F0;" d="M161.32,64.689l-10.747,6.205c0.053-0.48,0.09-0.956,0.09-1.423v-3.113
		c0-5.54-3.89-7.786-8.688-5.016c-1.943,1.122-3.731,2.9-5.178,4.979c-0.786-6.967-6.252-9.562-12.891-5.729
		c-7.178,4.144-12.998,14.224-12.998,22.513v4.658c0,2.147,0.397,3.955,1.1,5.396l-8.927,5.154
		c-2.662,1.537-4.819,5.274-4.819,8.347c0,3.073,2.158,4.319,4.819,2.782l58.237-33.623c2.662-1.537,4.819-5.274,4.819-8.347
		C166.139,64.398,163.981,63.152,161.32,64.689z"/>
</g>
<g id="Character">
	<g id="XMLID_17866_">
		<g id="XMLID_17599_">
			<g id="XMLID_17726_">
				<g id="XMLID_17727_">
					<g id="XMLID_17731_">
						<g id="XMLID_17756_">
							<path id="XMLID_17783_" style="fill:#E0E0E0;" d="M384.667,344.108l-1.957-1.124l1.419-0.64c0,0,1.116,0.294,1.142,0.346
								c0.026,0.052-0.078,0.77-0.078,0.77L384.667,344.108z"/>
							<g>
								<path id="XMLID_17780_" style="fill:#27DEBF;" d="M384.667,344.108l-1.957-1.124l1.419-0.64c0,0,1.116,0.294,1.142,0.346
									c0.026,0.052-0.078,0.77-0.078,0.77L384.667,344.108z"/>
								<path id="XMLID_41_" style="opacity:0.1;fill:#FFFFFF;" d="M384.667,344.108l-1.957-1.124l1.419-0.64
									c0,0,1.116,0.294,1.142,0.346c0.026,0.052-0.078,0.77-0.078,0.77L384.667,344.108z"/>
							</g>
							<g>
								<path id="XMLID_17776_" style="fill:#27DEBF;" d="M310.254,381.598c1.578,0.911,4.136,0.911,5.713,0l64.141-37.034
									l-96.016-55.441l-2.243-1.298l-64.139,37.034c-1.572,0.913-1.572,2.397,0,3.299L310.254,381.598z"/>
								<path id="XMLID_45_" style="opacity:0.8;fill:#FFFFFF;" d="M310.254,381.598c1.578,0.911,4.136,0.911,5.713,0l64.141-37.034
									l-96.016-55.441l-2.243-1.298l-64.139,37.034c-1.572,0.913-1.572,2.397,0,3.299L310.254,381.598z"/>
							</g>
							<path id="XMLID_17773_" style="fill:#E0E0E0;" d="M334.338,311.64l22.367,12.874l14.48-8.36l16.845,9.731
								c0,0,0,10.669,0,12.14c0,1.472-1.651,3.568-2.251,3.223c0,0-1.319,0.27-3.22,1.143c-1.901,0.874-4.648,3.439-4.648,3.439
								l-51.396-29.673L334.338,311.64z"/>
							<g>
								<path id="XMLID_17772_" style="fill:#27DEBF;" d="M334.338,311.64l22.367,12.874l14.48-8.36l16.845,9.731
									c0,0,0,10.669,0,12.14c0,1.472-1.651,3.568-2.251,3.223c0,0-1.319,0.27-3.22,1.143c-1.901,0.874-4.648,3.439-4.648,3.439
									l-51.396-29.673L334.338,311.64z"/>
								<path id="XMLID_46_" style="opacity:0.1;fill:#FFFFFF;" d="M334.338,311.64l22.367,12.874l14.48-8.36l16.845,9.731
									c0,0,0,10.669,0,12.14c0,1.472-1.651,3.568-2.251,3.223c0,0-1.319,0.27-3.22,1.143c-1.901,0.874-4.648,3.439-4.648,3.439
									l-51.396-29.673L334.338,311.64z"/>
							</g>
							<g>
								<path id="XMLID_17763_" style="fill:#27DEBF;" d="M315.969,381.595l3.871-2.243l58.069-33.526
									c0.022-0.726,0.319-1.44,0.792-2.078c0.66-0.924,1.649-1.715,2.54-2.232c0.682-0.396,1.704-0.858,2.738-0.858
									c0.704,0,1.319,0.22,1.803,0.594c0.374-0.506,1.067-2.452,1.067-4.805h2.199c0,3.035-1.001,6.081-2.232,6.785l-1.111,0.649
									c-0.627,0.363-1.122,0.385-1.122,0.044v-0.594c0-0.66-1.001-0.627-2.243,0.088c-1.232,0.715-2.232,1.825-2.232,2.485v0.594
									c0,0.341-0.858,1.099-1.902,1.704l-56.156,32.427l-6.081,3.508c0,0-0.011,0-0.011,0.011
									c-0.792,0.44-1.814,0.671-2.848,0.671v-2.54C314.144,382.276,315.178,382.057,315.969,381.595z"/>
								<path id="XMLID_50_" style="opacity:0.6;fill:#FFFFFF;" d="M315.969,381.595l3.871-2.243l58.069-33.526
									c0.022-0.726,0.319-1.44,0.792-2.078c0.66-0.924,1.649-1.715,2.54-2.232c0.682-0.396,1.704-0.858,2.738-0.858
									c0.704,0,1.319,0.22,1.803,0.594c0.374-0.506,1.067-2.452,1.067-4.805h2.199c0,3.035-1.001,6.081-2.232,6.785l-1.111,0.649
									c-0.627,0.363-1.122,0.385-1.122,0.044v-0.594c0-0.66-1.001-0.627-2.243,0.088c-1.232,0.715-2.232,1.825-2.232,2.485v0.594
									c0,0.341-0.858,1.099-1.902,1.704l-56.156,32.427l-6.081,3.508c0,0-0.011,0-0.011,0.011
									c-0.792,0.44-1.814,0.671-2.848,0.671v-2.54C314.144,382.276,315.178,382.057,315.969,381.595z"/>
							</g>
							<g>
								<path id="XMLID_17760_" style="fill:#27DEBF;" d="M216.534,326.472v2.584c0,0.594,0.374,1.177,1.133,1.627l0.044,0.022
									l86.471,49.921l6.07,3.508v0.011c0,0,0.011-0.011,0.011,0c0.792,0.44,1.814,0.671,2.848,0.671v-2.54
									c-1.034,0-2.067-0.22-2.859-0.682l-3.86-2.232h-0.011l-88.671-51.208C216.87,327.667,216.537,327.096,216.534,326.472z"/>
								<path id="XMLID_51_" style="opacity:0.1;fill:#FFFFFF;" d="M216.534,326.472v2.584c0,0.594,0.374,1.177,1.133,1.627
									l0.044,0.022l86.471,49.921l6.07,3.508v0.011c0,0,0.011-0.011,0.011,0c0.792,0.44,1.814,0.671,2.848,0.671v-2.54
									c-1.034,0-2.067-0.22-2.859-0.682l-3.86-2.232h-0.011l-88.671-51.208C216.87,327.667,216.537,327.096,216.534,326.472z"/>
							</g>
						</g>
						<path id="XMLID_17755_" style="fill:#FFFFFF;" d="M313.111,365.156v14.822c0.693,0,1.385-0.143,1.902-0.451l7.037-4.057
							l53.594-30.942l0.011-15.482L313.111,365.156z"/>
						<path id="XMLID_17752_" style="fill:#F0F0F0;" d="M219.316,312.859v11.414c0,1.21,0.858,2.694,1.902,3.299l82.964,47.898
							l7.026,4.057c0.517,0.308,1.21,0.451,1.902,0.451v-13.25L219.316,312.859z"/>
						<path id="XMLID_17750_" style="fill:#455A64;" d="M375.644,344.528c0.022-0.726,0.33-1.439,0.803-2.077
							c0.66-0.924,1.649-1.715,2.54-2.232c0.682-0.396,1.704-0.858,2.738-0.858c0.704,0,1.32,0.22,1.803,0.594V324.5l-7.873,4.545
							L375.644,344.528z"/>
						<path id="XMLID_17747_" style="fill:#F5F5F5;" d="M378.789,340.345c-0.837,0.516-1.73,1.249-2.342,2.105
							c-0.473,0.638-0.781,1.352-0.803,2.077l0.01-14.757h3.134V340.345z"/>
						<g id="XMLID_17732_">
							<g>
								<path id="XMLID_17744_" style="fill:#27DEBF;" d="M284.092,271.031l96.016,55.441c0,0,0,0.572,0,1.286
									c0,0.715,1.001,0.979,2.232,0.264c1.242-0.715,2.243-1.605,2.243-2.837l0.121-1.221l-97.83-56.475l-0.396-0.231
									c-0.099,0.187-0.165,0.396-0.165,0.594v0.594C286.314,269.162,285.324,270.305,284.092,271.031z"/>
								<path id="XMLID_54_" style="opacity:0.6;fill:#FFFFFF;" d="M284.092,271.031l96.016,55.441c0,0,0,0.572,0,1.286
									c0,0.715,1.001,0.979,2.232,0.264c1.242-0.715,2.243-1.605,2.243-2.837l0.121-1.221l-97.83-56.475l-0.396-0.231
									c-0.099,0.187-0.165,0.396-0.165,0.594v0.594C286.314,269.162,285.324,270.305,284.092,271.031z"/>
							</g>
							<g>
								<path id="XMLID_17743_" style="fill:#27DEBF;" d="M315.967,363.507l62.719-36.213c0.797-0.418,1.525-0.753,1.832-0.592
									l-0.41-0.229l-96.016-55.441c0,0-0.564-0.323-1.122-0.647c-0.619-0.359-1.973-0.158-3.025,0.449l-62.234,35.934
									c-1.572,0.913-1.572,2.397,0,3.299l92.544,53.44C311.832,364.417,314.39,364.418,315.967,363.507z"/>
								<path id="XMLID_52_" style="opacity:0.8;fill:#FFFFFF;" d="M315.967,363.507l62.719-36.213
									c0.797-0.418,1.525-0.753,1.832-0.592l-0.41-0.229l-96.016-55.441c0,0-0.564-0.323-1.122-0.647
									c-0.619-0.359-1.973-0.158-3.025,0.449l-62.234,35.934c-1.572,0.913-1.572,2.397,0,3.299l92.544,53.44
									C311.832,364.417,314.39,364.418,315.967,363.507z"/>
							</g>
							<g>
								<path id="XMLID_17742_" style="fill:#27DEBF;" d="M286.479,267.259l0.396,0.231l97.83,56.475c0,0,0.066-0.154,0.209-0.264
									c0.088-0.055,0.198-0.11,0.33-0.187l0.704-0.407c0.264-0.154,0.561-0.33,0.869-0.506c0.407-0.231,0.781-0.187,1.111,0.099
									c0.044,0.022,0.077,0.055,0.11,0.099c0.11,0.11,0.209,0.253,0.297,0.407c0.099,0.165,0.187,0.352,0.253,0.55
									c0.077,0.198,0.143,0.418,0.198,0.638c0.055,0.242,0.099,0.484,0.143,0.748c0.033,0.143,0.044,0.297,0.055,0.451
									c0.011,0.121,0.022,0.231,0.033,0.363c0.022,0.275,0.033,0.561,0.033,0.858v-2.749c0-1.517-1.287-3.486-2.859-4.398
									l-92.552-53.44c-1.583-0.913-3.86-1.066-5.091-0.363l-1.166,0.682l-0.044,0.022c-0.077,0.055-0.275,0.165-0.495,0.286
									c0,0-0.011,0-0.011,0.011C286.698,266.941,286.567,267.084,286.479,267.259z"/>
								<path id="XMLID_53_" style="opacity:0.8;fill:#FFFFFF;" d="M286.479,267.259l0.396,0.231l97.83,56.475
									c0,0,0.066-0.154,0.209-0.264c0.088-0.055,0.198-0.11,0.33-0.187l0.704-0.407c0.264-0.154,0.561-0.33,0.869-0.506
									c0.407-0.231,0.781-0.187,1.111,0.099c0.044,0.022,0.077,0.055,0.11,0.099c0.11,0.11,0.209,0.253,0.297,0.407
									c0.099,0.165,0.187,0.352,0.253,0.55c0.077,0.198,0.143,0.418,0.198,0.638c0.055,0.242,0.099,0.484,0.143,0.748
									c0.033,0.143,0.044,0.297,0.055,0.451c0.011,0.121,0.022,0.231,0.033,0.363c0.022,0.275,0.033,0.561,0.033,0.858v-2.749
									c0-1.517-1.287-3.486-2.859-4.398l-92.552-53.44c-1.583-0.913-3.86-1.066-5.091-0.363l-1.166,0.682l-0.044,0.022
									c-0.077,0.055-0.275,0.165-0.495,0.286c0,0-0.011,0-0.011,0.011C286.698,266.941,286.567,267.084,286.479,267.259z"/>
							</g>
							<g>
								<path id="XMLID_17739_" style="fill:#27DEBF;" d="M315.947,363.517c0.011,0,0.011-0.011,0.011-0.011l3.882-2.243
									l44.61-25.741l14.24-8.225c1.012-0.594,1.836-0.803,1.891-0.495c0.011,0.011,0.011,0.022,0.011,0.033v0.649
									c0,0.715,1.001,0.715,2.232,0c1.21-0.693,1.737-1.55,1.759-2.243v-0.704c0-0.363,0.143-0.737,0.33-0.836
									c0.088-0.055,0.209-0.121,0.33-0.187c0.198-0.11,0.44-0.253,0.704-0.407c0.264-0.154,0.561-0.33,0.869-0.506
									c0.407-0.231,0.781-0.187,1.111,0.099c0.044,0.022,0.077,0.055,0.11,0.099c0.077,0.077,0.143,0.165,0.198,0.264
									c0.044,0.044,0.066,0.088,0.099,0.143c0.099,0.165,0.187,0.352,0.253,0.55c0.077,0.198,0.143,0.418,0.198,0.638
									c0.055,0.242,0.099,0.484,0.143,0.748c0.033,0.143,0.044,0.297,0.055,0.451c0.011,0.121,0.022,0.231,0.033,0.363
									c0.022,0.275,0.033,0.561,0.033,0.858v9.632h-2.199v-9.632c0-0.231-0.011-0.462-0.022-0.682l-0.055-0.55
									c0-0.022,0-0.033-0.011-0.055c-0.198,1.748-1.869,3.31-3.321,4.134c-0.649,0.385-1.649,0.836-2.683,0.836
									c-0.77,0-1.462-0.275-1.968-0.726l-0.198,0.11c-0.132,0.077-0.253,0.154-0.385,0.231l-56.156,32.427l-6.081,3.508
									c0,0-0.011,0-0.011,0.011c-0.011,0.011-0.022,0.011-0.044,0.022c-0.781,0.429-1.792,0.649-2.804,0.649v-2.538
									C314.246,364.19,315.149,363.938,315.947,363.517z"/>
								<path id="XMLID_55_" style="opacity:0.6;fill:#FFFFFF;" d="M315.947,363.517c0.011,0,0.011-0.011,0.011-0.011l3.882-2.243
									l44.61-25.741l14.24-8.225c1.012-0.594,1.836-0.803,1.891-0.495c0.011,0.011,0.011,0.022,0.011,0.033v0.649
									c0,0.715,1.001,0.715,2.232,0c1.21-0.693,1.737-1.55,1.759-2.243v-0.704c0-0.363,0.143-0.737,0.33-0.836
									c0.088-0.055,0.209-0.121,0.33-0.187c0.198-0.11,0.44-0.253,0.704-0.407c0.264-0.154,0.561-0.33,0.869-0.506
									c0.407-0.231,0.781-0.187,1.111,0.099c0.044,0.022,0.077,0.055,0.11,0.099c0.077,0.077,0.143,0.165,0.198,0.264
									c0.044,0.044,0.066,0.088,0.099,0.143c0.099,0.165,0.187,0.352,0.253,0.55c0.077,0.198,0.143,0.418,0.198,0.638
									c0.055,0.242,0.099,0.484,0.143,0.748c0.033,0.143,0.044,0.297,0.055,0.451c0.011,0.121,0.022,0.231,0.033,0.363
									c0.022,0.275,0.033,0.561,0.033,0.858v9.632h-2.199v-9.632c0-0.231-0.011-0.462-0.022-0.682l-0.055-0.55
									c0-0.022,0-0.033-0.011-0.055c-0.198,1.748-1.869,3.31-3.321,4.134c-0.649,0.385-1.649,0.836-2.683,0.836
									c-0.77,0-1.462-0.275-1.968-0.726l-0.198,0.11c-0.132,0.077-0.253,0.154-0.385,0.231l-56.156,32.427l-6.081,3.508
									c0,0-0.011,0-0.011,0.011c-0.011,0.011-0.022,0.011-0.044,0.022c-0.781,0.429-1.792,0.649-2.804,0.649v-2.538
									C314.246,364.19,315.149,363.938,315.947,363.517z"/>
							</g>
							<g>
								<path id="XMLID_17736_" style="fill:#27DEBF;" d="M216.534,308.386v2.584c0,0.594,0.374,1.177,1.133,1.627l0.044,0.022
									l86.471,49.921l6.07,3.508v0.011c0,0,0.011-0.011,0.011,0c0.792,0.44,1.814,0.671,2.848,0.671v-2.54
									c-1.034,0-2.067-0.22-2.859-0.682l-3.86-2.232h-0.011l-88.671-51.208C216.87,309.58,216.537,309.01,216.534,308.386z"/>
								<path id="XMLID_56_" style="opacity:0.1;fill:#FFFFFF;" d="M216.534,308.386v2.584c0,0.594,0.374,1.177,1.133,1.627
									l0.044,0.022l86.471,49.921l6.07,3.508v0.011c0,0,0.011-0.011,0.011,0c0.792,0.44,1.814,0.671,2.848,0.671v-2.54
									c-1.034,0-2.067-0.22-2.859-0.682l-3.86-2.232h-0.011l-88.671-51.208C216.87,309.58,216.537,309.01,216.534,308.386z"/>
							</g>
						</g>
					</g>
					<path id="XMLID_17728_" style="fill:#263238;" d="M279.945,270.833c1.052-0.607,2.406-0.808,3.025-0.449
						c0.558,0.324,1.117,0.647,1.117,0.647c1.237-0.726,2.227-1.869,2.227-2.584v-0.594c0-0.198,0.066-0.407,0.165-0.594
						c0.088-0.176,0.22-0.319,0.352-0.396c0-0.011,0.011-0.011,0.011-0.011c0.22-0.121,0.418-0.231,0.495-0.286l0.044-0.022
						l1.166-0.682c1.231-0.704,3.508-0.55,5.091,0.363l92.552,53.44c0.033,0.019,0.064,0.045,0.097,0.066l-65.389,37.752
						c-1.052,0.607-2.755,0.604-3.805-0.008l-93.157-54.302L279.945,270.833z"/>
				</g>
			</g>
			<g id="XMLID_17677_">
				<g id="XMLID_17681_">
					<g>
						<path id="XMLID_17723_" style="fill:#27DEBF;" d="M326.133,352.033l-2.478-1.424c0,0,1.422-0.452,2.078-0.146
							C326.39,350.77,326.133,352.033,326.133,352.033z"/>
						<path id="XMLID_28_" style="opacity:0.7;" d="M326.133,352.033l-2.478-1.424c0,0,1.422-0.452,2.078-0.146
							C326.39,350.77,326.133,352.033,326.133,352.033z"/>
					</g>
					<g>
						<path id="XMLID_17720_" style="fill:#27DEBF;" d="M327.834,350.474c0,0-2.006-2.21-4.413,0c-2.407,2.21-2.532,4.4-3.528,4.364
							c-0.997-0.036-0.982-17.65-0.982-17.65l9.489,8.825L327.834,350.474z"/>
						<path id="XMLID_29_" style="opacity:0.7;" d="M327.834,350.474c0,0-2.006-2.21-4.413,0c-2.407,2.21-2.532,4.4-3.528,4.364
							c-0.997-0.036-0.982-17.65-0.982-17.65l9.489,8.825L327.834,350.474z"/>
					</g>
					<g>
						<path id="XMLID_17717_" style="fill:#27DEBF;" d="M228.405,286.417l-0.156-0.09l1.525-0.881l65.474-37.801l95.408,61.746
							c1.578,0.911,1.857,2.224,0.624,2.933l-2.232,1.283l-61.203,35.351l-0.434-0.316L228.405,286.417z"/>
						<path id="XMLID_31_" style="opacity:0.5;" d="M228.405,286.417l-0.156-0.09l1.525-0.881l65.474-37.801l95.408,61.746
							c1.578,0.911,1.857,2.224,0.624,2.933l-2.232,1.283l-61.203,35.351l-0.434-0.316L228.405,286.417z"/>
					</g>
					<path id="XMLID_17716_" style="fill:#455A64;" d="M319.678,328.849l4.739-0.977v18.98c-2.859,1.213-4.677,2.361-4.977,4.753
						L319.678,328.849z"/>
					<path id="XMLID_17715_" style="fill:#F0F0F0;" d="M326.514,347.103l60.629-35.005c1.052-0.607,1.905-2.084,1.905-3.299v-18.71
						l-61.215,35.651c0,0-0.73,2.647-2.901,3.483c-2.171,0.835-0.516,1.675-0.516,1.675v15.955
						C326.292,346.631,326.514,347.103,326.514,347.103z"/>
					<g>
						<path id="XMLID_17712_" style="fill:#27DEBF;" d="M320.924,328.2c0.627-0.363,1.121-0.385,1.121-0.044v0.594
							c0,0.66,1.001,0.627,2.243-0.088c1.231-0.715,2.246-1.824,2.246-2.483v-0.596c0-0.341,0.844-1.099,1.888-1.704l-98.646-56.521
							c-0.604,0.35-1.527,0.887-1.527,0.887c-0.255,0.25-0.375,0.673-0.375,0.817v0.594c0,0.66-1.001,1.77-2.232,2.485
							c-1.243,0.715-2.243,0.748-2.243,0.088v-0.594c0-0.341-0.495-0.319-1.121,0.044L320.924,328.2z"/>
						<path id="XMLID_32_" style="opacity:0.6;" d="M320.924,328.2c0.627-0.363,1.121-0.385,1.121-0.044v0.594
							c0,0.66,1.001,0.627,2.243-0.088c1.231-0.715,2.246-1.824,2.246-2.483v-0.596c0-0.341,0.844-1.099,1.888-1.704l-98.646-56.521
							c-0.604,0.35-1.527,0.887-1.527,0.887c-0.255,0.25-0.375,0.673-0.375,0.817v0.594c0,0.66-1.001,1.77-2.232,2.485
							c-1.243,0.715-2.243,0.748-2.243,0.088v-0.594c0-0.341-0.495-0.319-1.121,0.044L320.924,328.2z"/>
					</g>
					<g>
						<path id="XMLID_17709_" style="fill:#27DEBF;" d="M228.405,268.335l-0.156-0.09l1.525-0.881l65.474-37.801l95.408,55.094
							c1.578,0.911,1.857,2.224,0.624,2.933l-2.232,1.283l-61.215,36.866L228.405,268.335z"/>
						<path id="XMLID_33_" style="opacity:0.5;" d="M228.405,268.335l-0.156-0.09l1.525-0.881l65.474-37.801l95.408,55.094
							c1.578,0.911,1.857,2.224,0.624,2.933l-2.232,1.283l-61.215,36.866L228.405,268.335z"/>
					</g>
					<g>
						<path id="XMLID_17706_" style="fill:#27DEBF;" d="M223.38,271.056l98.568,56.908l-3.451,2.699l-98.249-56.724
							c0.426-1.01,0.867-1.542,1.315-1.834L223.38,271.056z"/>
						<path id="XMLID_34_" style="opacity:0.5;" d="M223.38,271.056l98.568,56.908l-3.451,2.699l-98.249-56.724
							c0.426-1.01,0.867-1.542,1.315-1.834L223.38,271.056z"/>
					</g>
					<g id="XMLID_17699_">
						<g>
							<path id="XMLID_17703_" style="fill:#27DEBF;" d="M220.633,299.426c-0.061-0.035-0.12-0.078-0.178-0.128
								c-0.044-0.022-0.077-0.055-0.11-0.099c-0.077-0.077-0.143-0.165-0.198-0.264c-0.044-0.044-0.066-0.088-0.099-0.143
								c-0.099-0.165-0.187-0.352-0.253-0.55c-0.077-0.198-0.143-0.418-0.198-0.638c-0.055-0.242-0.099-0.484-0.143-0.748
								c-0.033-0.143-0.044-0.297-0.055-0.451c-0.011-0.121-0.022-0.231-0.033-0.363c-0.022-0.275-0.033-0.561-0.033-0.858v-16.284
								c0-1.82,0.36-3.643,0.913-4.964l98.249,56.727l0.415,25.512l-98.245-56.732L220.633,299.426z"/>
							<path id="XMLID_35_" style="opacity:0.7;" d="M220.633,299.426c-0.061-0.035-0.12-0.078-0.178-0.128
								c-0.044-0.022-0.077-0.055-0.11-0.099c-0.077-0.077-0.143-0.165-0.198-0.264c-0.044-0.044-0.066-0.088-0.099-0.143
								c-0.099-0.165-0.187-0.352-0.253-0.55c-0.077-0.198-0.143-0.418-0.198-0.638c-0.055-0.242-0.099-0.484-0.143-0.748
								c-0.033-0.143-0.044-0.297-0.055-0.451c-0.011-0.121-0.022-0.231-0.033-0.363c-0.022-0.275-0.033-0.561-0.033-0.858v-16.284
								c0-1.82,0.36-3.643,0.913-4.964l98.249,56.727l0.415,25.512l-98.245-56.732L220.633,299.426z"/>
						</g>
						<path id="XMLID_17700_" style="opacity:0.79;fill:#263238;" d="M318.496,330.664L318.496,330.664
							c0,0-77.375-36.215-84.418-39.533c-4.646-2.189-6.93,2.409-5.83,7.171c0.961,4.16,5.068,8.447,5.068,8.447l0,0l-12.651-7.305
							l-0.033-0.018c-0.061-0.035-0.12-0.078-0.178-0.128c-0.044-0.022-0.077-0.055-0.11-0.099
							c-0.077-0.077-0.143-0.165-0.198-0.264c-0.044-0.044-0.066-0.088-0.099-0.143c-0.099-0.165-0.187-0.352-0.253-0.55
							c-0.077-0.198-0.143-0.418-0.198-0.638c-0.055-0.242-0.099-0.484-0.143-0.748c-0.033-0.143-0.044-0.297-0.055-0.451
							c-0.011-0.121-0.022-0.231-0.033-0.363c-0.022-0.275-0.033-0.561-0.033-0.858v-16.284c0-1.82,0.36-3.643,0.913-4.964
							L318.496,330.664z"/>
					</g>
					<g>
						<g id="XMLID_17682_">
							<g>
								<g id="XMLID_83_">
									<path id="XMLID_84_" style="fill:#27DEBF;" d="M317.586,335.633h2.199c0-2.353,0.693-4.299,1.067-4.805
										c0.484,0.374,1.1,0.594,1.803,0.594c1.034,0,2.056-0.462,2.738-0.858c0.891-0.517,1.88-1.308,2.54-2.232
										c0.044-0.066,0.099-0.132,0.132-0.198c0.396-0.583,0.638-1.232,0.66-1.88l58.069-33.526l1.968-1.144l2.518-1.452
										c0.517-0.297,0.77-0.704,0.77-1.133v-2.573c0,0.506-0.297,0.88-0.77,1.165l-0.033,0.022l-6.664,3.838l-56.156,32.427
										c-1.045,0.605-1.902,1.364-1.902,1.704v0.594c0,0.286-0.187,0.66-0.517,1.045c-0.396,0.506-1.023,1.034-1.715,1.441
										c-1.243,0.715-2.243,0.748-2.243,0.088v-0.594c0-0.341-0.495-0.319-1.122,0.044l-1.111,0.649
										C318.587,329.552,317.586,332.598,317.586,335.633z"/>
								</g>
								<g id="XMLID_81_">
									<path id="XMLID_82_" style="fill:#27DEBF;" d="M319.785,335.633v16.284c0,0.231,0.011,0.462,0.022,0.682l0.055,0.55
										c0,0.022,0,0.033,0.011,0.055c0.198-1.748,1.869-3.31,3.321-4.134c0.649-0.385,1.649-0.836,2.683-0.836
										c0.77,0,1.462,0.275,1.968,0.726l0.198-0.11c0.132-0.077,0.253-0.154,0.385-0.231l56.156-32.427
										c0,0,1.473-0.847,3.222-1.858c0.297-0.176,0.616-0.352,0.924-0.539c0.946-0.55,1.902-1.1,2.716-1.572
										c0.374-0.275,0.605-0.616,0.605-1.056v0.704v1.869c0,0.363-0.187,0.715-0.561,0.99c0,0.011-0.011,0.011-0.022,0.022
										c-0.319,0.187-0.66,0.374-1.001,0.583c-0.209,0.121-0.418,0.242-0.627,0.363c-0.374,0.209-0.737,0.429-1.078,0.627
										c-0.242,0.143-0.462,0.275-0.671,0.385c-0.176,0.099-0.33,0.198-0.473,0.275c-0.506,0.297-0.825,0.484-0.825,0.484
										l-44.61,25.741l-14.24,8.225c-1.012,0.594-1.836,0.803-1.891,0.495c-0.009-0.043-0.011-0.094-0.011-0.105v-0.576
										c0-0.715-1.001-0.715-2.232,0c-1.21,0.693-1.738,1.55-1.759,2.243v0.704c0,0.363-0.143,0.737-0.33,0.836
										c-0.088,0.055-0.209,0.121-0.33,0.187c-0.198,0.11-0.44,0.253-0.704,0.407c-0.264,0.154-0.561,0.33-0.869,0.506
										c-0.407,0.231-0.781,0.187-1.111-0.099c-0.044-0.022-0.077-0.055-0.11-0.099c-0.077-0.077-0.143-0.165-0.198-0.264v-0.011
										c-0.044-0.044-0.066-0.077-0.099-0.132c-0.099-0.165-0.187-0.352-0.253-0.55c-0.077-0.198-0.143-0.418-0.198-0.638
										c-0.055-0.242-0.099-0.484-0.143-0.748c-0.033-0.143-0.044-0.297-0.055-0.451c-0.011-0.121-0.022-0.231-0.033-0.363
										c-0.022-0.275-0.033-0.561-0.033-0.858v-16.284H319.785z"/>
								</g>
							</g>
						</g>
						<g id="XMLID_36_" style="opacity:0.6;">
							<g id="XMLID_48_">
								<path id="XMLID_49_" d="M317.586,335.633h2.199c0-2.353,0.693-4.299,1.067-4.805c0.484,0.374,1.1,0.594,1.803,0.594
									c1.034,0,2.056-0.462,2.738-0.858c0.891-0.517,1.88-1.308,2.54-2.232c0.044-0.066,0.099-0.132,0.132-0.198
									c0.396-0.583,0.638-1.232,0.66-1.88l58.069-33.526l1.968-1.144l2.518-1.452c0.517-0.297,0.77-0.704,0.77-1.133v-2.573
									c0,0.506-0.297,0.88-0.77,1.165l-0.033,0.022l-6.664,3.838l-56.156,32.427c-1.045,0.605-1.902,1.364-1.902,1.704v0.594
									c0,0.286-0.187,0.66-0.517,1.045c-0.396,0.506-1.023,1.034-1.715,1.441c-1.243,0.715-2.243,0.748-2.243,0.088v-0.594
									c0-0.341-0.495-0.319-1.122,0.044l-1.111,0.649C318.587,329.552,317.586,332.598,317.586,335.633z"/>
							</g>
							<g id="XMLID_42_">
								<path id="XMLID_47_" d="M319.785,335.633v16.284c0,0.231,0.011,0.462,0.022,0.682l0.055,0.55c0,0.022,0,0.033,0.011,0.055
									c0.198-1.748,1.869-3.31,3.321-4.134c0.649-0.385,1.649-0.836,2.683-0.836c0.77,0,1.462,0.275,1.968,0.726l0.198-0.11
									c0.132-0.077,0.253-0.154,0.385-0.231l56.156-32.427c0,0,1.473-0.847,3.222-1.858c0.297-0.176,0.616-0.352,0.924-0.539
									c0.946-0.55,1.902-1.1,2.716-1.572c0.374-0.275,0.605-0.616,0.605-1.056v0.704v1.869c0,0.363-0.187,0.715-0.561,0.99
									c0,0.011-0.011,0.011-0.022,0.022c-0.319,0.187-0.66,0.374-1.001,0.583c-0.209,0.121-0.418,0.242-0.627,0.363
									c-0.374,0.209-0.737,0.429-1.078,0.627c-0.242,0.143-0.462,0.275-0.671,0.385c-0.176,0.099-0.33,0.198-0.473,0.275
									c-0.506,0.297-0.825,0.484-0.825,0.484l-44.61,25.741l-14.24,8.225c-1.012,0.594-1.836,0.803-1.891,0.495
									c-0.009-0.043-0.011-0.094-0.011-0.105v-0.576c0-0.715-1.001-0.715-2.232,0c-1.21,0.693-1.738,1.55-1.759,2.243v0.704
									c0,0.363-0.143,0.737-0.33,0.836c-0.088,0.055-0.209,0.121-0.33,0.187c-0.198,0.11-0.44,0.253-0.704,0.407
									c-0.264,0.154-0.561,0.33-0.869,0.506c-0.407,0.231-0.781,0.187-1.111-0.099c-0.044-0.022-0.077-0.055-0.11-0.099
									c-0.077-0.077-0.143-0.165-0.198-0.264v-0.011c-0.044-0.044-0.066-0.077-0.099-0.132c-0.099-0.165-0.187-0.352-0.253-0.55
									c-0.077-0.198-0.143-0.418-0.198-0.638c-0.055-0.242-0.099-0.484-0.143-0.748c-0.033-0.143-0.044-0.297-0.055-0.451
									c-0.011-0.121-0.022-0.231-0.033-0.363c-0.022-0.275-0.033-0.561-0.033-0.858v-16.284H319.785z"/>
							</g>
						</g>
					</g>
				</g>
				<path id="XMLID_17678_" style="fill:#263238;" d="M220.25,273.934l93.377,53.913l70.583-40.751c1.056-0.605,1.056-1.594,0-2.199
					l-92.398-53.352l-62.028,35.814h-0.011c-0.605,0.352-1.529,0.891-1.529,0.891c-0.253,0.242-0.374,0.671-0.374,0.814v0.594
					c0,0.66-1.001,1.77-2.232,2.485c-0.066,0.044-0.132,0.066-0.198,0.099l-2.056-1.188l-0.979,0.561
					c-0.044,0.022-0.077,0.033-0.132,0.066l0.011,0.011l-0.726,0.418C221.119,272.395,220.668,272.933,220.25,273.934z"/>
			</g>
			<g id="XMLID_17601_">
				<path id="XMLID_17674_" style="fill:#E0E0E0;" d="M378.955,287.504l-2.81-1.5l2.559-0.612
					C379.225,285.985,379.258,286.702,378.955,287.504z"/>
				<path id="XMLID_17664_" style="opacity:0.5;fill:#E0E0E0;" d="M378.955,287.504l-2.81-1.5l2.559-0.612
					C379.225,285.985,379.258,286.702,378.955,287.504z"/>
				<g id="XMLID_17653_">
					<path id="XMLID_17661_" style="fill:#27DEBF;" d="M304.528,324.986c1.578,0.911,4.136,0.911,5.714,0l64.141-37.034
						l-96.016-60.696l-2.243-1.298l-64.139,42.289c-1.572,0.913-1.572,2.397,0,3.299L304.528,324.986z"/>
					<g>
						<path id="XMLID_17658_" style="fill:#27DEBF;" d="M328.612,249.773l48.457,32.841l-26.09-19.967l14.48-8.36l16.844,9.731
							c0,0,0,15.923,0,17.395c0,1.472-1.65,3.568-2.25,3.223c0,0-1.319,0.27-3.22,1.143c-1.902,0.874-4.649,3.439-4.649,3.439
							l-51.396-34.928L328.612,249.773z"/>
						<path id="XMLID_37_" style="opacity:0.2;" d="M328.612,249.773l48.457,32.841l-26.09-19.967l14.48-8.36l16.844,9.731
							c0,0,0,15.923,0,17.395c0,1.472-1.65,3.568-2.25,3.223c0,0-1.319,0.27-3.22,1.143c-1.902,0.874-4.649,3.439-4.649,3.439
							l-51.396-34.928L328.612,249.773z"/>
					</g>
				</g>
				<path id="XMLID_17650_" style="fill:#FFFFFF;" d="M307.385,303.289v20.077c0.693,0,1.385-0.143,1.902-0.451l7.037-4.057
					l53.594-30.942l0.011-20.737L307.385,303.289z"/>
				<path id="XMLID_17647_" style="fill:#F0F0F0;" d="M213.59,250.992v16.669c0,1.21,0.858,2.694,1.902,3.299l82.964,47.898
					l7.026,4.057c0.517,0.308,1.21,0.451,1.902,0.451v-18.505L213.59,250.992z"/>
				<path id="XMLID_17642_" style="fill:#455A64;" d="M369.918,287.916c0.022-0.726,0.33-1.439,0.803-2.077
					c0.66-0.924,1.649-1.715,2.54-2.232c0.682-0.396,1.704-0.858,2.738-0.858c0.704,0,1.319,0.052,1.803,0.426v-20.541l-7.873,4.545
					L369.918,287.916z"/>
				<path id="XMLID_17638_" style="fill:#F5F5F5;" d="M373.063,283.733c-0.837,0.516-1.73,1.248-2.342,2.105
					c-0.473,0.638-0.781,1.351-0.803,2.077l0.01-20.011h3.134V283.733z"/>
				<g id="XMLID_17602_">
					<g>
						<path id="XMLID_17633_" style="fill:#27DEBF;" d="M278.367,209.164l96.016,55.441c0,0,0,0.572,0,1.286
							c0,0.715,1.001,0.979,2.232,0.264c1.243-0.715,2.243-1.605,2.243-2.837l0.121-1.221l-97.83-56.475l-0.396-0.231
							c-0.099,0.187-0.165,0.396-0.165,0.594v0.594C280.588,207.295,279.598,208.438,278.367,209.164z"/>
						<path id="XMLID_38_" style="opacity:0.2;" d="M278.367,209.164l96.016,55.441c0,0,0,0.572,0,1.286
							c0,0.715,1.001,0.979,2.232,0.264c1.243-0.715,2.243-1.605,2.243-2.837l0.121-1.221l-97.83-56.475l-0.396-0.231
							c-0.099,0.187-0.165,0.396-0.165,0.594v0.594C280.588,207.295,279.598,208.438,278.367,209.164z"/>
					</g>
					<path id="XMLID_17629_" style="fill:#27DEBF;" d="M310.242,301.639l62.719-36.213c0.797-0.418,1.525-0.753,1.832-0.592
						l-0.41-0.229l-96.016-55.441c0,0-0.564-0.323-1.122-0.647c-0.619-0.359-1.973-0.158-3.025,0.449l-62.234,35.935
						c-1.572,0.913-1.572,2.397,0,3.299l92.544,53.44C306.106,302.55,308.664,302.551,310.242,301.639z"/>
					<path id="XMLID_17623_" style="fill:#27DEBF;" d="M280.753,205.393l0.396,0.231l97.83,56.475c0,0,0.066-0.154,0.209-0.264
						c0.088-0.055,0.198-0.11,0.33-0.187l0.704-0.407c0.264-0.154,0.561-0.33,0.869-0.506c0.407-0.231,0.781-0.187,1.111,0.099
						c0.044,0.022,0.077,0.055,0.11,0.099c0.11,0.11,0.209,0.253,0.297,0.407c0.099,0.165,0.187,0.352,0.253,0.55
						c0.077,0.198,0.143,0.418,0.198,0.638c0.055,0.242,0.099,0.484,0.143,0.748c0.033,0.143,0.044,0.297,0.055,0.451
						c0.011,0.121,0.022,0.231,0.033,0.363c0.022,0.275,0.033,0.561,0.033,0.858v-2.749c0-1.517-1.286-3.486-2.859-4.398
						l-92.552-53.44c-1.583-0.913-3.86-1.066-5.091-0.363l-1.166,0.682l-0.044,0.022c-0.077,0.055-0.275,0.165-0.495,0.286
						c0,0-0.011,0-0.011,0.011C280.973,205.074,280.841,205.217,280.753,205.393z"/>
					<g>
						<path id="XMLID_17616_" style="fill:#27DEBF;" d="M310.244,324.983l3.871-2.243l58.069-33.526
							c0.022-0.726,0.319-1.44,0.792-2.078c0.66-0.924,1.649-1.715,2.54-2.232c0.682-0.396,1.704-0.858,2.738-0.858
							c0.704,0,1.319,0.22,1.803,0.594c0.374-0.506,1.067-2.452,1.067-4.805h2.199c0,3.035-1.001,6.081-2.232,6.785l-1.111,0.649
							c-0.627,0.363-1.122,0.385-1.122,0.044v-0.594c0-0.66-1.001-0.627-2.243,0.088c-1.232,0.715-2.232,1.825-2.232,2.485v0.594
							c0,0.341-0.858,1.1-1.902,1.704l-56.156,32.427l-6.081,3.508c0,0-0.011,0-0.011,0.011c-0.792,0.44-1.814,0.671-2.848,0.671
							v-2.54C308.418,325.664,309.452,325.444,310.244,324.983z"/>
						<path id="XMLID_39_" style="opacity:0.4;" d="M310.244,324.983l3.871-2.243l58.069-33.526c0.022-0.726,0.319-1.44,0.792-2.078
							c0.66-0.924,1.649-1.715,2.54-2.232c0.682-0.396,1.704-0.858,2.738-0.858c0.704,0,1.319,0.22,1.803,0.594
							c0.374-0.506,1.067-2.452,1.067-4.805h2.199c0,3.035-1.001,6.081-2.232,6.785l-1.111,0.649
							c-0.627,0.363-1.122,0.385-1.122,0.044v-0.594c0-0.66-1.001-0.627-2.243,0.088c-1.232,0.715-2.232,1.825-2.232,2.485v0.594
							c0,0.341-0.858,1.1-1.902,1.704l-56.156,32.427l-6.081,3.508c0,0-0.011,0-0.011,0.011c-0.792,0.44-1.814,0.671-2.848,0.671
							v-2.54C308.418,325.664,309.452,325.444,310.244,324.983z"/>
					</g>
					<g>
						<path id="XMLID_17613_" style="fill:#27DEBF;" d="M310.222,301.651c0,0,0.011-0.011,0.022-0.011l3.871-2.243l44.61-25.741
							l14.24-8.225c1.012-0.594,1.836-0.803,1.891-0.495c0.011,0.011,0.011,0.022,0.011,0.033v0.649c0,0.715,1.001,0.715,2.232,0
							c1.21-0.693,1.737-1.55,1.759-2.243v-0.704c0-0.363,0.143-0.737,0.33-0.836c0.088-0.055,0.209-0.121,0.33-0.187
							c0.198-0.11,0.44-0.253,0.704-0.407c0.264-0.154,0.561-0.33,0.869-0.506c0.407-0.231,0.781-0.187,1.111,0.099
							c0.044,0.022,0.077,0.055,0.11,0.099c0.077,0.077,0.143,0.165,0.198,0.264c0.044,0.044,0.066,0.088,0.099,0.143
							c0.099,0.165,0.187,0.352,0.253,0.55c0.077,0.198,0.143,0.418,0.198,0.638c0.055,0.242,0.099,0.484,0.143,0.748
							c0.033,0.143,0.044,0.297,0.055,0.451c0.011,0.121,0.022,0.231,0.033,0.363c0.022,0.275,0.033,0.561,0.033,0.858v14.887
							h-2.199v-14.887c0-0.231-0.011-0.462-0.022-0.682l-0.055-0.55c0-0.022,0-0.033-0.011-0.055
							c-0.198,1.748-1.869,3.31-3.321,4.134c-0.649,0.385-1.649,0.836-2.683,0.836c-0.77,0-1.463-0.275-1.968-0.726l-0.198,0.11
							c-0.132,0.077-0.253,0.154-0.385,0.231l-56.156,32.427l-6.081,3.508c0,0-0.011,0-0.011,0.011
							c-0.011,0.011-0.022,0.011-0.044,0.022c-0.781,0.429-1.792,0.649-2.804,0.649v-2.538
							C308.521,302.323,309.424,302.071,310.222,301.651z"/>
						<path id="XMLID_40_" style="opacity:0.4;" d="M310.222,301.651c0,0,0.011-0.011,0.022-0.011l3.871-2.243l44.61-25.741
							l14.24-8.225c1.012-0.594,1.836-0.803,1.891-0.495c0.011,0.011,0.011,0.022,0.011,0.033v0.649c0,0.715,1.001,0.715,2.232,0
							c1.21-0.693,1.737-1.55,1.759-2.243v-0.704c0-0.363,0.143-0.737,0.33-0.836c0.088-0.055,0.209-0.121,0.33-0.187
							c0.198-0.11,0.44-0.253,0.704-0.407c0.264-0.154,0.561-0.33,0.869-0.506c0.407-0.231,0.781-0.187,1.111,0.099
							c0.044,0.022,0.077,0.055,0.11,0.099c0.077,0.077,0.143,0.165,0.198,0.264c0.044,0.044,0.066,0.088,0.099,0.143
							c0.099,0.165,0.187,0.352,0.253,0.55c0.077,0.198,0.143,0.418,0.198,0.638c0.055,0.242,0.099,0.484,0.143,0.748
							c0.033,0.143,0.044,0.297,0.055,0.451c0.011,0.121,0.022,0.231,0.033,0.363c0.022,0.275,0.033,0.561,0.033,0.858v14.887
							h-2.199v-14.887c0-0.231-0.011-0.462-0.022-0.682l-0.055-0.55c0-0.022,0-0.033-0.011-0.055
							c-0.198,1.748-1.869,3.31-3.321,4.134c-0.649,0.385-1.649,0.836-2.683,0.836c-0.77,0-1.463-0.275-1.968-0.726l-0.198,0.11
							c-0.132,0.077-0.253,0.154-0.385,0.231l-56.156,32.427l-6.081,3.508c0,0-0.011,0-0.011,0.011
							c-0.011,0.011-0.022,0.011-0.044,0.022c-0.781,0.429-1.792,0.649-2.804,0.649v-2.538
							C308.521,302.323,309.424,302.071,310.222,301.651z"/>
					</g>
					<path id="XMLID_17543_" style="display:none;opacity:0.5;fill:#27DEBF;" d="M310.222,301.651c0,0,0.011-0.011,0.022-0.011
						l3.871-2.243l44.61-25.741l14.24-8.225c1.012-0.594,1.836-0.803,1.891-0.495c0.011,0.011,0.011,0.022,0.011,0.033v0.649
						c0,0.715,1.001,0.715,2.232,0c1.21-0.693,1.737-1.55,1.759-2.243v-0.704c0-0.363,0.143-0.737,0.33-0.836
						c0.088-0.055,0.209-0.121,0.33-0.187c0.198-0.11,0.44-0.253,0.704-0.407c0.264-0.154,0.561-0.33,0.869-0.506
						c0.407-0.231,0.781-0.187,1.111,0.099c0.044,0.022,0.077,0.055,0.11,0.099c0.077,0.077,0.143,0.165,0.198,0.264
						c0.044,0.044,0.066,0.088,0.099,0.143c0.099,0.165,0.187,0.352,0.253,0.55c0.077,0.198,0.143,0.418,0.198,0.638
						c0.055,0.242,0.099,0.484,0.143,0.748c0.033,0.143,0.044,0.297,0.055,0.451c0.011,0.121,0.022,0.231,0.033,0.363
						c0.022,0.275,0.033,0.561,0.033,0.858v14.887h-2.199v-14.887c0-0.231-0.011-0.462-0.022-0.682l-0.055-0.55
						c0-0.022,0-0.033-0.011-0.055c-0.198,1.748-1.869,3.31-3.321,4.134c-0.649,0.385-1.649,0.836-2.683,0.836
						c-0.77,0-1.463-0.275-1.968-0.726l-0.198,0.11c-0.132,0.077-0.253,0.154-0.385,0.231l-56.156,32.427l-6.081,3.508
						c0,0-0.011,0-0.011,0.011c-0.011,0.011-0.022,0.011-0.044,0.022c-0.781,0.429-1.792,0.649-2.804,0.649v-2.538
						C308.521,302.323,309.424,302.071,310.222,301.651z"/>
					<g>
						<path id="XMLID_17606_" style="fill:#27DEBF;" d="M210.808,246.519v2.584c0,0.594,0.374,1.177,1.133,1.627l0.044,0.022
							l86.471,49.921l6.07,3.508v0.011c0,0,0.011-0.011,0.011,0c0.792,0.44,1.814,0.671,2.848,0.671v-2.54
							c-1.034,0-2.067-0.22-2.859-0.682l-3.86-2.232h-0.011l-88.671-51.208C211.145,247.713,210.811,247.143,210.808,246.519z"/>
						<path id="XMLID_43_" style="opacity:0.2;" d="M210.808,246.519v2.584c0,0.594,0.374,1.177,1.133,1.627l0.044,0.022
							l86.471,49.921l6.07,3.508v0.011c0,0,0.011-0.011,0.011,0c0.792,0.44,1.814,0.671,2.848,0.671v-2.54
							c-1.034,0-2.067-0.22-2.859-0.682l-3.86-2.232h-0.011l-88.671-51.208C211.145,247.713,210.811,247.143,210.808,246.519z"/>
					</g>
					<g>
						<path id="XMLID_17603_" style="fill:#27DEBF;" d="M210.808,269.86v2.584c0,0.594,0.374,1.177,1.133,1.627l0.044,0.022
							l86.471,49.921l6.07,3.508v0.011c0,0,0.011-0.011,0.011,0c0.792,0.44,1.814,0.671,2.848,0.671v-2.54
							c-1.034,0-2.067-0.22-2.859-0.682l-3.86-2.232h-0.011l-88.671-51.208C211.145,271.055,210.811,270.484,210.808,269.86z"/>
						<path id="XMLID_44_" style="opacity:0.2;" d="M210.808,269.86v2.584c0,0.594,0.374,1.177,1.133,1.627l0.044,0.022
							l86.471,49.921l6.07,3.508v0.011c0,0,0.011-0.011,0.011,0c0.792,0.44,1.814,0.671,2.848,0.671v-2.54
							c-1.034,0-2.067-0.22-2.859-0.682l-3.86-2.232h-0.011l-88.671-51.208C211.145,271.055,210.811,270.484,210.808,269.86z"/>
					</g>
				</g>
			</g>
		</g>
		<g id="XMLID_17521_">
			<g id="XMLID_17789_">
				<polygon id="XMLID_971_" style="fill:#FFA8A7;" points="250.747,179.128 241.574,195.491 254.952,202.61 264.688,188.114 				
					"/>
				<path id="XMLID_970_" style="fill:#27DEBF;" d="M283.322,142.282c-5.1-0.871-12.825-1.103-17.846,7.511
					c-5.022,8.614-15.837,29.859-15.837,29.859s6.323,8.182,15.468,9.668l14.951-23.722L283.322,142.282z"/>
				<rect id="XMLID_17822_" x="259.854" y="342.639" style="fill:#FFA8A7;" width="11.419" height="19.549"/>
				<polygon id="XMLID_17821_" style="fill:#FFA8A7;" points="238.205,337.877 226.792,338.27 226.22,317.582 237.633,317.19 				
					"/>
				<path id="XMLID_17803_" style="fill:#263238;" d="M259.854,356.551v-1.633c-1.093,0.476-3.631,10.162-8.162,14.294
					c-3.602,3.285-8.516,7.08-9.765,10.743c-1.3,3.809,6.843,5.912,10.208,5.316c3.91-0.692,10.687-3.446,12.389-5.998
					c1.701-2.552,2.498-6.317,3.88-8.188c1.382-1.87,4.569-3.959,5.316-6.124c0.411-1.189-0.077-3.794-0.654-5.995
					c-0.529-2.019-1.103-4.239-1.792-4.05c-0.002,0.246,0,1.245,0,1.245c-0.829,0.919-3.123,1.831-5.709,1.93
					C263.893,358.157,259.84,357.825,259.854,356.551z"/>
				<path id="XMLID_17802_" style="fill:#263238;" d="M226.671,334.749c-0.593,0.021-1.076,0.857-2.383,2.273
					c-1.581,1.711-4.166,3.556-6.717,4.833c-4.276,2.14-12.589,5.433-16.352,7.128c-2.351,1.059-2.24,3.898,0.189,5.514
					c2.43,1.616,8.296,2.78,15.339,1.205c3.837-0.858,8.832-4.402,11.993-4.211c3.161,0.191,9.077,0.146,11.411-1.463
					c2.334-1.608,1.4-5.044,0.74-7.996c-0.72-3.222-1.75-8.151-2.817-7.931l0.035,1.013c-1.373,2.079-8.362,2.928-11.378,1.398
					L226.671,334.749z"/>
				<path id="XMLID_17546_" style="fill:#455A64;" d="M317.271,223.75c2.502,17.647-0.869,21.035-17.642,37.939
					c-9.019,9.089-23.554,22.424-23.554,22.424s0.21,5.635,0.329,18.274c0.104,11.131-4.549,47.355-4.549,47.355
					s-7.576,3.187-12.778-0.121c0,0-2.349-26.949-3.616-40.987c-1.72-19.041-2.622-28.579-1.649-32.677
					c0.857-3.611,17.93-25.162,21.868-31.211l-36.277,21.074c0,0,1.237,9.229,1.056,16.109c-0.398,15.11-2.253,45.288-2.253,45.288
					s-8.307,3.717-12.427,0.513c0,0-10.452-65.999-10.452-71.416c0-8.231,35.746-32.8,42.511-38.522
					c3.861-3.265,8.167-6.752,8.167-6.752L317.271,223.75z"/>
				<path id="XMLID_17545_" style="fill:#37474F;" d="M275.68,244.746c0,0-5.82-4.302-8.289-11.823c0,0,0.311,5.068,1.292,8.993
					c0.981,3.924-29.279,23.905-29.279,23.905L275.68,244.746z"/>
				
					<ellipse id="XMLID_17826_" transform="matrix(0.2282 -0.9736 0.9736 0.2282 111.9669 355.2659)" style="fill:#263238;" cx="280.057" cy="107.013" rx="16.212" ry="16.212"/>
				<path id="XMLID_17819_" style="fill:#263238;" d="M314.12,152.101c0,0,4.009,3.277,4.009,13.637v22.374l-0.573,37.619
					c-8.008,8.712-44.026,5.408-52.908-13.588c0,0,0.07-39.717,0.07-48.612c0-8.895,4.957-20.457,18.603-21.25l17.618,4.099
					L314.12,152.101z"/>
				<g id="XMLID_17804_">
					<g id="XMLID_17812_">
						<path id="XMLID_17818_" style="fill:#263238;" d="M308.081,118.54c0,0-2.627,12.342-3.68,14.37
							c-1.054,2.028-3.23,2.604-3.23,2.604l0.184-8.682L308.081,118.54z"/>
						<path id="XMLID_17817_" style="fill:#263238;" d="M304.784,100.859c0,0,2.829-0.485,5.035,1.77
							c2.162,2.211,0.955,9.132-1.738,15.911l-4.948,0.568L304.784,100.859z"/>
						<path id="XMLID_17816_" style="fill:#FFA8A7;" d="M301.648,119.112c0.992,0.593,2.408-1.313,3.632-2.594
							c1.223-1.28,5.218-3.03,7.211,1.169c2.03,4.279-1.759,9.933-4.904,10.92c-5.42,1.701-6.233-1.775-6.233-1.775l-0.414,19.549
							c-4.671,5.218-20.644,3.973-17.633-0.517l0.015-5.95c0,0-4.911,0.745-7.306,0.375c-3.986-0.616-6.493-3.761-7.702-8.075
							c-1.942-6.93-2.679-12.525-1.032-26.153c1.806-14.938,19.18-15.093,28.562-9.188
							C305.226,102.778,301.648,119.112,301.648,119.112z"/>
						<g id="XMLID_17790_">
							<g id="XMLID_17794_">
								<path style="fill:#263238;" d="M287.844,122.531h-0.854c-3.049,0-5.529-2.48-5.529-5.53c0-3.049,2.48-5.529,5.529-5.529
									h0.854c3.049,0,5.53,2.48,5.53,5.529C293.374,120.05,290.894,122.531,287.844,122.531z M286.99,112.404
									c-2.534,0-4.597,2.062-4.597,4.597c0,2.535,2.063,4.597,4.597,4.597h0.854c2.535,0,4.598-2.062,4.598-4.597
									c0-2.535-2.063-4.597-4.598-4.597H286.99z"/>
							</g>
							<g id="XMLID_17566_">
								<path style="fill:#263238;" d="M270.984,122.531h-0.854c-3.049,0-5.529-2.48-5.529-5.53c0-3.049,2.48-5.529,5.529-5.529
									h0.854c3.049,0,5.53,2.48,5.53,5.529C276.514,120.05,274.033,122.531,270.984,122.531z M270.13,112.404
									c-2.534,0-4.596,2.062-4.596,4.597c0,2.535,2.063,4.597,4.596,4.597h0.854c2.535,0,4.597-2.062,4.597-4.597
									c0-2.535-2.062-4.597-4.597-4.597H270.13z"/>
							</g>
							<g id="XMLID_17792_">
								<path style="fill:#263238;" d="M281.529,115.91c-0.512-0.84-1.658-1.424-2.921-1.488c-1.088-0.056-2.048,0.304-2.549,0.962
									l-0.743-0.564c0.697-0.918,1.912-1.403,3.339-1.329c1.586,0.081,2.992,0.822,3.67,1.934L281.529,115.91z"/>
							</g>
							<g id="XMLID_17791_">
								<rect x="292.862" y="115.866" style="fill:#263238;" width="11.764" height="0.932"/>
							</g>
						</g>
						<path id="XMLID_17815_" style="fill:#263238;" d="M301.648,120.781c0.499,0.01,2.397-3.139,3.632-4.263
							c1.711-1.557-0.496-15.659-0.496-15.659s1.645-3.505-1.651-7.133c-2.345-2.58-6.263-2.867-12.953-3.918
							c-3.51-0.552-8.831-1.534-12.336-2.186c-4.186-0.778-7.65-1.602-10.605,0.966c-2.3,1.999-3.29,5.531-2.052,8.315
							c0.29,0.653,0.711,1.243,1.189,1.774c0.847,0.942,1.806,1.684,3.012,2.075c0,0,1.825,1.619,8.174,2.392
							c6.349,0.773,16.238-0.149,17.589-0.333c1.841-0.252,2.234,1.532,3.227,6.407
							C299.248,113.497,299.971,120.749,301.648,120.781z"/>
						<path id="XMLID_17814_" style="fill:#263238;" d="M304.774,101.955l5.999-3.221c-0.851-1.719-2.885-2.392-4.541-1.502
							C304.575,98.122,303.922,100.236,304.774,101.955z"/>
						<path id="XMLID_17813_" style="fill:#F28F8F;" d="M283.322,139.915c0,0,8.897-1.792,12.008-3.446
							c2.082-1.107,3.797-3.025,4.3-4.254c0,0-0.583,2.64-2.443,5.018c-2.275,2.908-13.865,5.05-13.865,5.05L283.322,139.915z"/>
					</g>
					<g id="XMLID_17805_">
						<path id="XMLID_17811_" style="fill:#263238;" d="M285.46,116.887c0,1.023,0.798,1.85,1.783,1.848
							c0.985-0.003,1.783-0.834,1.783-1.857c0-1.023-0.798-1.85-1.783-1.848C286.258,115.033,285.46,115.865,285.46,116.887z"/>
						<path id="XMLID_17810_" style="fill:#263238;" d="M288.323,109.506l3.814,2.105c0.563-1.096,0.164-2.456-0.889-3.037
							C290.195,107.993,288.886,108.41,288.323,109.506z"/>
						<path id="XMLID_17809_" style="fill:#F28F8F;" d="M284.127,129.204l-4.07,1.527c0.403,1.167,1.641,1.771,2.765,1.349
							C283.946,131.658,284.53,130.371,284.127,129.204z"/>
						<path id="XMLID_17808_" style="fill:#263238;" d="M269.104,111.075l3.478-2.679c-0.71-0.996-2.063-1.203-3.024-0.464
							C268.598,108.672,268.394,110.079,269.104,111.075z"/>
						<path id="XMLID_17807_" style="fill:#263238;" d="M270.631,116.38c0,1.023,0.798,1.85,1.783,1.847
							c0.984-0.003,1.783-0.834,1.783-1.857c0-1.023-0.798-1.85-1.783-1.848C271.43,114.525,270.631,115.357,270.631,116.38z"/>
						<polygon id="XMLID_17806_" style="fill:#F28F8F;" points="279.443,114.949 279.236,125.761 272.845,124.353 						"/>
					</g>
				</g>
			</g>
			<g id="XMLID_17519_">
				<g id="XMLID_17710_">
					<g id="XMLID_17711_">
						<g>
							<path id="XMLID_17734_" style="fill:#27DEBF;" d="M268.516,204.817v1.031c0,1.04-0.556,2.004-1.453,2.524l-27.772,15.982
								c-0.449,0.26-0.953,0.387-1.458,0.387c-0.5,0-1.005-0.127-1.453-0.387l-50.946-29.412c-0.902-0.52-1.458-1.484-1.458-2.524
								v-0.709l53.858,31.095L268.516,204.817z"/>
							<path id="XMLID_25_" style="opacity:0.6;" d="M268.516,204.817v1.031c0,1.04-0.556,2.004-1.453,2.524l-27.772,15.982
								c-0.449,0.26-0.953,0.387-1.458,0.387c-0.5,0-1.005-0.127-1.453-0.387l-50.946-29.412c-0.902-0.52-1.458-1.484-1.458-2.524
								v-0.709l53.858,31.095L268.516,204.817z"/>
						</g>
						<g>
							<path id="XMLID_17730_" style="fill:#27DEBF;" d="M183.974,191.708l30.208-17.439c0.537-0.31,1.199-0.31,1.736,0
								l52.405,30.26c0.257,0.149,0.257,0.52,0,0.668l-30.491,17.607L183.974,191.708z"/>
							<path id="XMLID_26_" style="opacity:0.5;" d="M183.974,191.708l30.208-17.439c0.537-0.31,1.199-0.31,1.736,0l52.405,30.26
								c0.257,0.149,0.257,0.52,0,0.668l-30.491,17.607L183.974,191.708z"/>
						</g>
						<polygon id="XMLID_17729_" style="fill:#263238;" points="238.11,220.24 254.403,210.843 206.763,183.337 190.385,192.685 
													"/>
						<polygon id="XMLID_17725_" style="fill:#263238;" points="246.118,194.1 245.818,194.273 237.832,198.883 223.631,190.683 
							223.335,190.515 231.621,185.732 						"/>
						<polygon id="XMLID_17722_" style="fill:#263238;" points="245.818,194.273 237.832,198.883 223.631,190.683 231.621,186.073 
													"/>
						<path id="XMLID_17721_" style="opacity:0.7;" d="M237.832,222.803v1.938c-0.5,0-1.005-0.127-1.453-0.387l-50.946-29.412
							c-0.902-0.52-1.458-1.484-1.458-2.524v-0.709L237.832,222.803z"/>
						<g>
							<path id="XMLID_17718_" style="fill:#27DEBF;" d="M237.011,223.233c-0.964,0.372-2.06,0.301-2.973-0.23l-50.722-29.285
								c-0.892-0.515-1.504-1.397-1.678-2.412l-5.553-33.114c-0.031-0.188-0.046-0.377-0.046-0.566c0-0.923,0.367-1.805,1.02-2.453
								l52.711,30.437c0.658,0.383,1.112,1.035,1.239,1.785L237.011,223.233z"/>
							<path id="XMLID_27_" style="opacity:0.5;" d="M237.011,223.233c-0.964,0.372-2.06,0.301-2.973-0.23l-50.722-29.285
								c-0.892-0.515-1.504-1.397-1.678-2.412l-5.553-33.114c-0.031-0.188-0.046-0.377-0.046-0.566c0-0.923,0.367-1.805,1.02-2.453
								l52.711,30.437c0.658,0.383,1.112,1.035,1.239,1.785L237.011,223.233z"/>
						</g>
						<path id="XMLID_17714_" style="fill:#E0E0E0;" d="M237.832,222.805l-0.347,0.199c-0.153,0.087-0.311,0.163-0.474,0.23
							l-6.002-35.838c-0.127-0.75-0.581-1.402-1.239-1.785l-52.711-30.437c0.204-0.204,0.444-0.382,0.704-0.535l52.818,30.493
							c0.658,0.382,1.112,1.035,1.239,1.785L237.832,222.805z"/>
						<path id="XMLID_17713_" style="fill:#27DEBF;" d="M208.444,192.664c-0.372-2.217-2.661-5.162-5.112-6.577
							c-2.452-1.415-4.138-0.765-3.766,1.452c0.372,2.217,2.661,5.162,5.113,6.577C207.13,195.531,208.816,194.881,208.444,192.664z
							"/>
					</g>
				</g>
				<path id="XMLID_974_" style="fill:#FFA8A7;" d="M218.834,214.219c-0.002-0.039-0.087-1.82-0.854-4.248
					c-0.775-2.455-3.101-11.887-8.398-13.308c-0.628-0.169-1.303-0.234-1.938-0.061c-1.473,0.401-2.145,1.928-2.433,3.296
					c-0.423,2.008-0.148,4.077-0.034,6.102c-0.812-0.929-1.769-1.729-2.824-2.367c-1.003-0.606-2.043-1.238-3.251-1.162
					c-0.326,0.02-0.693,0.111-0.85,0.398c-0.194,0.356,0.043,0.789,0.301,1.101c0.53,0.642,1.178,1.179,1.703,1.825
					c0.439,0.541,0.785,1.149,1.154,1.74c0.671,1.076,1.422,2.099,2.171,3.122c1.53,2.086,3.171,4.08,5.338,5.524
					c1.342,0.894,4.544,2.755,8.002,3.187c3.866,0.483,7.628,0.425,10.071-0.432L218.834,214.219z"/>
			</g>
			<g id="XMLID_17520_">
				<path id="XMLID_17688_" style="fill:#FFA8A7;" d="M313.063,152.387c-3.576-1.834-8.793,5.453-7.132,13.073
					c1.661,7.62,9.84,34.405,9.84,34.405s-36.952,3.308-40.09,3.691c-2.188,0.267-4.639-0.845-6.666-1.517
					c-2.766-0.917-5.548-1.556-8.271-2.562c-0.488-0.18-0.997-0.364-1.515-0.314c-0.518,0.05-1.046,0.408-1.109,0.924
					c-0.038,0.309,0.091,0.612,0.228,0.891c0.868,1.771,2.193,3.316,3.811,4.443c0.753,0.524,1.586,0.965,2.243,1.616
					c0.435,0.431,1.378,1.618,1.034,2.271l-14.686,8.451c0,0,3.386,2.942,15.624-0.488c8.453-2.369,12.864-4.572,12.864-4.572
					s43.546,1.811,51.409-0.576c2.78-0.844,3.786-2.813,1.907-11.778c-2.182-10.413-8.35-29.35-9.754-34.317
					C319.729,155.174,318.976,155.42,313.063,152.387z"/>
				<path id="XMLID_30_" style="fill:#27DEBF;" d="M311.222,150.843c0,0,5.895,1.655,8.435,4.977
					c2.45,3.203,12.381,35.668,12.381,35.668s-7.619,7.046-18.657,5.012c0,0-7.885-22.354-8.722-28.321
					C303.132,158.924,307.651,151.643,311.222,150.843z"/>
			</g>
			<g id="XMLID_17565_">
				<path id="XMLID_17579_" style="fill:#27DEBF;" d="M279.377,172.517c-0.474-2.499,1.088-3.845,3.489-3.006
					c2.401,0.839,4.733,3.544,5.207,6.044C288.547,178.053,279.851,175.016,279.377,172.517z"/>
				<path id="XMLID_17568_" style="fill:#27DEBF;" d="M295.87,180.305l-7.095-4.506c0.365,1.923-2.226,1.654-4.556,0.841
					c-2.329-0.814-5.18-2.446-5.544-4.368l-6.183-0.079c-0.566-0.007-0.579,0.736-0.029,1.351c1.53,1.71,5.084,4.733,12.563,7.345
					c7.489,2.616,10.357,1.805,11.433,0.988C296.842,181.585,296.521,180.718,295.87,180.305z"/>
			</g>
		</g>
	</g>
</g>
</svg>
