<?xml version="1.0" encoding="utf-8"?>
<!-- Generator: Adobe Illustrator 27.5.0, SVG Export Plug-In . SVG Version: 6.00 Build 0)  -->
<svg version="1.1" xmlns="http://www.w3.org/2000/svg" xmlns:xlink="http://www.w3.org/1999/xlink" x="0px" y="0px"
	 viewBox="0 0 500 500" style="enable-background:new 0 0 500 500;" xml:space="preserve">
<g id="Background_Complete">
	<g>
		<rect y="382.398" style="fill:#EBEBEB;" width="500" height="0.25"/>
		<rect x="416.779" y="398.494" style="fill:#EBEBEB;" width="33.122" height="0.25"/>
		<rect x="322.527" y="401.208" style="fill:#EBEBEB;" width="8.693" height="0.25"/>
		<rect x="396.586" y="389.208" style="fill:#EBEBEB;" width="19.192" height="0.25"/>
		<rect x="52.459" y="390.888" style="fill:#EBEBEB;" width="43.193" height="0.25"/>
		<rect x="104.556" y="390.888" style="fill:#EBEBEB;" width="6.333" height="0.25"/>
		<rect x="131.471" y="395.111" style="fill:#EBEBEB;" width="93.676" height="0.25"/>
		<path style="fill:#EBEBEB;" d="M237.014,337.8H43.915c-3.147,0-5.708-2.561-5.708-5.708V60.66c0-3.147,2.561-5.708,5.708-5.708
			h193.099c3.146,0,5.707,2.561,5.707,5.708v271.432C242.721,335.239,240.16,337.8,237.014,337.8z M43.915,55.203
			c-3.01,0-5.458,2.448-5.458,5.458v271.432c0,3.01,2.448,5.458,5.458,5.458h193.099c3.009,0,5.457-2.448,5.457-5.458V60.66
			c0-3.009-2.448-5.458-5.457-5.458H43.915z"/>
		<path style="fill:#EBEBEB;" d="M453.31,337.8H260.212c-3.147,0-5.707-2.561-5.707-5.708V60.66c0-3.147,2.561-5.708,5.707-5.708
			H453.31c3.148,0,5.708,2.561,5.708,5.708v271.432C459.019,335.239,456.458,337.8,453.31,337.8z M260.212,55.203
			c-3.009,0-5.457,2.448-5.457,5.458v271.432c0,3.01,2.448,5.458,5.457,5.458H453.31c3.01,0,5.458-2.448,5.458-5.458V60.66
			c0-3.009-2.448-5.458-5.458-5.458H260.212z"/>
	</g>
	<g>
		<rect x="101.584" y="168.76" style="fill:#F0F0F0;" width="146.217" height="214.374"/>
		<g>
			<rect x="106.752" y="175.508" style="fill:#E0E0E0;" width="135.88" height="39.592"/>
			<rect x="106.752" y="181.918" style="fill:#EBEBEB;" width="7.719" height="33.183"/>
			<rect x="144.076" y="181.918" style="fill:#EBEBEB;" width="7.719" height="33.183"/>
			
				<rect x="189.321" y="181.503" transform="matrix(0.9855 -0.1698 0.1698 0.9855 -30.8381 35.6882)" style="fill:#EBEBEB;" width="7.719" height="33.183"/>
			<rect x="116.316" y="186.291" style="fill:#EBEBEB;" width="7.719" height="28.81"/>
			<rect x="134.058" y="186.291" style="fill:#EBEBEB;" width="7.719" height="28.81"/>
			<rect x="178.841" y="186.291" style="fill:#EBEBEB;" width="7.719" height="28.81"/>
			
				<rect x="157.431" y="185.796" transform="matrix(0.9762 -0.2169 0.2169 0.9762 -39.5852 39.7513)" style="fill:#EBEBEB;" width="7.719" height="28.81"/>
			<rect x="126.85" y="180.27" style="fill:#EBEBEB;" width="3.859" height="34.83"/>
			<rect x="172.762" y="180.27" style="fill:#EBEBEB;" width="3.859" height="34.83"/>
		</g>
		<g>
			
				<rect x="106.752" y="221.37" transform="matrix(-1 -1.224647e-16 1.224647e-16 -1 349.384 482.3322)" style="fill:#E0E0E0;" width="135.88" height="39.592"/>
			
				<rect x="234.913" y="227.779" transform="matrix(-1 -1.224647e-16 1.224647e-16 -1 477.5452 488.7418)" style="fill:#EBEBEB;" width="7.719" height="33.183"/>
			
				<rect x="197.589" y="227.779" transform="matrix(-1 -1.224647e-16 1.224647e-16 -1 402.8978 488.7418)" style="fill:#EBEBEB;" width="7.719" height="33.183"/>
			
				<rect x="152.344" y="227.365" transform="matrix(-0.9855 -0.1698 0.1698 -0.9855 268.7062 510.8972)" style="fill:#EBEBEB;" width="7.719" height="33.183"/>
			
				<rect x="225.349" y="232.152" transform="matrix(-1 -1.224647e-16 1.224647e-16 -1 458.4166 493.1146)" style="fill:#EBEBEB;" width="7.719" height="28.81"/>
			
				<rect x="207.607" y="232.152" transform="matrix(-1 -1.224647e-16 1.224647e-16 -1 422.9328 493.1146)" style="fill:#EBEBEB;" width="7.719" height="28.81"/>
			
				<rect x="162.825" y="232.152" transform="matrix(-1 -1.224647e-16 1.224647e-16 -1 333.3682 493.1146)" style="fill:#EBEBEB;" width="7.719" height="28.81"/>
			
				<rect x="184.235" y="231.658" transform="matrix(-0.9762 -0.2169 0.2169 -0.9762 318.3399 527.0657)" style="fill:#EBEBEB;" width="7.719" height="28.81"/>
			
				<rect x="218.674" y="226.132" transform="matrix(-1 -1.224647e-16 1.224647e-16 -1 441.2079 487.0942)" style="fill:#EBEBEB;" width="3.859" height="34.83"/>
			
				<rect x="172.762" y="226.132" transform="matrix(-1 -1.224647e-16 1.224647e-16 -1 349.384 487.0942)" style="fill:#EBEBEB;" width="3.859" height="34.83"/>
			<rect x="106.752" y="227.779" style="fill:#EBEBEB;" width="7.719" height="33.183"/>
			<rect x="116.316" y="232.152" style="fill:#EBEBEB;" width="7.719" height="28.81"/>
			<rect x="134.058" y="232.152" style="fill:#EBEBEB;" width="7.719" height="28.81"/>
			<rect x="126.85" y="226.132" style="fill:#EBEBEB;" width="3.859" height="34.83"/>
		</g>
		<g>
			<rect x="106.752" y="267.232" style="fill:#E0E0E0;" width="135.88" height="39.592"/>
			<g>
				<rect x="184.743" y="273.641" style="fill:#EBEBEB;" width="7.719" height="33.183"/>
				
					<rect x="229.988" y="273.227" transform="matrix(0.9855 -0.1698 0.1698 0.9855 -45.8258 43.9278)" style="fill:#EBEBEB;" width="7.719" height="33.183"/>
				<rect x="156.983" y="278.014" style="fill:#EBEBEB;" width="7.719" height="28.81"/>
				<rect x="174.725" y="278.014" style="fill:#EBEBEB;" width="7.719" height="28.81"/>
				<rect x="219.507" y="278.014" style="fill:#EBEBEB;" width="7.719" height="28.81"/>
				
					<rect x="198.098" y="277.52" transform="matrix(0.9762 -0.2169 0.2169 0.9762 -58.5131 50.7567)" style="fill:#EBEBEB;" width="7.719" height="28.81"/>
				<rect x="167.517" y="271.994" style="fill:#EBEBEB;" width="3.859" height="34.83"/>
				<rect x="213.429" y="271.994" style="fill:#EBEBEB;" width="3.859" height="34.83"/>
				
					<rect x="141.185" y="273.227" transform="matrix(0.9855 -0.1698 0.1698 0.9855 -47.1159 28.8453)" style="fill:#EBEBEB;" width="7.719" height="33.183"/>
				<rect x="130.704" y="278.014" style="fill:#EBEBEB;" width="7.719" height="28.81"/>
				
					<rect x="109.294" y="277.52" transform="matrix(0.9762 -0.2169 0.2169 0.9762 -60.6274 31.4944)" style="fill:#EBEBEB;" width="7.719" height="28.81"/>
				<rect x="124.626" y="271.994" style="fill:#EBEBEB;" width="3.859" height="34.83"/>
			</g>
		</g>
		
			<rect x="76.358" y="168.76" transform="matrix(-1 -1.224647e-16 1.224647e-16 -1 177.9421 552.4555)" style="fill:#E0E0E0;" width="25.225" height="214.935"/>
	</g>
	<g>
		<rect x="309.145" y="113.961" style="fill:#EBEBEB;" width="91.948" height="207.136"/>
		
			<rect x="256.615" y="174.411" transform="matrix(-1.836970e-16 1 -1 -1.836970e-16 573.2143 -139.3813)" style="fill:#FAFAFA;" width="199.366" height="85.011"/>
		<rect x="354.142" y="116.848" style="fill:#F5F5F5;" width="1.954" height="202.306"/>
		<rect x="307.023" y="111.265" style="fill:#E0E0E0;" width="96.192" height="9.748"/>
		<g>
			<rect x="307.023" y="122.093" style="fill:#F5F5F5;" width="96.192" height="1.155"/>
			<rect x="307.023" y="124.716" style="fill:#F5F5F5;" width="96.192" height="1.155"/>
			<rect x="307.023" y="127.338" style="fill:#F5F5F5;" width="96.192" height="1.155"/>
			<rect x="307.023" y="129.961" style="fill:#F5F5F5;" width="96.192" height="1.155"/>
			<rect x="307.023" y="132.583" style="fill:#F5F5F5;" width="96.192" height="1.155"/>
			<rect x="307.023" y="135.206" style="fill:#F5F5F5;" width="96.192" height="1.155"/>
			<rect x="307.023" y="137.828" style="fill:#F5F5F5;" width="96.192" height="1.155"/>
			<rect x="307.023" y="140.45" style="fill:#F5F5F5;" width="96.192" height="1.155"/>
			<rect x="307.023" y="143.073" style="fill:#F5F5F5;" width="96.192" height="1.155"/>
			<rect x="307.023" y="145.695" style="fill:#F5F5F5;" width="96.192" height="1.155"/>
			<rect x="307.023" y="148.318" style="fill:#F5F5F5;" width="96.192" height="1.155"/>
			<rect x="307.023" y="150.94" style="fill:#F5F5F5;" width="96.192" height="1.155"/>
			<rect x="307.023" y="153.562" style="fill:#F5F5F5;" width="96.192" height="1.155"/>
			<rect x="307.023" y="156.185" style="fill:#F5F5F5;" width="96.192" height="1.155"/>
			<rect x="307.023" y="158.807" style="fill:#F5F5F5;" width="96.192" height="1.155"/>
			<rect x="307.023" y="161.429" style="fill:#F5F5F5;" width="96.192" height="1.155"/>
			<rect x="307.023" y="164.052" style="fill:#F5F5F5;" width="96.192" height="1.155"/>
			<rect x="307.023" y="166.674" style="fill:#F5F5F5;" width="96.192" height="1.155"/>
		</g>
	</g>
	<g>
		<circle style="fill:#E0E0E0;" cx="207.467" cy="114.044" r="16.304"/>
		<circle style="fill:#F0F0F0;" cx="207.467" cy="114.044" r="13.863"/>
		<g>
			<polyline style="fill:#F0F0F0;" points="208.121,104.534 208.121,114.225 214.543,110.591 			"/>
			<path style="fill:#E0E0E0;" d="M208.121,115.225c-0.174,0-0.348-0.045-0.504-0.136c-0.307-0.179-0.496-0.508-0.496-0.864v-9.691
				c0-0.552,0.448-1,1-1c0.552,0,1,0.448,1,1v7.976l4.929-2.789c0.481-0.273,1.091-0.103,1.363,0.377
				c0.272,0.481,0.103,1.091-0.378,1.363l-6.422,3.634C208.461,115.182,208.291,115.225,208.121,115.225z"/>
		</g>
	</g>
</g>
<g id="Background_Simple" style="display:none;">
	<g style="display:inline;">
		<path style="fill:#407BFF;" d="M85.4,120.73c27.919-59.449,127.059-51.062,165.317-9.255
			c38.258,41.806,50.696,68.599,85.208,52.983c34.512-15.616,78.518-11.44,81.043,38.164s-37.913,108.263-102.09,125.615
			c-64.177,17.352-64.161,78.759-149.1,66.368c-46.31-6.756-47.365-56.86-40.825-98.301S53.022,189.673,85.4,120.73z"/>
		<path style="opacity:0.9;fill:#FFFFFF;" d="M85.4,120.73c27.919-59.449,127.059-51.062,165.317-9.255
			c38.258,41.806,50.696,68.599,85.208,52.983c34.512-15.616,78.518-11.44,81.043,38.164s-37.913,108.263-102.09,125.615
			c-64.177,17.352-64.161,78.759-149.1,66.368c-46.31-6.756-47.365-56.86-40.825-98.301S53.022,189.673,85.4,120.73z"/>
	</g>
</g>
<g id="Shadow_1_">
	<ellipse id="_x3C_Path_x3E__359_" style="fill:#F5F5F5;" cx="250" cy="416.238" rx="193.889" ry="11.323"/>
</g>
<g id="Speech_bubble">
	<g>
		<g>
			<g>
				<path style="fill:#407BFF;" d="M281.042,207.618c0,0-1.178,8.192-11.801,12.259c0,0,5.9-6.13,5.684-12.035L281.042,207.618z"/>
				<path style="opacity:0.7;fill:#FFFFFF;" d="M281.042,207.618c0,0-1.178,8.192-11.801,12.259c0,0,5.9-6.13,5.684-12.035
					L281.042,207.618z"/>
			</g>
			<g>
				<ellipse style="fill:#407BFF;" cx="305.76" cy="175.717" rx="55.885" ry="38.031"/>
				<ellipse style="opacity:0.7;fill:#FFFFFF;" cx="305.76" cy="175.717" rx="55.885" ry="38.031"/>
			</g>
		</g>
		<g>
			<path style="fill:#407BFF;" d="M292.026,124.62v70.896c0,3.878,3.144,7.021,7.021,7.021h32.604c1.363,0,2.678-0.382,3.813-1.074
				c-1.98-1.242-3.301-3.438-3.301-5.947V124.62H292.026z"/>
			<path style="opacity:0.4;fill:#FFFFFF;" d="M292.026,124.62v70.896c0,3.878,3.144,7.021,7.021,7.021h32.604
				c1.363,0,2.678-0.382,3.813-1.074c-1.98-1.242-3.301-3.438-3.301-5.947V124.62H292.026z"/>
			<g>
				<g>
					<rect x="303.299" y="130.638" style="fill:#407BFF;" width="23.363" height="1.186"/>
					<rect x="297.609" y="133.826" style="fill:#407BFF;" width="29.053" height="1.186"/>
					<rect x="297.609" y="137.013" style="fill:#407BFF;" width="29.053" height="1.186"/>
					<rect x="297.609" y="140.2" style="fill:#407BFF;" width="29.053" height="1.186"/>
					<rect x="297.609" y="143.388" style="fill:#407BFF;" width="29.053" height="1.186"/>
					<rect x="297.609" y="146.575" style="fill:#407BFF;" width="15.826" height="1.186"/>
				</g>
				<g>
					<rect x="303.299" y="171.199" style="fill:#407BFF;" width="23.363" height="1.186"/>
					<rect x="297.609" y="174.386" style="fill:#407BFF;" width="29.053" height="1.186"/>
					<rect x="297.609" y="177.573" style="fill:#407BFF;" width="29.053" height="1.186"/>
					<rect x="297.609" y="180.761" style="fill:#407BFF;" width="29.053" height="1.186"/>
					<rect x="297.609" y="183.948" style="fill:#407BFF;" width="29.053" height="1.186"/>
					<rect x="297.609" y="187.136" style="fill:#407BFF;" width="24.726" height="1.186"/>
				</g>
				<g>
					<rect x="303.299" y="152.95" style="fill:#407BFF;" width="23.363" height="1.186"/>
					<rect x="297.609" y="156.138" style="fill:#407BFF;" width="29.053" height="1.186"/>
					<rect x="297.609" y="159.325" style="fill:#407BFF;" width="29.053" height="1.186"/>
					<rect x="297.609" y="162.513" style="fill:#407BFF;" width="29.053" height="1.186"/>
					<rect x="297.609" y="165.262" style="fill:#407BFF;" width="15.826" height="1.186"/>
				</g>
			</g>
			<g>
				<g>
					<polygon style="fill:#263238;" points="282.358,130.195 278.576,121.582 278.614,121.566 278.038,120.254 277.993,120.272 
						276.45,120.922 276.45,120.922 272.042,122.776 272.618,124.089 277.026,122.234 280.808,130.847 					"/>
					<polygon style="opacity:0.5;fill:#FFFFFF;" points="282.358,130.195 278.576,121.582 278.614,121.566 278.038,120.254 
						277.993,120.272 276.45,120.922 276.45,120.922 272.042,122.776 272.618,124.089 277.026,122.234 280.808,130.847 					"/>
				</g>
				<path style="fill:#263238;" d="M280.516,154.113c-7.312-9.094-11.63-18.907-12.929-29.445l5.996-2.523
					c6.76,9.069,11.097,18.877,12.929,29.444L280.516,154.113z"/>
				<g>
					<polygon style="fill:#263238;" points="292.764,182.005 299.467,189.182 298.76,179.482 					"/>
					<polygon style="opacity:0.3;fill:#FFFFFF;" points="292.764,182.005 297.407,186.976 299.467,189.182 298.76,179.482 					"/>
					<polygon style="fill:#263238;" points="297.531,187.109 298.872,188.545 299.467,189.182 299.263,186.38 					"/>
				</g>
				<g>
					<polygon style="fill:#263238;" points="292.764,182.005 280.516,154.113 286.512,151.59 298.76,179.482 					"/>
					<polygon style="opacity:0.1;fill:#FFFFFF;" points="292.764,182.005 280.516,154.113 286.512,151.59 298.76,179.482 					"/>
				</g>
				<g>
					<path style="fill:#263238;" d="M267.587,124.668l5.996-2.523c0,0-0.577-2.112-3.694-0.917
						C266.771,122.423,267.587,124.668,267.587,124.668z"/>
					<path style="opacity:0.1;fill:#FFFFFF;" d="M267.587,124.668l5.996-2.523c0,0-0.577-2.112-3.694-0.917
						C266.771,122.423,267.587,124.668,267.587,124.668z"/>
				</g>
			</g>
		</g>
	</g>
</g>
<g id="Books">
	<g>
		<g>
			<path style="fill:#407BFF;" d="M333.18,386.034h76.366v15.925h-76.392C333.842,396.674,333.851,391.32,333.18,386.034z"/>
			<path style="opacity:0.7;fill:#FFFFFF;" d="M333.18,386.034h76.366v15.925h-76.392
				C333.842,396.674,333.851,391.32,333.18,386.034z"/>
			<g>
				<path style="fill:#407BFF;" d="M397.06,401.366c1.995-1.995,3.094-4.648,3.094-7.47c0-2.822-1.099-5.474-3.094-7.47
					l-1.431-1.431h24.002l0.245,0.246c2.312,2.312,3.585,5.386,3.585,8.655c0,3.27-1.273,6.344-3.585,8.655l-0.245,0.246h-24.002
					L397.06,401.366z"/>
			</g>
			<g style="opacity:0.3;">
				<path d="M397.06,401.366c1.995-1.995,3.094-4.648,3.094-7.47c0-2.822-1.099-5.474-3.094-7.47l-1.431-1.431h24.002l0.245,0.246
					c2.312,2.312,3.585,5.386,3.585,8.655c0,3.27-1.273,6.344-3.585,8.655l-0.245,0.246h-24.002L397.06,401.366z"/>
			</g>
			<g>
				<path style="fill:#407BFF;" d="M332.396,402.797h64.826l0.069-0.069c2.24-2.242,3.644-5.227,3.754-8.393
					c0.119-3.432-1.162-6.679-3.578-9.093l-0.245-0.246h-64.826c-0.463,0-0.838,0.375-0.838,0.838l0,0
					c0,0.463,0.375,0.838,0.838,0.838h64.124c1.845,1.965,2.857,4.517,2.857,7.224c0,2.708-1.012,5.26-2.857,7.224h-64.124
					c-0.463,0-0.838,0.375-0.838,0.838l0,0C331.557,402.422,331.933,402.797,332.396,402.797z"/>
			</g>
			<g>
				<path style="fill:#FFFFFF;" d="M339.173,391.971h3.667c0.347,0,0.629-0.282,0.629-0.629l0,0c0-0.347-0.281-0.629-0.629-0.629
					h-3.667c-0.347,0-0.629,0.282-0.629,0.629l0,0C338.544,391.689,338.826,391.971,339.173,391.971z"/>
			</g>
			<g>
				<path style="fill:#FFFFFF;" d="M347.659,391.971h34.05c0.347,0,0.629-0.282,0.629-0.629l0,0c0-0.347-0.281-0.629-0.629-0.629
					h-34.05c-0.347,0-0.629,0.282-0.629,0.629l0,0C347.031,391.689,347.312,391.971,347.659,391.971z"/>
			</g>
			<g>
				<path style="fill:#FFFFFF;" d="M386.319,391.971h7.544c0.347,0,0.629-0.282,0.629-0.629l0,0c0-0.347-0.281-0.629-0.629-0.629
					h-7.544c-0.347,0-0.629,0.282-0.629,0.629l0,0C385.69,391.689,385.972,391.971,386.319,391.971z"/>
			</g>
			<g>
				<path style="fill:#FFFFFF;" d="M339.173,397.279h32.269c0.347,0,0.629-0.281,0.629-0.629l0,0c0-0.347-0.281-0.629-0.629-0.629
					h-32.269c-0.347,0-0.629,0.281-0.629,0.629l0,0C338.544,396.998,338.826,397.279,339.173,397.279z"/>
			</g>
			<g>
				<path style="fill:#FFFFFF;" d="M376.157,397.279h17.706c0.347,0,0.629-0.281,0.629-0.629l0,0c0-0.347-0.281-0.629-0.629-0.629
					h-17.706c-0.347,0-0.629,0.281-0.629,0.629l0,0C375.528,396.998,375.81,397.279,376.157,397.279z"/>
			</g>
		</g>
		<g>
			<path style="fill:#407BFF;" d="M335.205,353.888h68.729v14.332h-68.753C335.8,363.465,335.809,358.645,335.205,353.888z"/>
			<path style="opacity:0.8;fill:#FFFFFF;" d="M335.205,353.888h68.729v14.332h-68.753
				C335.8,363.465,335.809,358.645,335.205,353.888z"/>
			<g>
				<path style="fill:#407BFF;" d="M392.697,367.687c1.796-1.796,2.785-4.183,2.785-6.723c0-2.539-0.989-4.927-2.785-6.723
					l-1.288-1.288h21.602l0.221,0.221c2.081,2.081,3.227,4.847,3.227,7.789c0,2.943-1.146,5.709-3.227,7.79l-0.221,0.221h-21.602
					L392.697,367.687z"/>
			</g>
			<g style="opacity:0.2;">
				<path style="fill:#FFFFFF;" d="M392.697,367.687c1.796-1.796,2.785-4.183,2.785-6.723c0-2.539-0.989-4.927-2.785-6.723
					l-1.288-1.288h21.602l0.221,0.221c2.081,2.081,3.227,4.847,3.227,7.789c0,2.943-1.146,5.709-3.227,7.79l-0.221,0.221h-21.602
					L392.697,367.687z"/>
			</g>
			<g>
				<path style="fill:#407BFF;" d="M334.499,368.975h58.343l0.062-0.062c2.016-2.018,3.28-4.704,3.379-7.554
					c0.107-3.089-1.046-6.011-3.22-8.184l-0.221-0.221h-58.343c-0.417,0-0.754,0.338-0.754,0.754l0,0
					c0,0.417,0.338,0.754,0.754,0.754h57.711c1.66,1.768,2.571,4.065,2.571,6.502c0,2.437-0.911,4.734-2.571,6.502h-57.711
					c-0.417,0-0.754,0.338-0.754,0.754l0,0C333.744,368.637,334.082,368.975,334.499,368.975z"/>
			</g>
			<g style="opacity:0.4;">
				<path style="fill:#FFFFFF;" d="M334.499,368.975h58.343l0.062-0.062c2.016-2.018,3.28-4.704,3.379-7.554
					c0.107-3.089-1.046-6.011-3.22-8.184l-0.221-0.221h-58.343c-0.417,0-0.754,0.338-0.754,0.754l0,0
					c0,0.417,0.338,0.754,0.754,0.754h57.711c1.66,1.768,2.571,4.065,2.571,6.502c0,2.437-0.911,4.734-2.571,6.502h-57.711
					c-0.417,0-0.754,0.338-0.754,0.754l0,0C333.744,368.637,334.082,368.975,334.499,368.975z"/>
			</g>
			<g>
				<path style="fill:#FFFFFF;" d="M340.598,359.231h3.3c0.313,0,0.566-0.253,0.566-0.566l0,0c0-0.312-0.253-0.566-0.566-0.566h-3.3
					c-0.312,0-0.566,0.253-0.566,0.566l0,0C340.033,358.978,340.286,359.231,340.598,359.231z"/>
			</g>
			<g>
				<path style="fill:#FFFFFF;" d="M348.236,359.231h30.645c0.312,0,0.566-0.253,0.566-0.566l0,0c0-0.312-0.253-0.566-0.566-0.566
					h-30.645c-0.313,0-0.566,0.253-0.566,0.566l0,0C347.67,358.978,347.923,359.231,348.236,359.231z"/>
			</g>
			<g>
				<path style="fill:#FFFFFF;" d="M383.03,359.231h6.789c0.313,0,0.566-0.253,0.566-0.566l0,0c0-0.312-0.253-0.566-0.566-0.566
					h-6.789c-0.313,0-0.566,0.253-0.566,0.566l0,0C382.464,358.978,382.717,359.231,383.03,359.231z"/>
			</g>
			<g>
				<path style="fill:#FFFFFF;" d="M340.598,364.009h29.042c0.313,0,0.566-0.253,0.566-0.566l0,0c0-0.312-0.253-0.566-0.566-0.566
					h-29.042c-0.312,0-0.566,0.253-0.566,0.566l0,0C340.033,363.755,340.286,364.009,340.598,364.009z"/>
			</g>
			<g>
				<path style="fill:#FFFFFF;" d="M373.884,364.009h15.935c0.313,0,0.566-0.253,0.566-0.566l0,0c0-0.312-0.253-0.566-0.566-0.566
					h-15.935c-0.312,0-0.566,0.253-0.566,0.566l0,0C373.318,363.755,373.571,364.009,373.884,364.009z"/>
			</g>
		</g>
		<g>
			<path style="fill:#407BFF;" d="M332.784,369.909h68.729v14.332h-68.753C333.38,379.486,333.388,374.666,332.784,369.909z"/>
			<path style="opacity:0.7;fill:#FFFFFF;" d="M332.784,369.909h68.729v14.332h-68.753
				C333.38,379.486,333.388,374.666,332.784,369.909z"/>
			<g>
				<path style="fill:#407BFF;" d="M390.277,383.708c1.796-1.796,2.785-4.183,2.785-6.723c0-2.539-0.989-4.927-2.785-6.723
					l-1.288-1.288h21.602l0.221,0.221c2.081,2.081,3.227,4.847,3.227,7.789c0,2.943-1.146,5.709-3.227,7.79l-0.221,0.221h-21.602
					L390.277,383.708z"/>
			</g>
			<g>
				<path style="fill:#407BFF;" d="M332.078,384.996h58.343l0.062-0.062c2.016-2.018,3.28-4.704,3.379-7.554
					c0.107-3.089-1.046-6.011-3.22-8.184l-0.221-0.221h-58.343c-0.417,0-0.754,0.338-0.754,0.754l0,0
					c0,0.417,0.338,0.754,0.754,0.754h57.711c1.66,1.768,2.571,4.065,2.571,6.502c0,2.437-0.911,4.734-2.571,6.502h-57.711
					c-0.417,0-0.754,0.338-0.754,0.754l0,0C331.324,384.658,331.662,384.996,332.078,384.996z"/>
			</g>
			<g style="opacity:0.3;">
				<path style="fill:#FFFFFF;" d="M332.078,384.996h58.343l0.062-0.062c2.016-2.018,3.28-4.704,3.379-7.554
					c0.107-3.089-1.046-6.011-3.22-8.184l-0.221-0.221h-58.343c-0.417,0-0.754,0.338-0.754,0.754l0,0
					c0,0.417,0.338,0.754,0.754,0.754h57.711c1.66,1.768,2.571,4.065,2.571,6.502c0,2.437-0.911,4.734-2.571,6.502h-57.711
					c-0.417,0-0.754,0.338-0.754,0.754l0,0C331.324,384.658,331.662,384.996,332.078,384.996z"/>
			</g>
			<g>
				<g>
					<path style="fill:#FFFFFF;" d="M387.399,378.898h-3.3c-0.312,0-0.566,0.253-0.566,0.566l0,0c0,0.313,0.253,0.566,0.566,0.566
						h3.3c0.312,0,0.566-0.253,0.566-0.566l0,0C387.965,379.151,387.711,378.898,387.399,378.898z"/>
				</g>
				<g>
					<path style="fill:#FFFFFF;" d="M379.761,378.898h-30.645c-0.312,0-0.566,0.253-0.566,0.566l0,0
						c0,0.313,0.253,0.566,0.566,0.566h30.645c0.313,0,0.566-0.253,0.566-0.566l0,0
						C380.327,379.151,380.074,378.898,379.761,378.898z"/>
				</g>
				<g>
					<path style="fill:#FFFFFF;" d="M344.967,378.898h-6.789c-0.312,0-0.566,0.253-0.566,0.566l0,0c0,0.313,0.253,0.566,0.566,0.566
						h6.789c0.313,0,0.566-0.253,0.566-0.566l0,0C345.533,379.151,345.28,378.898,344.967,378.898z"/>
				</g>
				<g>
					<path style="fill:#FFFFFF;" d="M387.399,374.121h-29.042c-0.313,0-0.566,0.253-0.566,0.566l0,0
						c0,0.313,0.253,0.566,0.566,0.566h29.042c0.312,0,0.566-0.253,0.566-0.566l0,0
						C387.965,374.374,387.711,374.121,387.399,374.121z"/>
				</g>
				<g>
					<path style="fill:#FFFFFF;" d="M354.114,374.121h-15.935c-0.312,0-0.566,0.253-0.566,0.566l0,0
						c0,0.313,0.253,0.566,0.566,0.566h15.935c0.313,0,0.566-0.253,0.566-0.566l0,0
						C354.679,374.374,354.426,374.121,354.114,374.121z"/>
				</g>
			</g>
		</g>
	</g>
</g>
<g id="Character">
	<g>
		<g>
			<g>
				<path style="fill:#E4897B;" d="M255.176,289.142l14.073,7.101c4.735,2.348,9.469,4.674,14.208,6.892
					c4.726,2.244,9.485,4.336,14.165,6.289c2.347,0.977,4.674,1.857,6.962,2.662c2.286,0.798,4.526,1.538,6.553,2.035
					c1.01,0.255,1.954,0.446,2.745,0.574c0.401,0.059-0.046,0.02-0.208,0.059c-0.134,0.008-0.27,0.053-0.286,0.064
					c-0.074,0.04-0.002,0.023,0.008,0.05c0.082-0.018,0.119,0.011,0.252-0.024c0.445-0.073,1.225-0.307,2.086-0.644
					c0.867-0.344,1.825-0.793,2.808-1.307c1.979-1.025,4.031-2.315,6.124-3.646c2.093-1.343,4.194-2.791,6.284-4.305
					c8.406-6.003,16.79-12.826,25.141-19.402l9.273,8.57c-3.266,4.669-6.681,8.981-10.302,13.269
					c-3.609,4.277-7.41,8.414-11.468,12.448c-4.113,4.001-8.362,7.927-13.621,11.564c-1.324,0.913-2.725,1.813-4.283,2.686
					c-1.566,0.875-3.286,1.72-5.434,2.446c-0.51,0.184-1.138,0.352-1.71,0.514c-0.656,0.152-1.243,0.306-1.993,0.416
					c-0.686,0.122-1.5,0.2-2.312,0.245c-0.84,0.034-1.967-0.007-2.239-0.037c-1.912-0.109-3.654-0.323-5.307-0.586
					c-3.301-0.536-6.307-1.222-9.201-2.039c-2.891-0.813-5.702-1.685-8.433-2.622c-5.489-1.841-10.742-3.955-15.927-6.133
					c-5.173-2.203-10.251-4.521-15.252-6.969c-2.5-1.225-4.993-2.458-7.457-3.755c-2.494-1.289-4.874-2.588-7.43-4.022
					L255.176,289.142z"/>
				<g>
					<polygon style="opacity:0.2;" points="378.747,258.499 381.317,257.45 381.68,256.704 					"/>
					<path style="fill:#E4897B;" d="M384.744,255.679l-8.269,4.54l-7.29,4.099l14.328,11.867c0,0,4.03-7.001,4.606-9.835
						C388.408,264.926,384.744,255.679,384.744,255.679z"/>
					<path style="fill:#E4897B;" d="M367.316,262.988c0,0,2.632-5.247,3.318-5.926c0.696-0.689,11.689-0.358,11.689-0.358
						l-1.78,1.282l-4.439,4.016l-4.481,4.051L367.316,262.988z"/>
					<path style="fill:#E4897B;" d="M355.899,286.147l11.417-23.16l16.563,11.784c0,0-3.874,18.614-18.888,19.408L355.899,286.147z"
						/>
					<g>
						<g>
							
								<rect x="338.621" y="266.444" transform="matrix(0.8529 -0.5221 0.5221 0.8529 -85.9497 230.5764)" style="fill:#263238;" width="55.055" height="2.698"/>
							<polygon style="fill:#263238;" points="390.331,254.571 394.965,250.152 388.922,252.27 							"/>
							<polygon style="opacity:0.3;fill:#FFFFFF;" points="390.331,254.571 393.541,251.51 394.965,250.152 388.922,252.27 							
								"/>
							<polygon style="fill:#263238;" points="393.626,251.428 394.554,250.544 394.965,250.152 393.22,250.764 							"/>
						</g>
						<polygon style="opacity:0.2;" points="365.544,266.581 363.311,271.112 361.894,271.975 363.873,267.605 						"/>
						<polygon style="opacity:0.2;" points="373.677,261.603 372.733,265.368 371.623,266.052 366.22,267.836 366.885,265.76 						
							"/>
					</g>
					<path style="opacity:0.2;" d="M371.623,266.052l-4.866,1.722l-3.603,4.964l3.951,11.656c4.806-4.136,4.615-7.747,1.75-11.077
						l-1.71-1.964c2.635-1.078,5.098-2.24,6.26-4.033l5.512-5.19c4.008-1.777,6.299-3.386,6.631-4.265l-0.06-0.33l-6.895,4.221
						L371.623,266.052z"/>
					<g>
						<path style="fill:#E4897B;" d="M355.899,286.147c0,0-0.777-7.519,0.35-11.042c1.127-3.523,7.12-8.547,8.124-9.653
							c1.004-1.105,7.692-2.175,7.692-2.175c-0.339,1.576-0.98,2.876-2.522,3.358l-2.786,1.138l-3.603,4.964
							c0,0,5.955,3.588,6.075,6.415c0.12,2.827-7.065,12.529-7.065,12.529L355.899,286.147z"/>
					</g>
				</g>
			</g>
			<g>
				<path style="fill:#407BFF;" d="M204.626,285.352c3.644,33.797,58.486,44.42,58.486,44.42l11.281-35.431
					c0,0-17.95-13.995-36.3-25.337C218.866,257.121,202.707,267.554,204.626,285.352z"/>
				<path style="opacity:0.2;" d="M257.805,328.51c-6.736-6.133-11.407-15.175-14.618-26.273l-3.755,19.925
					C245.557,324.787,251.681,326.903,257.805,328.51z"/>
			</g>
		</g>
		<g>
			<path style="fill:#407BFF;" d="M235.428,266.838c0,0,20.476,52.766,0.668,150.892c-28.134-0.068-79.683-0.193-93.373-0.226
				c-0.609-14.335,5.882-81.433-7.779-149.002c0,0,3.831-4.678,33.952-6.672c11.919-0.789,29.206-0.885,39.692,0.098
				C222.413,263.223,235.428,266.838,235.428,266.838z"/>
			<path style="opacity:0.6;fill:#FAFAFA;" d="M244.522,348.6c-0.124,3.566-0.303,7.244-0.549,11.034
				c-0.202,3.061-0.438,6.213-0.718,9.431c-0.347,3.846-0.751,7.794-1.245,11.842c-0.381,3.308-0.819,6.684-1.301,10.126
				c-0.594,4.149-1.256,8.388-2.007,12.739c-0.774,4.542-1.637,9.195-2.602,13.961c-28.136-0.067-79.687-0.191-93.379-0.224
				c-0.135-3.117,0.067-8.736,0.325-16.305c0.112-3.028,0.224-6.381,0.325-10.003c0.079-2.635,0.146-5.428,0.202-8.343
				c0.067-3.241,0.123-6.65,0.146-10.216c0.022-2.77,0.022-5.629,0.011-8.579c-0.011-3.409-0.056-6.93-0.134-10.541
				c-0.045-2.68-0.124-5.405-0.213-8.175c-0.325-9.846-0.92-20.275-1.895-31.063c-1.346-14.814-3.42-30.289-6.549-45.787
				c0,0,3.835-4.676,33.956-6.672c11.92-0.785,29.201-0.886,39.697,0.101c13.815,1.301,26.835,4.912,26.835,4.912
				S246.384,295.053,244.522,348.6z"/>
			<path style="opacity:0.2;" d="M153.117,309.979c0,0-0.83,22.282-9.734,35.369c-0.325-9.846-0.92-20.275-1.895-31.063
				C145.133,311.515,149.102,309.855,153.117,309.979z"/>
		</g>
		<g>
			<path style="fill:#E4897B;" d="M167.695,220.644c3.684,12.482,8.355,35.547,0.253,44.865
				c12.668,4.036,21.787,6.704,32.991,15.022c2.942-8.155,6.528-18.724,6.528-18.724c-14.497-2.057-15.116-12.612-13.572-22.723
				L167.695,220.644z"/>
			<path style="opacity:0.2;" d="M178.377,228.17l15.506,10.906c-0.374,2.394-0.612,4.808-0.561,7.129
				c-5.49-0.275-13.489-5.525-14.595-11.142C178.175,232.26,178.039,229.53,178.377,228.17z"/>
		</g>
		<g>
			<polygon style="fill:#407BFF;" points="157.092,262.784 166.036,254.367 190.012,262.603 200.493,278.71 204.409,262.385 
				209.822,257.492 219.314,263.298 217.848,273.654 210.981,270.292 202.698,283.861 184.164,272.983 178.995,277.937 			"/>
			<polygon style="opacity:0.2;" points="202.698,283.861 207.535,266.901 217.848,273.654 210.981,270.292 			"/>
			<polygon style="opacity:0.2;" points="202.698,283.861 186.361,267.859 178.995,277.937 184.164,272.983 			"/>
		</g>
		<g>
			<path style="fill:#E4897B;" d="M173.654,304.373l10.039,12.154c3.394,4.051,6.796,8.083,10.246,12.016
				c3.428,3.953,6.947,7.779,10.449,11.447c1.757,1.837,3.536,3.578,5.308,5.233c1.773,1.648,3.528,3.225,5.185,4.494
				c0.823,0.639,1.61,1.193,2.284,1.628c0.344,0.215-0.05-0.001-0.215-0.029c-0.126-0.046-0.269-0.06-0.288-0.057
				c-0.084,0.007-0.011,0.02-0.012,0.049c0.082,0.017,0.105,0.058,0.24,0.079c0.437,0.112,1.245,0.21,2.169,0.248
				c0.932,0.033,1.99,0.006,3.096-0.069c2.224-0.144,4.622-0.502,7.072-0.881c2.456-0.39,4.962-0.873,7.483-1.421
				c10.109-2.124,20.822-4.043,31.111-6.714l4.757,10.609c-4.865,2.965-9.724,5.543-14.762,8.017
				c-5.022,2.468-10.165,4.731-15.501,6.797c-5.373,2.013-10.841,3.903-17.117,5.123c-1.58,0.305-3.223,0.567-5.001,0.741
				c-1.785,0.172-3.7,0.256-5.959,0.059c-0.541-0.036-1.184-0.135-1.773-0.216c-0.662-0.124-1.261-0.219-1.992-0.419
				c-0.677-0.164-1.454-0.419-2.216-0.703c-0.782-0.306-1.799-0.796-2.036-0.933c-1.707-0.867-3.217-1.763-4.626-2.667
				c-2.809-1.816-5.286-3.651-7.608-5.561c-2.322-1.905-4.546-3.832-6.671-5.788c-4.288-3.89-8.251-7.935-12.125-12.011
				c-3.853-4.095-7.574-8.256-11.172-12.505c-1.798-2.126-3.586-4.256-5.322-6.433c-1.767-2.182-3.425-4.327-5.19-6.667
				L173.654,304.373z"/>
			<path style="fill:#407BFF;" d="M128.138,279.392c-10.231,32.416,35.733,64.163,35.733,64.163l24.556-27.922
				c0,0-10.821-20.024-23.075-37.778C152.514,259.253,133.526,262.32,128.138,279.392z"/>
			<g>
				<path style="fill:#E4897B;" d="M266.405,342.956c0,0,4.629-7.162,6.559-8.301c1.993-1.176,10.224-6.373,10.224-6.373
					l8.713,5.751l-1.642,1.748l-7.001-0.32l-5.095,1.83l-1.729,8.333l-7.38,8.729L266.405,342.956z"/>
				<polygon style="opacity:0.2;" points="286.535,332.116 285.877,331.905 283.479,332.879 284.929,332.98 				"/>
				<g>
					<g>
						<path style="fill:#407BFF;" d="M299.142,298.306l2.757-3.894c12.731,4.341,31.667,7.887,32.937,12.255
							c-0.876-3.753,9.596-5.1,15.904-7.565l2.101,0.804l-17.418,23.689L299.142,298.306z"/>
						<path style="opacity:0.6;fill:#FFFFFF;" d="M299.142,298.306l2.757-3.894c12.731,4.341,31.667,7.887,32.937,12.255
							c-0.876-3.753,9.596-5.1,15.904-7.565l2.101,0.804l-17.418,23.689L299.142,298.306z"/>
					</g>
					<g>
						<polygon style="fill:#263238;" points="296.072,294.279 270.417,361.311 305.76,377.61 312.698,377.099 328.185,366.427 
							354.135,298.624 338.958,308.485 332.34,308.16 						"/>
						<polygon style="opacity:0.3;fill:#FFFFFF;" points="296.072,294.279 270.417,361.311 305.76,377.61 332.34,308.16 						"/>
						<polygon style="opacity:0.3;fill:#FFFFFF;" points="338.958,308.485 312.698,377.099 328.185,366.427 354.135,298.624 						
							"/>
						<polygon style="opacity:0.1;fill:#FFFFFF;" points="305.76,377.61 312.698,377.099 338.958,308.485 332.34,308.16 						"/>
					</g>
				</g>
				<path style="fill:#E4897B;" d="M304.662,338.12c-0.003-0.007-0.011-0.016-0.014-0.023c0.034-0.043-0.022-0.155-0.238-0.385
					c-0.946-1.005-9.48-9.362-10.157-9.363c-0.602-0.001-27.849,14.607-27.849,14.607l2.649,11.397
					c12.24,7.776,25.614-4.921,25.614-4.921v0l3.503-2.849c0,0,2.873,1.638,3.732,1.561
					C302.369,348.103,305.293,339.582,304.662,338.12z M290.001,335.966L290.001,335.966 M290.304,336.841l1.074,3.1l2.337,6.744
					L290.304,336.841z"/>
			</g>
		</g>
		<g>
			<g>
				<path style="fill:#263238;" d="M213.955,163.986c0,0,10.151,26.231-1.941,39.869c-12.092,13.638-23.305-36.896-23.305-36.896
					L213.955,163.986z"/>
				<path style="opacity:0;fill:#FFFFFF;" d="M213.955,163.986c0,0,10.151,26.231-1.941,39.869
					c-12.092,13.638-23.305-36.896-23.305-36.896L213.955,163.986z"/>
				<path style="fill:#E4897B;" d="M174.971,234.712c9.22,8.497,21.206,8.598,30.409,3.269c5.92-3.416,10.68-9.1,12.831-16.23
					c0.293-0.932,0.524-1.904,0.725-2.895c3.411-18.162-0.773-47.68-20.727-54.663c-14.194-5.08-29.854,2.313-34.928,16.532
					c-1.471,4.033-1.929,8.368-1.402,12.642C164.028,213.241,164.356,225.026,174.971,234.712z"/>
				<path style="fill:#263238;" d="M192.453,197.457c-0.033,1.616,0.993,2.895,2.072,2.84c1.08-0.055,1.852-1.425,1.783-3.044
					c-0.069-1.619-1.019-2.896-2.072-2.841C193.182,194.468,192.384,195.812,192.453,197.457z"/>
				<path style="fill:#263238;" d="M210.828,196.551c-0.034,1.617,1.019,2.896,2.072,2.841c1.054-0.055,1.852-1.425,1.783-3.044
					c-0.069-1.619-1.019-2.896-2.072-2.841C211.557,193.562,210.757,195.009,210.828,196.551z"/>
				<path style="fill:#DE5753;" d="M205.029,197.638c2.18,4.876,5.024,9.427,8.451,13.524c-2.181,1.727-5.014,2.402-7.74,1.844
					L205.029,197.638z"/>
				<path style="fill:#263238;" d="M186.459,191.788c0.355,0.032,0.701-0.127,0.907-0.418c1.321-2.039,3.527-3.336,5.951-3.497
					c0.524,0.012,0.959-0.403,0.971-0.928c0.012-0.524-0.403-0.959-0.928-0.971c-0.001,0-0.002,0-0.004,0
					c-3.07,0.126-5.888,1.733-7.56,4.311c-0.308,0.424-0.214,1.018,0.211,1.326c0.006,0.005,0.013,0.009,0.019,0.013
					C186.161,191.701,186.307,191.756,186.459,191.788z"/>
				<path style="fill:#263238;" d="M218.411,189.826c0.182,0.063,0.38,0.067,0.564,0.012c0.464-0.245,0.642-0.82,0.396-1.283
					c-0.003-0.006-0.006-0.012-0.009-0.019c-1.42-2.736-4.082-4.61-7.137-5.025c-0.523-0.039-0.979,0.352-1.019,0.875l-0.001,0.002
					c-0.026,0.52,0.36,0.968,0.878,1.02l0,0c2.402,0.397,4.474,1.906,5.59,4.069C217.857,189.696,218.127,189.823,218.411,189.826z"
					/>
				<path style="fill:#263238;" d="M175.299,167.743l1.923,8.665c-2.727,1.812-4.146,5.225-2.484,8.55
					c3.548,7.101,0.475,18.946-4.74,24.058c0,0-0.486-3.179-3.108-2.159c-2.622,1.02-0.261,17.586,5.769,25.012
					c0,0-8.652-6.406-14.841-23.437c-5.724-15.751-7.549-29.164-4.837-35.737L175.299,167.743z"/>
				<path style="opacity:0;fill:#FFFFFF;" d="M175.299,167.743l1.923,8.665c-2.727,1.812-4.146,5.225-2.484,8.55
					c3.548,7.101,0.475,18.946-4.74,24.058c0,0-0.486-3.179-3.108-2.159c-2.622,1.02-0.261,17.586,5.769,25.012
					c0,0-8.652-6.406-14.841-23.437c-5.724-15.751-7.549-29.164-4.837-35.737L175.299,167.743z"/>
				<path style="fill:#E4897B;" d="M153.966,210.165c2.437,4.407,6.522,7.669,11.36,9.068c6.419,1.808,9.641-3.937,7.886-10.011
					c-1.612-5.383-6.871-12.994-13.33-12.065C153.421,198.087,151.042,204.717,153.966,210.165z"/>
				<path style="fill:#263238;" d="M177.222,176.408c0,0,34.513,5.502,40.178-10.124c5.665-15.626-17.747-24.702-21.45-22.82
					c-3.703,1.882,1.096,5.505,1.096,5.505s-22.106-5.901-25.783-2.499c-3.678,3.403,4.908,4.365,4.908,4.365
					s-36.25,5.975-24.385,28.08C151.784,178.915,162.888,172.612,177.222,176.408z"/>
				<g>
					<path style="fill:#263238;" d="M205.105,218.641c-1.61,2.879-3.41,8.369-3.41,8.369c-0.527-0.073-1.054-0.147-1.576-0.248
						c-7.12-1.176-10.034-4.074-11.106-6.93c-0.58-1.564-0.59-3.133-0.434-4.384c0.166-1.449,0.614-2.444,0.614-2.444
						c3.402,2.878,9.955,4.486,13.491,5.198C204.161,218.516,205.105,218.641,205.105,218.641z"/>
					<path style="fill:#FFFFFF;" d="M202.684,218.202l-1.07,2.442c-6.703-1.124-11.272-2.815-13.035-5.195
						c0.166-1.449,0.614-2.444,0.614-2.444C192.595,215.883,199.148,217.491,202.684,218.202z"/>
					<path style="fill:#DD5753;" d="M200.119,226.762c-7.12-1.176-10.034-4.074-11.106-6.93c2.411,0.494,5.263,1.358,7.647,2.873
						C198.488,223.856,199.512,225.335,200.119,226.762z"/>
				</g>
			</g>
			<g>
				<g>
					<path style="fill:#263238;" d="M194.719,207.399c-0.731,0.146-1.487,0.191-2.251,0.131c-2.18-0.171-4.162-1.18-5.583-2.842
						c-1.421-1.662-2.109-3.778-1.938-5.957c0.171-2.18,1.18-4.163,2.842-5.583c1.662-1.421,3.778-2.107,5.958-1.938
						c2.18,0.171,4.162,1.18,5.583,2.842c1.421,1.662,2.109,3.778,1.938,5.957c-0.171,2.18-1.18,4.163-2.842,5.583
						C197.346,206.515,196.075,207.129,194.719,207.399z M191.595,191.832c-1.273,0.253-2.467,0.83-3.481,1.697
						c-1.561,1.334-2.508,3.195-2.669,5.242c-0.16,2.046,0.486,4.033,1.82,5.594c1.334,1.56,3.195,2.508,5.242,2.668
						c2.046,0.161,4.033-0.486,5.594-1.82c1.56-1.334,2.508-3.195,2.668-5.242c0.16-2.046-0.486-4.033-1.82-5.594
						c-1.334-1.56-3.195-2.508-5.242-2.668C192.991,191.652,192.281,191.695,191.595,191.832z"/>
				</g>
				<g>
					<path style="fill:#263238;" d="M215.701,205.853c-0.719,0.143-1.468,0.191-2.234,0.131c-4.5-0.353-7.874-4.3-7.521-8.8
						c0.171-2.18,1.18-4.163,2.842-5.583c1.662-1.421,3.778-2.108,5.958-1.938c2.179,0.171,4.162,1.18,5.583,2.842
						c1.421,1.662,2.109,3.778,1.938,5.958l0,0C221.973,202.197,219.205,205.156,215.701,205.853z M212.593,190.285
						c-1.273,0.253-2.467,0.83-3.481,1.697c-1.561,1.334-2.508,3.195-2.669,5.242c-0.331,4.225,2.837,7.931,7.062,8.262
						c4.226,0.333,7.931-2.836,8.262-7.061c0.16-2.047-0.486-4.033-1.82-5.594c-1.334-1.561-3.195-2.508-5.242-2.669
						C213.989,190.105,213.279,190.148,212.593,190.285z M222.017,198.444l0.006-0.001L222.017,198.444z"/>
				</g>
				<g>
					<path style="fill:#263238;" d="M206.221,198.264c-0.097,0.019-0.2-0.02-0.258-0.107c-0.411-0.624-0.933-0.979-1.551-1.054
						c-1.548-0.188-3.253,1.372-3.27,1.389c-0.102,0.093-0.26,0.088-0.353-0.013c-0.094-0.101-0.088-0.259,0.013-0.353
						c0.076-0.071,1.89-1.733,3.669-1.519c0.772,0.093,1.415,0.522,1.91,1.275c0.076,0.115,0.044,0.271-0.071,0.346
						C206.281,198.246,206.251,198.258,206.221,198.264z"/>
				</g>
				<g>
					<path style="fill:#263238;" d="M185.245,198.996c-0.017,0.003-0.034,0.005-0.051,0.005l-17.483-0.16
						c-0.138-0.001-0.249-0.114-0.248-0.252c0.001-0.138,0.113-0.255,0.252-0.247l17.483,0.16c0.138,0.001,0.249,0.114,0.248,0.252
						C185.445,198.873,185.359,198.973,185.245,198.996z"/>
				</g>
			</g>
		</g>
	</g>
	<g>
		<rect x="80.03" y="401.931" style="fill:#407BFF;" width="338.976" height="15.803"/>
		<rect x="80.03" y="401.931" style="opacity:0.2;fill:#FAFAFA;" width="338.976" height="15.803"/>
		<path style="fill:#407BFF;" d="M424.074,401.931H75.926c-2.182,0-3.951,1.769-3.951,3.951l0,0c0,2.182,1.769,3.951,3.951,3.951
			h348.148c2.182,0,3.951-1.769,3.951-3.951l0,0C428.025,403.7,426.256,401.931,424.074,401.931z"/>
		<path style="opacity:0.4;fill:#FAFAFA;" d="M424.074,401.931H75.926c-2.182,0-3.951,1.769-3.951,3.951l0,0
			c0,2.182,1.769,3.951,3.951,3.951h348.148c2.182,0,3.951-1.769,3.951-3.951l0,0C428.025,403.7,426.256,401.931,424.074,401.931z"
			/>
	</g>
</g>
<g id="Sheets">
	<g>
		<polygon style="fill:#407BFF;" points="84.321,401.49 84.321,374.01 185.034,374.01 185.034,402.07 		"/>
		<polygon style="opacity:0.7;fill:#FFFFFF;" points="84.321,401.49 84.321,374.01 185.034,374.01 185.034,402.07 		"/>
		<rect x="135.339" y="374.01" style="opacity:0.2;" width="49.694" height="28.06"/>
		<polygon style="fill:#407BFF;" points="84.321,377.946 79.864,379.321 128.53,379.321 		"/>
		<polygon style="fill:#407BFF;" points="84.321,388.04 135.339,389.34 178.502,389.34 136.283,391.676 		"/>
		<polygon style="fill:#407BFF;" points="128.53,396.53 84.321,396.53 79.864,397.853 		"/>
		<polygon style="fill:#407BFF;" points="139.961,378.634 185.034,378.156 187.483,379.321 		"/>
		<polygon style="fill:#407BFF;" points="147.8,395.233 185.034,395.233 187.483,397.853 		"/>
		<polygon style="opacity:0.5;fill:#FFFFFF;" points="84.321,377.946 79.864,379.321 128.53,379.321 		"/>
		<polygon style="opacity:0.7;fill:#FFFFFF;" points="84.321,388.04 135.339,389.34 178.502,389.34 136.283,391.676 		"/>
		<polygon style="opacity:0.5;fill:#FFFFFF;" points="128.53,396.53 84.321,396.53 79.864,397.853 		"/>
		<polygon style="opacity:0.7;fill:#FFFFFF;" points="139.961,378.634 185.034,378.156 187.483,379.321 		"/>
		<polyline style="opacity:0.7;fill:#FFFFFF;" points="187.483,397.853 147.8,395.233 185.034,395.233 		"/>
	</g>
</g>
</svg>
